<svg xmlns="http://www.w3.org/2000/svg" viewBox="0 0 110.81 31.68"><defs><style>.cls-1{fill:#00255f;}</style></defs><g id="Layer_2" data-name="Layer 2"><g id="OBJECTS"><path class="cls-1" d="M21.94,22.71c0,5-3.36,9-9.75,9H0V0H10.66C16,0,18.82,3.26,18.82,7.49a6.89,6.89,0,0,1-4.27,6.62C19.39,14.93,21.94,18.34,21.94,22.71ZM1.54,6.37v7.36h9c4.56,0,6.72-2.69,6.72-6.19,0-3.22-1.87-6.24-6.72-6.2l-4,0A5,5,0,0,0,1.54,6.37ZM20.35,22.75c0-4.22-2.83-7.63-8.25-7.63H1.54V26.49a3.8,3.8,0,0,0,3.8,3.8H12.1C17.52,30.29,20.35,26.93,20.35,22.75Z"/><path class="cls-1" d="M43.56,15.33,24.88,22.65a10.19,10.19,0,0,0,13.33,6A11.89,11.89,0,0,0,42,26.08,18.42,18.42,0,0,0,47,17l1.44-.23a19,19,0,0,1-6.26,11.06A12.12,12.12,0,0,1,38.72,30a11.81,11.81,0,0,1-15.33-6.89A11.7,11.7,0,0,1,29.74,7.7,9.86,9.86,0,0,1,43,13.44,16.41,16.41,0,0,1,43.56,15.33Zm-19.13,6,17.34-6.8A8.49,8.49,0,0,0,30.16,9C25.29,10.94,23,16.22,24.43,21.38Z"/><path class="cls-1" d="M56.9,29.19v1.29a12.09,12.09,0,0,1-3.41.48C49.94,31,47,29.23,47,24.48V8.78H42.88V7.44H47V.72h1.44V7.44l8.47,0,.51,1.34-9,0v15.7c0,4,2.35,5.14,5.14,5.14A14.54,14.54,0,0,0,56.9,29.19Z"/><path class="cls-1" d="M88.79,19.27s0,0,0,.07L84.91,30.92h-.72L75.53,10.26a.19.19,0,0,0-.35,0L66.57,30.92h-.72L56.92,7.4h1.46a.19.19,0,0,1,.17.12L66,27.69a.19.19,0,0,0,.35,0L75,6.92h.72l8.64,20.77a.19.19,0,0,0,.35,0c1.3-3.76,3.83-11.22,3.89-11.3S88.79,19.27,88.79,19.27Z"/><path class="cls-1" d="M87.15,17.65a11.83,11.83,0,1,1,23.66,0,11.83,11.83,0,1,1-23.66,0Zm22.13,0a10.3,10.3,0,1,0-20.6,0c0,6,4.42,10.61,10.23,10.61A10.35,10.35,0,0,0,109.28,17.65Z"/></g></g></svg>