<svg xmlns="http://www.w3.org/2000/svg" viewBox="0 0 471.74 276.08"><defs><style>.cls-1,.cls-2{fill:#2e3192;}.cls-2{fill-rule:evenodd;}.cls-3{fill:#f2f2f2;}</style></defs><g id="Layer_2" data-name="Layer 2"><g id="Layer_1-2" data-name="Layer 1"><path class="cls-1" d="M33.46,250.6a31.69,31.69,0,0,1-17-4.7,33.86,33.86,0,0,1-12-12.83A37.59,37.59,0,0,1,0,214.77a39.92,39.92,0,0,1,4.06-18.24,32.76,32.76,0,0,1,11.09-12.76A28,28,0,0,1,31,179.07a28.09,28.09,0,0,1,13.21,3.16,30.13,30.13,0,0,1,10.19,8.57V156a6.54,6.54,0,0,1,1.75-4.77,5.93,5.93,0,0,1,4.43-1.8,5.86,5.86,0,0,1,4.48,1.8,6.68,6.68,0,0,1,1.7,4.77v58.77a37.7,37.7,0,0,1-4.42,18.3A34,34,0,0,1,50.43,245.9,31.4,31.4,0,0,1,33.46,250.6Zm0-11.6a19.75,19.75,0,0,0,11-3.16,21.79,21.79,0,0,0,7.63-8.7,27.08,27.08,0,0,0,2.79-12.37,26.61,26.61,0,0,0-2.79-12.37,22,22,0,0,0-7.63-8.57,19.75,19.75,0,0,0-11-3.16,19.78,19.78,0,0,0-11,3.16,22.26,22.26,0,0,0-7.76,8.57,26.15,26.15,0,0,0-2.85,12.37,26.61,26.61,0,0,0,2.85,12.37,22,22,0,0,0,7.76,8.7A19.78,19.78,0,0,0,33.46,239Z"/><path class="cls-1" d="M134.07,247.26a34.75,34.75,0,0,1-18.35,2,32.51,32.51,0,0,1-15.89-7.56,37.76,37.76,0,0,1-10.61-15.78A39.81,39.81,0,0,1,86.63,207a31.1,31.1,0,0,1,20.73-26.1,29,29,0,0,1,16.77-1.51,28.36,28.36,0,0,1,14,7.85,42.78,42.78,0,0,1,9.64,15.59,5.58,5.58,0,0,1-.06,4.36,5.39,5.39,0,0,1-3.18,2.91L98.75,227.15l-3.61-9.66,45.43-17-3.39,5.12a29.06,29.06,0,0,0-6.31-10,19.32,19.32,0,0,0-8.94-5.26,17.5,17.5,0,0,0-10.69.83,21,21,0,0,0-9.95,7.15,20.28,20.28,0,0,0-3.9,10.87,30.48,30.48,0,0,0,2,12.79,25.77,25.77,0,0,0,7.26,10.77,22.78,22.78,0,0,0,10.9,5.29,23.18,23.18,0,0,0,12.59-1.26,21.79,21.79,0,0,0,6.7-4.08,23.66,23.66,0,0,0,4.77-5.42,6.62,6.62,0,0,1,3.17-2.77,5.12,5.12,0,0,1,3.94,0,6.24,6.24,0,0,1,3.53,3.22,4.7,4.7,0,0,1-.42,4.42,33.05,33.05,0,0,1-7.62,8.89A34.37,34.37,0,0,1,134.07,247.26Z"/><path class="cls-1" d="M198.52,250.6a32.12,32.12,0,0,1-17.27-4.7,33.11,33.11,0,0,1-11.88-12.76,38.08,38.08,0,0,1-4.3-18.24,39.46,39.46,0,0,1,4.24-18.56A32.13,32.13,0,0,1,181,183.64a31.63,31.63,0,0,1,17-4.57A29.5,29.5,0,0,1,211,182a31.66,31.66,0,0,1,10.66,8.7,4.82,4.82,0,0,1,1.22,4.25,6.8,6.8,0,0,1-2.67,3.87,4.4,4.4,0,0,1-3.76.84,7.26,7.26,0,0,1-3.76-2.26,18.94,18.94,0,0,0-14.78-6.7,19.75,19.75,0,0,0-10.91,3,20.52,20.52,0,0,0-7.4,8.44A28.54,28.54,0,0,0,177,214.9a27.09,27.09,0,0,0,2.72,12.37,21.6,21.6,0,0,0,7.58,8.57A20.14,20.14,0,0,0,198.52,239a23.17,23.17,0,0,0,7.46-1.09,17.5,17.5,0,0,0,5.88-3.42,7.1,7.1,0,0,1,4-1.87,4.56,4.56,0,0,1,3.63,1.23,6.25,6.25,0,0,1,2.31,4.06,5,5,0,0,1-1.46,4.06Q211.61,250.6,198.52,250.6Z"/><path class="cls-1" d="M271.37,250.6A32.66,32.66,0,0,1,254,246a32.23,32.23,0,0,1-11.82-12.64,42.18,42.18,0,0,1,0-37.11A32.37,32.37,0,0,1,254,183.64a34.94,34.94,0,0,1,34.55,0,32.35,32.35,0,0,1,11.81,12.64,42.36,42.36,0,0,1,.06,37.11A31.71,31.71,0,0,1,288.71,246,32.67,32.67,0,0,1,271.37,250.6Zm0-11.6a20.29,20.29,0,0,0,11.15-3.09,21.09,21.09,0,0,0,7.58-8.51,27.39,27.39,0,0,0,2.73-12.5,27.87,27.87,0,0,0-2.73-12.57,21,21,0,0,0-7.58-8.57,21.66,21.66,0,0,0-22.3,0,21.5,21.5,0,0,0-7.64,8.57,27.36,27.36,0,0,0-2.78,12.57,26.89,26.89,0,0,0,2.78,12.5,21.6,21.6,0,0,0,7.64,8.51A20.29,20.29,0,0,0,271.37,239Z"/><path class="cls-1" d="M353.19,250.6a31.68,31.68,0,0,1-17-4.7,33.86,33.86,0,0,1-12-12.83,37.59,37.59,0,0,1-4.42-18.3,39.92,39.92,0,0,1,4.06-18.24,32.68,32.68,0,0,1,11.09-12.76A29.18,29.18,0,0,1,364,182.23a30,30,0,0,1,10.18,8.57V156a6.54,6.54,0,0,1,1.76-4.77,6.41,6.41,0,0,1,8.91,0,6.68,6.68,0,0,1,1.7,4.77v58.77a37.6,37.6,0,0,1-4.43,18.3,34,34,0,0,1-11.94,12.83A31.35,31.35,0,0,1,353.19,250.6Zm0-11.6a19.72,19.72,0,0,0,11-3.16,21.74,21.74,0,0,0,7.64-8.7,27.08,27.08,0,0,0,2.79-12.37,26.61,26.61,0,0,0-2.79-12.37,22,22,0,0,0-7.64-8.57,20.73,20.73,0,0,0-22,0,22.33,22.33,0,0,0-7.76,8.57,26.27,26.27,0,0,0-2.84,12.37,26.73,26.73,0,0,0,2.84,12.37,22.09,22.09,0,0,0,7.76,8.7A19.83,19.83,0,0,0,353.19,239Z"/><path class="cls-1" d="M438.41,250.6a31.65,31.65,0,0,1-17-4.7,33.7,33.7,0,0,1-12-12.83,37.49,37.49,0,0,1-4.43-18.3A39.92,39.92,0,0,1,409,196.53a32.84,32.84,0,0,1,11.09-12.76,29.2,29.2,0,0,1,29.1-1.54,30.09,30.09,0,0,1,10.18,8.57V156a6.5,6.5,0,0,1,1.76-4.77,6.4,6.4,0,0,1,8.9,0,6.63,6.63,0,0,1,1.7,4.77v58.77a37.59,37.59,0,0,1-4.42,18.3,34,34,0,0,1-11.94,12.83A31.38,31.38,0,0,1,438.41,250.6Zm0-11.6a19.72,19.72,0,0,0,11-3.16,21.79,21.79,0,0,0,7.63-8.7,27.08,27.08,0,0,0,2.79-12.37,26.61,26.61,0,0,0-2.79-12.37,22,22,0,0,0-7.63-8.57,20.73,20.73,0,0,0-22,0,22.26,22.26,0,0,0-7.76,8.57,26.15,26.15,0,0,0-2.85,12.37,26.61,26.61,0,0,0,2.85,12.37,22,22,0,0,0,7.76,8.7A19.81,19.81,0,0,0,438.41,239Z"/><path class="cls-1" d="M194.79,275.82a1.15,1.15,0,0,1-.87-.36,1.22,1.22,0,0,1-.35-.88V256.43a1.2,1.2,0,0,1,1.22-1.24h4.67a10.33,10.33,0,0,1,4,.76,9.32,9.32,0,0,1,3.17,2.13,9.93,9.93,0,0,1,2.08,3.27,12,12,0,0,1,0,8.3,9.87,9.87,0,0,1-2.08,3.28,9.49,9.49,0,0,1-3.17,2.14,10.51,10.51,0,0,1-4,.75ZM196,273.6h3.46a7.32,7.32,0,0,0,6.69-3.92,9.38,9.38,0,0,0,0-8.39,7.34,7.34,0,0,0-6.69-3.88H196Z"/><path class="cls-1" d="M220,275.92a7.58,7.58,0,0,1-3.79-.93,6.8,6.8,0,0,1-2.57-2.59,7.6,7.6,0,0,1-.93-3.79,8.09,8.09,0,0,1,.88-3.82A6.66,6.66,0,0,1,216,262.2a6.83,6.83,0,0,1,3.59-.93,6.28,6.28,0,0,1,3.44.91,6,6,0,0,1,2.23,2.51,8.4,8.4,0,0,1,.77,3.68,1,1,0,0,1-1.08,1.06H214.33v-2H225l-1.06.77a6.29,6.29,0,0,0-.54-2.51,4.19,4.19,0,0,0-1.47-1.74,4,4,0,0,0-2.31-.64,4.58,4.58,0,0,0-2.54.69,4.35,4.35,0,0,0-1.64,1.88,6.14,6.14,0,0,0-.57,2.69,5.38,5.38,0,0,0,.66,2.68,5,5,0,0,0,1.81,1.86,5.08,5.08,0,0,0,2.67.69,5.16,5.16,0,0,0,1.72-.32,4.62,4.62,0,0,0,1.41-.74,1.31,1.31,0,0,1,.78-.3,1,1,0,0,1,.72.25,1.16,1.16,0,0,1,.41.8.87.87,0,0,1-.36.76,8.11,8.11,0,0,1-4.68,1.63Z"/><path class="cls-1" d="M235.25,275.92a7,7,0,0,1-3.65-1,6.87,6.87,0,0,1-2.52-2.61,7.59,7.59,0,0,1-.92-3.74,8,8,0,0,1,.89-3.8,6.7,6.7,0,0,1,2.45-2.61,6.83,6.83,0,0,1,3.59-.93,6.6,6.6,0,0,1,2.82.6,6.75,6.75,0,0,1,2.3,1.83.87.87,0,0,1,.25.79,1.27,1.27,0,0,1-.54.74.86.86,0,0,1-.72.16,1.27,1.27,0,0,1-.72-.45,4.4,4.4,0,0,0-3.39-1.51,4.46,4.46,0,0,0-2.42.66A4.61,4.61,0,0,0,231,265.9a6,6,0,0,0-.58,2.71,5.71,5.71,0,0,0,.61,2.64,4.55,4.55,0,0,0,4.18,2.51,5.58,5.58,0,0,0,1.7-.24,3.77,3.77,0,0,0,1.35-.76,1.24,1.24,0,0,1,.76-.35.94.94,0,0,1,.71.24,1.23,1.23,0,0,1,.44.77.82.82,0,0,1-.29.73A6.51,6.51,0,0,1,235.25,275.92Z"/><path class="cls-1" d="M250.78,275.92a7.27,7.27,0,0,1-3.68-.93,6.7,6.7,0,0,1-2.53-2.59,8.33,8.33,0,0,1,0-7.61,6.7,6.7,0,0,1,2.53-2.59,7.77,7.77,0,0,1,7.37,0,6.77,6.77,0,0,1,2.53,2.59,7.89,7.89,0,0,1,.94,3.82,7.5,7.5,0,0,1-.93,3.79,6.84,6.84,0,0,1-2.53,2.59A7.24,7.24,0,0,1,250.78,275.92Zm0-2.16a4.61,4.61,0,0,0,4.22-2.48,6.08,6.08,0,0,0,0-5.35,4.68,4.68,0,0,0-1.71-1.84,5.06,5.06,0,0,0-5,0,4.56,4.56,0,0,0-1.72,1.84,6.08,6.08,0,0,0,0,5.35,4.64,4.64,0,0,0,1.72,1.82A4.73,4.73,0,0,0,250.78,273.76Z"/><path class="cls-1" d="M268.26,275.92a7,7,0,0,1-6.19-3.59,7.47,7.47,0,0,1-.95-3.75,7.94,7.94,0,0,1,.88-3.74,6.89,6.89,0,0,1,2.41-2.61,6.71,6.71,0,0,1,6.4-.28A6.52,6.52,0,0,1,273,263.8v-7.39a1.21,1.21,0,0,1,.33-.89,1.18,1.18,0,0,1,.86-.33,1.14,1.14,0,0,1,1.21,1.22v12.23a7.52,7.52,0,0,1-1,3.72,7,7,0,0,1-6.19,3.56Zm0-2.16a4.67,4.67,0,0,0,2.48-.67,4.79,4.79,0,0,0,1.72-1.85,5.56,5.56,0,0,0,.64-2.66,5.48,5.48,0,0,0-.64-2.64,4.74,4.74,0,0,0-1.72-1.83,4.59,4.59,0,0,0-2.48-.68,4.75,4.75,0,0,0-4.2,2.51,5.48,5.48,0,0,0-.63,2.64,5.56,5.56,0,0,0,.63,2.66,4.68,4.68,0,0,0,4.2,2.52Z"/><path class="cls-1" d="M286.64,275.92a7.58,7.58,0,0,1-3.79-.93,6.8,6.8,0,0,1-2.57-2.59,7.6,7.6,0,0,1-.93-3.79,8,8,0,0,1,.88-3.82,6.66,6.66,0,0,1,2.43-2.59,6.83,6.83,0,0,1,3.59-.93,6.28,6.28,0,0,1,3.44.91,6,6,0,0,1,2.23,2.51,8.4,8.4,0,0,1,.77,3.68,1,1,0,0,1-1.08,1.06H281v-2h10.65l-1.06.77a6.29,6.29,0,0,0-.54-2.51,4.14,4.14,0,0,0-1.48-1.74,4,4,0,0,0-2.3-.64,4.58,4.58,0,0,0-2.54.69,4.35,4.35,0,0,0-1.64,1.88,6.14,6.14,0,0,0-.57,2.69,5.38,5.38,0,0,0,.66,2.68,5,5,0,0,0,1.81,1.86,5.06,5.06,0,0,0,2.67.69,5.16,5.16,0,0,0,1.72-.32,4.74,4.74,0,0,0,1.41-.74,1.31,1.31,0,0,1,.78-.3,1,1,0,0,1,.72.25,1.16,1.16,0,0,1,.41.8.87.87,0,0,1-.36.76,7.37,7.37,0,0,1-2.18,1.17A7.46,7.46,0,0,1,286.64,275.92Z"/><path class="cls-1" d="M309.83,275.82a1.12,1.12,0,0,1-.84-.36,1.22,1.22,0,0,1-.35-.88v-6.34l-6.95-11.12a1.21,1.21,0,0,1-.23-.92,1.16,1.16,0,0,1,.4-.73,1.17,1.17,0,0,1,.79-.28,1.08,1.08,0,0,1,.62.17,2.14,2.14,0,0,1,.44.49l6.72,11h-1.06l6.77-11a1.67,1.67,0,0,1,.47-.45,1.21,1.21,0,0,1,.62-.16.92.92,0,0,1,.72.31,1.3,1.3,0,0,1,.34.74,1.36,1.36,0,0,1-.24.88l-7,11.12v6.34a1.22,1.22,0,0,1-.35.88A1.15,1.15,0,0,1,309.83,275.82Z"/><path class="cls-1" d="M324.57,275.92a7.28,7.28,0,0,1-3.69-.93,6.77,6.77,0,0,1-2.53-2.59,8.33,8.33,0,0,1,0-7.61,6.77,6.77,0,0,1,2.53-2.59,7.77,7.77,0,0,1,7.37,0,6.79,6.79,0,0,1,2.54,2.59,8,8,0,0,1,.94,3.82,7.6,7.6,0,0,1-.93,3.79,6.91,6.91,0,0,1-2.53,2.59A7.26,7.26,0,0,1,324.57,275.92Zm0-2.16a4.75,4.75,0,0,0,2.51-.66,4.66,4.66,0,0,0,1.7-1.82,6.08,6.08,0,0,0,0-5.35,4.58,4.58,0,0,0-1.7-1.84,5.08,5.08,0,0,0-5,0,4.63,4.63,0,0,0-1.72,1.84,6.08,6.08,0,0,0,0,5.35,4.71,4.71,0,0,0,1.72,1.82A4.79,4.79,0,0,0,324.57,273.76Z"/><path class="cls-1" d="M341.66,276a6.57,6.57,0,0,1-3.23-.78,5.62,5.62,0,0,1-2.25-2.28,7.46,7.46,0,0,1-.83-3.67v-6.66a1.21,1.21,0,0,1,.35-.86,1.15,1.15,0,0,1,.84-.35,1.2,1.2,0,0,1,1.21,1.21v6.66a5.07,5.07,0,0,0,.57,2.53,3.57,3.57,0,0,0,1.54,1.49,4.72,4.72,0,0,0,2.18.49,4.59,4.59,0,0,0,2.11-.47,4.18,4.18,0,0,0,1.48-1.28,3.12,3.12,0,0,0,.55-1.81h1.55a6,6,0,0,1-.84,3,5.52,5.52,0,0,1-2.16,2.07A6.29,6.29,0,0,1,341.66,276Zm5.71-.13a1.18,1.18,0,0,1-1.19-1.22v-12a1.18,1.18,0,0,1,.34-.87,1.13,1.13,0,0,1,.85-.34,1.12,1.12,0,0,1,.85.34,1.18,1.18,0,0,1,.34.87v12a1.15,1.15,0,0,1-.34.87A1.12,1.12,0,0,1,347.37,275.82Z"/><path class="cls-1" d="M354.38,275.82a1.15,1.15,0,0,1-.86-.31,1.19,1.19,0,0,1-.31-.88V262.56a1.21,1.21,0,0,1,.31-.87,1.15,1.15,0,0,1,.86-.32,1.07,1.07,0,0,1,1.19,1.19v12.07a1.21,1.21,0,0,1-.3.87A1.18,1.18,0,0,1,354.38,275.82Zm-.08-9a5.92,5.92,0,0,1,.81-2.88,5.83,5.83,0,0,1,2-2,5.5,5.5,0,0,1,2.8-.74,4.07,4.07,0,0,1,2.13.45,1,1,0,0,1,.53,1.14.93.93,0,0,1-.31.57,1,1,0,0,1-.54.18,3.22,3.22,0,0,1-.68,0,6.59,6.59,0,0,0-2.82.08,3.9,3.9,0,0,0-2,1.19,3.06,3.06,0,0,0-.72,2.06Z"/><path class="cls-1" d="M382.38,276.08a9.68,9.68,0,0,1-3.92-.8,9.57,9.57,0,0,1-3.18-2.26,10.84,10.84,0,0,1-2.13-3.38,11.43,11.43,0,0,1,0-8.25,10.46,10.46,0,0,1,2.14-3.37,9.8,9.8,0,0,1,3.18-2.27,9.32,9.32,0,0,1,3.93-.82,9,9,0,0,1,6.33,2.3.9.9,0,0,1,.3.35.83.83,0,0,1,.07.4,1,1,0,0,1-.08.38.86.86,0,0,1-.33.64,1.21,1.21,0,0,1-.7.25,1.27,1.27,0,0,1-.79-.28,7.34,7.34,0,0,0-2.06-1.32,7.23,7.23,0,0,0-2.74-.45,6.75,6.75,0,0,0-3,.66,8,8,0,0,0-2.45,1.8,8.14,8.14,0,0,0-1.65,2.64,8.53,8.53,0,0,0-.6,3.19,8.58,8.58,0,0,0,2.25,5.88,7.64,7.64,0,0,0,2.45,1.78,7,7,0,0,0,3,.64,7.16,7.16,0,0,0,2.58-.47,8.93,8.93,0,0,0,2.3-1.3,1.12,1.12,0,0,1,.83-.28,1,1,0,0,1,.7.34,1.16,1.16,0,0,1,.28.83,1.49,1.49,0,0,1-.07.47,1.11,1.11,0,0,1-.29.41,8.75,8.75,0,0,1-3,1.74A10.31,10.31,0,0,1,382.38,276.08Z"/><path class="cls-1" d="M398.07,275.92a6.33,6.33,0,0,1-3.46-.95,6.68,6.68,0,0,1-2.41-2.61,7.86,7.86,0,0,1-.88-3.75,7.49,7.49,0,0,1,.95-3.77,7,7,0,0,1,2.56-2.61,7.36,7.36,0,0,1,7.27,0,7.08,7.08,0,0,1,2.55,2.63,7.69,7.69,0,0,1,1,3.75l-.93.24a7.48,7.48,0,0,1-.88,3.61,6.75,6.75,0,0,1-2.37,2.54A6.2,6.2,0,0,1,398.07,275.92Zm.39-2.16a4.7,4.7,0,0,0,2.48-.67,4.87,4.87,0,0,0,1.72-1.85,5.5,5.5,0,0,0,.63-2.63,5.56,5.56,0,0,0-.63-2.66,4.77,4.77,0,0,0-1.72-1.84,4.83,4.83,0,0,0-4.94,0,4.67,4.67,0,0,0-1.74,1.84,5.45,5.45,0,0,0-.64,2.66,5.39,5.39,0,0,0,.64,2.63,4.68,4.68,0,0,0,4.2,2.52Zm5.94,2.08a1.13,1.13,0,0,1-.85-.34,1.22,1.22,0,0,1-.34-.87V270.4l.5-2.53,1.91.74v6a1.18,1.18,0,0,1-1.22,1.21Z"/><path class="cls-1" d="M410.69,275.82a1.15,1.15,0,0,1-.86-.31,1.19,1.19,0,0,1-.31-.88V262.56a1.21,1.21,0,0,1,.31-.87,1.15,1.15,0,0,1,.86-.32,1.07,1.07,0,0,1,1.19,1.19v12.07a1.21,1.21,0,0,1-.3.87A1.18,1.18,0,0,1,410.69,275.82Zm-.08-9a5.73,5.73,0,0,1,2.84-4.89,5.49,5.49,0,0,1,2.79-.74,4.08,4.08,0,0,1,2.14.45,1,1,0,0,1,.53,1.14.93.93,0,0,1-.31.57,1,1,0,0,1-.55.18,3.16,3.16,0,0,1-.67,0,6.59,6.59,0,0,0-2.82.08,3.9,3.9,0,0,0-2,1.19,3.06,3.06,0,0,0-.72,2.06Z"/><path class="cls-1" d="M427.33,275.92a7.51,7.51,0,0,1-3.78-.93A6.83,6.83,0,0,1,421,272.4a7.6,7.6,0,0,1-.93-3.79,8.09,8.09,0,0,1,.88-3.82,6.66,6.66,0,0,1,2.43-2.59,6.87,6.87,0,0,1,3.6-.93,6.33,6.33,0,0,1,3.44.91,6,6,0,0,1,2.22,2.51,8.27,8.27,0,0,1,.77,3.68,1,1,0,0,1-.29.75,1,1,0,0,1-.79.31H421.67v-2h10.65l-1.06.77a6,6,0,0,0-.54-2.51,4,4,0,0,0-3.77-2.38,4.61,4.61,0,0,0-2.55.69,4.48,4.48,0,0,0-1.64,1.88,6.14,6.14,0,0,0-.57,2.69,5.38,5.38,0,0,0,.66,2.68,5,5,0,0,0,1.81,1.86,5.21,5.21,0,0,0,4.39.37,4.62,4.62,0,0,0,1.41-.74,1.31,1.31,0,0,1,.78-.3,1,1,0,0,1,.72.25,1.22,1.22,0,0,1,.42.8.91.91,0,0,1-.37.76,8.11,8.11,0,0,1-4.68,1.63Z"/><path class="cls-1" d="M442.79,275.92A7.51,7.51,0,0,1,439,275a6.83,6.83,0,0,1-2.58-2.59,7.6,7.6,0,0,1-.93-3.79,8.09,8.09,0,0,1,.88-3.82,6.66,6.66,0,0,1,2.43-2.59,6.87,6.87,0,0,1,3.6-.93,6.33,6.33,0,0,1,3.44.91,6,6,0,0,1,2.22,2.51,8.27,8.27,0,0,1,.77,3.68,1,1,0,0,1-.29.75,1,1,0,0,1-.79.31H437.13v-2h10.65l-1.06.77a6,6,0,0,0-.54-2.51,4,4,0,0,0-3.77-2.38,4.61,4.61,0,0,0-2.55.69,4.48,4.48,0,0,0-1.64,1.88,6.14,6.14,0,0,0-.57,2.69,5.38,5.38,0,0,0,.66,2.68,5,5,0,0,0,1.81,1.86,5.21,5.21,0,0,0,4.39.37,4.62,4.62,0,0,0,1.41-.74,1.31,1.31,0,0,1,.78-.3,1,1,0,0,1,.72.25,1.22,1.22,0,0,1,.42.8.91.91,0,0,1-.37.76,8.11,8.11,0,0,1-4.68,1.63Z"/><path class="cls-1" d="M453.37,275.82a1.13,1.13,0,0,1-.85-.31,1.15,1.15,0,0,1-.31-.88V262.56a1.17,1.17,0,0,1,.31-.87,1.13,1.13,0,0,1,.85-.32,1.16,1.16,0,0,1,.89.31,1.19,1.19,0,0,1,.3.88v12.07a1.21,1.21,0,0,1-.3.87A1.16,1.16,0,0,1,453.37,275.82Zm-.08-9a5.93,5.93,0,0,1,.82-2.88,5.67,5.67,0,0,1,2-2,5.44,5.44,0,0,1,2.79-.74,4,4,0,0,1,2.13.45,1,1,0,0,1,.53,1.14.88.88,0,0,1-.31.57,1,1,0,0,1-.54.18,3.13,3.13,0,0,1-.67,0,6.58,6.58,0,0,0-2.82.08,3.89,3.89,0,0,0-2,1.19,3.06,3.06,0,0,0-.72,2.06Z"/><path class="cls-2" d="M159.4,166.27l9.79,3.15-9.79,6v-9.18Zm-3.72,11.47-9.32,5.74V177c-10.2-6-19.35-6.08-28.14-6.25V153l39.2,12.62-1.74,12.1Zm-37.46-2.13a64.88,64.88,0,0,1,22.51,4.1l.86,11.58a102.49,102.49,0,0,0-46.74,0l.86-11.58a64.92,64.92,0,0,1,22.51-4.1Z"/><path class="cls-2" d="M155.68,177.74l3.72-2.29,9.79-6-6.18-2-5.59-1.79L118.22,153,79,165.64V186a1.69,1.69,0,0,0-1.37,1.59v6.14a1.72,1.72,0,0,0,1.8,1.63h.78A1.72,1.72,0,0,0,82,193.7v-6.14A1.68,1.68,0,0,0,80.76,186v-8.26l9.32,5.74V177c10.2-6,19.35-6.08,28.14-6.25,8.79.17,17.94.26,28.14,6.25v6.46l9.32-5.74Z"/><rect class="cls-1" x="167.85" width="150.8" height="149.75" rx="21.87"/><path class="cls-3" d="M210.51,112.53,199.79,125a1.18,1.18,0,0,1-1.88-.11,17.13,17.13,0,0,1-2.83-9.47V34.7a17.24,17.24,0,0,1,1.35-6.7,1.82,1.82,0,0,1,3-.5L209.5,38.56A55.78,55.78,0,0,1,210.51,112.53Z"/><path class="cls-3" d="M294.44,77.59A2.55,2.55,0,0,1,297,80.38a57.69,57.69,0,0,1-57.37,52.29H212.36a17.22,17.22,0,0,1-8.64-2.31,1.19,1.19,0,0,1-.3-1.81L221,108.14a88,88,0,0,1,66.64-30.55Z"/><path class="cls-3" d="M239.61,17.42H212.36a17.24,17.24,0,0,0-9.68,3,1.84,1.84,0,0,0-.35,2.75L219.51,42a93.36,93.36,0,0,0,69,30.51h5.9A2.56,2.56,0,0,0,297,69.73,57.71,57.71,0,0,0,239.61,17.42Zm14.48,35.95a10.44,10.44,0,1,1,10.44-10.44A10.45,10.45,0,0,1,254.09,53.37Z"/></g></g></svg>