<svg xmlns="http://www.w3.org/2000/svg" viewBox="0 0 140.87 93.4"><g id="Layer_2" data-name="Layer 2"><g id="Layer_1-2" data-name="Layer 1"><path d="M62.66,20.14c.64-.68,1.25-1.33,1.87-2,.41-.41,0-.6-.2-.82L55.86,8.88c-1.16-1.16-2.34-2.31-3.49-3.5a1.72,1.72,0,0,1,.33-2.82A1.77,1.77,0,0,1,54.91,3L58.5,6.61,66.83,15c.13.13.28.25.55.48,1-1,2-2.09,3-3.11Q76.16,6.53,82,.76c1.14-1.13,2.46-1,3.09.33.32.68.14,1.34-.59,2.08l-7,7Q61.51,26.1,45.61,42a1.77,1.77,0,0,0-.6,2.12,1.59,1.59,0,0,0,2.61.38Q53.32,38.81,59,33.11q8.39-8.38,16.78-16.76c3-3,5.89-5.9,8.86-8.83A5,5,0,0,1,93,9.61a4.91,4.91,0,0,1-1.38,5.25q-5.71,5.68-11.4,11.4Q66.49,39.94,52.81,53.6a3.68,3.68,0,0,1-1.22.85,1.47,1.47,0,0,1-1.75-.53,1.45,1.45,0,0,1-.2-1.87,6.38,6.38,0,0,1,.78-.94L67.63,33.89c.39-.39.77-.79,1.16-1.2s2.76-2.76,3.2-3.19q8.51-8.49,17-17a1.83,1.83,0,0,0,.71-1.58,1.54,1.54,0,0,0-1.08-1.33A1.59,1.59,0,0,0,87,10l-9.19,9.2L59.68,37.33c-3.27,3.27-6.51,6.58-9.83,9.79a5.05,5.05,0,1,1-6.79-7.48c3.95-3.92,7.87-7.87,11.81-11.8l.59-.64c-1.06-1-2.11-2-3.13-3l-9.25-9.25a1.83,1.83,0,0,1-.56-2.15,1.6,1.6,0,0,1,1.78-1,3.44,3.44,0,0,1,1.39.84q5.78,5.72,11.51,11.49c.69.69.68.68,1.39,0,.5-.48,1-.95,1.61-1.48-1.11-1.13-2.12-2.16-3.15-3.18-3.39-3.39-6.8-6.76-10.19-10.14C45.57,8,44.3,6.74,43,5.45a2,2,0,0,1-.52-2.05,1.7,1.7,0,0,1,1.9-1,2.13,2.13,0,0,1,1,.57q8.33,8.29,16.62,16.62C62.21,19.75,62.38,19.88,62.66,20.14Z"/><path d="M73.35,36.16,76,33.58c.69.67,1.42,1.35,2.12,2.05L91.41,49c.88.89,1.3,1.77.64,2.6a2,2,0,0,1-1.39.73,1.56,1.56,0,0,1-1.54-.76l-14-13.89A23.34,23.34,0,0,0,73.35,36.16Z"/><path d="M68.87,40.67l2.5-2.37c3.59,3.6,7.24,7.23,10.87,10.89a1.74,1.74,0,1,1-2.54,2.35l-5.78-5.77-4.53-4.55Z"/><path d="M78.25,31.3l2.56-2.55c.81.87,1.58,1.75,2.4,2.57,2.75,2.77,5.5,5.54,8.28,8.27A1.77,1.77,0,0,1,91,42.71,2,2,0,0,1,89,42l-7.64-7.65Z"/><path d="M18.94,86.14c0,4.66-4.34,7.25-9.48,7.25-4.42,0-6.53-2.21-8-2.21-1,0-1.17.8-1.31,1.1V83.21C.45,86.78,2.58,93,9.51,93c4.5,0,7-2.42,7-4.93C16.53,80.16,0,82.2,0,71.56c0-3.43,2.88-5.9,7.75-5.9s6.54,2.53,8,.4v9.29c-.76-4.36-3-9.3-8-9.3C4.61,66.05,2,68.31,2,70.86,2,76.84,18.94,76.55,18.94,86.14Z"/><path d="M33,93.4c-16,0-16-27.75,0-27.75S49,93.4,33,93.4Zm0-27.35c-11.32,0-11.18,26.88,0,26.88S44.24,66.05,33,66.05Z"/><path d="M59.32,93.4c-16,0-16-27.75,0-27.75S75.34,93.4,59.32,93.4Zm0-27.35c-11.32,0-11.18,26.88,0,26.88S70.58,66.05,59.36,66.05Z"/><path d="M97.27,72.89c-.38-2.26-1-6.38-5.61-6.4h-5V90.86a2.11,2.11,0,0,0,2,2.15H81.38a2.11,2.11,0,0,0,2-2.15V66.48H78.45c-4.63,0-5.23,4.14-5.62,6.4V66.07H97.27Z"/><path d="M117.76,93h-12c-10.27,0-9.17-16.24,3.48-16.24-9,0-8.7-2.94-8.7-8.54a2.1,2.1,0,0,0-2-2.15l18.71,0v7.78c-.48-4.75-1.47-7.4-6-7.4H104c0,5.79-1.51,10.2,8.48,10.2-11.61,0-12.75,16-3.81,16h3.49c4.63,0,5.23-4.14,5.62-6.4Z"/><path d="M132.44,93c1.48-.19,2.11-.8,1.19-2.54l-5.31-9.93L123,90.46c-.93,1.74-.3,2.35,1.18,2.54h-5.43a4.66,4.66,0,0,0,3.72-2.54l5.6-10.38L122,68.58A4.64,4.64,0,0,0,118.22,66h8.43c-1.48.19-2.1.8-1.18,2.54l4.7,8.88,4.75-8.88c.93-1.73.29-2.35-1.18-2.54h5.33a4.63,4.63,0,0,0-3.72,2.54l-4.94,9.32,6.73,12.56A4.67,4.67,0,0,0,140.87,93Z"/></g></g></svg>