<svg xmlns="http://www.w3.org/2000/svg" viewBox="0 0 793.34 404.79"><defs><style>.cls-1{fill:#603813;}.cls-2{fill:none;}</style></defs><g id="Layer_2" data-name="Layer 2"><g id="Layer_1-2" data-name="Layer 1"><path class="cls-1" d="M107.67,263.33c4.18,0,6.5,1.66,6.94,5l4.26,34.81h-4.48q-4.48-15.11-12.65-23.47t-18.47-8.36q-14.33,0-14.32,13.93V387.88A8.4,8.4,0,0,0,71,394Q73,396,79,398.63v4H39.85v-4q6-2.6,8-4.68t2-6.07V285.22q0-6.37-3.81-10.15t-10.29-3.78q-10.3,0-18.58,8.46T4.48,303.12H0l4.25-34.81q.68-5,6.94-5Z"/><path class="cls-1" d="M130.29,404.79a16.41,16.41,0,0,1-10.75-3.48,18.76,18.76,0,0,1-6-9.45,33.9,33.9,0,0,1-.9-13.73,52.61,52.61,0,0,1,4.93-16.31l39.17-85a13.3,13.3,0,0,0,1.23-7.56,11.87,11.87,0,0,0-2.57-6h24.4l45.89,124.55A13.83,13.83,0,0,0,229.9,394q2.68,2.08,9.63,4.68v4h-40.3v-4q5.15-2.6,6.38-4.68c.82-1.39.79-3.41-.11-6.07L195,359q-2.68-5-7.84-5c-2.23,0-4.55,1.26-6.94,3.78a76.14,76.14,0,0,0-7.38,9.35q-3.81,5.58-8.17,12.24a93.39,93.39,0,0,1-9.52,12.23,53,53,0,0,1-11.3,9.35A25.4,25.4,0,0,1,130.29,404.79Zm3.35-61.28a90.63,90.63,0,0,0-6.82,18.11,39.87,39.87,0,0,0-1.24,13.63q.67,5.67,3.7,8.65a10.52,10.52,0,0,0,7.72,3,16.68,16.68,0,0,0,9.4-3,43.37,43.37,0,0,0,8.51-7.56c2.69-3,5.33-6.33,8-9.85s5.22-6.79,7.83-9.84a48.87,48.87,0,0,1,7.95-7.57,14,14,0,0,1,8.5-3,14.48,14.48,0,0,1,3.14.4l-21.49-58.3c-1.2-3.31-2.46-5-3.81-5s-2.68,1.52-4,4.57Z"/><path class="cls-1" d="M266.61,404.79a16.38,16.38,0,0,1-10.74-3.48,18.84,18.84,0,0,1-6.05-9.45,34.09,34.09,0,0,1-.89-13.73,52.58,52.58,0,0,1,4.92-16.31l39.18-85a13.3,13.3,0,0,0,1.23-7.56,11.88,11.88,0,0,0-2.58-6h24.4L362,387.88a13.93,13.93,0,0,0,4.26,6.07q2.68,2.08,9.62,4.68v4H335.56v-4q5.15-2.6,6.38-4.68t-.11-6.07L331.31,359q-2.7-5-7.84-5-3.36,0-6.94,3.78a76.14,76.14,0,0,0-7.39,9.35q-3.81,5.58-8.17,12.24a93.33,93.33,0,0,1-9.51,12.23A53,53,0,0,1,280.15,401,25.35,25.35,0,0,1,266.61,404.79ZM270,343.51a90.73,90.73,0,0,0-6.83,18.11,39.59,39.59,0,0,0-1.23,13.63q.68,5.67,3.69,8.65a10.55,10.55,0,0,0,7.73,3,16.71,16.71,0,0,0,9.4-3,43.66,43.66,0,0,0,8.51-7.56q4-4.57,7.94-9.85t7.84-9.84a49.24,49.24,0,0,1,7.94-7.57,14.06,14.06,0,0,1,8.51-3,14.32,14.32,0,0,1,3.13.4l-21.49-58.3q-1.78-5-3.8-5c-1.34,0-2.69,1.52-4,4.57Z"/><path class="cls-1" d="M402.94,404.79a16.43,16.43,0,0,1-10.75-3.48,18.83,18.83,0,0,1-6-9.45,34.08,34.08,0,0,1-.9-13.73,52.61,52.61,0,0,1,4.93-16.31l39.17-85a13.22,13.22,0,0,0,1.23-7.56,11.87,11.87,0,0,0-2.57-6h24.4L498.3,387.88a13.83,13.83,0,0,0,4.25,6.07q2.68,2.08,9.63,4.68v4H471.89v-4c3.43-1.73,5.55-3.29,6.38-4.68s.78-3.41-.12-6.07L467.63,359q-2.69-5-7.83-5c-2.24,0-4.56,1.26-6.94,3.78a76.14,76.14,0,0,0-7.39,9.35q-3.81,5.58-8.17,12.24a93.33,93.33,0,0,1-9.51,12.23A53.29,53.29,0,0,1,416.48,401,25.4,25.4,0,0,1,402.94,404.79Zm3.36-61.28a90.11,90.11,0,0,0-6.83,18.11,39.59,39.59,0,0,0-1.23,13.63q.67,5.67,3.69,8.65a10.54,10.54,0,0,0,7.72,3,16.74,16.74,0,0,0,9.41-3,43.33,43.33,0,0,0,8.5-7.56q4-4.57,7.95-9.85t7.83-9.84a48.87,48.87,0,0,1,8-7.57,14.06,14.06,0,0,1,8.51-3,14.47,14.47,0,0,1,3.13.4l-21.49-58.3c-1.2-3.31-2.46-5-3.8-5s-2.69,1.52-4,4.57Z"/><path class="cls-1" d="M634.18,387.88a20.42,20.42,0,0,0,8.5,6.77,57.73,57.73,0,0,0,12.09,4v4H604.63v-4a9.07,9.07,0,0,0,4.59-1.1,6.27,6.27,0,0,0,2.68-2.78,7,7,0,0,0,.56-3.78,9,9,0,0,0-1.56-4.08l-28-41.19q-2.68-4.17-8.5-3.58c-2.69.27-5.37.5-8.06.7s-5.45.3-8.28.3c-3.74,0-5.6,1.66-5.6,5v39.79a8.4,8.4,0,0,0,2,6.07q2,2.08,8.06,4.68v4H523.37v-4q6-2.6,8.06-4.68a8.4,8.4,0,0,0,2-6.07V278.05a8.39,8.39,0,0,0-2-6.06c-1.35-1.4-4-2.95-8.06-4.68v-4H567q34.47,0,52.05,8.76t17.57,26.26q0,12.13-8.84,21.69T604,335.36q-5.16,2.19-2.24,6Zm-70.52-52.72a70.88,70.88,0,0,0,20-2.79,62.22,62.22,0,0,0,16.79-7.56,39.59,39.59,0,0,0,11.64-11.44A25.8,25.8,0,0,0,616.49,299q0-12.54-11.41-20.1t-30.45-7.56H562.54q-10.06,0-10.07,10.74v43.18Q552.47,335.16,563.66,335.16Z"/><path class="cls-1" d="M684.1,404.79a16.41,16.41,0,0,1-10.75-3.48,18.76,18.76,0,0,1-6-9.45,33.9,33.9,0,0,1-.9-13.73,52.61,52.61,0,0,1,4.93-16.31l39.17-85a13.3,13.3,0,0,0,1.23-7.56,11.87,11.87,0,0,0-2.57-6h24.4l45.89,124.55a13.83,13.83,0,0,0,4.25,6.07q2.68,2.08,9.63,4.68v4H753v-4q5.15-2.6,6.38-4.68c.82-1.39.79-3.41-.11-6.07L748.79,359q-2.68-5-7.84-5c-2.23,0-4.55,1.26-6.93,3.78a75.19,75.19,0,0,0-7.39,9.35q-3.81,5.58-8.17,12.24a93.39,93.39,0,0,1-9.52,12.23,53,53,0,0,1-11.3,9.35A25.4,25.4,0,0,1,684.1,404.79Zm3.35-61.28a90.63,90.63,0,0,0-6.82,18.11,39.87,39.87,0,0,0-1.24,13.63q.68,5.67,3.7,8.65a10.52,10.52,0,0,0,7.72,3,16.68,16.68,0,0,0,9.4-3,43.37,43.37,0,0,0,8.51-7.56c2.69-3,5.33-6.33,7.95-9.85s5.22-6.79,7.83-9.84a48.87,48.87,0,0,1,8-7.57,14,14,0,0,1,8.5-3,14.48,14.48,0,0,1,3.14.4L722.6,288.2c-1.2-3.31-2.46-5-3.81-5s-2.68,1.52-4,4.57Z"/><path class="cls-2" d="M519.91,171.06q12.42,8.06,22.19,11.18t16.72,2.09a15.64,15.64,0,0,0,10.65-5.92q3.67-4.87,3.7-12.49a33.43,33.43,0,0,0-3.61-15.24,68.67,68.67,0,0,0-9.24-13.83c-2.34-2.74-4.81-5.45-7.38-8.15h0l-98.69-.54h0Z"/><path class="cls-2" d="M523.36,84.46v0c0-2.31-1.67-4-3.32-3.19L486.09,97.51s0,0,0,0l40.62.23h0A27.63,27.63,0,0,1,523.36,84.46Z"/><path class="cls-1" d="M421.71,95.86l4.11-2h0q-6.6-5.49-6.55-19.91a47.42,47.42,0,0,1,10.35-29.85q9.69-12.37,26.7-19.44a3.7,3.7,0,0,0,2.12-2.83c.47-2.75-1.23-5.09-3.21-4.78L415.76,23.2q-6.11,1.05-6.14,11.2l-.49,156.21q0,10.15,6.07,11.27l39.42,6.57c1.75.3,3.31-1.5,3.31-3.84h0a3.94,3.94,0,0,0-2.06-3.72q-16.81-7.24-26.56-19.95A48.07,48.07,0,0,1,419,150.8q0-10.52,4.7-16.65a16.62,16.62,0,0,1,1.26-1.48,13,13,0,0,0-3.4,2.69h0l.12-39.49Z"/><path class="cls-1" d="M582.32,15.55c-1.72,2.89-3.63,4.42-6.9,6.08L425.84,93.87v0a16,16,0,0,0,10.45,3.36l49.77.27h0l37.78-18.13s0,0,0,0a30.53,30.53,0,0,0-.5,5.06,27.69,27.69,0,0,0,3.35,13.29h0l12.72.07c-.58-.69-1.17-1.37-1.71-2q-4.62-5.82-4.6-11.26,0-8.33,6.14-12.65h0L574.75,55q4.89-2.15,7.45-.14c1.7,1.34,3.61,4.79,5.7,10.36h0l4.87,0h0L593,0h0l-4.88,0h0Q584.9,11.22,582.32,15.55Z"/><path class="cls-1" d="M577.31,145.15h0a3.05,3.05,0,0,1-2.67-2.31q-2.7-7.91-5-10.78a8.92,8.92,0,0,0-7.44-3.31L553,128.7a0,0,0,0,0,0,0q3.85,4,7.37,8.14a68.67,68.67,0,0,1,9.24,13.83,33.43,33.43,0,0,1,3.61,15.24q0,7.62-3.7,12.49a15.64,15.64,0,0,1-10.65,5.92q-7,1-16.72-2.09t-22.19-11.18l-65.68-42.9h0l-18-.1A14.65,14.65,0,0,0,425,132.67a13.24,13.24,0,0,1,3.94-1.43q4.4-.88,9.27,2l104.1,64q10.49,6.57,20,8.08T579.16,204a23.43,23.43,0,0,0,11.63-9.72q4.29-6.85,4.33-17.37a51.39,51.39,0,0,0-4.57-22,86.41,86.41,0,0,0-10.26-16.84h0v3.15C580.26,143.42,578.94,145.16,577.31,145.15Z"/><path class="cls-1" d="M454.23,128.16l-2.58-1.69q-5.61-3.3-5.6-6.56t6.13-6.12L486,97.53s0,0,0,0l-49.75-.27q-6.45,0-10.46-3.37h0l-4.12,2h0l-.12,39.49h0a13,13,0,0,1,3.4-2.69h0a14.65,14.65,0,0,1,11.21-4.61Z"/><path class="cls-1" d="M526.71,97.77a74.11,74.11,0,0,0,9.51,13.4q5.6,6.38,12,12.75c1.6,1.59,3.15,3.18,4.67,4.78h0l9.29.05a8.92,8.92,0,0,1,7.44,3.31q2.25,2.87,5,10.78a3.05,3.05,0,0,0,2.67,2.31h0c1.63,0,3-1.73,3-3.88v-3.16h0c-.39-.5-.75-1-1.15-1.51a124.55,124.55,0,0,0-15-15.49q-8.14-7.11-15-13.31a108.31,108.31,0,0,1-9.73-10h0l-12.72-.07Z"/><path class="cls-2" d="M294.09,48.93q-12.18-8.68-21.84-12.31T255.6,33.67q-7,.69-10.81,5.37t-4.07,12.28a33.66,33.66,0,0,0,3.16,15.42A70.46,70.46,0,0,0,252.7,81q3.39,4.29,7.12,8.53h0l98.6,5.63h0Z"/><path class="cls-2" d="M288.08,135.29v.05c-.08,2.31,1.54,4.07,3.22,3.36l34.41-14.53a0,0,0,0,0,0,0l-40.58-2.32h0A28,28,0,0,1,288.08,135.29Z"/><path class="cls-1" d="M390,129.14l-4.17,1.76h0q6.42,5.82,6,20.24a46.55,46.55,0,0,1-11.23,29.29q-10.05,11.87-27.26,18.05a3.6,3.6,0,0,0-2.2,2.72c-.55,2.72,1.08,5.15,3.07,4.94l39.61-4.1q6.14-.74,6.47-10.87L405.37,35.1q.33-10.14-5.73-11.57l-39.2-8.6c-1.75-.38-3.35,1.34-3.43,3.67h0A4,4,0,0,0,359,22.42q16.59,8.11,26,21.31a49,49,0,0,1,9.39,30.65q-.35,10.5-5.18,16.39a17.91,17.91,0,0,1-1.31,1.42,12.8,12.8,0,0,0,3.47-2.51s0,0,0,0L390,129.14Z"/><path class="cls-1" d="M227.12,201.1c1.8-2.79,3.76-4.22,7.07-5.72L385.8,130.91h0a16.21,16.21,0,0,0-10.34-3.9l-49.73-2.84h0l-38.3,16.17h0a31.83,31.83,0,0,0,.65-5,28.11,28.11,0,0,0-3-13.45h0l-12.7-.73c.56.72,1.12,1.43,1.64,2.13q4.44,6.06,4.27,11.5-.27,8.32-6.52,12.32h0l-35.94,15q-5,1.89-7.45-.24T223,151.17h0l-4.87-.28h0L216,216.06h0l4.87.28h0Q224.41,205.3,227.12,201.1Z"/><path class="cls-1" d="M236,71.87h0a3.14,3.14,0,0,1,2.61,2.44q2.46,8,4.62,11A9.15,9.15,0,0,0,250.54,89l9.27.53a0,0,0,0,0,0,0c-2.49-2.83-4.87-5.66-7.12-8.52a70.46,70.46,0,0,1-8.82-14.29,33.66,33.66,0,0,1-3.16-15.42q.24-7.6,4.07-12.28t10.81-5.37q7-.69,16.65,2.95t21.84,12.31l64.35,46.26h0l18,1a14.39,14.39,0,0,0,11.34-4,13.59,13.59,0,0,1-4,1.23q-4.43.64-9.21-2.53L272.5,21.57q-10.29-7.11-19.75-9.1T235.86,13A22.74,22.74,0,0,0,224,22.07q-4.5,6.63-4.84,17.14A52.1,52.1,0,0,0,223,61.38a88.59,88.59,0,0,0,9.75,17.36h0l.1-3.14C233,73.44,234.34,71.78,236,71.87Z"/><path class="cls-1" d="M358.44,95.19,361,97q5.5,3.57,5.4,6.84t-6.3,5.8l-34.32,14.5h0L375.46,127a16.28,16.28,0,0,1,10.35,3.9h0l4.18-1.76h0l1.3-39.46s0,0,0,0a12.8,12.8,0,0,1-3.47,2.51h0a14.39,14.39,0,0,1-11.34,4Z"/><path class="cls-1" d="M285.12,121.81a76.37,76.37,0,0,0-9.1-13.87q-5.41-6.66-11.66-13.37c-1.56-1.66-3.06-3.33-4.53-5h0L250.54,89a9.15,9.15,0,0,1-7.33-3.69q-2.16-3-4.62-11A3.14,3.14,0,0,0,236,71.87h0c-1.63-.09-3,1.57-3.08,3.72l-.1,3.16h0c.37.52.72,1.06,1.11,1.57a129.83,129.83,0,0,0,14.5,16.25q7.93,7.52,14.57,14.07a112.56,112.56,0,0,1,9.44,10.47h0l12.7.73Z"/></g></g></svg>