<svg xmlns="http://www.w3.org/2000/svg" viewBox="0 0 486.16 223.78"><defs><style>.cls-1{fill:#60002b;}</style></defs><g id="Layer_2" data-name="Layer 2"><g id="Layer_1-2" data-name="Layer 1"><path class="cls-1" d="M230.63,182.27l-3.46-.15a50.27,50.27,0,0,1-27.82-9.77q-15.19-11.13-17-28.28l11.73-5.26a24,24,0,0,0,7.07-4.74,18.17,18.17,0,0,0,4.06-5.34V153.1a19.81,19.81,0,0,0,7.07,15.34,26.78,26.78,0,0,0,18.34,6.77h.6A24.53,24.53,0,0,0,249,167.08a25,25,0,0,0,6.92-17.74q0-15-13.69-22.86l-.15-.15L203,108.43Q188.08,100,183.41,85.57a31.81,31.81,0,0,1-1.35-9.17l.15-2.71q2.25-18.8,20.6-29.17a53,53,0,0,1,21.51-6.77c.6-.1,1.27-.18,2-.23s1.5-.07,2.25-.07h2l5,.15,1.5.15a61.17,61.17,0,0,1,6.17,1.2,23.16,23.16,0,0,1,3.76.9l3.3,1.21A38,38,0,0,1,256,43.54a40.3,40.3,0,0,1,5,3.23l2.11,1.51,2.1,1.8c1.3,1.2,2.61,2.51,3.91,3.91.6.8,1.23,1.61,1.88,2.41a25.26,25.26,0,0,1,1.51,2c.35.55.72,1.18,1.12,1.88a40.6,40.6,0,0,1,2.86,5.56,35.79,35.79,0,0,1,1.05,3.46l.16.15a27.42,27.42,0,0,1,.9,4.21l.3,1.81L267,80.76a25,25,0,0,0-7,4.81,19.59,19.59,0,0,0-4.13,5.27v-22a23.09,23.09,0,0,0-6.62-16.54,24.82,24.82,0,0,0-17.14-7.82h-3A24.85,24.85,0,0,0,212,52.34a22.81,22.81,0,0,0-6.76,16.54q0,13.53,12.78,21.05a18.73,18.73,0,0,0,3.61,1.66l34.14,15.49.15.15q17.44,8.88,22.26,26.32a30.29,30.29,0,0,1,.9,7.37v2.25q-1.8,22.11-23.16,33.09a56.58,56.58,0,0,1-18.2,5.56Z"/><path class="cls-1" d="M334.19,184.27l-3.46-.15a50.27,50.27,0,0,1-27.83-9.77q-15.18-11.13-17-28.28l11.73-5.26a23.84,23.84,0,0,0,7.07-4.74,18,18,0,0,0,4.06-5.34V155.1a19.81,19.81,0,0,0,7.07,15.34,26.78,26.78,0,0,0,18.35,6.77h.6a24.51,24.51,0,0,0,17.74-8.13,25,25,0,0,0,6.92-17.74q0-15-13.68-22.86l-.15-.15-39.11-17.9Q291.63,102,287,87.57a31.81,31.81,0,0,1-1.35-9.17l.15-2.71q2.25-18.8,20.6-29.17a53,53,0,0,1,21.51-6.77c.6-.1,1.28-.18,2-.23s1.5-.07,2.25-.07h2l5,.15,1.5.15a61.17,61.17,0,0,1,6.17,1.2,22.92,22.92,0,0,1,3.76.9l3.31,1.21a38.93,38.93,0,0,1,5.64,2.48,40.93,40.93,0,0,1,5,3.23l2.11,1.51,2.11,1.8c1.3,1.2,2.6,2.51,3.91,3.91.6.8,1.22,1.61,1.87,2.41a21.18,21.18,0,0,1,1.51,2c.35.55.73,1.18,1.13,1.88a43,43,0,0,1,2.86,5.56c.39,1.11.75,2.26,1.05,3.46l.15.15a26.28,26.28,0,0,1,.9,4.21l.3,1.81-11.88,5.26a24.76,24.76,0,0,0-7,4.81,19.46,19.46,0,0,0-4.14,5.27v-22a23.09,23.09,0,0,0-6.62-16.54,24.81,24.81,0,0,0-17.14-7.82h-3a24.81,24.81,0,0,0-17.14,7.82,22.82,22.82,0,0,0-6.77,16.54q0,13.53,12.78,21.05a19,19,0,0,0,3.61,1.66l34.14,15.49.15.15q17.44,8.88,22.26,26.32a30.29,30.29,0,0,1,.9,7.37v2.25q-1.8,22.11-23.16,33.09a56.5,56.5,0,0,1-18.2,5.56Z"/><path class="cls-1" d="M437.74,182.27A51.66,51.66,0,0,1,412.32,176,45.3,45.3,0,0,1,395,160.17a37,37,0,0,1-5.87-20.31V79.71A37.05,37.05,0,0,1,395,59.48a44.75,44.75,0,0,1,15.79-15,55,55,0,0,1,52-1.06A46.18,46.18,0,0,1,480.3,59.4a37.43,37.43,0,0,1,5.86,20.31v60.15a37,37,0,0,1-5.86,20.31,46.52,46.52,0,0,1-15.79,15A51.38,51.38,0,0,1,437.74,182.27Zm0-7.06a26.26,26.26,0,0,0,17.82-6.47Q463,162.28,463,153.1V66.47q0-9-7.44-15.49a28,28,0,0,0-35.79,0q-7.45,6.47-7.45,15.49V153.1q0,9.17,7.45,15.64A26.47,26.47,0,0,0,437.74,175.21Z"/><path class="cls-1" d="M78.5,166.78a12.9,12.9,0,0,0,2.94,5.64,40.66,40.66,0,0,0,5.49,5.64A21.3,21.3,0,0,0,92,181.52l9.47,4.21Q99.11,203,84.37,213.86A30.16,30.16,0,0,1,80,216.71l-1.51.91a52.35,52.35,0,0,1-25.26,6.16,52.67,52.67,0,0,1-25.42-6.16c-.5-.31-.95-.61-1.35-.91a44.39,44.39,0,0,1-15.94-15,37.05,37.05,0,0,1-5.87-20.23V18.8a8.17,8.17,0,0,0-1.2-4.36,7.85,7.85,0,0,0-3.46-3L27.82,0V194.76q0,9,7.45,15.49a26.46,26.46,0,0,0,18,6.46,26.18,26.18,0,0,0,17.89-6.46q7.38-6.48,7.37-15.49Zm70.54-49-47.38,21.5V154a21,21,0,0,0,6.55,13.91,26.39,26.39,0,0,0,15,7.14,24.53,24.53,0,0,0,3.91.31,26.09,26.09,0,0,0,17.82-6.55q7.44-6.54,7.45-15.56v-5.87l11.12-5,.91-.45a23.42,23.42,0,0,0,7.07-4.81,17.51,17.51,0,0,0,4.06-5.27v8.73q-1.37,22.55-21.66,34.74a10.49,10.49,0,0,0-1.5.75,42.94,42.94,0,0,1-8.13,3.46,53.92,53.92,0,0,1-17.14,2.7h-2.86a53.89,53.89,0,0,1-22.56-6.16,10.49,10.49,0,0,0-1.5-.75q-19.84-11.88-21.66-34V79.86a37,37,0,0,1,5.87-20.31,46.4,46.4,0,0,1,15.79-15,10.58,10.58,0,0,1,1.5-.76,54.06,54.06,0,0,1,50.69,0,10.58,10.58,0,0,1,1.5.76c1.5.9,3,1.85,4.36,2.85Q173,58.2,175.36,75.65c.09,1.4.15,2.85.15,4.36a37.51,37.51,0,0,1-6.17,20.9,47.3,47.3,0,0,1-8.12,9.18,49.74,49.74,0,0,1-8.87,6c-.71.4-1.46.81-2.26,1.2A7.18,7.18,0,0,1,149,117.76Zm-47.38-51v64.82l20.61-9.47,15.34-6.92q1-.45,1.95-.9h.15a23.2,23.2,0,0,0,11-11.13,19.62,19.62,0,0,0,1.66-8V65.72a21,21,0,0,0-8-15,28.19,28.19,0,0,0-35.27.52Q101.67,57.76,101.66,66.77Z"/><path class="cls-1" d="M23.52,18.27h206a14,14,0,0,1,14,14v0a0,0,0,0,1,0,0h-220a0,0,0,0,1,0,0v-14A0,0,0,0,1,23.52,18.27Z"/></g></g></svg>