<svg width="200" height="60" viewBox="0 0 200 60" fill="none" xmlns="http://www.w3.org/2000/svg">
<path d="M123.528 13.8846H131.087L138.343 38.2845L145.6 13.8846H153.159L142.454 49.1436C141.849 51.2127 141.234 53.279 140.61 55.348C139.984 57.4171 128.061 58.8047 128.061 58.8047C129.07 58.8047 132.466 56.3125 133.051 55.2793C133.634 54.2434 134.018 53.1059 134.2 51.8584C134.381 50.6109 134.29 49.4019 133.928 48.2259L123.525 13.8818L123.528 13.8846Z" fill="#2E3192"/>
<path d="M0 0.560547H28.7909V8.66914H7.55904V19.8827H25.0374V27.9913H7.55904V49.9238H0V0.560547Z" fill="#2E3192"/>
<path d="M27.4747 29.6182C27.4747 24.2574 28.8266 20.2292 31.5277 17.5254C34.2287 14.8216 37.8777 13.4697 42.4747 13.4697V21.2266C40.0566 21.2266 38.1607 21.9218 36.7896 23.3066C35.4185 24.6943 34.7343 26.7963 34.7343 29.6182V49.3635H27.4775V29.6182H27.4747Z" fill="#2E3192"/>
<path d="M57.002 42.2411C58.9776 42.2411 60.7004 41.5349 62.1732 40.1253C63.646 38.7157 65.0364 36.9517 66.347 34.8359C67.6577 32.7201 68.9876 30.4175 70.3395 27.9253C71.6886 25.4331 73.2631 23.1305 75.0574 21.0147C76.8517 18.899 78.9592 17.1377 81.3772 15.7253C83.7952 14.3157 86.7188 13.6096 90.148 13.6096C91.6812 13.6096 93.1733 13.8679 94.6241 14.3844C96.0749 14.9038 97.4268 15.6319 98.677 16.5716C99.9272 17.5141 101.035 18.6407 102.005 19.9569C102.972 21.273 103.738 22.7321 104.302 24.3285C103.01 26.3041 101.914 28.1616 101.004 29.9009C100.098 31.6403 99.1991 33.1927 98.3115 34.5556H82.2235C82.545 36.7648 83.3528 38.6003 84.6415 40.0566C85.933 41.5157 87.5651 42.2438 89.5407 42.2438C91.1124 42.2438 92.4946 41.9031 93.6843 41.2216C94.8741 40.5402 95.9622 39.6362 96.9514 38.5069C97.9378 37.3776 98.8666 36.0751 99.7349 34.5941C100.6 33.1131 101.469 31.5606 102.337 29.9394C103.203 28.3182 104.112 26.6943 105.06 25.0732C106.008 23.452 107.066 21.9352 108.236 20.5256V3.51711C108.236 1.57446 109.588 0 111.253 0H113.825C114.746 0 115.493 0.871035 115.493 1.9454V15.0219C116.54 14.552 117.669 14.2003 118.881 13.964C120.09 13.7305 121.401 13.6123 122.813 13.6123V21.3692C120.758 21.3692 118.991 21.7814 117.521 22.6029C116.048 23.4273 114.738 24.5071 113.589 25.848C112.44 27.1889 111.391 28.7167 110.443 30.4313C109.495 32.1486 108.558 33.8989 107.629 35.6849C106.7 37.471 105.714 39.224 104.664 40.9386C103.615 42.656 102.397 44.1837 101.004 45.5219C99.614 46.8628 97.99 47.9426 96.1353 48.7669C94.2806 49.5885 92.1016 50.0007 89.6039 50.0007C87.8701 50.0007 86.227 49.6957 84.6745 49.0829C83.122 48.4729 81.7097 47.6019 80.4402 46.4726C79.1708 45.3433 78.0909 43.9694 77.2034 42.3482C76.3158 40.7271 75.6509 38.9273 75.2085 36.9544C75.5712 36.2015 75.9944 35.369 76.478 34.4512C76.9616 33.5335 77.4754 32.6185 78.0194 31.7007C78.5635 30.783 79.1268 29.8927 79.7121 29.0217C80.2973 28.1534 80.8496 27.4115 81.3744 26.7987H97.1602C96.5145 25.0594 95.5363 23.7213 94.2256 22.7788C92.915 21.8391 91.5136 21.3692 90.0216 21.3692C87.9251 21.3692 86.1088 21.7814 84.5783 22.6029C83.0451 23.4273 81.6849 24.5071 80.4952 25.848C79.3054 27.1889 78.2283 28.7167 77.2583 30.4313C76.2911 32.1486 75.3322 33.8989 74.3842 35.6849C73.4362 37.471 72.4498 39.224 71.4194 40.9386C70.3917 42.656 69.2019 44.1837 67.85 45.5219C66.4982 46.8628 64.9567 47.9426 63.2228 48.7669C61.489 49.5885 59.4337 50.0007 57.0542 50.0007C54.6746 50.0007 52.5781 49.5665 50.6437 48.6955C48.7093 47.8272 47.0551 46.5935 45.684 44.9943C44.3129 43.3951 43.255 41.4689 42.5076 39.2103C41.7602 36.9544 41.3893 34.4622 41.3893 31.7337C41.3893 29.0052 41.7602 26.5267 42.5076 24.2928C43.2523 22.0616 44.3129 20.1574 45.684 18.5802C47.0551 17.0058 48.7093 15.783 50.6437 14.912C52.5781 14.0437 54.7158 13.6068 57.0542 13.6068C60.5218 13.6068 63.4949 14.4998 65.9761 16.2859C68.4546 18.0719 70.2598 20.5861 71.3891 23.8312C70.1389 25.6639 68.9711 27.5681 67.8803 29.5437C66.7922 31.5194 65.8442 33.1872 65.0364 34.5501H48.8879C49.289 36.9956 50.1985 38.8861 51.6109 40.227C53.0232 41.5679 54.8175 42.2383 56.9937 42.2383L57.002 42.2411ZM64.6215 26.796C63.9757 25.0567 62.9975 23.7185 61.6869 22.776C60.3762 21.8363 58.8127 21.3665 56.9992 21.3665C55.1857 21.3665 53.6332 21.8363 52.3418 22.776C51.0503 23.7185 50.0831 25.0567 49.4374 26.796H64.6187H64.6215ZM108.533 37.2319C108.654 36.6686 108.976 35.8223 109.5 34.693C110.022 33.5637 110.638 32.3904 111.344 31.1677C112.05 29.9449 112.776 28.7826 113.52 27.678C114.265 26.5734 114.922 25.7628 115.485 25.2463V33.0746C115.485 36.3197 116.098 38.636 117.329 40.0209C118.557 41.4085 120.604 42.1009 123.467 42.1009V49.8578C119.153 49.8578 115.735 48.7889 113.215 46.6484C110.696 44.5107 109.132 41.37 108.528 37.2347L108.533 37.2319Z" fill="#F16623"/>
<path d="M165.527 13.4697C168.189 13.4697 170.335 14.011 171.967 15.0909C173.6 16.1735 174.88 17.5144 175.809 19.1108C176.735 17.5144 178.018 16.1735 179.65 15.0909C181.282 14.011 183.431 13.4697 186.091 13.4697C188.591 13.4697 190.718 13.9533 192.471 14.915C194.224 15.8795 195.667 17.1022 196.796 18.5833C197.925 20.0643 198.741 21.6745 199.244 23.4138C199.747 25.1531 200 26.799 200 28.3515V49.3662H192.743V28.5631C192.743 27.2936 192.562 26.2138 192.199 25.318C191.836 24.425 191.353 23.6721 190.748 23.0621C190.144 22.4521 189.438 22.0042 188.633 21.7212C187.825 21.4382 186.978 21.298 186.091 21.298C185.203 21.298 184.357 21.4382 183.552 21.7212C182.744 22.0042 182.041 22.4494 181.436 23.0621C180.832 23.6748 180.348 24.425 179.985 25.318C179.623 26.211 179.441 27.2909 179.441 28.5631V49.3662H172.185V28.5631C172.185 27.2936 172.003 26.2138 171.64 25.318C171.278 24.425 170.794 23.6721 170.19 23.0621C169.585 22.4521 168.879 22.0042 168.074 21.7212C167.266 21.4382 166.42 21.298 165.535 21.298C164.65 21.298 163.801 21.4382 162.996 21.7212C162.188 22.0042 161.485 22.4494 160.88 23.0621C160.276 23.6748 159.792 24.425 159.429 25.318C159.067 26.211 158.885 27.2909 158.885 28.5631V49.3662H151.629V28.3515C151.629 26.799 151.881 25.1559 152.384 23.4138C152.887 21.6745 153.706 20.0643 154.833 18.5833C155.962 17.1022 157.404 15.8795 159.157 14.915C160.911 13.9533 163.037 13.4697 165.538 13.4697H165.527Z" fill="#2E3192"/>
<path d="M4.44308 54.7929H2.2284V57.1038H4.69587V57.799H1.49475V51.3857H4.56948V52.0809H2.2284V54.106H4.44308V54.7902V54.7929Z" fill="black"/>
<path d="M5.62733 54.4408C5.62733 53.9654 5.61909 53.5752 5.59436 53.1933H6.24558L6.27855 53.9352H6.30328C6.53134 53.4983 6.91053 53.0889 7.58647 53.0889C8.14427 53.0889 8.56742 53.4708 8.74327 54.0121H8.75976C8.88616 53.7566 9.04827 53.556 9.21589 53.4131C9.46044 53.2043 9.73246 53.0889 10.1199 53.0889C10.6612 53.0889 11.4635 53.4873 11.4635 55.0865V57.7985H10.7381V55.1909C10.7381 54.3061 10.4496 53.7731 9.85061 53.7731C9.42746 53.7731 9.09773 54.1248 8.97134 54.5342C8.93836 54.6496 8.91363 54.8007 8.91363 54.9518V57.7957H8.18823V55.037C8.18823 54.3034 7.89972 53.7731 7.33368 53.7731C6.86931 53.7731 6.53134 54.1907 6.41319 54.6111C6.37197 54.7348 6.35274 54.8776 6.35274 55.0205V57.7985H5.62733V54.4408Z" fill="black"/>
<path d="M12.6698 54.6963C12.6698 54.1055 12.6533 53.6302 12.6368 53.1933H13.3045L13.3375 53.9819H13.354C13.659 53.4213 14.1399 53.0889 14.8076 53.0889C15.7967 53.0889 16.5386 54.0313 16.5386 55.4299C16.5386 57.0841 15.6429 57.9029 14.6812 57.9029C14.1399 57.9029 13.6672 57.6364 13.4227 57.1803H13.4062V59.6835H12.6726V54.699L12.6698 54.6963ZM13.4035 55.9245C13.4035 56.0482 13.4199 56.1636 13.4364 56.268C13.5711 56.8478 14.019 57.249 14.552 57.249C15.3379 57.249 15.794 56.5263 15.794 55.4712C15.794 54.5479 15.3626 53.7593 14.5767 53.7593C14.0712 53.7593 13.5958 54.1687 13.4529 54.7952C13.4282 54.8996 13.4035 55.0233 13.4035 55.1387V55.9273V55.9245Z" fill="black"/>
<path d="M21.1769 55.4574C21.1769 57.161 20.13 57.9029 19.1408 57.9029C18.0334 57.9029 17.1816 56.9907 17.1816 55.5344C17.1816 53.9929 18.0774 53.0889 19.2095 53.0889C20.3415 53.0889 21.1769 54.0506 21.1769 55.4574ZM17.9318 55.5041C17.9318 56.5126 18.4484 57.2737 19.1738 57.2737C19.8992 57.2737 20.4157 56.5235 20.4157 55.4849C20.4157 54.7045 20.0695 53.7154 19.1902 53.7154C18.311 53.7154 17.9318 54.6276 17.9318 55.5041Z" fill="black"/>
<path d="M22.3502 53.1934L22.8915 55.5344C23.0096 56.0483 23.1195 56.5236 23.1965 56.999H23.2212C23.3146 56.5319 23.4493 56.0373 23.5839 55.5427L24.2516 53.1934H24.8754L25.5101 55.496C25.6612 56.0483 25.7794 56.5319 25.8728 56.999H25.8975C25.9662 56.5319 26.0761 56.0483 26.2108 55.5042L26.7933 53.1934H27.5269L26.208 57.7986H25.5321L24.9056 55.6004C24.7627 55.0866 24.6445 54.6304 24.5429 54.0891H24.5264C24.4247 54.6414 24.2983 55.1168 24.1554 55.6114L23.496 57.7986H22.82L21.5863 53.1934H22.3474H22.3502Z" fill="black"/>
<path d="M28.6013 55.6468C28.6178 56.7789 29.2608 57.246 30.0027 57.246C30.5357 57.246 30.8572 57.1416 31.1347 57.007L31.2611 57.606C31.0001 57.7379 30.5522 57.8917 29.901 57.8917C28.6425 57.8917 27.8896 56.9603 27.8896 55.5699C27.8896 54.1795 28.6151 53.0859 29.8076 53.0859C31.143 53.0859 31.4974 54.4076 31.4974 55.2539C31.4974 55.4243 31.4809 55.5589 31.4727 55.6441H28.6013V55.6468ZM30.7803 55.0478C30.7885 54.5148 30.5852 53.6877 29.7499 53.6877C28.997 53.6877 28.6673 54.4681 28.6096 55.0478H30.7803Z" fill="black"/>
<path d="M32.4179 54.6304C32.4179 54.089 32.4096 53.6219 32.3849 53.1933H33.0361L33.0608 54.0973H33.0938C33.2807 53.479 33.7285 53.0889 34.2259 53.0889C34.3111 53.0889 34.3688 53.0971 34.4375 53.1163V53.9049C34.3605 53.8857 34.2863 53.8775 34.1847 53.8775C33.6598 53.8775 33.2889 54.3254 33.1872 54.9518C33.1707 55.0672 33.1543 55.1991 33.1543 55.342V57.7957H32.4206V54.6276L32.4179 54.6304Z" fill="black"/>
<path d="M37.7321 51.3857V57.799H36.9984V51.3857H37.7321Z" fill="black"/>
<path d="M39.0756 54.4408C39.0756 53.9654 39.0673 53.5752 39.0426 53.1933H39.7021L39.7433 53.9544H39.7598C39.9631 53.5175 40.4357 53.0889 41.1117 53.0889C41.6777 53.0889 42.557 53.4708 42.557 55.048V57.7985H41.8123V55.1442C41.8123 54.4023 41.5678 53.784 40.8671 53.784C40.378 53.784 39.9961 54.1742 39.8697 54.6413C39.8367 54.7458 39.8202 54.8886 39.8202 55.0315V57.8012H39.0756V54.4435V54.4408Z" fill="black"/>
<path d="M43.8375 57.7986V53.8309H43.2632V53.1934H43.8375V52.9928C43.8375 52.3553 44.0326 51.7838 44.4117 51.4046C44.7332 51.0996 45.1564 50.9375 45.7224 50.9375C46.195 50.9375 46.6429 51.0529 46.9479 51.2425V57.7959H46.2143V51.7069C46.0879 51.6299 45.8928 51.5832 45.607 51.5832C44.8294 51.5832 44.5766 52.2207 44.5766 52.9626V53.1906H45.5301V53.8281H44.5766V57.7959H43.8402L43.8375 57.7986Z" fill="black"/>
<path d="M51.6027 56.5429C51.6027 57.0182 51.6109 57.4359 51.6356 57.7986H50.9762L50.935 57.0457H50.9185C50.7234 57.4166 50.292 57.903 49.5666 57.903C48.9236 57.903 48.157 57.5046 48.157 55.8861V53.1934H48.9016V55.7433C48.9016 56.6198 49.1379 57.2078 49.8139 57.2078C50.3112 57.2078 50.6574 56.8176 50.7948 56.4467C50.836 56.323 50.8635 56.1719 50.8635 56.018V53.1934H51.6082V56.5429H51.6027Z" fill="black"/>
<path d="M53.2485 55.6468C53.265 56.7789 53.908 57.246 54.6499 57.246C55.1829 57.246 55.5044 57.1416 55.7819 57.007L55.9083 57.606C55.6473 57.7379 55.1994 57.8917 54.5482 57.8917C53.2897 57.8917 52.5369 56.9603 52.5369 55.5699C52.5369 54.1795 53.2623 53.0859 54.4548 53.0859C55.7902 53.0859 56.1447 54.4076 56.1447 55.2539C56.1447 55.4243 56.1282 55.5589 56.1199 55.6441H53.2485V55.6468ZM55.4275 55.0478C55.4357 54.5148 55.2324 53.6877 54.3971 53.6877C53.6442 53.6877 53.3145 54.4681 53.2568 55.0478H55.4275Z" fill="black"/>
<path d="M57.0652 54.4408C57.0652 53.9654 57.057 53.5752 57.0322 53.1933H57.6917L57.7329 53.9544H57.7494C57.9527 53.5175 58.4253 53.0889 59.1013 53.0889C59.6673 53.0889 60.5466 53.4708 60.5466 55.048V57.7985H59.802V55.1442C59.802 54.4023 59.5574 53.784 58.8567 53.784C58.3676 53.784 57.9857 54.1742 57.8593 54.6413C57.8263 54.7458 57.8098 54.8886 57.8098 55.0315V57.8012H57.0652V54.4435V54.4408Z" fill="black"/>
<path d="M64.6681 57.6279C64.473 57.7433 64.0416 57.8944 63.4948 57.8944C62.2611 57.8944 61.4587 56.9519 61.4587 55.5451C61.4587 54.1383 62.3215 53.0996 63.6542 53.0996C64.0938 53.0996 64.4813 53.2233 64.6846 53.3387L64.517 53.9844C64.3384 53.869 64.0609 53.7646 63.6542 53.7646C62.7172 53.7646 62.2089 54.5449 62.2089 55.5066C62.2089 56.5728 62.8161 57.2295 63.6295 57.2295C64.0526 57.2295 64.3301 57.1058 64.5417 57.0014L64.6681 57.6306V57.6279Z" fill="black"/>
<path d="M65.9019 55.6468C65.9183 56.7789 66.5613 57.246 67.3032 57.246C67.8363 57.246 68.1577 57.1416 68.4353 57.007L68.5617 57.606C68.3006 57.7379 67.8528 57.8917 67.2015 57.8917C65.9431 57.8917 65.1902 56.9603 65.1902 55.5699C65.1902 54.1795 65.9156 53.0859 67.1081 53.0859C68.4435 53.0859 68.798 54.4076 68.798 55.2539C68.798 55.4243 68.7815 55.5589 68.7732 55.6441H65.9019V55.6468ZM68.0808 55.0478C68.0891 54.5148 67.8857 53.6877 67.0504 53.6877C66.2975 53.6877 65.9678 54.4681 65.9101 55.0478H68.0808Z" fill="black"/>
<path d="M69.7185 54.6304C69.7185 54.089 69.7103 53.6219 69.6855 53.1933H70.3368L70.3615 54.0973H70.3945C70.5813 53.479 71.0292 53.0889 71.5265 53.0889C71.6117 53.0889 71.6694 53.0971 71.7381 53.1163V53.9049C71.6612 53.8857 71.587 53.8775 71.4853 53.8775C70.9605 53.8775 70.5896 54.3254 70.4879 54.9518C70.4714 55.0672 70.4549 55.1991 70.4549 55.342V57.7957H69.7213V54.6276L69.7185 54.6304Z" fill="black"/>
<path d="M72.3783 56.9412C72.5981 57.1033 72.9855 57.2737 73.3592 57.2737C73.9005 57.2737 74.1533 56.9687 74.1533 56.5895C74.1533 56.1911 73.9417 55.9712 73.3922 55.7432C72.6585 55.4492 72.3096 54.9931 72.3096 54.4408C72.3096 53.6989 72.8426 53.0889 73.7192 53.0889C74.1341 53.0889 74.4968 53.2208 74.7248 53.3746L74.538 53.9846C74.3786 53.8692 74.0819 53.7181 73.7027 53.7181C73.263 53.7181 73.0185 54.0039 73.0185 54.3473C73.0185 54.7265 73.263 54.8996 73.7961 55.1277C74.505 55.4327 74.8677 55.8311 74.8677 56.518C74.8677 57.3259 74.3099 57.8974 73.34 57.8974C72.8921 57.8974 72.4772 57.7738 72.1914 57.5842L72.3783 56.9467V56.9412Z" fill="black"/>
<path d="M77.5495 54.916V55.5343H75.464V54.916H77.5495Z" fill="black"/>
<path d="M81.3936 54.7929H79.179V57.1038H81.6464V57.799H78.4453V51.3857H81.52V52.0809H79.179V54.106H81.3936V54.7902V54.7929Z" fill="black"/>
<path d="M82.5752 51.0449H83.3198V57.7989H82.5752V51.0449Z" fill="black"/>
<path d="M84.9822 55.6468C84.9987 56.7789 85.6416 57.246 86.3835 57.246C86.9166 57.246 87.2381 57.1416 87.5156 57.007L87.642 57.606C87.381 57.7379 86.9331 57.8917 86.2819 57.8917C85.0234 57.8917 84.2705 56.9603 84.2705 55.5699C84.2705 54.1795 84.9959 53.0859 86.1884 53.0859C87.5238 53.0859 87.8783 54.4076 87.8783 55.2539C87.8783 55.4243 87.8618 55.5589 87.8536 55.6441H84.9822V55.6468ZM87.1611 55.0478C87.1694 54.5148 86.966 53.6877 86.1307 53.6877C85.3778 53.6877 85.0481 54.4681 84.9904 55.0478H87.1611Z" fill="black"/>
<path d="M89.0873 53.1934L89.8897 55.7817C90.0243 56.1994 90.1342 56.5813 90.2194 56.9605H90.2441C90.3375 56.5813 90.4557 56.1994 90.5903 55.7817L91.3844 53.1934H92.162L90.5574 57.7986H89.8484L88.2932 53.1934H89.0873Z" fill="black"/>
<path d="M95.0939 57.7985L95.0362 57.2187H95.0114C94.7834 57.5814 94.3437 57.9029 93.7612 57.9029C92.9341 57.9029 92.511 57.2462 92.511 56.5812C92.511 55.4684 93.3903 54.8584 94.9702 54.8694V54.7732C94.9702 54.394 94.8768 53.7071 94.0415 53.7071C93.6623 53.7071 93.2639 53.839 92.9781 54.0506L92.8105 53.4983C93.1485 53.251 93.6376 53.0889 94.1541 53.0889C95.4044 53.0889 95.7094 54.0506 95.7094 54.9738V56.6967C95.7094 57.0951 95.7259 57.4853 95.7781 57.8012H95.1021L95.0939 57.7985ZM94.984 55.4492C94.1734 55.4299 93.2529 55.5921 93.2529 56.4851C93.2529 57.0264 93.5744 57.2847 93.9536 57.2847C94.4866 57.2847 94.8246 56.9055 94.9427 56.5153C94.9675 56.4301 94.984 56.334 94.984 56.2488V55.4492Z" fill="black"/>
<path d="M97.7619 51.8721V53.1937H98.8253V53.8312H97.7619V56.3152C97.7619 56.8867 97.9048 57.2082 98.3197 57.2082C98.5148 57.2082 98.6577 57.1807 98.7511 57.1505L98.7841 57.7797C98.6412 57.8457 98.4131 57.8951 98.1246 57.8951C97.7784 57.8951 97.4981 57.7715 97.3223 57.5434C97.1107 57.2961 97.0338 56.8867 97.0338 56.3454V53.834H96.399V53.1965H97.0338V52.0919L97.7592 51.8721H97.7619Z" fill="black"/>
<path d="M100.026 55.6468C100.043 56.7789 100.686 57.246 101.427 57.246C101.961 57.246 102.282 57.1416 102.56 57.007L102.686 57.606C102.425 57.7379 101.977 57.8917 101.326 57.8917C100.067 57.8917 99.3145 56.9603 99.3145 55.5699C99.3145 54.1795 100.04 53.0859 101.232 53.0859C102.568 53.0859 102.922 54.4076 102.922 55.2539C102.922 55.4243 102.906 55.5589 102.898 55.6441H100.026V55.6468ZM102.205 55.0478C102.213 54.5148 102.01 53.6877 101.175 53.6877C100.422 53.6877 100.092 54.4681 100.034 55.0478H102.205Z" fill="black"/>
<path d="M105.659 51.4708C105.98 51.3938 106.486 51.3389 107.003 51.3389C107.736 51.3389 108.212 51.4817 108.566 51.806C108.863 52.0533 109.039 52.4352 109.039 52.9381C109.039 53.5563 108.676 54.0976 108.074 54.3449V54.3641C108.616 54.5153 109.247 55.0208 109.247 55.9716C109.247 56.5239 109.052 56.9415 108.767 57.2548C108.368 57.6642 107.728 57.8538 106.799 57.8538C106.294 57.8538 105.903 57.8153 105.659 57.7768V51.4708ZM106.393 54.0976H107.06C107.838 54.0976 108.294 53.6415 108.294 53.0232C108.294 52.2704 107.788 51.9763 107.044 51.9763C106.706 51.9763 106.511 52.0038 106.393 52.034V54.0976ZM106.393 57.1696C106.535 57.1971 106.747 57.208 107.011 57.208C107.772 57.208 108.473 56.8948 108.473 55.9606C108.473 55.084 107.805 54.7241 107.003 54.7241H106.395V57.1696H106.393Z" fill="black"/>
<path d="M110.212 54.6304C110.212 54.089 110.204 53.6219 110.179 53.1933H110.83L110.855 54.0973H110.888C111.075 53.479 111.523 53.0889 112.02 53.0889C112.105 53.0889 112.163 53.0971 112.232 53.1163V53.9049C112.155 53.8857 112.08 53.8775 111.979 53.8775C111.454 53.8775 111.083 54.3254 110.981 54.9518C110.965 55.0672 110.948 55.1991 110.948 55.342V57.7957H110.212V54.6276V54.6304Z" fill="black"/>
<path d="M115.196 57.7985L115.136 57.2187H115.111C114.883 57.5814 114.443 57.9029 113.861 57.9029C113.034 57.9029 112.611 57.2462 112.611 56.5812C112.611 55.4684 113.49 54.8584 115.07 54.8694V54.7732C115.07 54.394 114.977 53.7071 114.141 53.7071C113.762 53.7071 113.364 53.839 113.078 54.0506L112.907 53.4983C113.245 53.251 113.735 53.0889 114.251 53.0889C115.501 53.0889 115.806 54.0506 115.806 54.9738V56.6967C115.806 57.0951 115.823 57.4853 115.875 57.8012H115.199L115.196 57.7985ZM115.086 55.4492C114.276 55.4299 113.355 55.5921 113.355 56.4851C113.355 57.0264 113.677 57.2847 114.056 57.2847C114.589 57.2847 114.927 56.9055 115.045 56.5153C115.07 56.4301 115.086 56.334 115.086 56.2488V55.4492Z" fill="black"/>
<path d="M117.002 54.4408C117.002 53.9654 116.993 53.5752 116.969 53.1933H117.628L117.669 53.9544H117.686C117.889 53.5175 118.362 53.0889 119.038 53.0889C119.604 53.0889 120.483 53.4708 120.483 55.048V57.7985H119.738V55.1442C119.738 54.4023 119.494 53.784 118.793 53.784C118.304 53.784 117.922 54.1742 117.796 54.6413C117.763 54.7458 117.746 54.8886 117.746 55.0315V57.8012H117.002V54.4435V54.4408Z" fill="black"/>
<path d="M125.223 51.0447V56.6089C125.223 57.0183 125.231 57.4855 125.256 57.7987H124.588L124.555 56.9991H124.539C124.311 57.5129 123.813 57.9031 123.146 57.9031C122.156 57.9031 121.395 56.9606 121.395 55.562C121.387 54.0315 122.231 53.0891 123.228 53.0891C123.852 53.0891 124.275 53.4215 124.462 53.7925H124.478V51.042H125.223V51.0447ZM124.478 55.0702C124.478 54.9658 124.47 54.8229 124.445 54.7185C124.335 54.1854 123.929 53.7485 123.374 53.7485C122.604 53.7485 122.148 54.5096 122.148 55.5263C122.148 56.4578 122.555 57.2299 123.357 57.2299C123.855 57.2299 124.311 56.859 124.448 56.2297C124.473 56.1143 124.481 56.0017 124.481 55.867V55.0674L124.478 55.0702Z" fill="black"/>
<path d="M126.352 56.9412C126.572 57.1033 126.96 57.2737 127.333 57.2737C127.875 57.2737 128.127 56.9687 128.127 56.5895C128.127 56.1911 127.916 55.9712 127.366 55.7432C126.633 55.4492 126.284 54.9931 126.284 54.4408C126.284 53.6989 126.817 53.0889 127.693 53.0889C128.108 53.0889 128.471 53.2208 128.699 53.3746L128.512 53.9846C128.353 53.8692 128.056 53.7181 127.677 53.7181C127.237 53.7181 126.992 54.0039 126.992 54.3473C126.992 54.7265 127.237 54.8996 127.77 55.1277C128.479 55.4327 128.842 55.8311 128.842 56.518C128.842 57.3259 128.284 57.8974 127.314 57.8974C126.866 57.8974 126.451 57.7738 126.165 57.5842L126.352 56.9467V56.9412Z" fill="black"/>
</svg>
