<svg width="60" height="60" viewBox="0 0 60 60" fill="none" xmlns="http://www.w3.org/2000/svg">
<g clip-path="url(#clip0_214_1514)">
<path fill-rule="evenodd" clip-rule="evenodd" d="M10.2854 0H49.7146C52.4401 0.00759468 55.0518 1.09367 56.9791 3.02092C58.9063 4.94816 59.9924 7.55988 60 10.2854V49.7146C59.9924 52.4401 58.9063 55.0518 56.9791 56.9791C55.0518 58.9063 52.4401 59.9924 49.7146 60H10.2854C7.55988 59.9924 4.94816 58.9063 3.02092 56.9791C1.09367 55.0518 0.00759468 52.4401 0 49.7146L0 10.2854C0.00853865 7.56017 1.09492 4.949 3.02196 3.02196C4.949 1.09492 7.56017 0.00853865 10.2854 0Z" fill="#2E3192"/>
<path fill-rule="evenodd" clip-rule="evenodd" d="M30.7844 37.357L30.8275 37.1052C31.7773 34.0149 33.2739 29.946 35.767 27.6004C39.4976 24.0892 45.8869 24.5893 48.8153 28.874C51.9991 33.5508 49.6283 40.0084 44.3867 41.7568C41.8037 42.6202 38.422 42.3828 35.695 42.3072C32.9681 42.2317 30.1548 41.9475 27.5142 42.0914C27.5142 42.041 27.3235 43.0375 27.2192 43.6203C26.7155 46.3005 26.2371 49.657 24.8484 51.999C22.0351 56.755 15.2105 57.712 11.3216 53.6143C7.74922 49.8513 8.60904 43.498 12.8254 40.5876C15.4912 38.7528 19.9054 38.0441 23.1575 37.7635C23.4986 34.528 23.5972 31.2716 23.4525 28.0213L21.7617 27.5788C18.7829 26.7982 15.8293 26.3521 13.311 24.3842C9.28178 21.2256 8.8105 14.8327 12.5915 11.2927C13.9855 9.98716 15.7904 9.20746 17.6965 9.08742C19.4366 9.14952 21.1327 9.65164 22.6262 10.5469C24.1198 11.4421 25.362 12.7013 26.2371 14.2067C27.1796 16.3401 27.489 19.067 27.7696 21.4414C29.831 21.0025 31.8924 20.4593 33.8531 19.8369V18.0885C33.8531 15.009 33.4933 12.0446 34.7525 9.09462C36.7491 4.38902 42.811 2.28085 47.2036 5.03658C48.8255 6.04311 50.0456 7.5838 50.6536 9.39322C51.0424 11.0891 50.9952 12.8559 50.5165 14.5287C50.0378 16.2014 49.1431 17.7257 47.9159 18.9591C45.8941 20.5852 42.9513 21.6465 40.5877 22.607C39.9653 22.8625 39.3429 23.1035 38.717 23.3265C35.7634 24.6432 32.0651 25.593 28.669 26.2621L28.338 26.3341C28.6438 29.9568 28.4208 34.0508 28.097 37.4325C28.994 37.3942 29.8898 37.3678 30.7844 37.3534V37.357ZM45.0379 14.9694C43.7248 16.1566 40.5337 17.333 38.7421 18.0597C38.7421 15.6314 38.4436 12.9296 39.253 11.0229C40.0121 9.22413 42.6311 7.9506 44.6062 9.18816C46.905 10.6272 46.4661 13.6743 45.0379 14.9694ZM21.6538 15.9588C22.4596 17.5309 22.769 20.9198 23.0064 22.8373C20.6608 22.2221 17.9699 21.8012 16.3438 20.524C14.8148 19.3297 14.25 16.466 15.9552 14.8759C17.9339 13.0267 20.7724 14.2427 21.6538 15.9552V15.9588ZM15.6099 44.6097C17.3115 43.4333 20.0205 43.1706 22.3985 42.7066C22.0387 44.6061 21.5315 47.9662 20.6321 49.4879C19.6463 51.15 16.7431 52.1897 14.876 50.2254C13.2715 48.5346 14.0054 45.7105 15.5955 44.6097H15.6099ZM39.1235 31.1584C37.6161 32.5759 36.7923 35.1661 35.8317 37.393C37.7636 37.4469 41.1597 37.652 42.8362 37.0944C44.6673 36.4828 46.2934 33.8566 44.7681 31.6261C43.4513 29.7014 40.5373 29.8273 39.1235 31.1584Z" fill="#F16623"/>
</g>
<defs>
<clipPath id="clip0_214_1514">
<rect width="60" height="60" fill="white"/>
</clipPath>
</defs>
</svg>
