<svg width="200" height="60" viewBox="0 0 200 60" fill="none" xmlns="http://www.w3.org/2000/svg">
<g clip-path="url(#clip0_210_8931)">
<path d="M123.528 13.8843H131.087L138.343 38.2843L145.6 13.8843H153.159L142.454 49.1434C141.85 51.2124 141.234 53.2787 140.61 55.3478C139.984 57.4168 128.061 58.8045 128.061 58.8045C129.07 58.8045 132.466 56.3123 133.051 55.2791C133.634 54.2432 134.019 53.1056 134.2 51.8582C134.381 50.6107 134.291 49.4017 133.928 48.2256L123.525 13.8816L123.528 13.8843Z" fill="#2E3192"/>
<path d="M0 0.560532H28.7909V8.66912H7.55904V19.8827H25.0374V27.9913H7.55904V49.9237H0V0.560532Z" fill="#2E3192"/>
<path d="M27.4746 29.6179C27.4746 24.2571 28.8265 20.2289 31.5275 17.5251C34.2286 14.8213 37.8776 13.4694 42.4745 13.4694V21.2263C40.0565 21.2263 38.1606 21.9215 36.7895 23.3064C35.4183 24.694 34.7341 26.796 34.7341 29.6179V49.3632H27.4774V29.6179H27.4746Z" fill="#2E3192"/>
<path d="M57.0018 42.2411C58.9775 42.2411 60.7003 41.5349 62.1731 40.1253C63.6459 38.7157 65.0362 36.9517 66.3469 34.8359C67.6576 32.7201 68.9875 30.4175 70.3394 27.9253C71.6885 25.4331 73.263 23.1305 75.0573 21.0147C76.8515 18.899 78.9591 17.1377 81.3771 15.7253C83.7951 14.3157 86.7187 13.6096 90.1479 13.6096C91.6811 13.6096 93.1731 13.8679 94.6239 14.3844C96.0747 14.9038 97.4266 15.6319 98.6769 16.5716C99.9271 17.5141 101.034 18.6407 102.004 19.9569C102.972 21.273 103.738 22.7321 104.301 24.3285C103.01 26.3041 101.914 28.1616 101.004 29.9009C100.097 31.6403 99.1989 33.1927 98.3114 34.5556H82.2234C82.5449 36.7648 83.3527 38.6003 84.6414 40.0566C85.9328 41.5157 87.565 42.2438 89.5406 42.2438C91.1123 42.2438 92.4944 41.9031 93.6842 41.2216C94.874 40.5402 95.9621 39.6362 96.9513 38.5069C97.9377 37.3776 98.8665 36.0751 99.7347 34.5941C100.6 33.1131 101.469 31.5606 102.337 29.9394C103.202 28.3182 104.112 26.6943 105.06 25.0732C106.008 23.452 107.066 21.9352 108.236 20.5256V3.51711C108.236 1.57446 109.588 0 111.253 0H113.825C114.746 0 115.493 0.871035 115.493 1.9454V15.0219C116.54 14.552 117.669 14.2003 118.881 13.964C120.09 13.7305 121.401 13.6123 122.813 13.6123V21.3692C120.758 21.3692 118.991 21.7814 117.521 22.6029C116.048 23.4273 114.737 24.5071 113.589 25.848C112.44 27.1889 111.391 28.7167 110.443 30.4313C109.495 32.1486 108.558 33.8989 107.629 35.6849C106.7 37.471 105.714 39.224 104.664 40.9386C103.615 42.656 102.397 44.1837 101.004 45.5219C99.6138 46.8628 97.9899 47.9426 96.1352 48.7669C94.2805 49.5885 92.1015 50.0007 89.6038 50.0007C87.87 50.0007 86.2268 49.6957 84.6744 49.0829C83.1219 48.4729 81.7095 47.6019 80.4401 46.4726C79.1706 45.3433 78.0908 43.9694 77.2032 42.3482C76.3157 40.7271 75.6508 38.9273 75.2084 36.9544C75.5711 36.2015 75.9942 35.369 76.4778 34.4512C76.9614 33.5335 77.4753 32.6185 78.0193 31.7007C78.5634 30.783 79.1267 29.8927 79.7119 29.0217C80.2972 28.1534 80.8495 27.4115 81.3743 26.7987H97.1601C96.5144 25.0594 95.5362 23.7213 94.2255 22.7788C92.9148 21.8391 91.5135 21.3692 90.0215 21.3692C87.9249 21.3692 86.1087 21.7814 84.5782 22.6029C83.0449 23.4273 81.6848 24.5071 80.495 25.848C79.3053 27.1889 78.2282 28.7167 77.2582 30.4313C76.291 32.1486 75.332 33.8989 74.3841 35.6849C73.4361 37.471 72.4497 39.224 71.4193 40.9386C70.3916 42.656 69.2018 44.1837 67.8499 45.5219C66.498 46.8628 64.9566 47.9426 63.2227 48.7669C61.4889 49.5885 59.4336 50.0007 57.054 50.0007C54.6745 50.0007 52.578 49.5665 50.6436 48.6955C48.7091 47.8272 47.055 46.5935 45.6839 44.9943C44.3128 43.3951 43.2549 41.4689 42.5075 39.2103C41.7601 36.9544 41.3892 34.4622 41.3892 31.7337C41.3892 29.0052 41.7601 26.5267 42.5075 24.2928C43.2521 22.0616 44.3128 20.1574 45.6839 18.5802C47.055 17.0058 48.7091 15.783 50.6436 14.912C52.578 14.0437 54.7157 13.6068 57.054 13.6068C60.5217 13.6068 63.4948 14.4998 65.976 16.2859C68.4544 18.0719 70.2597 20.5861 71.389 23.8312C70.1388 25.6639 68.971 27.5681 67.8802 29.5437C66.792 31.5194 65.8441 33.1872 65.0362 34.5501H48.8878C49.2889 36.9956 50.1984 38.8861 51.6108 40.227C53.0231 41.5679 54.8174 42.2383 56.9936 42.2383L57.0018 42.2411ZM64.6213 26.796C63.9756 25.0567 62.9974 23.7185 61.6867 22.776C60.3761 21.8363 58.8126 21.3665 56.9991 21.3665C55.1856 21.3665 53.6331 21.8363 52.3417 22.776C51.0502 23.7185 50.083 25.0567 49.4373 26.796H64.6186H64.6213ZM108.533 37.2319C108.654 36.6686 108.975 35.8223 109.5 34.693C110.022 33.5637 110.638 32.3904 111.344 31.1677C112.05 29.9449 112.776 28.7826 113.52 27.678C114.265 26.5734 114.922 25.7628 115.485 25.2463V33.0746C115.485 36.3197 116.098 38.636 117.329 40.0209C118.557 41.4085 120.604 42.1009 123.467 42.1009V49.8578C119.153 49.8578 115.735 48.7889 113.215 46.6484C110.695 44.5107 109.132 41.37 108.528 37.2347L108.533 37.2319Z" fill="#F16623"/>
<path d="M165.527 13.4694C168.189 13.4694 170.335 14.0107 171.967 15.0906C173.6 16.1732 174.88 17.5141 175.809 19.1106C176.735 17.5141 178.018 16.1732 179.65 15.0906C181.282 14.0107 183.431 13.4694 186.091 13.4694C188.591 13.4694 190.718 13.953 192.471 14.9148C194.224 15.8792 195.667 17.102 196.796 18.583C197.925 20.064 198.741 21.6742 199.244 23.4135C199.747 25.1529 200 26.7987 200 28.3512V49.366H192.743V28.5628C192.743 27.2933 192.562 26.2135 192.199 25.3177C191.836 24.4247 191.353 23.6718 190.748 23.0618C190.144 22.4518 189.438 22.0039 188.633 21.7209C187.825 21.4379 186.978 21.2978 186.091 21.2978C185.203 21.2978 184.357 21.4379 183.552 21.7209C182.744 22.0039 182.041 22.4491 181.436 23.0618C180.832 23.6746 180.348 24.4247 179.985 25.3177C179.623 26.2107 179.441 27.2906 179.441 28.5628V49.366H172.185V28.5628C172.185 27.2933 172.003 26.2135 171.64 25.3177C171.278 24.4247 170.794 23.6718 170.19 23.0618C169.585 22.4518 168.879 22.0039 168.074 21.7209C167.266 21.4379 166.42 21.2978 165.535 21.2978C164.65 21.2978 163.801 21.4379 162.996 21.7209C162.188 22.0039 161.485 22.4491 160.88 23.0618C160.276 23.6746 159.792 24.4247 159.429 25.3177C159.067 26.2107 158.885 27.2906 158.885 28.5628V49.366H151.629V28.3512C151.629 26.7987 151.881 25.1556 152.384 23.4135C152.887 21.6742 153.706 20.064 154.833 18.583C155.962 17.102 157.404 15.8792 159.157 14.9148C160.911 13.953 163.037 13.4694 165.538 13.4694H165.527Z" fill="#2E3192"/>
<path d="M4.4432 54.7928H2.22852V57.1036H4.69599V57.7988H1.49487V51.3856H4.5696V52.0807H2.22852V54.1058H4.4432V54.79V54.7928Z" fill="black"/>
<path d="M5.62746 54.441C5.62746 53.9657 5.61921 53.5755 5.59448 53.1936H6.2457L6.27867 53.9355H6.3034C6.53146 53.4986 6.91065 53.0892 7.5866 53.0892C8.14439 53.0892 8.56754 53.4711 8.7434 54.0124H8.75988C8.88628 53.7569 9.0484 53.5563 9.21601 53.4134C9.46056 53.2046 9.73258 53.0892 10.12 53.0892C10.6613 53.0892 11.4637 53.4876 11.4637 55.0868V57.7988H10.7383V55.1912C10.7383 54.3064 10.4497 53.7733 9.85074 53.7733C9.42758 53.7733 9.09786 54.1251 8.97146 54.5345C8.93849 54.6499 8.91376 54.801 8.91376 54.9521V57.796H8.18835V55.0373C8.18835 54.3037 7.89984 53.7733 7.3338 53.7733C6.86944 53.7733 6.53146 54.191 6.41331 54.6114C6.37209 54.7351 6.35286 54.8779 6.35286 55.0208V57.7988H5.62746V54.441Z" fill="black"/>
<path d="M12.6699 54.6966C12.6699 54.1058 12.6534 53.6305 12.637 53.1936H13.3047L13.3376 53.9822H13.3541C13.6591 53.4216 14.14 53.0892 14.8077 53.0892C15.7969 53.0892 16.5388 54.0316 16.5388 55.4302C16.5388 57.0844 15.643 57.9032 14.6813 57.9032C14.14 57.9032 13.6674 57.6367 13.4228 57.1805H13.4063V59.6837H12.6727V54.6993L12.6699 54.6966ZM13.4036 55.9248C13.4036 56.0485 13.4201 56.1639 13.4366 56.2683C13.5712 56.8481 14.0191 57.2492 14.5521 57.2492C15.338 57.2492 15.7941 56.5266 15.7941 55.4715C15.7941 54.5482 15.3627 53.7596 14.5769 53.7596C14.0713 53.7596 13.5959 54.169 13.453 54.7955C13.4283 54.8999 13.4036 55.0236 13.4036 55.139V55.9276V55.9248Z" fill="black"/>
<path d="M21.1771 55.4577C21.1771 57.1613 20.1302 57.9032 19.141 57.9032C18.0337 57.9032 17.1819 56.991 17.1819 55.5346C17.1819 53.9932 18.0777 53.0892 19.2097 53.0892C20.3418 53.0892 21.1771 54.0509 21.1771 55.4577ZM17.932 55.5044C17.932 56.5128 18.4486 57.274 19.174 57.274C19.8994 57.274 20.416 56.5238 20.416 55.4852C20.416 54.7048 20.0698 53.7156 19.1905 53.7156C18.3112 53.7156 17.932 54.6279 17.932 55.5044Z" fill="black"/>
<path d="M22.3503 53.1936L22.8916 55.5346C23.0098 56.0485 23.1197 56.5238 23.1966 56.9992H23.2213C23.3148 56.5321 23.4494 56.0375 23.584 55.5429L24.2517 53.1936H24.8755L25.5102 55.4962C25.6613 56.0485 25.7795 56.5321 25.8729 56.9992H25.8976C25.9663 56.5321 26.0762 56.0485 26.2109 55.5044L26.7934 53.1936H27.527L26.2081 57.7988H25.5322L24.9057 55.6006C24.7628 55.0868 24.6447 54.6306 24.543 54.0893H24.5265C24.4248 54.6416 24.2985 55.117 24.1556 55.6116L23.4961 57.7988H22.8202L21.5864 53.1936H22.3476H22.3503Z" fill="black"/>
<path d="M28.6013 55.6473C28.6178 56.7794 29.2608 57.2465 30.0027 57.2465C30.5357 57.2465 30.8572 57.1421 31.1347 57.0074L31.2611 57.6064C31.0001 57.7383 30.5522 57.8922 29.901 57.8922C28.6425 57.8922 27.8896 56.9607 27.8896 55.5704C27.8896 54.18 28.6151 53.0864 29.8076 53.0864C31.143 53.0864 31.4974 54.4081 31.4974 55.2544C31.4974 55.4247 31.4809 55.5594 31.4727 55.6445H28.6013V55.6473ZM30.7803 55.0483C30.7885 54.5152 30.5852 53.6882 29.7499 53.6882C28.997 53.6882 28.6673 54.4685 28.6096 55.0483H30.7803Z" fill="black"/>
<path d="M32.418 54.6306C32.418 54.0893 32.4097 53.6222 32.385 53.1936H33.0362L33.061 54.0976H33.0939C33.2808 53.4793 33.7287 53.0892 34.226 53.0892C34.3112 53.0892 34.3689 53.0974 34.4376 53.1166V53.9052C34.3606 53.886 34.2864 53.8778 34.1848 53.8778C33.66 53.8778 33.289 54.3256 33.1874 54.9521C33.1709 55.0675 33.1544 55.1994 33.1544 55.3423V57.796H32.4207V54.6279L32.418 54.6306Z" fill="black"/>
<path d="M37.7322 51.3856V57.7988H36.9985V51.3856H37.7322Z" fill="black"/>
<path d="M39.0757 54.441C39.0757 53.9657 39.0675 53.5755 39.0427 53.1936H39.7022L39.7434 53.9547H39.7599C39.9632 53.5178 40.4358 53.0892 41.1118 53.0892C41.6778 53.0892 42.5571 53.4711 42.5571 55.0483V57.7988H41.8125V55.1445C41.8125 54.4026 41.5679 53.7843 40.8672 53.7843C40.3781 53.7843 39.9962 54.1745 39.8698 54.6416C39.8368 54.746 39.8203 54.8889 39.8203 55.0318V57.8015H39.0757V54.4438V54.441Z" fill="black"/>
<path d="M43.8377 57.7988V53.831H43.2634V53.1936H43.8377V52.993C43.8377 52.3555 44.0328 51.784 44.412 51.4048C44.7335 51.0998 45.1566 50.9377 45.7227 50.9377C46.1953 50.9377 46.6432 51.0531 46.9482 51.2427V57.796H46.2145V51.707C46.0881 51.6301 45.893 51.5834 45.6073 51.5834C44.8296 51.5834 44.5768 52.2209 44.5768 52.9628V53.1908H45.5303V53.8283H44.5768V57.796H43.8405L43.8377 57.7988Z" fill="black"/>
<path d="M51.6027 56.5431C51.6027 57.0184 51.6109 57.4361 51.6356 57.7988H50.9762L50.935 57.0459H50.9185C50.7234 57.4168 50.292 57.9032 49.5666 57.9032C48.9236 57.9032 48.157 57.5048 48.157 55.8863V53.1936H48.9016V55.7435C48.9016 56.62 49.1379 57.208 49.8139 57.208C50.3112 57.208 50.6574 56.8178 50.7948 56.4469C50.836 56.3232 50.8635 56.1721 50.8635 56.0182V53.1936H51.6082V56.5431H51.6027Z" fill="black"/>
<path d="M53.2485 55.6473C53.265 56.7794 53.908 57.2465 54.6499 57.2465C55.1829 57.2465 55.5044 57.1421 55.7819 57.0074L55.9083 57.6064C55.6473 57.7383 55.1994 57.8922 54.5482 57.8922C53.2897 57.8922 52.5369 56.9607 52.5369 55.5704C52.5369 54.18 53.2623 53.0864 54.4548 53.0864C55.7902 53.0864 56.1447 54.4081 56.1447 55.2544C56.1447 55.4247 56.1282 55.5594 56.1199 55.6445H53.2485V55.6473ZM55.4275 55.0483C55.4357 54.5152 55.2324 53.6882 54.3971 53.6882C53.6442 53.6882 53.3145 54.4685 53.2568 55.0483H55.4275Z" fill="black"/>
<path d="M57.0652 54.441C57.0652 53.9657 57.057 53.5755 57.0322 53.1936H57.6917L57.7329 53.9547H57.7494C57.9527 53.5178 58.4253 53.0892 59.1013 53.0892C59.6673 53.0892 60.5466 53.4711 60.5466 55.0483V57.7988H59.802V55.1445C59.802 54.4026 59.5574 53.7843 58.8567 53.7843C58.3676 53.7843 57.9857 54.1745 57.8593 54.6416C57.8263 54.746 57.8098 54.8889 57.8098 55.0318V57.8015H57.0652V54.4438V54.441Z" fill="black"/>
<path d="M64.6684 57.6284C64.4733 57.7438 64.0419 57.895 63.4951 57.895C62.2613 57.895 61.459 56.9525 61.459 55.5456C61.459 54.1388 62.3218 53.1001 63.6544 53.1001C64.0941 53.1001 64.4815 53.2238 64.6848 53.3392L64.5172 53.9849C64.3386 53.8695 64.0611 53.7651 63.6544 53.7651C62.7175 53.7651 62.2091 54.5455 62.2091 55.5072C62.2091 56.5733 62.8164 57.23 63.6297 57.23C64.0529 57.23 64.3304 57.1064 64.542 57.0019L64.6684 57.6312V57.6284Z" fill="black"/>
<path d="M65.9021 55.6473C65.9186 56.7794 66.5616 57.2465 67.3034 57.2465C67.8365 57.2465 68.158 57.1421 68.4355 57.0074L68.5619 57.6064C68.3009 57.7383 67.853 57.8922 67.2018 57.8922C65.9433 57.8922 65.1904 56.9607 65.1904 55.5704C65.1904 54.18 65.9158 53.0864 67.1084 53.0864C68.4438 53.0864 68.7982 54.4081 68.7982 55.2544C68.7982 55.4247 68.7817 55.5594 68.7735 55.6445H65.9021V55.6473ZM68.0811 55.0483C68.0893 54.5152 67.886 53.6882 67.0507 53.6882C66.2978 53.6882 65.968 54.4685 65.9103 55.0483H68.0811Z" fill="black"/>
<path d="M69.7185 54.6306C69.7185 54.0893 69.7103 53.6222 69.6855 53.1936H70.3368L70.3615 54.0976H70.3945C70.5813 53.4793 71.0292 53.0892 71.5265 53.0892C71.6117 53.0892 71.6694 53.0974 71.7381 53.1166V53.9052C71.6612 53.886 71.587 53.8778 71.4853 53.8778C70.9605 53.8778 70.5896 54.3256 70.4879 54.9521C70.4714 55.0675 70.4549 55.1994 70.4549 55.3423V57.796H69.7213V54.6279L69.7185 54.6306Z" fill="black"/>
<path d="M72.3785 56.9415C72.5983 57.1036 72.9857 57.274 73.3594 57.274C73.9007 57.274 74.1535 56.969 74.1535 56.5898C74.1535 56.1914 73.942 55.9715 73.3924 55.7435C72.6588 55.4495 72.3098 54.9933 72.3098 54.441C72.3098 53.6992 72.8429 53.0892 73.7194 53.0892C74.1343 53.0892 74.497 53.221 74.7251 53.3749L74.5382 53.9849C74.3788 53.8695 74.0821 53.7184 73.7029 53.7184C73.2633 53.7184 73.0187 54.0042 73.0187 54.3476C73.0187 54.7268 73.2633 54.8999 73.7963 55.128C74.5052 55.433 74.868 55.8314 74.868 56.5183C74.868 57.3262 74.3102 57.8977 73.3402 57.8977C72.8923 57.8977 72.4774 57.7741 72.1917 57.5845L72.3785 56.947V56.9415Z" fill="black"/>
<path d="M77.5496 54.9164V55.5346H75.4641V54.9164H77.5496Z" fill="black"/>
<path d="M81.3939 54.7928H79.1792V57.1036H81.6467V57.7988H78.4456V51.3856H81.5203V52.0807H79.1792V54.1058H81.3939V54.79V54.7928Z" fill="black"/>
<path d="M82.5752 51.0448H83.3198V57.7988H82.5752V51.0448Z" fill="black"/>
<path d="M84.9824 55.6473C84.9989 56.7794 85.6419 57.2465 86.3838 57.2465C86.9168 57.2465 87.2383 57.1421 87.5158 57.0074L87.6422 57.6064C87.3812 57.7383 86.9333 57.8922 86.2821 57.8922C85.0236 57.8922 84.2708 56.9607 84.2708 55.5704C84.2708 54.18 84.9962 53.0864 86.1887 53.0864C87.5241 53.0864 87.8785 54.4081 87.8785 55.2544C87.8785 55.4247 87.8621 55.5594 87.8538 55.6445H84.9824V55.6473ZM87.1614 55.0483C87.1696 54.5152 86.9663 53.6882 86.131 53.6882C85.3781 53.6882 85.0484 54.4685 84.9907 55.0483H87.1614Z" fill="black"/>
<path d="M89.0876 53.1936L89.8899 55.7819C90.0245 56.1996 90.1344 56.5815 90.2196 56.9607H90.2444C90.3378 56.5815 90.4559 56.1996 90.5906 55.7819L91.3847 53.1936H92.1623L90.5576 57.7988H89.8487L88.2935 53.1936H89.0876Z" fill="black"/>
<path d="M95.0941 57.7988L95.0364 57.219H95.0117C94.7836 57.5817 94.344 57.9032 93.7615 57.9032C92.9344 57.9032 92.5112 57.2465 92.5112 56.5815C92.5112 55.4687 93.3905 54.8587 94.9705 54.8697V54.7735C94.9705 54.3943 94.877 53.7074 94.0417 53.7074C93.6625 53.7074 93.2641 53.8393 92.9784 54.0509L92.8107 53.4986C93.1487 53.2513 93.6378 53.0892 94.1544 53.0892C95.4046 53.0892 95.7096 54.0509 95.7096 54.9741V56.6969C95.7096 57.0954 95.7261 57.4855 95.7783 57.8015H95.1024L95.0941 57.7988ZM94.9842 55.4495C94.1736 55.4302 93.2531 55.5924 93.2531 56.4854C93.2531 57.0267 93.5746 57.285 93.9538 57.285C94.4869 57.285 94.8248 56.9058 94.943 56.5156C94.9677 56.4304 94.9842 56.3342 94.9842 56.2491V55.4495Z" fill="black"/>
<path d="M97.7621 51.8719V53.1936H98.8254V53.831H97.7621V56.315C97.7621 56.8865 97.9049 57.208 98.3198 57.208C98.5149 57.208 98.6578 57.1805 98.7512 57.1503L98.7842 57.7796C98.6413 57.8455 98.4133 57.895 98.1248 57.895C97.7785 57.895 97.4983 57.7713 97.3224 57.5432C97.1108 57.2959 97.0339 56.8865 97.0339 56.3452V53.8338H96.3992V53.1963H97.0339V52.0917L97.7593 51.8719H97.7621Z" fill="black"/>
<path d="M100.026 55.6473C100.043 56.7794 100.686 57.2465 101.427 57.2465C101.961 57.2465 102.282 57.1421 102.56 57.0074L102.686 57.6064C102.425 57.7383 101.977 57.8922 101.326 57.8922C100.067 57.8922 99.3145 56.9607 99.3145 55.5704C99.3145 54.18 100.04 53.0864 101.232 53.0864C102.568 53.0864 102.922 54.4081 102.922 55.2544C102.922 55.4247 102.906 55.5594 102.898 55.6445H100.026V55.6473ZM102.205 55.0483C102.213 54.5152 102.01 53.6882 101.175 53.6882C100.422 53.6882 100.092 54.4685 100.034 55.0483H102.205Z" fill="black"/>
<path d="M105.659 51.4707C105.981 51.3938 106.486 51.3388 107.003 51.3388C107.736 51.3388 108.212 51.4817 108.566 51.806C108.863 52.0532 109.039 52.4352 109.039 52.938C109.039 53.5563 108.676 54.0976 108.074 54.3449V54.3641C108.616 54.5152 109.248 55.0208 109.248 55.9715C109.248 56.5238 109.053 56.9415 108.767 57.2547C108.368 57.6641 107.728 57.8537 106.799 57.8537C106.294 57.8537 105.904 57.8153 105.659 57.7768V51.4707ZM106.393 54.0976H107.061C107.838 54.0976 108.294 53.6414 108.294 53.0232C108.294 52.2703 107.789 51.9763 107.044 51.9763C106.706 51.9763 106.511 52.0038 106.393 52.034V54.0976ZM106.393 57.1695C106.536 57.197 106.747 57.208 107.011 57.208C107.772 57.208 108.473 56.8948 108.473 55.9605C108.473 55.084 107.805 54.7241 107.003 54.7241H106.396V57.1695H106.393Z" fill="black"/>
<path d="M110.212 54.6306C110.212 54.0893 110.204 53.6222 110.179 53.1936H110.83L110.855 54.0976H110.888C111.075 53.4793 111.523 53.0892 112.02 53.0892C112.105 53.0892 112.163 53.0974 112.232 53.1166V53.9052C112.155 53.886 112.081 53.8778 111.979 53.8778C111.454 53.8778 111.083 54.3256 110.982 54.9521C110.965 55.0675 110.949 55.1994 110.949 55.3423V57.796H110.212V54.6279V54.6306Z" fill="black"/>
<path d="M115.196 57.7988L115.136 57.219H115.111C114.883 57.5817 114.444 57.9032 113.861 57.9032C113.034 57.9032 112.611 57.2465 112.611 56.5815C112.611 55.4687 113.49 54.8587 115.07 54.8697V54.7735C115.07 54.3943 114.977 53.7074 114.141 53.7074C113.762 53.7074 113.364 53.8393 113.078 54.0509L112.908 53.4986C113.246 53.2513 113.735 53.0892 114.251 53.0892C115.501 53.0892 115.806 54.0509 115.806 54.9741V56.6969C115.806 57.0954 115.823 57.4855 115.875 57.8015H115.199L115.196 57.7988ZM115.087 55.4495C114.276 55.4302 113.355 55.5924 113.355 56.4854C113.355 57.0267 113.677 57.285 114.056 57.285C114.589 57.285 114.927 56.9058 115.045 56.5156C115.07 56.4304 115.087 56.3342 115.087 56.2491V55.4495Z" fill="black"/>
<path d="M117.002 54.441C117.002 53.9657 116.993 53.5755 116.969 53.1936H117.628L117.669 53.9547H117.686C117.889 53.5178 118.362 53.0892 119.038 53.0892C119.604 53.0892 120.483 53.4711 120.483 55.0483V57.7988H119.738V55.1445C119.738 54.4026 119.494 53.7843 118.793 53.7843C118.304 53.7843 117.922 54.1745 117.796 54.6416C117.763 54.746 117.746 54.8889 117.746 55.0318V57.8015H117.002V54.4438V54.441Z" fill="black"/>
<path d="M125.223 51.0448V56.609C125.223 57.0184 125.231 57.4855 125.256 57.7988H124.588L124.555 56.9992H124.539C124.311 57.513 123.813 57.9032 123.146 57.9032C122.156 57.9032 121.395 56.9607 121.395 55.5621C121.387 54.0316 122.231 53.0892 123.228 53.0892C123.852 53.0892 124.275 53.4216 124.462 53.7926H124.478V51.0421H125.223V51.0448ZM124.478 55.0703C124.478 54.9659 124.47 54.823 124.445 54.7186C124.335 54.1855 123.929 53.7486 123.374 53.7486C122.604 53.7486 122.148 54.5097 122.148 55.5264C122.148 56.4579 122.555 57.23 123.357 57.23C123.855 57.23 124.311 56.8591 124.448 56.2298C124.473 56.1144 124.481 56.0018 124.481 55.8671V55.0675L124.478 55.0703Z" fill="black"/>
<path d="M126.352 56.9415C126.572 57.1036 126.96 57.274 127.333 57.274C127.875 57.274 128.127 56.969 128.127 56.5898C128.127 56.1914 127.916 55.9715 127.366 55.7435C126.633 55.4495 126.284 54.9933 126.284 54.441C126.284 53.6992 126.817 53.0892 127.693 53.0892C128.108 53.0892 128.471 53.221 128.699 53.3749L128.512 53.9849C128.353 53.8695 128.056 53.7184 127.677 53.7184C127.237 53.7184 126.993 54.0042 126.993 54.3476C126.993 54.7268 127.237 54.8999 127.77 55.128C128.479 55.433 128.842 55.8314 128.842 56.5183C128.842 57.3262 128.284 57.8977 127.314 57.8977C126.866 57.8977 126.451 57.7741 126.166 57.5845L126.352 56.947V56.9415Z" fill="black"/>
</g>
<defs>
<clipPath id="clip0_210_8931">
<rect width="200" height="59.6837" fill="white"/>
</clipPath>
</defs>
</svg>
