<svg width="483" height="376" viewBox="0 0 483 376" fill="none" xmlns="http://www.w3.org/2000/svg">
<rect width="483" height="376" rx="60" fill="#EAEAF4"/>
<path d="M115.832 163.196C114.395 163.196 113.107 162.963 111.968 162.496C110.83 162.029 109.915 161.339 109.224 160.424C108.552 159.509 108.198 158.408 108.16 157.12H113.256C113.331 157.848 113.583 158.408 114.012 158.8C114.442 159.173 115.002 159.36 115.692 159.36C116.402 159.36 116.962 159.201 117.372 158.884C117.783 158.548 117.988 158.091 117.988 157.512C117.988 157.027 117.82 156.625 117.484 156.308C117.167 155.991 116.766 155.729 116.28 155.524C115.814 155.319 115.142 155.085 114.264 154.824C112.995 154.432 111.959 154.04 111.156 153.648C110.354 153.256 109.663 152.677 109.084 151.912C108.506 151.147 108.216 150.148 108.216 148.916C108.216 147.087 108.879 145.659 110.204 144.632C111.53 143.587 113.256 143.064 115.384 143.064C117.55 143.064 119.295 143.587 120.62 144.632C121.946 145.659 122.655 147.096 122.748 148.944H117.568C117.531 148.309 117.298 147.815 116.868 147.46C116.439 147.087 115.888 146.9 115.216 146.9C114.638 146.9 114.171 147.059 113.816 147.376C113.462 147.675 113.284 148.113 113.284 148.692C113.284 149.327 113.583 149.821 114.18 150.176C114.778 150.531 115.711 150.913 116.98 151.324C118.25 151.753 119.276 152.164 120.06 152.556C120.863 152.948 121.554 153.517 122.132 154.264C122.711 155.011 123 155.972 123 157.148C123 158.268 122.711 159.285 122.132 160.2C121.572 161.115 120.751 161.843 119.668 162.384C118.586 162.925 117.307 163.196 115.832 163.196ZM145.883 147.208C147.824 147.208 149.364 147.796 150.503 148.972C151.66 150.148 152.239 151.781 152.239 153.872V163H147.479V154.516C147.479 153.508 147.208 152.733 146.667 152.192C146.144 151.632 145.416 151.352 144.483 151.352C143.55 151.352 142.812 151.632 142.271 152.192C141.748 152.733 141.487 153.508 141.487 154.516V163H136.727V154.516C136.727 153.508 136.456 152.733 135.915 152.192C135.392 151.632 134.664 151.352 133.731 151.352C132.798 151.352 132.06 151.632 131.519 152.192C130.996 152.733 130.735 153.508 130.735 154.516V163H125.947V147.376H130.735V149.336C131.22 148.683 131.855 148.169 132.639 147.796C133.423 147.404 134.31 147.208 135.299 147.208C136.475 147.208 137.52 147.46 138.435 147.964C139.368 148.468 140.096 149.187 140.619 150.12C141.16 149.261 141.898 148.561 142.831 148.02C143.764 147.479 144.782 147.208 145.883 147.208ZM154.636 155.16C154.636 153.555 154.934 152.145 155.532 150.932C156.148 149.719 156.978 148.785 158.024 148.132C159.069 147.479 160.236 147.152 161.524 147.152C162.625 147.152 163.586 147.376 164.408 147.824C165.248 148.272 165.892 148.86 166.34 149.588V147.376H171.128V163H166.34V160.788C165.873 161.516 165.22 162.104 164.38 162.552C163.558 163 162.597 163.224 161.496 163.224C160.226 163.224 159.069 162.897 158.024 162.244C156.978 161.572 156.148 160.629 155.532 159.416C154.934 158.184 154.636 156.765 154.636 155.16ZM166.34 155.188C166.34 153.993 166.004 153.051 165.332 152.36C164.678 151.669 163.876 151.324 162.924 151.324C161.972 151.324 161.16 151.669 160.488 152.36C159.834 153.032 159.508 153.965 159.508 155.16C159.508 156.355 159.834 157.307 160.488 158.016C161.16 158.707 161.972 159.052 162.924 159.052C163.876 159.052 164.678 158.707 165.332 158.016C166.004 157.325 166.34 156.383 166.34 155.188ZM179.379 149.98C179.939 149.121 180.639 148.449 181.479 147.964C182.319 147.46 183.253 147.208 184.279 147.208V152.276H182.963C181.769 152.276 180.873 152.537 180.275 153.06C179.678 153.564 179.379 154.46 179.379 155.748V163H174.591V147.376H179.379V149.98ZM195.276 158.94V163H192.84C191.104 163 189.751 162.58 188.78 161.74C187.809 160.881 187.324 159.491 187.324 157.568V151.352H185.42V147.376H187.324V143.568H192.112V147.376H195.248V151.352H192.112V157.624C192.112 158.091 192.224 158.427 192.448 158.632C192.672 158.837 193.045 158.94 193.568 158.94H195.276ZM212.671 154.936C212.671 155.384 212.643 155.851 212.587 156.336H201.751C201.826 157.307 202.134 158.053 202.675 158.576C203.235 159.08 203.916 159.332 204.719 159.332C205.914 159.332 206.744 158.828 207.211 157.82H212.307C212.046 158.847 211.57 159.771 210.879 160.592C210.207 161.413 209.358 162.057 208.331 162.524C207.304 162.991 206.156 163.224 204.887 163.224C203.356 163.224 201.994 162.897 200.799 162.244C199.604 161.591 198.671 160.657 197.999 159.444C197.327 158.231 196.991 156.812 196.991 155.188C196.991 153.564 197.318 152.145 197.971 150.932C198.643 149.719 199.576 148.785 200.771 148.132C201.966 147.479 203.338 147.152 204.887 147.152C206.399 147.152 207.743 147.469 208.919 148.104C210.095 148.739 211.01 149.644 211.663 150.82C212.335 151.996 212.671 153.368 212.671 154.936ZM207.771 153.676C207.771 152.855 207.491 152.201 206.931 151.716C206.371 151.231 205.671 150.988 204.831 150.988C204.028 150.988 203.347 151.221 202.787 151.688C202.246 152.155 201.91 152.817 201.779 153.676H207.771ZM219.985 149.98C220.545 149.121 221.245 148.449 222.085 147.964C222.925 147.46 223.858 147.208 224.885 147.208V152.276H223.569C222.374 152.276 221.478 152.537 220.881 153.06C220.284 153.564 219.985 154.46 219.985 155.748V163H215.197V147.376H219.985V149.98ZM237.895 143.344V163H233.107V143.344H237.895ZM250.885 147.208C252.714 147.208 254.17 147.805 255.253 149C256.354 150.176 256.905 151.8 256.905 153.872V163H252.145V154.516C252.145 153.471 251.874 152.659 251.333 152.08C250.792 151.501 250.064 151.212 249.149 151.212C248.234 151.212 247.506 151.501 246.965 152.08C246.424 152.659 246.153 153.471 246.153 154.516V163H241.365V147.376H246.153V149.448C246.638 148.757 247.292 148.216 248.113 147.824C248.934 147.413 249.858 147.208 250.885 147.208ZM268.072 151.352H265.496V163H260.708V151.352H258.972V147.376H260.708V146.928C260.708 145.005 261.259 143.549 262.36 142.56C263.461 141.552 265.076 141.048 267.204 141.048C267.559 141.048 267.82 141.057 267.988 141.076V145.136C267.073 145.08 266.429 145.211 266.056 145.528C265.683 145.845 265.496 146.415 265.496 147.236V147.376H268.072V151.352ZM275.11 142.28V163H270.322V142.28H275.11ZM294.008 147.376V163H289.22V160.872C288.734 161.563 288.072 162.123 287.232 162.552C286.41 162.963 285.496 163.168 284.488 163.168C283.293 163.168 282.238 162.907 281.324 162.384C280.409 161.843 279.7 161.068 279.196 160.06C278.692 159.052 278.44 157.867 278.44 156.504V147.376H283.2V155.86C283.2 156.905 283.47 157.717 284.012 158.296C284.553 158.875 285.281 159.164 286.196 159.164C287.129 159.164 287.866 158.875 288.408 158.296C288.949 157.717 289.22 156.905 289.22 155.86V147.376H294.008ZM312.175 154.936C312.175 155.384 312.147 155.851 312.091 156.336H301.255C301.33 157.307 301.638 158.053 302.179 158.576C302.739 159.08 303.42 159.332 304.223 159.332C305.418 159.332 306.248 158.828 306.715 157.82H311.811C311.55 158.847 311.074 159.771 310.383 160.592C309.711 161.413 308.862 162.057 307.835 162.524C306.808 162.991 305.66 163.224 304.391 163.224C302.86 163.224 301.498 162.897 300.303 162.244C299.108 161.591 298.175 160.657 297.503 159.444C296.831 158.231 296.495 156.812 296.495 155.188C296.495 153.564 296.822 152.145 297.475 150.932C298.147 149.719 299.08 148.785 300.275 148.132C301.47 147.479 302.842 147.152 304.391 147.152C305.903 147.152 307.247 147.469 308.423 148.104C309.599 148.739 310.514 149.644 311.167 150.82C311.839 151.996 312.175 153.368 312.175 154.936ZM307.275 153.676C307.275 152.855 306.995 152.201 306.435 151.716C305.875 151.231 305.175 150.988 304.335 150.988C303.532 150.988 302.851 151.221 302.291 151.688C301.75 152.155 301.414 152.817 301.283 153.676H307.275ZM324.221 147.208C326.05 147.208 327.506 147.805 328.589 149C329.69 150.176 330.241 151.8 330.241 153.872V163H325.481V154.516C325.481 153.471 325.21 152.659 324.669 152.08C324.128 151.501 323.4 151.212 322.485 151.212C321.57 151.212 320.842 151.501 320.301 152.08C319.76 152.659 319.489 153.471 319.489 154.516V163H314.701V147.376H319.489V149.448C319.974 148.757 320.628 148.216 321.449 147.824C322.27 147.413 323.194 147.208 324.221 147.208ZM332.616 155.188C332.616 153.564 332.943 152.145 333.596 150.932C334.268 149.719 335.192 148.785 336.368 148.132C337.563 147.479 338.925 147.152 340.456 147.152C342.416 147.152 344.049 147.665 345.356 148.692C346.681 149.719 347.549 151.165 347.96 153.032H342.864C342.435 151.837 341.604 151.24 340.372 151.24C339.495 151.24 338.795 151.585 338.272 152.276C337.749 152.948 337.488 153.919 337.488 155.188C337.488 156.457 337.749 157.437 338.272 158.128C338.795 158.8 339.495 159.136 340.372 159.136C341.604 159.136 342.435 158.539 342.864 157.344H347.96C347.549 159.173 346.681 160.611 345.356 161.656C344.031 162.701 342.397 163.224 340.456 163.224C338.925 163.224 337.563 162.897 336.368 162.244C335.192 161.591 334.268 160.657 333.596 159.444C332.943 158.231 332.616 156.812 332.616 155.188ZM365.249 154.936C365.249 155.384 365.221 155.851 365.165 156.336H354.329C354.404 157.307 354.712 158.053 355.253 158.576C355.813 159.08 356.494 159.332 357.297 159.332C358.492 159.332 359.322 158.828 359.789 157.82H364.885C364.624 158.847 364.148 159.771 363.457 160.592C362.785 161.413 361.936 162.057 360.909 162.524C359.882 162.991 358.734 163.224 357.465 163.224C355.934 163.224 354.572 162.897 353.377 162.244C352.182 161.591 351.249 160.657 350.577 159.444C349.905 158.231 349.569 156.812 349.569 155.188C349.569 153.564 349.896 152.145 350.549 150.932C351.221 149.719 352.154 148.785 353.349 148.132C354.544 147.479 355.916 147.152 357.465 147.152C358.977 147.152 360.321 147.469 361.497 148.104C362.673 148.739 363.588 149.644 364.241 150.82C364.913 151.996 365.249 153.368 365.249 154.936ZM360.349 153.676C360.349 152.855 360.069 152.201 359.509 151.716C358.949 151.231 358.249 150.988 357.409 150.988C356.606 150.988 355.925 151.221 355.365 151.688C354.824 152.155 354.488 152.817 354.357 153.676H360.349ZM372.563 149.98C373.123 149.121 373.823 148.449 374.663 147.964C375.503 147.46 376.436 147.208 377.463 147.208V152.276H376.147C374.952 152.276 374.056 152.537 373.459 153.06C372.862 153.564 372.563 154.46 372.563 155.748V163H367.775V147.376H372.563V149.98ZM184.711 205.196C183.274 205.196 181.986 204.963 180.847 204.496C179.709 204.029 178.794 203.339 178.103 202.424C177.431 201.509 177.077 200.408 177.039 199.12H182.135C182.21 199.848 182.462 200.408 182.891 200.8C183.321 201.173 183.881 201.36 184.571 201.36C185.281 201.36 185.841 201.201 186.251 200.884C186.662 200.548 186.867 200.091 186.867 199.512C186.867 199.027 186.699 198.625 186.363 198.308C186.046 197.991 185.645 197.729 185.159 197.524C184.693 197.319 184.021 197.085 183.143 196.824C181.874 196.432 180.838 196.04 180.035 195.648C179.233 195.256 178.542 194.677 177.963 193.912C177.385 193.147 177.095 192.148 177.095 190.916C177.095 189.087 177.758 187.659 179.083 186.632C180.409 185.587 182.135 185.064 184.263 185.064C186.429 185.064 188.174 185.587 189.499 186.632C190.825 187.659 191.534 189.096 191.627 190.944H186.447C186.41 190.309 186.177 189.815 185.747 189.46C185.318 189.087 184.767 188.9 184.095 188.9C183.517 188.9 183.05 189.059 182.695 189.376C182.341 189.675 182.163 190.113 182.163 190.692C182.163 191.327 182.462 191.821 183.059 192.176C183.657 192.531 184.59 192.913 185.859 193.324C187.129 193.753 188.155 194.164 188.939 194.556C189.742 194.948 190.433 195.517 191.011 196.264C191.59 197.011 191.879 197.972 191.879 199.148C191.879 200.268 191.59 201.285 191.011 202.2C190.451 203.115 189.63 203.843 188.547 204.384C187.465 204.925 186.186 205.196 184.711 205.196ZM209.554 196.936C209.554 197.384 209.526 197.851 209.47 198.336H198.634C198.709 199.307 199.017 200.053 199.558 200.576C200.118 201.08 200.799 201.332 201.602 201.332C202.797 201.332 203.627 200.828 204.094 199.82H209.19C208.929 200.847 208.453 201.771 207.762 202.592C207.09 203.413 206.241 204.057 205.214 204.524C204.187 204.991 203.039 205.224 201.77 205.224C200.239 205.224 198.877 204.897 197.682 204.244C196.487 203.591 195.554 202.657 194.882 201.444C194.21 200.231 193.874 198.812 193.874 197.188C193.874 195.564 194.201 194.145 194.854 192.932C195.526 191.719 196.459 190.785 197.654 190.132C198.849 189.479 200.221 189.152 201.77 189.152C203.282 189.152 204.626 189.469 205.802 190.104C206.978 190.739 207.893 191.644 208.546 192.82C209.218 193.996 209.554 195.368 209.554 196.936ZM204.654 195.676C204.654 194.855 204.374 194.201 203.814 193.716C203.254 193.231 202.554 192.988 201.714 192.988C200.911 192.988 200.23 193.221 199.67 193.688C199.129 194.155 198.793 194.817 198.662 195.676H204.654ZM216.868 184.28V205H212.08V184.28H216.868ZM235.066 196.936C235.066 197.384 235.038 197.851 234.982 198.336H224.146C224.22 199.307 224.528 200.053 225.07 200.576C225.63 201.08 226.311 201.332 227.114 201.332C228.308 201.332 229.139 200.828 229.606 199.82H234.702C234.44 200.847 233.964 201.771 233.274 202.592C232.602 203.413 231.752 204.057 230.726 204.524C229.699 204.991 228.551 205.224 227.282 205.224C225.751 205.224 224.388 204.897 223.194 204.244C221.999 203.591 221.066 202.657 220.394 201.444C219.722 200.231 219.386 198.812 219.386 197.188C219.386 195.564 219.712 194.145 220.366 192.932C221.038 191.719 221.971 190.785 223.166 190.132C224.36 189.479 225.732 189.152 227.282 189.152C228.794 189.152 230.138 189.469 231.314 190.104C232.49 190.739 233.404 191.644 234.058 192.82C234.73 193.996 235.066 195.368 235.066 196.936ZM230.166 195.676C230.166 194.855 229.886 194.201 229.326 193.716C228.766 193.231 228.066 192.988 227.226 192.988C226.423 192.988 225.742 193.221 225.182 193.688C224.64 194.155 224.304 194.817 224.174 195.676H230.166ZM236.639 197.188C236.639 195.564 236.966 194.145 237.619 192.932C238.291 191.719 239.215 190.785 240.391 190.132C241.586 189.479 242.949 189.152 244.479 189.152C246.439 189.152 248.073 189.665 249.379 190.692C250.705 191.719 251.573 193.165 251.983 195.032H246.887C246.458 193.837 245.627 193.24 244.395 193.24C243.518 193.24 242.818 193.585 242.295 194.276C241.773 194.948 241.511 195.919 241.511 197.188C241.511 198.457 241.773 199.437 242.295 200.128C242.818 200.8 243.518 201.136 244.395 201.136C245.627 201.136 246.458 200.539 246.887 199.344H251.983C251.573 201.173 250.705 202.611 249.379 203.656C248.054 204.701 246.421 205.224 244.479 205.224C242.949 205.224 241.586 204.897 240.391 204.244C239.215 203.591 238.291 202.657 237.619 201.444C236.966 200.231 236.639 198.812 236.639 197.188ZM263.253 200.94V205H260.817C259.081 205 257.727 204.58 256.757 203.74C255.786 202.881 255.301 201.491 255.301 199.568V193.352H253.397V189.376H255.301V185.568H260.089V189.376H263.225V193.352H260.089V199.624C260.089 200.091 260.201 200.427 260.425 200.632C260.649 200.837 261.022 200.94 261.545 200.94H263.253ZM268.328 187.752C267.488 187.752 266.797 187.509 266.256 187.024C265.733 186.52 265.472 185.904 265.472 185.176C265.472 184.429 265.733 183.813 266.256 183.328C266.797 182.824 267.488 182.572 268.328 182.572C269.149 182.572 269.821 182.824 270.344 183.328C270.885 183.813 271.156 184.429 271.156 185.176C271.156 185.904 270.885 186.52 270.344 187.024C269.821 187.509 269.149 187.752 268.328 187.752ZM270.708 189.376V205H265.92V189.376H270.708ZM281.289 205.224C279.759 205.224 278.377 204.897 277.145 204.244C275.932 203.591 274.971 202.657 274.261 201.444C273.571 200.231 273.225 198.812 273.225 197.188C273.225 195.583 273.58 194.173 274.289 192.96C274.999 191.728 275.969 190.785 277.201 190.132C278.433 189.479 279.815 189.152 281.345 189.152C282.876 189.152 284.257 189.479 285.489 190.132C286.721 190.785 287.692 191.728 288.401 192.96C289.111 194.173 289.465 195.583 289.465 197.188C289.465 198.793 289.101 200.212 288.373 201.444C287.664 202.657 286.684 203.591 285.433 204.244C284.201 204.897 282.82 205.224 281.289 205.224ZM281.289 201.08C282.204 201.08 282.979 200.744 283.613 200.072C284.267 199.4 284.593 198.439 284.593 197.188C284.593 195.937 284.276 194.976 283.641 194.304C283.025 193.632 282.26 193.296 281.345 193.296C280.412 193.296 279.637 193.632 279.021 194.304C278.405 194.957 278.097 195.919 278.097 197.188C278.097 198.439 278.396 199.4 278.993 200.072C279.609 200.744 280.375 201.08 281.289 201.08ZM301.526 189.208C303.355 189.208 304.811 189.805 305.894 191C306.995 192.176 307.546 193.8 307.546 195.872V205H302.786V196.516C302.786 195.471 302.515 194.659 301.974 194.08C301.432 193.501 300.704 193.212 299.79 193.212C298.875 193.212 298.147 193.501 297.606 194.08C297.064 194.659 296.794 195.471 296.794 196.516V205H292.006V189.376H296.794V191.448C297.279 190.757 297.932 190.216 298.754 189.824C299.575 189.413 300.499 189.208 301.526 189.208Z" fill="black"/>
<path d="M101.113 240.06V248.88C101.113 250.12 101.413 251.04 102.013 251.64C102.626 252.24 103.473 252.54 104.553 252.54C105.62 252.54 106.453 252.24 107.053 251.64C107.666 251.04 107.973 250.12 107.973 248.88V240.06H109.793V248.86C109.793 250.02 109.56 251 109.093 251.8C108.626 252.587 107.993 253.173 107.193 253.56C106.406 253.947 105.52 254.14 104.533 254.14C103.546 254.14 102.653 253.947 101.853 253.56C101.066 253.173 100.44 252.587 99.973 251.8C99.5196 251 99.293 250.02 99.293 248.86V240.06H101.113ZM116.709 254.18C115.869 254.18 115.116 254.04 114.449 253.76C113.782 253.467 113.256 253.067 112.869 252.56C112.482 252.04 112.269 251.447 112.229 250.78H114.109C114.162 251.327 114.416 251.773 114.869 252.12C115.336 252.467 115.942 252.64 116.689 252.64C117.382 252.64 117.929 252.487 118.329 252.18C118.729 251.873 118.929 251.487 118.929 251.02C118.929 250.54 118.716 250.187 118.289 249.96C117.862 249.72 117.202 249.487 116.309 249.26C115.496 249.047 114.829 248.833 114.309 248.62C113.802 248.393 113.362 248.067 112.989 247.64C112.629 247.2 112.449 246.627 112.449 245.92C112.449 245.36 112.616 244.847 112.949 244.38C113.282 243.913 113.756 243.547 114.369 243.28C114.982 243 115.682 242.86 116.469 242.86C117.682 242.86 118.662 243.167 119.409 243.78C120.156 244.393 120.556 245.233 120.609 246.3H118.789C118.749 245.727 118.516 245.267 118.089 244.92C117.676 244.573 117.116 244.4 116.409 244.4C115.756 244.4 115.236 244.54 114.849 244.82C114.462 245.1 114.269 245.467 114.269 245.92C114.269 246.28 114.382 246.58 114.609 246.82C114.849 247.047 115.142 247.233 115.489 247.38C115.849 247.513 116.342 247.667 116.969 247.84C117.756 248.053 118.396 248.267 118.889 248.48C119.382 248.68 119.802 248.987 120.149 249.4C120.509 249.813 120.696 250.353 120.709 251.02C120.709 251.62 120.542 252.16 120.209 252.64C119.876 253.12 119.402 253.5 118.789 253.78C118.189 254.047 117.496 254.18 116.709 254.18ZM133.278 248.1C133.278 248.447 133.258 248.813 133.218 249.2H124.458C124.525 250.28 124.892 251.127 125.558 251.74C126.238 252.34 127.058 252.64 128.018 252.64C128.805 252.64 129.458 252.46 129.978 252.1C130.512 251.727 130.885 251.233 131.098 250.62H133.058C132.765 251.673 132.178 252.533 131.298 253.2C130.418 253.853 129.325 254.18 128.018 254.18C126.978 254.18 126.045 253.947 125.218 253.48C124.405 253.013 123.765 252.353 123.298 251.5C122.832 250.633 122.598 249.633 122.598 248.5C122.598 247.367 122.825 246.373 123.278 245.52C123.732 244.667 124.365 244.013 125.178 243.56C126.005 243.093 126.952 242.86 128.018 242.86C129.058 242.86 129.978 243.087 130.778 243.54C131.578 243.993 132.192 244.62 132.618 245.42C133.058 246.207 133.278 247.1 133.278 248.1ZM131.398 247.72C131.398 247.027 131.245 246.433 130.938 245.94C130.632 245.433 130.212 245.053 129.678 244.8C129.158 244.533 128.578 244.4 127.938 244.4C127.018 244.4 126.232 244.693 125.578 245.28C124.938 245.867 124.572 246.68 124.478 247.72H131.398ZM140.333 248.48C140.333 247.36 140.559 246.38 141.013 245.54C141.466 244.687 142.086 244.027 142.873 243.56C143.673 243.093 144.559 242.86 145.533 242.86C146.493 242.86 147.326 243.067 148.033 243.48C148.739 243.893 149.266 244.413 149.613 245.04V243.04H151.453V254H149.613V251.96C149.253 252.6 148.713 253.133 147.993 253.56C147.286 253.973 146.459 254.18 145.513 254.18C144.539 254.18 143.659 253.94 142.873 253.46C142.086 252.98 141.466 252.307 141.013 251.44C140.559 250.573 140.333 249.587 140.333 248.48ZM149.613 248.5C149.613 247.673 149.446 246.953 149.113 246.34C148.779 245.727 148.326 245.26 147.753 244.94C147.193 244.607 146.573 244.44 145.893 244.44C145.213 244.44 144.593 244.6 144.033 244.92C143.473 245.24 143.026 245.707 142.693 246.32C142.359 246.933 142.193 247.653 142.193 248.48C142.193 249.32 142.359 250.053 142.693 250.68C143.026 251.293 143.473 251.767 144.033 252.1C144.593 252.42 145.213 252.58 145.893 252.58C146.573 252.58 147.193 252.42 147.753 252.1C148.326 251.767 148.779 251.293 149.113 250.68C149.446 250.053 149.613 249.327 149.613 248.5ZM164.248 243.04V254H162.428V252.38C162.082 252.94 161.595 253.38 160.968 253.7C160.355 254.007 159.675 254.16 158.928 254.16C158.075 254.16 157.308 253.987 156.628 253.64C155.948 253.28 155.408 252.747 155.008 252.04C154.622 251.333 154.428 250.473 154.428 249.46V243.04H156.228V249.22C156.228 250.3 156.502 251.133 157.048 251.72C157.595 252.293 158.342 252.58 159.288 252.58C160.262 252.58 161.028 252.28 161.588 251.68C162.148 251.08 162.428 250.207 162.428 249.06V243.04H164.248ZM166.641 248.48C166.641 247.36 166.868 246.38 167.321 245.54C167.775 244.687 168.395 244.027 169.181 243.56C169.981 243.093 170.875 242.86 171.861 242.86C172.715 242.86 173.508 243.06 174.241 243.46C174.975 243.847 175.535 244.36 175.921 245V239.2H177.761V254H175.921V251.94C175.561 252.593 175.028 253.133 174.321 253.56C173.615 253.973 172.788 254.18 171.841 254.18C170.868 254.18 169.981 253.94 169.181 253.46C168.395 252.98 167.775 252.307 167.321 251.44C166.868 250.573 166.641 249.587 166.641 248.48ZM175.921 248.5C175.921 247.673 175.755 246.953 175.421 246.34C175.088 245.727 174.635 245.26 174.061 244.94C173.501 244.607 172.881 244.44 172.201 244.44C171.521 244.44 170.901 244.6 170.341 244.92C169.781 245.24 169.335 245.707 169.001 246.32C168.668 246.933 168.501 247.653 168.501 248.48C168.501 249.32 168.668 250.053 169.001 250.68C169.335 251.293 169.781 251.767 170.341 252.1C170.901 252.42 171.521 252.58 172.201 252.58C172.881 252.58 173.501 252.42 174.061 252.1C174.635 251.767 175.088 251.293 175.421 250.68C175.755 250.053 175.921 249.327 175.921 248.5ZM181.777 241.26C181.43 241.26 181.137 241.14 180.897 240.9C180.657 240.66 180.537 240.367 180.537 240.02C180.537 239.673 180.657 239.38 180.897 239.14C181.137 238.9 181.43 238.78 181.777 238.78C182.11 238.78 182.39 238.9 182.617 239.14C182.857 239.38 182.977 239.673 182.977 240.02C182.977 240.367 182.857 240.66 182.617 240.9C182.39 241.14 182.11 241.26 181.777 241.26ZM182.657 243.04V254H180.837V243.04H182.657ZM195.759 248.1C195.759 248.447 195.739 248.813 195.699 249.2H186.939C187.005 250.28 187.372 251.127 188.039 251.74C188.719 252.34 189.539 252.64 190.499 252.64C191.285 252.64 191.939 252.46 192.459 252.1C192.992 251.727 193.365 251.233 193.579 250.62H195.539C195.245 251.673 194.659 252.533 193.779 253.2C192.899 253.853 191.805 254.18 190.499 254.18C189.459 254.18 188.525 253.947 187.699 253.48C186.885 253.013 186.245 252.353 185.779 251.5C185.312 250.633 185.079 249.633 185.079 248.5C185.079 247.367 185.305 246.373 185.759 245.52C186.212 244.667 186.845 244.013 187.659 243.56C188.485 243.093 189.432 242.86 190.499 242.86C191.539 242.86 192.459 243.087 193.259 243.54C194.059 243.993 194.672 244.62 195.099 245.42C195.539 246.207 195.759 247.1 195.759 248.1ZM193.879 247.72C193.879 247.027 193.725 246.433 193.419 245.94C193.112 245.433 192.692 245.053 192.159 244.8C191.639 244.533 191.059 244.4 190.419 244.4C189.499 244.4 188.712 244.693 188.059 245.28C187.419 245.867 187.052 246.68 186.959 247.72H193.879ZM203.501 242.84C204.834 242.84 205.914 243.247 206.741 244.06C207.568 244.86 207.981 246.02 207.981 247.54V254H206.181V247.8C206.181 246.707 205.908 245.873 205.361 245.3C204.814 244.713 204.068 244.42 203.121 244.42C202.161 244.42 201.394 244.72 200.821 245.32C200.261 245.92 199.981 246.793 199.981 247.94V254H198.161V243.04H199.981V244.6C200.341 244.04 200.828 243.607 201.441 243.3C202.068 242.993 202.754 242.84 203.501 242.84ZM210.274 248.5C210.274 247.367 210.501 246.38 210.954 245.54C211.407 244.687 212.034 244.027 212.834 243.56C213.647 243.093 214.574 242.86 215.614 242.86C216.961 242.86 218.067 243.187 218.934 243.84C219.814 244.493 220.394 245.4 220.674 246.56H218.714C218.527 245.893 218.161 245.367 217.614 244.98C217.081 244.593 216.414 244.4 215.614 244.4C214.574 244.4 213.734 244.76 213.094 245.48C212.454 246.187 212.134 247.193 212.134 248.5C212.134 249.82 212.454 250.84 213.094 251.56C213.734 252.28 214.574 252.64 215.614 252.64C216.414 252.64 217.081 252.453 217.614 252.08C218.147 251.707 218.514 251.173 218.714 250.48H220.674C220.381 251.6 219.794 252.5 218.914 253.18C218.034 253.847 216.934 254.18 215.614 254.18C214.574 254.18 213.647 253.947 212.834 253.48C212.034 253.013 211.407 252.353 210.954 251.5C210.501 250.647 210.274 249.647 210.274 248.5ZM233.103 248.1C233.103 248.447 233.083 248.813 233.043 249.2H224.283C224.349 250.28 224.716 251.127 225.383 251.74C226.063 252.34 226.883 252.64 227.843 252.64C228.629 252.64 229.283 252.46 229.803 252.1C230.336 251.727 230.709 251.233 230.923 250.62H232.883C232.589 251.673 232.003 252.533 231.123 253.2C230.243 253.853 229.149 254.18 227.843 254.18C226.803 254.18 225.869 253.947 225.043 253.48C224.229 253.013 223.589 252.353 223.123 251.5C222.656 250.633 222.423 249.633 222.423 248.5C222.423 247.367 222.649 246.373 223.103 245.52C223.556 244.667 224.189 244.013 225.003 243.56C225.829 243.093 226.776 242.86 227.843 242.86C228.883 242.86 229.803 243.087 230.603 243.54C231.403 243.993 232.016 244.62 232.443 245.42C232.883 246.207 233.103 247.1 233.103 248.1ZM231.223 247.72C231.223 247.027 231.069 246.433 230.763 245.94C230.456 245.433 230.036 245.053 229.503 244.8C228.983 244.533 228.403 244.4 227.763 244.4C226.843 244.4 226.056 244.693 225.403 245.28C224.763 245.867 224.396 246.68 224.303 247.72H231.223ZM240.157 248.48C240.157 247.36 240.384 246.38 240.837 245.54C241.29 244.687 241.91 244.027 242.697 243.56C243.497 243.093 244.384 242.86 245.357 242.86C246.317 242.86 247.15 243.067 247.857 243.48C248.564 243.893 249.09 244.413 249.437 245.04V243.04H251.277V254H249.437V251.96C249.077 252.6 248.537 253.133 247.817 253.56C247.11 253.973 246.284 254.18 245.337 254.18C244.364 254.18 243.484 253.94 242.697 253.46C241.91 252.98 241.29 252.307 240.837 251.44C240.384 250.573 240.157 249.587 240.157 248.48ZM249.437 248.5C249.437 247.673 249.27 246.953 248.937 246.34C248.604 245.727 248.15 245.26 247.577 244.94C247.017 244.607 246.397 244.44 245.717 244.44C245.037 244.44 244.417 244.6 243.857 244.92C243.297 245.24 242.85 245.707 242.517 246.32C242.184 246.933 242.017 247.653 242.017 248.48C242.017 249.32 242.184 250.053 242.517 250.68C242.85 251.293 243.297 251.767 243.857 252.1C244.417 252.42 245.037 252.58 245.717 252.58C246.397 252.58 247.017 252.42 247.577 252.1C248.15 251.767 248.604 251.293 248.937 250.68C249.27 250.053 249.437 249.327 249.437 248.5ZM256.173 239.2V254H254.353V239.2H256.173ZM260.214 241.26C259.868 241.26 259.574 241.14 259.334 240.9C259.094 240.66 258.974 240.367 258.974 240.02C258.974 239.673 259.094 239.38 259.334 239.14C259.574 238.9 259.868 238.78 260.214 238.78C260.548 238.78 260.828 238.9 261.054 239.14C261.294 239.38 261.414 239.673 261.414 240.02C261.414 240.367 261.294 240.66 261.054 240.9C260.828 241.14 260.548 241.26 260.214 241.26ZM261.094 243.04V254H259.274V243.04H261.094ZM268.716 242.86C269.663 242.86 270.49 243.067 271.196 243.48C271.916 243.893 272.45 244.413 272.796 245.04V243.04H274.636V254.24C274.636 255.24 274.423 256.127 273.996 256.9C273.57 257.687 272.956 258.3 272.156 258.74C271.37 259.18 270.45 259.4 269.396 259.4C267.956 259.4 266.756 259.06 265.796 258.38C264.836 257.7 264.27 256.773 264.096 255.6H265.896C266.096 256.267 266.51 256.8 267.136 257.2C267.763 257.613 268.516 257.82 269.396 257.82C270.396 257.82 271.21 257.507 271.836 256.88C272.476 256.253 272.796 255.373 272.796 254.24V251.94C272.436 252.58 271.903 253.113 271.196 253.54C270.49 253.967 269.663 254.18 268.716 254.18C267.743 254.18 266.856 253.94 266.056 253.46C265.27 252.98 264.65 252.307 264.196 251.44C263.743 250.573 263.516 249.587 263.516 248.48C263.516 247.36 263.743 246.38 264.196 245.54C264.65 244.687 265.27 244.027 266.056 243.56C266.856 243.093 267.743 242.86 268.716 242.86ZM272.796 248.5C272.796 247.673 272.63 246.953 272.296 246.34C271.963 245.727 271.51 245.26 270.936 244.94C270.376 244.607 269.756 244.44 269.076 244.44C268.396 244.44 267.776 244.6 267.216 244.92C266.656 245.24 266.21 245.707 265.876 246.32C265.543 246.933 265.376 247.653 265.376 248.48C265.376 249.32 265.543 250.053 265.876 250.68C266.21 251.293 266.656 251.767 267.216 252.1C267.776 252.42 268.396 252.58 269.076 252.58C269.756 252.58 270.376 252.42 270.936 252.1C271.51 251.767 271.963 251.293 272.296 250.68C272.63 250.053 272.796 249.327 272.796 248.5ZM283.052 242.84C284.385 242.84 285.465 243.247 286.292 244.06C287.119 244.86 287.532 246.02 287.532 247.54V254H285.732V247.8C285.732 246.707 285.459 245.873 284.912 245.3C284.365 244.713 283.619 244.42 282.672 244.42C281.712 244.42 280.945 244.72 280.372 245.32C279.812 245.92 279.532 246.793 279.532 247.94V254H277.712V243.04H279.532V244.6C279.892 244.04 280.379 243.607 280.992 243.3C281.619 242.993 282.305 242.84 283.052 242.84ZM303.685 242.84C304.538 242.84 305.298 243.02 305.965 243.38C306.632 243.727 307.158 244.253 307.545 244.96C307.932 245.667 308.125 246.527 308.125 247.54V254H306.325V247.8C306.325 246.707 306.052 245.873 305.505 245.3C304.972 244.713 304.245 244.42 303.325 244.42C302.378 244.42 301.625 244.727 301.065 245.34C300.505 245.94 300.225 246.813 300.225 247.96V254H298.425V247.8C298.425 246.707 298.152 245.873 297.605 245.3C297.072 244.713 296.345 244.42 295.425 244.42C294.478 244.42 293.725 244.727 293.165 245.34C292.605 245.94 292.325 246.813 292.325 247.96V254H290.505V243.04H292.325V244.62C292.685 244.047 293.165 243.607 293.765 243.3C294.378 242.993 295.052 242.84 295.785 242.84C296.705 242.84 297.518 243.047 298.225 243.46C298.932 243.873 299.458 244.48 299.805 245.28C300.112 244.507 300.618 243.907 301.325 243.48C302.032 243.053 302.818 242.84 303.685 242.84ZM321.11 248.1C321.11 248.447 321.09 248.813 321.05 249.2H312.29C312.357 250.28 312.724 251.127 313.39 251.74C314.07 252.34 314.89 252.64 315.85 252.64C316.637 252.64 317.29 252.46 317.81 252.1C318.344 251.727 318.717 251.233 318.93 250.62H320.89C320.597 251.673 320.01 252.533 319.13 253.2C318.25 253.853 317.157 254.18 315.85 254.18C314.81 254.18 313.877 253.947 313.05 253.48C312.237 253.013 311.597 252.353 311.13 251.5C310.664 250.633 310.43 249.633 310.43 248.5C310.43 247.367 310.657 246.373 311.11 245.52C311.564 244.667 312.197 244.013 313.01 243.56C313.837 243.093 314.784 242.86 315.85 242.86C316.89 242.86 317.81 243.087 318.61 243.54C319.41 243.993 320.024 244.62 320.45 245.42C320.89 246.207 321.11 247.1 321.11 248.1ZM319.23 247.72C319.23 247.027 319.077 246.433 318.77 245.94C318.464 245.433 318.044 245.053 317.51 244.8C316.99 244.533 316.41 244.4 315.77 244.4C314.85 244.4 314.064 244.693 313.41 245.28C312.77 245.867 312.404 246.68 312.31 247.72H319.23ZM328.853 242.84C330.186 242.84 331.266 243.247 332.093 244.06C332.919 244.86 333.333 246.02 333.333 247.54V254H331.533V247.8C331.533 246.707 331.259 245.873 330.713 245.3C330.166 244.713 329.419 244.42 328.473 244.42C327.513 244.42 326.746 244.72 326.173 245.32C325.613 245.92 325.333 246.793 325.333 247.94V254H323.513V243.04H325.333V244.6C325.693 244.04 326.179 243.607 326.793 243.3C327.419 242.993 328.106 242.84 328.853 242.84ZM338.526 244.54V251C338.526 251.533 338.639 251.913 338.866 252.14C339.092 252.353 339.486 252.46 340.046 252.46H341.386V254H339.746C338.732 254 337.972 253.767 337.466 253.3C336.959 252.833 336.706 252.067 336.706 251V244.54H335.286V243.04H336.706V240.28H338.526V243.04H341.386V244.54H338.526ZM348.243 248.48C348.243 247.36 348.469 246.38 348.923 245.54C349.376 244.687 349.996 244.027 350.783 243.56C351.583 243.093 352.469 242.86 353.443 242.86C354.403 242.86 355.236 243.067 355.943 243.48C356.649 243.893 357.176 244.413 357.523 245.04V243.04H359.363V254H357.523V251.96C357.163 252.6 356.623 253.133 355.903 253.56C355.196 253.973 354.369 254.18 353.423 254.18C352.449 254.18 351.569 253.94 350.783 253.46C349.996 252.98 349.376 252.307 348.923 251.44C348.469 250.573 348.243 249.587 348.243 248.48ZM357.523 248.5C357.523 247.673 357.356 246.953 357.023 246.34C356.689 245.727 356.236 245.26 355.663 244.94C355.103 244.607 354.483 244.44 353.803 244.44C353.123 244.44 352.503 244.6 351.943 244.92C351.383 245.24 350.936 245.707 350.603 246.32C350.269 246.933 350.103 247.653 350.103 248.48C350.103 249.32 350.269 250.053 350.603 250.68C350.936 251.293 351.383 251.767 351.943 252.1C352.503 252.42 353.123 252.58 353.803 252.58C354.483 252.58 355.103 252.42 355.663 252.1C356.236 251.767 356.689 251.293 357.023 250.68C357.356 250.053 357.523 249.327 357.523 248.5ZM367.778 242.84C369.112 242.84 370.192 243.247 371.018 244.06C371.845 244.86 372.258 246.02 372.258 247.54V254H370.458V247.8C370.458 246.707 370.185 245.873 369.638 245.3C369.092 244.713 368.345 244.42 367.398 244.42C366.438 244.42 365.672 244.72 365.098 245.32C364.538 245.92 364.258 246.793 364.258 247.94V254H362.438V243.04H364.258V244.6C364.618 244.04 365.105 243.607 365.718 243.3C366.345 242.993 367.032 242.84 367.778 242.84ZM374.551 248.48C374.551 247.36 374.778 246.38 375.231 245.54C375.685 244.687 376.305 244.027 377.091 243.56C377.891 243.093 378.785 242.86 379.771 242.86C380.625 242.86 381.418 243.06 382.151 243.46C382.885 243.847 383.445 244.36 383.831 245V239.2H385.671V254H383.831V251.94C383.471 252.593 382.938 253.133 382.231 253.56C381.525 253.973 380.698 254.18 379.751 254.18C378.778 254.18 377.891 253.94 377.091 253.46C376.305 252.98 375.685 252.307 375.231 251.44C374.778 250.573 374.551 249.587 374.551 248.48ZM383.831 248.5C383.831 247.673 383.665 246.953 383.331 246.34C382.998 245.727 382.545 245.26 381.971 244.94C381.411 244.607 380.791 244.44 380.111 244.44C379.431 244.44 378.811 244.6 378.251 244.92C377.691 245.24 377.245 245.707 376.911 246.32C376.578 246.933 376.411 247.653 376.411 248.48C376.411 249.32 376.578 250.053 376.911 250.68C377.245 251.293 377.691 251.767 378.251 252.1C378.811 252.42 379.431 252.58 380.111 252.58C380.791 252.58 381.411 252.42 381.971 252.1C382.545 251.767 382.998 251.293 383.331 250.68C383.665 250.053 383.831 249.327 383.831 248.5ZM69.8639 275.06C70.2239 274.433 70.7572 273.913 71.4639 273.5C72.1839 273.073 73.0172 272.86 73.9639 272.86C74.9372 272.86 75.8172 273.093 76.6039 273.56C77.4039 274.027 78.0306 274.687 78.4839 275.54C78.9372 276.38 79.1639 277.36 79.1639 278.48C79.1639 279.587 78.9372 280.573 78.4839 281.44C78.0306 282.307 77.4039 282.98 76.6039 283.46C75.8172 283.94 74.9372 284.18 73.9639 284.18C73.0306 284.18 72.2039 283.973 71.4839 283.56C70.7772 283.133 70.2372 282.607 69.8639 281.98V289.2H68.0439V273.04H69.8639V275.06ZM77.3039 278.48C77.3039 277.653 77.1372 276.933 76.8039 276.32C76.4706 275.707 76.0172 275.24 75.4439 274.92C74.8839 274.6 74.2639 274.44 73.5839 274.44C72.9172 274.44 72.2972 274.607 71.7239 274.94C71.1639 275.26 70.7106 275.733 70.3639 276.36C70.0306 276.973 69.8639 277.687 69.8639 278.5C69.8639 279.327 70.0306 280.053 70.3639 280.68C70.7106 281.293 71.1639 281.767 71.7239 282.1C72.2972 282.42 72.9172 282.58 73.5839 282.58C74.2639 282.58 74.8839 282.42 75.4439 282.1C76.0172 281.767 76.4706 281.293 76.8039 280.68C77.1372 280.053 77.3039 279.32 77.3039 278.48ZM91.5595 278.1C91.5595 278.447 91.5395 278.813 91.4995 279.2H82.7395C82.8062 280.28 83.1729 281.127 83.8395 281.74C84.5195 282.34 85.3395 282.64 86.2995 282.64C87.0862 282.64 87.7395 282.46 88.2595 282.1C88.7929 281.727 89.1662 281.233 89.3795 280.62H91.3395C91.0462 281.673 90.4595 282.533 89.5795 283.2C88.6995 283.853 87.6062 284.18 86.2995 284.18C85.2595 284.18 84.3262 283.947 83.4995 283.48C82.6862 283.013 82.0462 282.353 81.5795 281.5C81.1129 280.633 80.8795 279.633 80.8795 278.5C80.8795 277.367 81.1062 276.373 81.5595 275.52C82.0129 274.667 82.6462 274.013 83.4595 273.56C84.2862 273.093 85.2329 272.86 86.2995 272.86C87.3395 272.86 88.2595 273.087 89.0595 273.54C89.8595 273.993 90.4729 274.62 90.8995 275.42C91.3395 276.207 91.5595 277.1 91.5595 278.1ZM89.6795 277.72C89.6795 277.027 89.5262 276.433 89.2195 275.94C88.9129 275.433 88.4929 275.053 87.9595 274.8C87.4395 274.533 86.8595 274.4 86.2195 274.4C85.2995 274.4 84.5129 274.693 83.8595 275.28C83.2195 275.867 82.8529 276.68 82.7595 277.72H89.6795ZM95.7819 274.82C96.1019 274.193 96.5552 273.707 97.1419 273.36C97.7419 273.013 98.4685 272.84 99.3219 272.84V274.72H98.8419C96.8019 274.72 95.7819 275.827 95.7819 278.04V284H93.9619V273.04H95.7819V274.82ZM105.883 274.54H103.583V284H101.763V274.54H100.343V273.04H101.763V272.26C101.763 271.033 102.076 270.14 102.703 269.58C103.343 269.007 104.363 268.72 105.763 268.72V270.24C104.963 270.24 104.396 270.4 104.063 270.72C103.743 271.027 103.583 271.54 103.583 272.26V273.04H105.883V274.54ZM112.785 284.18C111.758 284.18 110.825 283.947 109.985 283.48C109.158 283.013 108.505 282.353 108.025 281.5C107.558 280.633 107.325 279.633 107.325 278.5C107.325 277.38 107.565 276.393 108.045 275.54C108.538 274.673 109.205 274.013 110.045 273.56C110.885 273.093 111.825 272.86 112.865 272.86C113.905 272.86 114.845 273.093 115.685 273.56C116.525 274.013 117.185 274.667 117.665 275.52C118.158 276.373 118.405 277.367 118.405 278.5C118.405 279.633 118.152 280.633 117.645 281.5C117.152 282.353 116.478 283.013 115.625 283.48C114.772 283.947 113.825 284.18 112.785 284.18ZM112.785 282.58C113.438 282.58 114.052 282.427 114.625 282.12C115.198 281.813 115.658 281.353 116.005 280.74C116.365 280.127 116.545 279.38 116.545 278.5C116.545 277.62 116.372 276.873 116.025 276.26C115.678 275.647 115.225 275.193 114.665 274.9C114.105 274.593 113.498 274.44 112.845 274.44C112.178 274.44 111.565 274.593 111.005 274.9C110.458 275.193 110.018 275.647 109.685 276.26C109.352 276.873 109.185 277.62 109.185 278.5C109.185 279.393 109.345 280.147 109.665 280.76C109.998 281.373 110.438 281.833 110.985 282.14C111.532 282.433 112.132 282.58 112.785 282.58ZM122.618 274.82C122.938 274.193 123.391 273.707 123.978 273.36C124.578 273.013 125.304 272.84 126.158 272.84V274.72H125.678C123.638 274.72 122.618 275.827 122.618 278.04V284H120.798V273.04H122.618V274.82ZM141.439 272.84C142.292 272.84 143.052 273.02 143.719 273.38C144.385 273.727 144.912 274.253 145.299 274.96C145.685 275.667 145.879 276.527 145.879 277.54V284H144.079V277.8C144.079 276.707 143.805 275.873 143.259 275.3C142.725 274.713 141.999 274.42 141.079 274.42C140.132 274.42 139.379 274.727 138.819 275.34C138.259 275.94 137.979 276.813 137.979 277.96V284H136.179V277.8C136.179 276.707 135.905 275.873 135.359 275.3C134.825 274.713 134.099 274.42 133.179 274.42C132.232 274.42 131.479 274.727 130.919 275.34C130.359 275.94 130.079 276.813 130.079 277.96V284H128.259V273.04H130.079V274.62C130.439 274.047 130.919 273.607 131.519 273.3C132.132 272.993 132.805 272.84 133.539 272.84C134.459 272.84 135.272 273.047 135.979 273.46C136.685 273.873 137.212 274.48 137.559 275.28C137.865 274.507 138.372 273.907 139.079 273.48C139.785 273.053 140.572 272.84 141.439 272.84ZM148.184 278.48C148.184 277.36 148.411 276.38 148.864 275.54C149.318 274.687 149.938 274.027 150.724 273.56C151.524 273.093 152.411 272.86 153.384 272.86C154.344 272.86 155.178 273.067 155.884 273.48C156.591 273.893 157.118 274.413 157.464 275.04V273.04H159.304V284H157.464V281.96C157.104 282.6 156.564 283.133 155.844 283.56C155.138 283.973 154.311 284.18 153.364 284.18C152.391 284.18 151.511 283.94 150.724 283.46C149.938 282.98 149.318 282.307 148.864 281.44C148.411 280.573 148.184 279.587 148.184 278.48ZM157.464 278.5C157.464 277.673 157.298 276.953 156.964 276.34C156.631 275.727 156.178 275.26 155.604 274.94C155.044 274.607 154.424 274.44 153.744 274.44C153.064 274.44 152.444 274.6 151.884 274.92C151.324 275.24 150.878 275.707 150.544 276.32C150.211 276.933 150.044 277.653 150.044 278.48C150.044 279.32 150.211 280.053 150.544 280.68C150.878 281.293 151.324 281.767 151.884 282.1C152.444 282.42 153.064 282.58 153.744 282.58C154.424 282.58 155.044 282.42 155.604 282.1C156.178 281.767 156.631 281.293 156.964 280.68C157.298 280.053 157.464 279.327 157.464 278.5ZM167.72 272.84C169.053 272.84 170.133 273.247 170.96 274.06C171.787 274.86 172.2 276.02 172.2 277.54V284H170.4V277.8C170.4 276.707 170.127 275.873 169.58 275.3C169.033 274.713 168.287 274.42 167.34 274.42C166.38 274.42 165.613 274.72 165.04 275.32C164.48 275.92 164.2 276.793 164.2 277.94V284H162.38V273.04H164.2V274.6C164.56 274.04 165.047 273.607 165.66 273.3C166.287 272.993 166.973 272.84 167.72 272.84ZM174.493 278.5C174.493 277.367 174.719 276.38 175.173 275.54C175.626 274.687 176.253 274.027 177.053 273.56C177.866 273.093 178.793 272.86 179.833 272.86C181.179 272.86 182.286 273.187 183.153 273.84C184.033 274.493 184.613 275.4 184.893 276.56H182.933C182.746 275.893 182.379 275.367 181.833 274.98C181.299 274.593 180.633 274.4 179.833 274.4C178.793 274.4 177.953 274.76 177.313 275.48C176.673 276.187 176.353 277.193 176.353 278.5C176.353 279.82 176.673 280.84 177.313 281.56C177.953 282.28 178.793 282.64 179.833 282.64C180.633 282.64 181.299 282.453 181.833 282.08C182.366 281.707 182.733 281.173 182.933 280.48H184.893C184.599 281.6 184.013 282.5 183.133 283.18C182.253 283.847 181.153 284.18 179.833 284.18C178.793 284.18 177.866 283.947 177.053 283.48C176.253 283.013 175.626 282.353 175.173 281.5C174.719 280.647 174.493 279.647 174.493 278.5ZM197.321 278.1C197.321 278.447 197.301 278.813 197.261 279.2H188.501C188.568 280.28 188.935 281.127 189.601 281.74C190.281 282.34 191.101 282.64 192.061 282.64C192.848 282.64 193.501 282.46 194.021 282.1C194.555 281.727 194.928 281.233 195.141 280.62H197.101C196.808 281.673 196.221 282.533 195.341 283.2C194.461 283.853 193.368 284.18 192.061 284.18C191.021 284.18 190.088 283.947 189.261 283.48C188.448 283.013 187.808 282.353 187.341 281.5C186.875 280.633 186.641 279.633 186.641 278.5C186.641 277.367 186.868 276.373 187.321 275.52C187.775 274.667 188.408 274.013 189.221 273.56C190.048 273.093 190.995 272.86 192.061 272.86C193.101 272.86 194.021 273.087 194.821 273.54C195.621 273.993 196.235 274.62 196.661 275.42C197.101 276.207 197.321 277.1 197.321 278.1ZM195.441 277.72C195.441 277.027 195.288 276.433 194.981 275.94C194.675 275.433 194.255 275.053 193.721 274.8C193.201 274.533 192.621 274.4 191.981 274.4C191.061 274.4 190.275 274.693 189.621 275.28C188.981 275.867 188.615 276.68 188.521 277.72H195.441ZM218.236 272.84C219.089 272.84 219.849 273.02 220.516 273.38C221.182 273.727 221.709 274.253 222.096 274.96C222.482 275.667 222.676 276.527 222.676 277.54V284H220.876V277.8C220.876 276.707 220.602 275.873 220.056 275.3C219.522 274.713 218.796 274.42 217.876 274.42C216.929 274.42 216.176 274.727 215.616 275.34C215.056 275.94 214.776 276.813 214.776 277.96V284H212.976V277.8C212.976 276.707 212.702 275.873 212.156 275.3C211.622 274.713 210.896 274.42 209.976 274.42C209.029 274.42 208.276 274.727 207.716 275.34C207.156 275.94 206.876 276.813 206.876 277.96V284H205.056V273.04H206.876V274.62C207.236 274.047 207.716 273.607 208.316 273.3C208.929 272.993 209.602 272.84 210.336 272.84C211.256 272.84 212.069 273.047 212.776 273.46C213.482 273.873 214.009 274.48 214.356 275.28C214.662 274.507 215.169 273.907 215.876 273.48C216.582 273.053 217.369 272.84 218.236 272.84ZM235.661 278.1C235.661 278.447 235.641 278.813 235.601 279.2H226.841C226.908 280.28 227.274 281.127 227.941 281.74C228.621 282.34 229.441 282.64 230.401 282.64C231.188 282.64 231.841 282.46 232.361 282.1C232.894 281.727 233.268 281.233 233.481 280.62H235.441C235.148 281.673 234.561 282.533 233.681 283.2C232.801 283.853 231.708 284.18 230.401 284.18C229.361 284.18 228.428 283.947 227.601 283.48C226.788 283.013 226.148 282.353 225.681 281.5C225.214 280.633 224.981 279.633 224.981 278.5C224.981 277.367 225.208 276.373 225.661 275.52C226.114 274.667 226.748 274.013 227.561 273.56C228.388 273.093 229.334 272.86 230.401 272.86C231.441 272.86 232.361 273.087 233.161 273.54C233.961 273.993 234.574 274.62 235.001 275.42C235.441 276.207 235.661 277.1 235.661 278.1ZM233.781 277.72C233.781 277.027 233.628 276.433 233.321 275.94C233.014 275.433 232.594 275.053 232.061 274.8C231.541 274.533 230.961 274.4 230.321 274.4C229.401 274.4 228.614 274.693 227.961 275.28C227.321 275.867 226.954 276.68 226.861 277.72H233.781ZM240.283 274.54V281C240.283 281.533 240.397 281.913 240.623 282.14C240.85 282.353 241.243 282.46 241.803 282.46H243.143V284H241.503C240.49 284 239.73 283.767 239.223 283.3C238.717 282.833 238.463 282.067 238.463 281V274.54H237.043V273.04H238.463V270.28H240.283V273.04H243.143V274.54H240.283ZM247.169 274.82C247.489 274.193 247.942 273.707 248.529 273.36C249.129 273.013 249.855 272.84 250.709 272.84V274.72H250.229C248.189 274.72 247.169 275.827 247.169 278.04V284H245.349V273.04H247.169V274.82ZM253.75 271.26C253.403 271.26 253.11 271.14 252.87 270.9C252.63 270.66 252.51 270.367 252.51 270.02C252.51 269.673 252.63 269.38 252.87 269.14C253.11 268.9 253.403 268.78 253.75 268.78C254.083 268.78 254.363 268.9 254.59 269.14C254.83 269.38 254.95 269.673 254.95 270.02C254.95 270.367 254.83 270.66 254.59 270.9C254.363 271.14 254.083 271.26 253.75 271.26ZM254.63 273.04V284H252.81V273.04H254.63ZM257.051 278.5C257.051 277.367 257.278 276.38 257.731 275.54C258.185 274.687 258.811 274.027 259.611 273.56C260.425 273.093 261.351 272.86 262.391 272.86C263.738 272.86 264.845 273.187 265.711 273.84C266.591 274.493 267.171 275.4 267.451 276.56H265.491C265.305 275.893 264.938 275.367 264.391 274.98C263.858 274.593 263.191 274.4 262.391 274.4C261.351 274.4 260.511 274.76 259.871 275.48C259.231 276.187 258.911 277.193 258.911 278.5C258.911 279.82 259.231 280.84 259.871 281.56C260.511 282.28 261.351 282.64 262.391 282.64C263.191 282.64 263.858 282.453 264.391 282.08C264.925 281.707 265.291 281.173 265.491 280.48H267.451C267.158 281.6 266.571 282.5 265.691 283.18C264.811 283.847 263.711 284.18 262.391 284.18C261.351 284.18 260.425 283.947 259.611 283.48C258.811 283.013 258.185 282.353 257.731 281.5C257.278 280.647 257.051 279.647 257.051 278.5ZM273.76 284.18C272.92 284.18 272.167 284.04 271.5 283.76C270.833 283.467 270.307 283.067 269.92 282.56C269.533 282.04 269.32 281.447 269.28 280.78H271.16C271.213 281.327 271.467 281.773 271.92 282.12C272.387 282.467 272.993 282.64 273.74 282.64C274.433 282.64 274.98 282.487 275.38 282.18C275.78 281.873 275.98 281.487 275.98 281.02C275.98 280.54 275.767 280.187 275.34 279.96C274.913 279.72 274.253 279.487 273.36 279.26C272.547 279.047 271.88 278.833 271.36 278.62C270.853 278.393 270.413 278.067 270.04 277.64C269.68 277.2 269.5 276.627 269.5 275.92C269.5 275.36 269.667 274.847 270 274.38C270.333 273.913 270.807 273.547 271.42 273.28C272.033 273 272.733 272.86 273.52 272.86C274.733 272.86 275.713 273.167 276.46 273.78C277.207 274.393 277.607 275.233 277.66 276.3H275.84C275.8 275.727 275.567 275.267 275.14 274.92C274.727 274.573 274.167 274.4 273.46 274.4C272.807 274.4 272.287 274.54 271.9 274.82C271.513 275.1 271.32 275.467 271.32 275.92C271.32 276.28 271.433 276.58 271.66 276.82C271.9 277.047 272.193 277.233 272.54 277.38C272.9 277.513 273.393 277.667 274.02 277.84C274.807 278.053 275.447 278.267 275.94 278.48C276.433 278.68 276.853 278.987 277.2 279.4C277.56 279.813 277.747 280.353 277.76 281.02C277.76 281.62 277.593 282.16 277.26 282.64C276.927 283.12 276.453 283.5 275.84 283.78C275.24 284.047 274.547 284.18 273.76 284.18ZM287.881 274.54V281C287.881 281.533 287.994 281.913 288.221 282.14C288.448 282.353 288.841 282.46 289.401 282.46H290.741V284H289.101C288.088 284 287.328 283.767 286.821 283.3C286.314 282.833 286.061 282.067 286.061 281V274.54H284.641V273.04H286.061V270.28H287.881V273.04H290.741V274.54H287.881ZM297.726 284.18C296.7 284.18 295.766 283.947 294.926 283.48C294.1 283.013 293.446 282.353 292.966 281.5C292.5 280.633 292.266 279.633 292.266 278.5C292.266 277.38 292.506 276.393 292.986 275.54C293.48 274.673 294.146 274.013 294.986 273.56C295.826 273.093 296.766 272.86 297.806 272.86C298.846 272.86 299.786 273.093 300.626 273.56C301.466 274.013 302.126 274.667 302.606 275.52C303.1 276.373 303.346 277.367 303.346 278.5C303.346 279.633 303.093 280.633 302.586 281.5C302.093 282.353 301.42 283.013 300.566 283.48C299.713 283.947 298.766 284.18 297.726 284.18ZM297.726 282.58C298.38 282.58 298.993 282.427 299.566 282.12C300.14 281.813 300.6 281.353 300.946 280.74C301.306 280.127 301.486 279.38 301.486 278.5C301.486 277.62 301.313 276.873 300.966 276.26C300.62 275.647 300.166 275.193 299.606 274.9C299.046 274.593 298.44 274.44 297.786 274.44C297.12 274.44 296.506 274.593 295.946 274.9C295.4 275.193 294.96 275.647 294.626 276.26C294.293 276.873 294.126 277.62 294.126 278.5C294.126 279.393 294.286 280.147 294.606 280.76C294.94 281.373 295.38 281.833 295.926 282.14C296.473 282.433 297.073 282.58 297.726 282.58ZM314.951 284.18C314.111 284.18 313.358 284.04 312.691 283.76C312.025 283.467 311.498 283.067 311.111 282.56C310.725 282.04 310.511 281.447 310.471 280.78H312.351C312.405 281.327 312.658 281.773 313.111 282.12C313.578 282.467 314.185 282.64 314.931 282.64C315.625 282.64 316.171 282.487 316.571 282.18C316.971 281.873 317.171 281.487 317.171 281.02C317.171 280.54 316.958 280.187 316.531 279.96C316.105 279.72 315.445 279.487 314.551 279.26C313.738 279.047 313.071 278.833 312.551 278.62C312.045 278.393 311.605 278.067 311.231 277.64C310.871 277.2 310.691 276.627 310.691 275.92C310.691 275.36 310.858 274.847 311.191 274.38C311.525 273.913 311.998 273.547 312.611 273.28C313.225 273 313.925 272.86 314.711 272.86C315.925 272.86 316.905 273.167 317.651 273.78C318.398 274.393 318.798 275.233 318.851 276.3H317.031C316.991 275.727 316.758 275.267 316.331 274.92C315.918 274.573 315.358 274.4 314.651 274.4C313.998 274.4 313.478 274.54 313.091 274.82C312.705 275.1 312.511 275.467 312.511 275.92C312.511 276.28 312.625 276.58 312.851 276.82C313.091 277.047 313.385 277.233 313.731 277.38C314.091 277.513 314.585 277.667 315.211 277.84C315.998 278.053 316.638 278.267 317.131 278.48C317.625 278.68 318.045 278.987 318.391 279.4C318.751 279.813 318.938 280.353 318.951 281.02C318.951 281.62 318.785 282.16 318.451 282.64C318.118 283.12 317.645 283.5 317.031 283.78C316.431 284.047 315.738 284.18 314.951 284.18ZM331.52 278.1C331.52 278.447 331.5 278.813 331.46 279.2H322.7C322.767 280.28 323.134 281.127 323.8 281.74C324.48 282.34 325.3 282.64 326.26 282.64C327.047 282.64 327.7 282.46 328.22 282.1C328.754 281.727 329.127 281.233 329.34 280.62H331.3C331.007 281.673 330.42 282.533 329.54 283.2C328.66 283.853 327.567 284.18 326.26 284.18C325.22 284.18 324.287 283.947 323.46 283.48C322.647 283.013 322.007 282.353 321.54 281.5C321.074 280.633 320.84 279.633 320.84 278.5C320.84 277.367 321.067 276.373 321.52 275.52C321.974 274.667 322.607 274.013 323.42 273.56C324.247 273.093 325.194 272.86 326.26 272.86C327.3 272.86 328.22 273.087 329.02 273.54C329.82 273.993 330.434 274.62 330.86 275.42C331.3 276.207 331.52 277.1 331.52 278.1ZM329.64 277.72C329.64 277.027 329.487 276.433 329.18 275.94C328.874 275.433 328.454 275.053 327.92 274.8C327.4 274.533 326.82 274.4 326.18 274.4C325.26 274.4 324.474 274.693 323.82 275.28C323.18 275.867 322.814 276.68 322.72 277.72H329.64ZM335.743 269.2V284H333.923V269.2H335.743ZM348.845 278.1C348.845 278.447 348.825 278.813 348.785 279.2H340.025C340.091 280.28 340.458 281.127 341.125 281.74C341.805 282.34 342.625 282.64 343.585 282.64C344.371 282.64 345.025 282.46 345.545 282.1C346.078 281.727 346.451 281.233 346.665 280.62H348.625C348.331 281.673 347.745 282.533 346.865 283.2C345.985 283.853 344.891 284.18 343.585 284.18C342.545 284.18 341.611 283.947 340.785 283.48C339.971 283.013 339.331 282.353 338.865 281.5C338.398 280.633 338.165 279.633 338.165 278.5C338.165 277.367 338.391 276.373 338.845 275.52C339.298 274.667 339.931 274.013 340.745 273.56C341.571 273.093 342.518 272.86 343.585 272.86C344.625 272.86 345.545 273.087 346.345 273.54C347.145 273.993 347.758 274.62 348.185 275.42C348.625 276.207 348.845 277.1 348.845 278.1ZM346.965 277.72C346.965 277.027 346.811 276.433 346.505 275.94C346.198 275.433 345.778 275.053 345.245 274.8C344.725 274.533 344.145 274.4 343.505 274.4C342.585 274.4 341.798 274.693 341.145 275.28C340.505 275.867 340.138 276.68 340.045 277.72H346.965ZM350.567 278.5C350.567 277.367 350.794 276.38 351.247 275.54C351.7 274.687 352.327 274.027 353.127 273.56C353.94 273.093 354.867 272.86 355.907 272.86C357.254 272.86 358.36 273.187 359.227 273.84C360.107 274.493 360.687 275.4 360.967 276.56H359.007C358.82 275.893 358.454 275.367 357.907 274.98C357.374 274.593 356.707 274.4 355.907 274.4C354.867 274.4 354.027 274.76 353.387 275.48C352.747 276.187 352.427 277.193 352.427 278.5C352.427 279.82 352.747 280.84 353.387 281.56C354.027 282.28 354.867 282.64 355.907 282.64C356.707 282.64 357.374 282.453 357.907 282.08C358.44 281.707 358.807 281.173 359.007 280.48H360.967C360.674 281.6 360.087 282.5 359.207 283.18C358.327 283.847 357.227 284.18 355.907 284.18C354.867 284.18 353.94 283.947 353.127 283.48C352.327 283.013 351.7 282.353 351.247 281.5C350.794 280.647 350.567 279.647 350.567 278.5ZM365.615 274.54V281C365.615 281.533 365.729 281.913 365.955 282.14C366.182 282.353 366.575 282.46 367.135 282.46H368.475V284H366.835C365.822 284 365.062 283.767 364.555 283.3C364.049 282.833 363.795 282.067 363.795 281V274.54H362.375V273.04H363.795V270.28H365.615V273.04H368.475V274.54H365.615ZM381.453 272.84C382.279 272.84 383.026 273.02 383.693 273.38C384.359 273.727 384.879 274.253 385.253 274.96C385.639 275.667 385.833 276.527 385.833 277.54V284H384.033V277.8C384.033 276.707 383.759 275.873 383.213 275.3C382.666 274.713 381.919 274.42 380.973 274.42C380.013 274.42 379.246 274.72 378.673 275.32C378.113 275.92 377.833 276.793 377.833 277.94V284H376.013V269.2H377.833V274.6C378.193 274.04 378.686 273.607 379.313 273.3C379.953 272.993 380.666 272.84 381.453 272.84ZM389.746 271.26C389.399 271.26 389.106 271.14 388.866 270.9C388.626 270.66 388.506 270.367 388.506 270.02C388.506 269.673 388.626 269.38 388.866 269.14C389.106 268.9 389.399 268.78 389.746 268.78C390.079 268.78 390.359 268.9 390.586 269.14C390.826 269.38 390.946 269.673 390.946 270.02C390.946 270.367 390.826 270.66 390.586 270.9C390.359 271.14 390.079 271.26 389.746 271.26ZM390.626 273.04V284H388.806V273.04H390.626ZM398.248 272.86C399.194 272.86 400.021 273.067 400.728 273.48C401.448 273.893 401.981 274.413 402.328 275.04V273.04H404.168V284.24C404.168 285.24 403.954 286.127 403.528 286.9C403.101 287.687 402.488 288.3 401.688 288.74C400.901 289.18 399.981 289.4 398.928 289.4C397.488 289.4 396.288 289.06 395.328 288.38C394.368 287.7 393.801 286.773 393.628 285.6H395.428C395.628 286.267 396.041 286.8 396.668 287.2C397.294 287.613 398.048 287.82 398.928 287.82C399.928 287.82 400.741 287.507 401.368 286.88C402.008 286.253 402.328 285.373 402.328 284.24V281.94C401.968 282.58 401.434 283.113 400.728 283.54C400.021 283.967 399.194 284.18 398.248 284.18C397.274 284.18 396.388 283.94 395.588 283.46C394.801 282.98 394.181 282.307 393.728 281.44C393.274 280.573 393.048 279.587 393.048 278.48C393.048 277.36 393.274 276.38 393.728 275.54C394.181 274.687 394.801 274.027 395.588 273.56C396.388 273.093 397.274 272.86 398.248 272.86ZM402.328 278.5C402.328 277.673 402.161 276.953 401.828 276.34C401.494 275.727 401.041 275.26 400.468 274.94C399.908 274.607 399.288 274.44 398.608 274.44C397.928 274.44 397.308 274.6 396.748 274.92C396.188 275.24 395.741 275.707 395.408 276.32C395.074 276.933 394.908 277.653 394.908 278.48C394.908 279.32 395.074 280.053 395.408 280.68C395.741 281.293 396.188 281.767 396.748 282.1C397.308 282.42 397.928 282.58 398.608 282.58C399.288 282.58 399.908 282.42 400.468 282.1C401.041 281.767 401.494 281.293 401.828 280.68C402.161 280.053 402.328 279.327 402.328 278.5ZM412.683 272.84C413.51 272.84 414.256 273.02 414.923 273.38C415.59 273.727 416.11 274.253 416.483 274.96C416.87 275.667 417.063 276.527 417.063 277.54V284H415.263V277.8C415.263 276.707 414.99 275.873 414.443 275.3C413.896 274.713 413.15 274.42 412.203 274.42C411.243 274.42 410.476 274.72 409.903 275.32C409.343 275.92 409.063 276.793 409.063 277.94V284H407.243V269.2H409.063V274.6C409.423 274.04 409.916 273.607 410.543 273.3C411.183 272.993 411.896 272.84 412.683 272.84ZM84.7847 301.26C84.438 301.26 84.1447 301.14 83.9047 300.9C83.6647 300.66 83.5447 300.367 83.5447 300.02C83.5447 299.673 83.6647 299.38 83.9047 299.14C84.1447 298.9 84.438 298.78 84.7847 298.78C85.118 298.78 85.398 298.9 85.6247 299.14C85.8647 299.38 85.9847 299.673 85.9847 300.02C85.9847 300.367 85.8647 300.66 85.6247 300.9C85.398 301.14 85.118 301.26 84.7847 301.26ZM85.6647 303.04V314H83.8447V303.04H85.6647ZM101.947 302.84C102.8 302.84 103.56 303.02 104.227 303.38C104.893 303.727 105.42 304.253 105.807 304.96C106.193 305.667 106.387 306.527 106.387 307.54V314H104.587V307.8C104.587 306.707 104.313 305.873 103.767 305.3C103.233 304.713 102.507 304.42 101.587 304.42C100.64 304.42 99.8866 304.727 99.3266 305.34C98.7666 305.94 98.4866 306.813 98.4866 307.96V314H96.6866V307.8C96.6866 306.707 96.4132 305.873 95.8666 305.3C95.3332 304.713 94.6066 304.42 93.6866 304.42C92.7399 304.42 91.9866 304.727 91.4266 305.34C90.8666 305.94 90.5866 306.813 90.5866 307.96V314H88.7666V303.04H90.5866V304.62C90.9466 304.047 91.4266 303.607 92.0266 303.3C92.6399 302.993 93.3132 302.84 94.0466 302.84C94.9666 302.84 95.7799 303.047 96.4866 303.46C97.1932 303.873 97.7199 304.48 98.0666 305.28C98.3732 304.507 98.8799 303.907 99.5866 303.48C100.293 303.053 101.08 302.84 101.947 302.84ZM111.192 305.06C111.552 304.433 112.085 303.913 112.792 303.5C113.512 303.073 114.345 302.86 115.292 302.86C116.265 302.86 117.145 303.093 117.932 303.56C118.732 304.027 119.359 304.687 119.812 305.54C120.265 306.38 120.492 307.36 120.492 308.48C120.492 309.587 120.265 310.573 119.812 311.44C119.359 312.307 118.732 312.98 117.932 313.46C117.145 313.94 116.265 314.18 115.292 314.18C114.359 314.18 113.532 313.973 112.812 313.56C112.105 313.133 111.565 312.607 111.192 311.98V319.2H109.372V303.04H111.192V305.06ZM118.632 308.48C118.632 307.653 118.465 306.933 118.132 306.32C117.799 305.707 117.345 305.24 116.772 304.92C116.212 304.6 115.592 304.44 114.912 304.44C114.245 304.44 113.625 304.607 113.052 304.94C112.492 305.26 112.039 305.733 111.692 306.36C111.359 306.973 111.192 307.687 111.192 308.5C111.192 309.327 111.359 310.053 111.692 310.68C112.039 311.293 112.492 311.767 113.052 312.1C113.625 312.42 114.245 312.58 114.912 312.58C115.592 312.58 116.212 312.42 116.772 312.1C117.345 311.767 117.799 311.293 118.132 310.68C118.465 310.053 118.632 309.32 118.632 308.48ZM122.208 308.48C122.208 307.36 122.434 306.38 122.888 305.54C123.341 304.687 123.961 304.027 124.748 303.56C125.548 303.093 126.434 302.86 127.408 302.86C128.368 302.86 129.201 303.067 129.908 303.48C130.614 303.893 131.141 304.413 131.488 305.04V303.04H133.328V314H131.488V311.96C131.128 312.6 130.588 313.133 129.868 313.56C129.161 313.973 128.334 314.18 127.388 314.18C126.414 314.18 125.534 313.94 124.748 313.46C123.961 312.98 123.341 312.307 122.888 311.44C122.434 310.573 122.208 309.587 122.208 308.48ZM131.488 308.5C131.488 307.673 131.321 306.953 130.988 306.34C130.654 305.727 130.201 305.26 129.628 304.94C129.068 304.607 128.448 304.44 127.768 304.44C127.088 304.44 126.468 304.6 125.908 304.92C125.348 305.24 124.901 305.707 124.568 306.32C124.234 306.933 124.068 307.653 124.068 308.48C124.068 309.32 124.234 310.053 124.568 310.68C124.901 311.293 125.348 311.767 125.908 312.1C126.468 312.42 127.088 312.58 127.768 312.58C128.448 312.58 129.068 312.42 129.628 312.1C130.201 311.767 130.654 311.293 130.988 310.68C131.321 310.053 131.488 309.327 131.488 308.5ZM135.723 308.5C135.723 307.367 135.95 306.38 136.403 305.54C136.857 304.687 137.483 304.027 138.283 303.56C139.097 303.093 140.023 302.86 141.063 302.86C142.41 302.86 143.517 303.187 144.383 303.84C145.263 304.493 145.843 305.4 146.123 306.56H144.163C143.977 305.893 143.61 305.367 143.063 304.98C142.53 304.593 141.863 304.4 141.063 304.4C140.023 304.4 139.183 304.76 138.543 305.48C137.903 306.187 137.583 307.193 137.583 308.5C137.583 309.82 137.903 310.84 138.543 311.56C139.183 312.28 140.023 312.64 141.063 312.64C141.863 312.64 142.53 312.453 143.063 312.08C143.597 311.707 143.963 311.173 144.163 310.48H146.123C145.83 311.6 145.243 312.5 144.363 313.18C143.483 313.847 142.383 314.18 141.063 314.18C140.023 314.18 139.097 313.947 138.283 313.48C137.483 313.013 136.857 312.353 136.403 311.5C135.95 310.647 135.723 309.647 135.723 308.5ZM150.772 304.54V311C150.772 311.533 150.885 311.913 151.112 312.14C151.338 312.353 151.732 312.46 152.292 312.46H153.632V314H151.992C150.978 314 150.218 313.767 149.712 313.3C149.205 312.833 148.952 312.067 148.952 311V304.54H147.532V303.04H148.952V300.28H150.772V303.04H153.632V304.54H150.772ZM162.109 301.26C161.762 301.26 161.469 301.14 161.229 300.9C160.989 300.66 160.869 300.367 160.869 300.02C160.869 299.673 160.989 299.38 161.229 299.14C161.469 298.9 161.762 298.78 162.109 298.78C162.442 298.78 162.722 298.9 162.949 299.14C163.189 299.38 163.309 299.673 163.309 300.02C163.309 300.367 163.189 300.66 162.949 300.9C162.722 301.14 162.442 301.26 162.109 301.26ZM162.989 303.04V314H161.169V303.04H162.989ZM171.431 302.84C172.764 302.84 173.844 303.247 174.671 304.06C175.497 304.86 175.911 306.02 175.911 307.54V314H174.111V307.8C174.111 306.707 173.837 305.873 173.291 305.3C172.744 304.713 171.997 304.42 171.051 304.42C170.091 304.42 169.324 304.72 168.751 305.32C168.191 305.92 167.911 306.793 167.911 307.94V314H166.091V303.04H167.911V304.6C168.271 304.04 168.757 303.607 169.371 303.3C169.997 302.993 170.684 302.84 171.431 302.84ZM183.344 304.54H181.044V314H179.224V304.54H177.804V303.04H179.224V302.26C179.224 301.033 179.537 300.14 180.164 299.58C180.804 299.007 181.824 298.72 183.224 298.72V300.24C182.424 300.24 181.857 300.4 181.524 300.72C181.204 301.027 181.044 301.54 181.044 302.26V303.04H183.344V304.54ZM187.286 299.2V314H185.466V299.2H187.286ZM200.108 303.04V314H198.288V312.38C197.941 312.94 197.454 313.38 196.828 313.7C196.214 314.007 195.534 314.16 194.788 314.16C193.934 314.16 193.168 313.987 192.488 313.64C191.808 313.28 191.268 312.747 190.868 312.04C190.481 311.333 190.288 310.473 190.288 309.46V303.04H192.088V309.22C192.088 310.3 192.361 311.133 192.908 311.72C193.454 312.293 194.201 312.58 195.148 312.58C196.121 312.58 196.888 312.28 197.448 311.68C198.008 311.08 198.288 310.207 198.288 309.06V303.04H200.108ZM213.181 308.1C213.181 308.447 213.161 308.813 213.121 309.2H204.361C204.427 310.28 204.794 311.127 205.461 311.74C206.141 312.34 206.961 312.64 207.921 312.64C208.707 312.64 209.361 312.46 209.881 312.1C210.414 311.727 210.787 311.233 211.001 310.62H212.961C212.667 311.673 212.081 312.533 211.201 313.2C210.321 313.853 209.227 314.18 207.921 314.18C206.881 314.18 205.947 313.947 205.121 313.48C204.307 313.013 203.667 312.353 203.201 311.5C202.734 310.633 202.501 309.633 202.501 308.5C202.501 307.367 202.727 306.373 203.181 305.52C203.634 304.667 204.267 304.013 205.081 303.56C205.907 303.093 206.854 302.86 207.921 302.86C208.961 302.86 209.881 303.087 210.681 303.54C211.481 303.993 212.094 304.62 212.521 305.42C212.961 306.207 213.181 307.1 213.181 308.1ZM211.301 307.72C211.301 307.027 211.147 306.433 210.841 305.94C210.534 305.433 210.114 305.053 209.581 304.8C209.061 304.533 208.481 304.4 207.841 304.4C206.921 304.4 206.134 304.693 205.481 305.28C204.841 305.867 204.474 306.68 204.381 307.72H211.301ZM220.923 302.84C222.256 302.84 223.336 303.247 224.163 304.06C224.99 304.86 225.403 306.02 225.403 307.54V314H223.603V307.8C223.603 306.707 223.33 305.873 222.783 305.3C222.236 304.713 221.49 304.42 220.543 304.42C219.583 304.42 218.816 304.72 218.243 305.32C217.683 305.92 217.403 306.793 217.403 307.94V314H215.583V303.04H217.403V304.6C217.763 304.04 218.25 303.607 218.863 303.3C219.49 302.993 220.176 302.84 220.923 302.84ZM227.696 308.5C227.696 307.367 227.923 306.38 228.376 305.54C228.829 304.687 229.456 304.027 230.256 303.56C231.069 303.093 231.996 302.86 233.036 302.86C234.383 302.86 235.489 303.187 236.356 303.84C237.236 304.493 237.816 305.4 238.096 306.56H236.136C235.949 305.893 235.583 305.367 235.036 304.98C234.503 304.593 233.836 304.4 233.036 304.4C231.996 304.4 231.156 304.76 230.516 305.48C229.876 306.187 229.556 307.193 229.556 308.5C229.556 309.82 229.876 310.84 230.516 311.56C231.156 312.28 231.996 312.64 233.036 312.64C233.836 312.64 234.503 312.453 235.036 312.08C235.569 311.707 235.936 311.173 236.136 310.48H238.096C237.803 311.6 237.216 312.5 236.336 313.18C235.456 313.847 234.356 314.18 233.036 314.18C231.996 314.18 231.069 313.947 230.256 313.48C229.456 313.013 228.829 312.353 228.376 311.5C227.923 310.647 227.696 309.647 227.696 308.5ZM250.524 308.1C250.524 308.447 250.504 308.813 250.464 309.2H241.704C241.771 310.28 242.138 311.127 242.804 311.74C243.484 312.34 244.304 312.64 245.264 312.64C246.051 312.64 246.704 312.46 247.224 312.1C247.758 311.727 248.131 311.233 248.344 310.62H250.304C250.011 311.673 249.424 312.533 248.544 313.2C247.664 313.853 246.571 314.18 245.264 314.18C244.224 314.18 243.291 313.947 242.464 313.48C241.651 313.013 241.011 312.353 240.544 311.5C240.078 310.633 239.844 309.633 239.844 308.5C239.844 307.367 240.071 306.373 240.524 305.52C240.978 304.667 241.611 304.013 242.424 303.56C243.251 303.093 244.198 302.86 245.264 302.86C246.304 302.86 247.224 303.087 248.024 303.54C248.824 303.993 249.438 304.62 249.864 305.42C250.304 306.207 250.524 307.1 250.524 308.1ZM248.644 307.72C248.644 307.027 248.491 306.433 248.184 305.94C247.878 305.433 247.458 305.053 246.924 304.8C246.404 304.533 245.824 304.4 245.184 304.4C244.264 304.4 243.478 304.693 242.824 305.28C242.184 305.867 241.818 306.68 241.724 307.72H248.644ZM254.747 304.82C255.067 304.193 255.52 303.707 256.107 303.36C256.707 303.013 257.433 302.84 258.287 302.84V304.72H257.807C255.767 304.72 254.747 305.827 254.747 308.04V314H252.927V303.04H254.747V304.82ZM264.268 314.18C263.428 314.18 262.674 314.04 262.008 313.76C261.341 313.467 260.814 313.067 260.428 312.56C260.041 312.04 259.828 311.447 259.788 310.78H261.668C261.721 311.327 261.974 311.773 262.428 312.12C262.894 312.467 263.501 312.64 264.248 312.64C264.941 312.64 265.488 312.487 265.888 312.18C266.288 311.873 266.488 311.487 266.488 311.02C266.488 310.54 266.274 310.187 265.848 309.96C265.421 309.72 264.761 309.487 263.868 309.26C263.054 309.047 262.388 308.833 261.868 308.62C261.361 308.393 260.921 308.067 260.548 307.64C260.188 307.2 260.008 306.627 260.008 305.92C260.008 305.36 260.174 304.847 260.508 304.38C260.841 303.913 261.314 303.547 261.928 303.28C262.541 303 263.241 302.86 264.028 302.86C265.241 302.86 266.221 303.167 266.968 303.78C267.714 304.393 268.114 305.233 268.168 306.3H266.348C266.308 305.727 266.074 305.267 265.648 304.92C265.234 304.573 264.674 304.4 263.968 304.4C263.314 304.4 262.794 304.54 262.408 304.82C262.021 305.1 261.828 305.467 261.828 305.92C261.828 306.28 261.941 306.58 262.168 306.82C262.408 307.047 262.701 307.233 263.048 307.38C263.408 307.513 263.901 307.667 264.528 307.84C265.314 308.053 265.954 308.267 266.448 308.48C266.941 308.68 267.361 308.987 267.708 309.4C268.068 309.813 268.254 310.353 268.268 311.02C268.268 311.62 268.101 312.16 267.768 312.64C267.434 313.12 266.961 313.5 266.348 313.78C265.748 314.047 265.054 314.18 264.268 314.18ZM275.489 308.48C275.489 307.36 275.716 306.38 276.169 305.54C276.622 304.687 277.242 304.027 278.029 303.56C278.829 303.093 279.716 302.86 280.689 302.86C281.649 302.86 282.482 303.067 283.189 303.48C283.896 303.893 284.422 304.413 284.769 305.04V303.04H286.609V314H284.769V311.96C284.409 312.6 283.869 313.133 283.149 313.56C282.442 313.973 281.616 314.18 280.669 314.18C279.696 314.18 278.816 313.94 278.029 313.46C277.242 312.98 276.622 312.307 276.169 311.44C275.716 310.573 275.489 309.587 275.489 308.48ZM284.769 308.5C284.769 307.673 284.602 306.953 284.269 306.34C283.936 305.727 283.482 305.26 282.909 304.94C282.349 304.607 281.729 304.44 281.049 304.44C280.369 304.44 279.749 304.6 279.189 304.92C278.629 305.24 278.182 305.707 277.849 306.32C277.516 306.933 277.349 307.653 277.349 308.48C277.349 309.32 277.516 310.053 277.849 310.68C278.182 311.293 278.629 311.767 279.189 312.1C279.749 312.42 280.369 312.58 281.049 312.58C281.729 312.58 282.349 312.42 282.909 312.1C283.482 311.767 283.936 311.293 284.269 310.68C284.602 310.053 284.769 309.327 284.769 308.5ZM295.025 302.84C296.358 302.84 297.438 303.247 298.265 304.06C299.091 304.86 299.505 306.02 299.505 307.54V314H297.705V307.8C297.705 306.707 297.431 305.873 296.885 305.3C296.338 304.713 295.591 304.42 294.645 304.42C293.685 304.42 292.918 304.72 292.345 305.32C291.785 305.92 291.505 306.793 291.505 307.94V314H289.685V303.04H291.505V304.6C291.865 304.04 292.351 303.607 292.965 303.3C293.591 302.993 294.278 302.84 295.025 302.84ZM301.798 308.48C301.798 307.36 302.024 306.38 302.478 305.54C302.931 304.687 303.551 304.027 304.338 303.56C305.138 303.093 306.031 302.86 307.018 302.86C307.871 302.86 308.664 303.06 309.398 303.46C310.131 303.847 310.691 304.36 311.078 305V299.2H312.918V314H311.078V311.94C310.718 312.593 310.184 313.133 309.478 313.56C308.771 313.973 307.944 314.18 306.998 314.18C306.024 314.18 305.138 313.94 304.338 313.46C303.551 312.98 302.931 312.307 302.478 311.44C302.024 310.573 301.798 309.587 301.798 308.48ZM311.078 308.5C311.078 307.673 310.911 306.953 310.578 306.34C310.244 305.727 309.791 305.26 309.218 304.94C308.658 304.607 308.038 304.44 307.358 304.44C306.678 304.44 306.058 304.6 305.498 304.92C304.938 305.24 304.491 305.707 304.158 306.32C303.824 306.933 303.658 307.653 303.658 308.48C303.658 309.32 303.824 310.053 304.158 310.68C304.491 311.293 304.938 311.767 305.498 312.1C306.058 312.42 306.678 312.58 307.358 312.58C308.038 312.58 308.658 312.42 309.218 312.1C309.791 311.767 310.244 311.293 310.578 310.68C310.911 310.053 311.078 309.327 311.078 308.5ZM322.265 301.26C321.918 301.26 321.625 301.14 321.385 300.9C321.145 300.66 321.025 300.367 321.025 300.02C321.025 299.673 321.145 299.38 321.385 299.14C321.625 298.9 321.918 298.78 322.265 298.78C322.598 298.78 322.878 298.9 323.105 299.14C323.345 299.38 323.465 299.673 323.465 300.02C323.465 300.367 323.345 300.66 323.105 300.9C322.878 301.14 322.598 301.26 322.265 301.26ZM323.145 303.04V314H321.325V303.04H323.145ZM339.427 302.84C340.28 302.84 341.04 303.02 341.707 303.38C342.374 303.727 342.9 304.253 343.287 304.96C343.674 305.667 343.867 306.527 343.867 307.54V314H342.067V307.8C342.067 306.707 341.794 305.873 341.247 305.3C340.714 304.713 339.987 304.42 339.067 304.42C338.12 304.42 337.367 304.727 336.807 305.34C336.247 305.94 335.967 306.813 335.967 307.96V314H334.167V307.8C334.167 306.707 333.894 305.873 333.347 305.3C332.814 304.713 332.087 304.42 331.167 304.42C330.22 304.42 329.467 304.727 328.907 305.34C328.347 305.94 328.067 306.813 328.067 307.96V314H326.247V303.04H328.067V304.62C328.427 304.047 328.907 303.607 329.507 303.3C330.12 302.993 330.794 302.84 331.527 302.84C332.447 302.84 333.26 303.047 333.967 303.46C334.674 303.873 335.2 304.48 335.547 305.28C335.854 304.507 336.36 303.907 337.067 303.48C337.774 303.053 338.56 302.84 339.427 302.84ZM348.673 305.06C349.033 304.433 349.566 303.913 350.273 303.5C350.993 303.073 351.826 302.86 352.773 302.86C353.746 302.86 354.626 303.093 355.412 303.56C356.212 304.027 356.839 304.687 357.293 305.54C357.746 306.38 357.973 307.36 357.973 308.48C357.973 309.587 357.746 310.573 357.293 311.44C356.839 312.307 356.212 312.98 355.412 313.46C354.626 313.94 353.746 314.18 352.773 314.18C351.839 314.18 351.013 313.973 350.293 313.56C349.586 313.133 349.046 312.607 348.673 311.98V319.2H346.853V303.04H348.673V305.06ZM356.113 308.48C356.113 307.653 355.946 306.933 355.613 306.32C355.279 305.707 354.826 305.24 354.253 304.92C353.693 304.6 353.073 304.44 352.393 304.44C351.726 304.44 351.106 304.607 350.533 304.94C349.973 305.26 349.519 305.733 349.173 306.36C348.839 306.973 348.673 307.687 348.673 308.5C348.673 309.327 348.839 310.053 349.173 310.68C349.519 311.293 349.973 311.767 350.533 312.1C351.106 312.42 351.726 312.58 352.393 312.58C353.073 312.58 353.693 312.42 354.253 312.1C354.826 311.767 355.279 311.293 355.613 310.68C355.946 310.053 356.113 309.32 356.113 308.48ZM362.188 304.82C362.508 304.193 362.961 303.707 363.548 303.36C364.148 303.013 364.875 302.84 365.728 302.84V304.72H365.248C363.208 304.72 362.188 305.827 362.188 308.04V314H360.368V303.04H362.188V304.82ZM372.609 314.18C371.582 314.18 370.649 313.947 369.809 313.48C368.982 313.013 368.329 312.353 367.849 311.5C367.382 310.633 367.149 309.633 367.149 308.5C367.149 307.38 367.389 306.393 367.869 305.54C368.362 304.673 369.029 304.013 369.869 303.56C370.709 303.093 371.649 302.86 372.689 302.86C373.729 302.86 374.669 303.093 375.509 303.56C376.349 304.013 377.009 304.667 377.489 305.52C377.982 306.373 378.229 307.367 378.229 308.5C378.229 309.633 377.976 310.633 377.469 311.5C376.976 312.353 376.302 313.013 375.449 313.48C374.596 313.947 373.649 314.18 372.609 314.18ZM372.609 312.58C373.262 312.58 373.876 312.427 374.449 312.12C375.022 311.813 375.482 311.353 375.829 310.74C376.189 310.127 376.369 309.38 376.369 308.5C376.369 307.62 376.196 306.873 375.849 306.26C375.502 305.647 375.049 305.193 374.489 304.9C373.929 304.593 373.322 304.44 372.669 304.44C372.002 304.44 371.389 304.593 370.829 304.9C370.282 305.193 369.842 305.647 369.509 306.26C369.176 306.873 369.009 307.62 369.009 308.5C369.009 309.393 369.169 310.147 369.489 310.76C369.822 311.373 370.262 311.833 370.809 312.14C371.356 312.433 371.956 312.58 372.609 312.58ZM384.702 312.32L388.102 303.04H390.042L385.742 314H383.622L379.322 303.04H381.282L384.702 312.32ZM401.833 308.1C401.833 308.447 401.813 308.813 401.773 309.2H393.013C393.08 310.28 393.446 311.127 394.113 311.74C394.793 312.34 395.613 312.64 396.573 312.64C397.36 312.64 398.013 312.46 398.533 312.1C399.066 311.727 399.44 311.233 399.653 310.62H401.613C401.32 311.673 400.733 312.533 399.853 313.2C398.973 313.853 397.88 314.18 396.573 314.18C395.533 314.18 394.6 313.947 393.773 313.48C392.96 313.013 392.32 312.353 391.853 311.5C391.386 310.633 391.153 309.633 391.153 308.5C391.153 307.367 391.38 306.373 391.833 305.52C392.286 304.667 392.92 304.013 393.733 303.56C394.56 303.093 395.506 302.86 396.573 302.86C397.613 302.86 398.533 303.087 399.333 303.54C400.133 303.993 400.746 304.62 401.173 305.42C401.613 306.207 401.833 307.1 401.833 308.1ZM399.953 307.72C399.953 307.027 399.8 306.433 399.493 305.94C399.186 305.433 398.766 305.053 398.233 304.8C397.713 304.533 397.133 304.4 396.493 304.4C395.573 304.4 394.786 304.693 394.133 305.28C393.493 305.867 393.126 306.68 393.033 307.72H399.953ZM153.448 338.5C153.448 337.367 153.675 336.38 154.128 335.54C154.581 334.687 155.208 334.027 156.008 333.56C156.821 333.093 157.748 332.86 158.788 332.86C160.135 332.86 161.241 333.187 162.108 333.84C162.988 334.493 163.568 335.4 163.848 336.56H161.888C161.701 335.893 161.335 335.367 160.788 334.98C160.255 334.593 159.588 334.4 158.788 334.4C157.748 334.4 156.908 334.76 156.268 335.48C155.628 336.187 155.308 337.193 155.308 338.5C155.308 339.82 155.628 340.84 156.268 341.56C156.908 342.28 157.748 342.64 158.788 342.64C159.588 342.64 160.255 342.453 160.788 342.08C161.321 341.707 161.688 341.173 161.888 340.48H163.848C163.555 341.6 162.968 342.5 162.088 343.18C161.208 343.847 160.108 344.18 158.788 344.18C157.748 344.18 156.821 343.947 156.008 343.48C155.208 343.013 154.581 342.353 154.128 341.5C153.675 340.647 153.448 339.647 153.448 338.5ZM165.596 338.48C165.596 337.36 165.823 336.38 166.276 335.54C166.73 334.687 167.35 334.027 168.136 333.56C168.936 333.093 169.823 332.86 170.796 332.86C171.756 332.86 172.59 333.067 173.296 333.48C174.003 333.893 174.53 334.413 174.876 335.04V333.04H176.716V344H174.876V341.96C174.516 342.6 173.976 343.133 173.256 343.56C172.55 343.973 171.723 344.18 170.776 344.18C169.803 344.18 168.923 343.94 168.136 343.46C167.35 342.98 166.73 342.307 166.276 341.44C165.823 340.573 165.596 339.587 165.596 338.48ZM174.876 338.5C174.876 337.673 174.71 336.953 174.376 336.34C174.043 335.727 173.59 335.26 173.016 334.94C172.456 334.607 171.836 334.44 171.156 334.44C170.476 334.44 169.856 334.6 169.296 334.92C168.736 335.24 168.29 335.707 167.956 336.32C167.623 336.933 167.456 337.653 167.456 338.48C167.456 339.32 167.623 340.053 167.956 340.68C168.29 341.293 168.736 341.767 169.296 342.1C169.856 342.42 170.476 342.58 171.156 342.58C171.836 342.58 172.456 342.42 173.016 342.1C173.59 341.767 174.043 341.293 174.376 340.68C174.71 340.053 174.876 339.327 174.876 338.5ZM192.972 332.84C193.825 332.84 194.585 333.02 195.252 333.38C195.919 333.727 196.445 334.253 196.832 334.96C197.219 335.667 197.412 336.527 197.412 337.54V344H195.612V337.8C195.612 336.707 195.339 335.873 194.792 335.3C194.259 334.713 193.532 334.42 192.612 334.42C191.665 334.42 190.912 334.727 190.352 335.34C189.792 335.94 189.512 336.813 189.512 337.96V344H187.712V337.8C187.712 336.707 187.439 335.873 186.892 335.3C186.359 334.713 185.632 334.42 184.712 334.42C183.765 334.42 183.012 334.727 182.452 335.34C181.892 335.94 181.612 336.813 181.612 337.96V344H179.792V333.04H181.612V334.62C181.972 334.047 182.452 333.607 183.052 333.3C183.665 332.993 184.339 332.84 185.072 332.84C185.992 332.84 186.805 333.047 187.512 333.46C188.219 333.873 188.745 334.48 189.092 335.28C189.399 334.507 189.905 333.907 190.612 333.48C191.319 333.053 192.105 332.84 192.972 332.84ZM202.217 335.06C202.577 334.433 203.111 333.913 203.817 333.5C204.537 333.073 205.371 332.86 206.317 332.86C207.291 332.86 208.171 333.093 208.957 333.56C209.757 334.027 210.384 334.687 210.837 335.54C211.291 336.38 211.517 337.36 211.517 338.48C211.517 339.587 211.291 340.573 210.837 341.44C210.384 342.307 209.757 342.98 208.957 343.46C208.171 343.94 207.291 344.18 206.317 344.18C205.384 344.18 204.557 343.973 203.837 343.56C203.131 343.133 202.591 342.607 202.217 341.98V349.2H200.397V333.04H202.217V335.06ZM209.657 338.48C209.657 337.653 209.491 336.933 209.157 336.32C208.824 335.707 208.371 335.24 207.797 334.92C207.237 334.6 206.617 334.44 205.937 334.44C205.271 334.44 204.651 334.607 204.077 334.94C203.517 335.26 203.064 335.733 202.717 336.36C202.384 336.973 202.217 337.687 202.217 338.5C202.217 339.327 202.384 340.053 202.717 340.68C203.064 341.293 203.517 341.767 204.077 342.1C204.651 342.42 205.271 342.58 205.937 342.58C206.617 342.58 207.237 342.42 207.797 342.1C208.371 341.767 208.824 341.293 209.157 340.68C209.491 340.053 209.657 339.32 209.657 338.48ZM213.233 338.48C213.233 337.36 213.46 336.38 213.913 335.54C214.366 334.687 214.986 334.027 215.773 333.56C216.573 333.093 217.46 332.86 218.433 332.86C219.393 332.86 220.226 333.067 220.933 333.48C221.64 333.893 222.166 334.413 222.513 335.04V333.04H224.353V344H222.513V341.96C222.153 342.6 221.613 343.133 220.893 343.56C220.186 343.973 219.36 344.18 218.413 344.18C217.44 344.18 216.56 343.94 215.773 343.46C214.986 342.98 214.366 342.307 213.913 341.44C213.46 340.573 213.233 339.587 213.233 338.48ZM222.513 338.5C222.513 337.673 222.346 336.953 222.013 336.34C221.68 335.727 221.226 335.26 220.653 334.94C220.093 334.607 219.473 334.44 218.793 334.44C218.113 334.44 217.493 334.6 216.933 334.92C216.373 335.24 215.926 335.707 215.593 336.32C215.26 336.933 215.093 337.653 215.093 338.48C215.093 339.32 215.26 340.053 215.593 340.68C215.926 341.293 216.373 341.767 216.933 342.1C217.493 342.42 218.113 342.58 218.793 342.58C219.473 342.58 220.093 342.42 220.653 342.1C221.226 341.767 221.68 341.293 222.013 340.68C222.346 340.053 222.513 339.327 222.513 338.5ZM228.369 331.26C228.022 331.26 227.729 331.14 227.489 330.9C227.249 330.66 227.129 330.367 227.129 330.02C227.129 329.673 227.249 329.38 227.489 329.14C227.729 328.9 228.022 328.78 228.369 328.78C228.702 328.78 228.982 328.9 229.209 329.14C229.449 329.38 229.569 329.673 229.569 330.02C229.569 330.367 229.449 330.66 229.209 330.9C228.982 331.14 228.702 331.26 228.369 331.26ZM229.249 333.04V344H227.429V333.04H229.249ZM236.871 332.86C237.817 332.86 238.644 333.067 239.351 333.48C240.071 333.893 240.604 334.413 240.951 335.04V333.04H242.791V344.24C242.791 345.24 242.577 346.127 242.151 346.9C241.724 347.687 241.111 348.3 240.311 348.74C239.524 349.18 238.604 349.4 237.551 349.4C236.111 349.4 234.911 349.06 233.951 348.38C232.991 347.7 232.424 346.773 232.251 345.6H234.051C234.251 346.267 234.664 346.8 235.291 347.2C235.917 347.613 236.671 347.82 237.551 347.82C238.551 347.82 239.364 347.507 239.991 346.88C240.631 346.253 240.951 345.373 240.951 344.24V341.94C240.591 342.58 240.057 343.113 239.351 343.54C238.644 343.967 237.817 344.18 236.871 344.18C235.897 344.18 235.011 343.94 234.211 343.46C233.424 342.98 232.804 342.307 232.351 341.44C231.897 340.573 231.671 339.587 231.671 338.48C231.671 337.36 231.897 336.38 232.351 335.54C232.804 334.687 233.424 334.027 234.211 333.56C235.011 333.093 235.897 332.86 236.871 332.86ZM240.951 338.5C240.951 337.673 240.784 336.953 240.451 336.34C240.117 335.727 239.664 335.26 239.091 334.94C238.531 334.607 237.911 334.44 237.231 334.44C236.551 334.44 235.931 334.6 235.371 334.92C234.811 335.24 234.364 335.707 234.031 336.32C233.697 336.933 233.531 337.653 233.531 338.48C233.531 339.32 233.697 340.053 234.031 340.68C234.364 341.293 234.811 341.767 235.371 342.1C235.931 342.42 236.551 342.58 237.231 342.58C237.911 342.58 238.531 342.42 239.091 342.1C239.664 341.767 240.117 341.293 240.451 340.68C240.784 340.053 240.951 339.327 240.951 338.5ZM251.206 332.84C252.54 332.84 253.62 333.247 254.446 334.06C255.273 334.86 255.686 336.02 255.686 337.54V344H253.886V337.8C253.886 336.707 253.613 335.873 253.066 335.3C252.52 334.713 251.773 334.42 250.826 334.42C249.866 334.42 249.1 334.72 248.526 335.32C247.966 335.92 247.686 336.793 247.686 337.94V344H245.866V333.04H247.686V334.6C248.046 334.04 248.533 333.607 249.146 333.3C249.773 332.993 250.46 332.84 251.206 332.84ZM265.811 334.82C266.131 334.193 266.585 333.707 267.171 333.36C267.771 333.013 268.498 332.84 269.351 332.84V334.72H268.871C266.831 334.72 265.811 335.827 265.811 338.04V344H263.991V333.04H265.811V334.82ZM281.452 338.1C281.452 338.447 281.432 338.813 281.392 339.2H272.632C272.699 340.28 273.065 341.127 273.732 341.74C274.412 342.34 275.232 342.64 276.192 342.64C276.979 342.64 277.632 342.46 278.152 342.1C278.685 341.727 279.059 341.233 279.272 340.62H281.232C280.939 341.673 280.352 342.533 279.472 343.2C278.592 343.853 277.499 344.18 276.192 344.18C275.152 344.18 274.219 343.947 273.392 343.48C272.579 343.013 271.939 342.353 271.472 341.5C271.005 340.633 270.772 339.633 270.772 338.5C270.772 337.367 270.999 336.373 271.452 335.52C271.905 334.667 272.539 334.013 273.352 333.56C274.179 333.093 275.125 332.86 276.192 332.86C277.232 332.86 278.152 333.087 278.952 333.54C279.752 333.993 280.365 334.62 280.792 335.42C281.232 336.207 281.452 337.1 281.452 338.1ZM279.572 337.72C279.572 337.027 279.419 336.433 279.112 335.94C278.805 335.433 278.385 335.053 277.852 334.8C277.332 334.533 276.752 334.4 276.112 334.4C275.192 334.4 274.405 334.693 273.752 335.28C273.112 335.867 272.745 336.68 272.652 337.72H279.572ZM287.734 344.18C286.894 344.18 286.141 344.04 285.474 343.76C284.808 343.467 284.281 343.067 283.894 342.56C283.508 342.04 283.294 341.447 283.254 340.78H285.134C285.188 341.327 285.441 341.773 285.894 342.12C286.361 342.467 286.968 342.64 287.714 342.64C288.408 342.64 288.954 342.487 289.354 342.18C289.754 341.873 289.954 341.487 289.954 341.02C289.954 340.54 289.741 340.187 289.314 339.96C288.888 339.72 288.228 339.487 287.334 339.26C286.521 339.047 285.854 338.833 285.334 338.62C284.828 338.393 284.388 338.067 284.014 337.64C283.654 337.2 283.474 336.627 283.474 335.92C283.474 335.36 283.641 334.847 283.974 334.38C284.308 333.913 284.781 333.547 285.394 333.28C286.008 333 286.708 332.86 287.494 332.86C288.708 332.86 289.688 333.167 290.434 333.78C291.181 334.393 291.581 335.233 291.634 336.3H289.814C289.774 335.727 289.541 335.267 289.114 334.92C288.701 334.573 288.141 334.4 287.434 334.4C286.781 334.4 286.261 334.54 285.874 334.82C285.488 335.1 285.294 335.467 285.294 335.92C285.294 336.28 285.408 336.58 285.634 336.82C285.874 337.047 286.168 337.233 286.514 337.38C286.874 337.513 287.368 337.667 287.994 337.84C288.781 338.053 289.421 338.267 289.914 338.48C290.408 338.68 290.828 338.987 291.174 339.4C291.534 339.813 291.721 340.353 291.734 341.02C291.734 341.62 291.568 342.16 291.234 342.64C290.901 343.12 290.428 343.5 289.814 343.78C289.214 344.047 288.521 344.18 287.734 344.18ZM304.024 333.04V344H302.204V342.38C301.857 342.94 301.37 343.38 300.744 343.7C300.13 344.007 299.45 344.16 298.704 344.16C297.85 344.16 297.084 343.987 296.404 343.64C295.724 343.28 295.184 342.747 294.784 342.04C294.397 341.333 294.204 340.473 294.204 339.46V333.04H296.004V339.22C296.004 340.3 296.277 341.133 296.824 341.72C297.37 342.293 298.117 342.58 299.064 342.58C300.037 342.58 300.804 342.28 301.364 341.68C301.924 341.08 302.204 340.207 302.204 339.06V333.04H304.024ZM308.917 329.2V344H307.097V329.2H308.917ZM314.239 334.54V341C314.239 341.533 314.352 341.913 314.579 342.14C314.805 342.353 315.199 342.46 315.759 342.46H317.099V344H315.459C314.445 344 313.685 343.767 313.179 343.3C312.672 342.833 312.419 342.067 312.419 341V334.54H310.999V333.04H312.419V330.28H314.239V333.04H317.099V334.54H314.239ZM323.184 344.18C322.344 344.18 321.59 344.04 320.924 343.76C320.257 343.467 319.73 343.067 319.344 342.56C318.957 342.04 318.744 341.447 318.704 340.78H320.584C320.637 341.327 320.89 341.773 321.344 342.12C321.81 342.467 322.417 342.64 323.164 342.64C323.857 342.64 324.404 342.487 324.804 342.18C325.204 341.873 325.404 341.487 325.404 341.02C325.404 340.54 325.19 340.187 324.764 339.96C324.337 339.72 323.677 339.487 322.784 339.26C321.97 339.047 321.304 338.833 320.784 338.62C320.277 338.393 319.837 338.067 319.464 337.64C319.104 337.2 318.924 336.627 318.924 335.92C318.924 335.36 319.09 334.847 319.424 334.38C319.757 333.913 320.23 333.547 320.844 333.28C321.457 333 322.157 332.86 322.944 332.86C324.157 332.86 325.137 333.167 325.884 333.78C326.63 334.393 327.03 335.233 327.084 336.3H325.264C325.224 335.727 324.99 335.267 324.564 334.92C324.15 334.573 323.59 334.4 322.884 334.4C322.23 334.4 321.71 334.54 321.324 334.82C320.937 335.1 320.744 335.467 320.744 335.92C320.744 336.28 320.857 336.58 321.084 336.82C321.324 337.047 321.617 337.233 321.964 337.38C322.324 337.513 322.817 337.667 323.444 337.84C324.23 338.053 324.87 338.267 325.364 338.48C325.857 338.68 326.277 338.987 326.624 339.4C326.984 339.813 327.17 340.353 327.184 341.02C327.184 341.62 327.017 342.16 326.684 342.64C326.35 343.12 325.877 343.5 325.264 343.78C324.664 344.047 323.97 344.18 323.184 344.18ZM330.333 344.12C329.986 344.12 329.693 344 329.453 343.76C329.213 343.52 329.093 343.227 329.093 342.88C329.093 342.533 329.213 342.24 329.453 342C329.693 341.76 329.986 341.64 330.333 341.64C330.666 341.64 330.946 341.76 331.173 342C331.413 342.24 331.533 342.533 331.533 342.88C331.533 343.227 331.413 343.52 331.173 343.76C330.946 344 330.666 344.12 330.333 344.12Z" fill="black"/>
<circle cx="242.053" cy="70.0006" r="48.3605" fill="white"/>
<path d="M247.566 43.3452L241.057 49.5292" stroke="#2E3192" stroke-width="3" stroke-linecap="round" stroke-linejoin="round"/>
<path d="M218.599 56.0388L209.16 53.4351" stroke="#2E3192" stroke-width="3" stroke-linecap="round" stroke-linejoin="round"/>
<path d="M221.528 69.0576L215.344 75.5671" stroke="#2E3192" stroke-width="3" stroke-linecap="round" stroke-linejoin="round"/>
<path d="M225.434 37.1611L228.038 46.5998" stroke="#2E3192" stroke-width="3" stroke-linecap="round" stroke-linejoin="round"/>
<path d="M231.413 61.5394C231.287 61.242 231.252 60.9138 231.314 60.5968C231.376 60.2797 231.531 59.9883 231.759 59.7599C231.987 59.5315 232.279 59.3766 232.596 59.3149C232.913 59.2533 233.241 59.2878 233.538 59.414L269.34 74.0603C269.659 74.191 269.928 74.4194 270.108 74.7127C270.289 75.006 270.372 75.349 270.345 75.6924C270.318 76.0357 270.183 76.3618 269.959 76.6235C269.736 76.8853 269.435 77.0693 269.099 77.149L254.945 80.5372C254.36 80.6767 253.826 80.9753 253.401 81.3998C252.976 81.8244 252.677 82.3583 252.536 82.9424L249.151 97.1004C249.072 97.4366 248.889 97.739 248.627 97.9638C248.364 98.1887 248.038 98.3243 247.693 98.3511C247.349 98.378 247.005 98.2946 246.711 98.113C246.418 97.9315 246.189 97.6612 246.059 97.3413L231.413 61.5394Z" stroke="#2E3192" stroke-width="3" stroke-linecap="round" stroke-linejoin="round"/>
</svg>
