<svg width="483" height="376" viewBox="0 0 483 376" fill="none" xmlns="http://www.w3.org/2000/svg">
<rect width="483" height="376" rx="60" fill="#EAEAF4"/>
<path d="M121.499 149.672C121.499 150.811 121.238 151.856 120.715 152.808C120.193 153.741 119.39 154.497 118.307 155.076C117.225 155.655 115.881 155.944 114.275 155.944H111.307V163H106.519V143.344H114.275C115.843 143.344 117.169 143.615 118.251 144.156C119.334 144.697 120.146 145.444 120.687 146.396C121.229 147.348 121.499 148.44 121.499 149.672ZM113.911 152.136C114.826 152.136 115.507 151.921 115.955 151.492C116.403 151.063 116.627 150.456 116.627 149.672C116.627 148.888 116.403 148.281 115.955 147.852C115.507 147.423 114.826 147.208 113.911 147.208H111.307V152.136H113.911ZM128.78 149.98C129.34 149.121 130.04 148.449 130.88 147.964C131.72 147.46 132.653 147.208 133.68 147.208V152.276H132.364C131.169 152.276 130.273 152.537 129.676 153.06C129.079 153.564 128.78 154.46 128.78 155.748V163H123.992V147.376H128.78V149.98ZM150.696 154.936C150.696 155.384 150.668 155.851 150.612 156.336H139.776C139.851 157.307 140.159 158.053 140.7 158.576C141.26 159.08 141.942 159.332 142.744 159.332C143.939 159.332 144.77 158.828 145.236 157.82H150.332C150.071 158.847 149.595 159.771 148.904 160.592C148.232 161.413 147.383 162.057 146.356 162.524C145.33 162.991 144.182 163.224 142.912 163.224C141.382 163.224 140.019 162.897 138.824 162.244C137.63 161.591 136.696 160.657 136.024 159.444C135.352 158.231 135.016 156.812 135.016 155.188C135.016 153.564 135.343 152.145 135.996 150.932C136.668 149.719 137.602 148.785 138.796 148.132C139.991 147.479 141.363 147.152 142.912 147.152C144.424 147.152 145.768 147.469 146.944 148.104C148.12 148.739 149.035 149.644 149.688 150.82C150.36 151.996 150.696 153.368 150.696 154.936ZM145.796 153.676C145.796 152.855 145.516 152.201 144.956 151.716C144.396 151.231 143.696 150.988 142.856 150.988C142.054 150.988 141.372 151.221 140.812 151.688C140.271 152.155 139.935 152.817 139.804 153.676H145.796ZM152.27 155.188C152.27 153.564 152.597 152.145 153.25 150.932C153.922 149.719 154.846 148.785 156.022 148.132C157.217 147.479 158.58 147.152 160.11 147.152C162.07 147.152 163.704 147.665 165.01 148.692C166.336 149.719 167.204 151.165 167.614 153.032H162.518C162.089 151.837 161.258 151.24 160.026 151.24C159.149 151.24 158.449 151.585 157.926 152.276C157.404 152.948 157.142 153.919 157.142 155.188C157.142 156.457 157.404 157.437 157.926 158.128C158.449 158.8 159.149 159.136 160.026 159.136C161.258 159.136 162.089 158.539 162.518 157.344H167.614C167.204 159.173 166.336 160.611 165.01 161.656C163.685 162.701 162.052 163.224 160.11 163.224C158.58 163.224 157.217 162.897 156.022 162.244C154.846 161.591 153.922 160.657 153.25 159.444C152.597 158.231 152.27 156.812 152.27 155.188ZM172.583 145.752C171.743 145.752 171.053 145.509 170.511 145.024C169.989 144.52 169.727 143.904 169.727 143.176C169.727 142.429 169.989 141.813 170.511 141.328C171.053 140.824 171.743 140.572 172.583 140.572C173.405 140.572 174.077 140.824 174.599 141.328C175.141 141.813 175.411 142.429 175.411 143.176C175.411 143.904 175.141 144.52 174.599 145.024C174.077 145.509 173.405 145.752 172.583 145.752ZM174.963 147.376V163H170.175V147.376H174.963ZM184.789 163.224C183.427 163.224 182.213 162.991 181.149 162.524C180.085 162.057 179.245 161.423 178.629 160.62C178.013 159.799 177.668 158.884 177.593 157.876H182.325C182.381 158.417 182.633 158.856 183.081 159.192C183.529 159.528 184.08 159.696 184.733 159.696C185.331 159.696 185.788 159.584 186.105 159.36C186.441 159.117 186.609 158.809 186.609 158.436C186.609 157.988 186.376 157.661 185.909 157.456C185.443 157.232 184.687 156.989 183.641 156.728C182.521 156.467 181.588 156.196 180.841 155.916C180.095 155.617 179.451 155.16 178.909 154.544C178.368 153.909 178.097 153.06 178.097 151.996C178.097 151.1 178.34 150.288 178.825 149.56C179.329 148.813 180.057 148.225 181.009 147.796C181.98 147.367 183.128 147.152 184.453 147.152C186.413 147.152 187.953 147.637 189.073 148.608C190.212 149.579 190.865 150.867 191.033 152.472H186.609C186.535 151.931 186.292 151.501 185.881 151.184C185.489 150.867 184.967 150.708 184.313 150.708C183.753 150.708 183.324 150.82 183.025 151.044C182.727 151.249 182.577 151.539 182.577 151.912C182.577 152.36 182.811 152.696 183.277 152.92C183.763 153.144 184.509 153.368 185.517 153.592C186.675 153.891 187.617 154.189 188.345 154.488C189.073 154.768 189.708 155.235 190.249 155.888C190.809 156.523 191.099 157.381 191.117 158.464C191.117 159.379 190.856 160.2 190.333 160.928C189.829 161.637 189.092 162.197 188.121 162.608C187.169 163.019 186.059 163.224 184.789 163.224ZM196.455 145.752C195.615 145.752 194.924 145.509 194.383 145.024C193.86 144.52 193.599 143.904 193.599 143.176C193.599 142.429 193.86 141.813 194.383 141.328C194.924 140.824 195.615 140.572 196.455 140.572C197.276 140.572 197.948 140.824 198.471 141.328C199.012 141.813 199.283 142.429 199.283 143.176C199.283 143.904 199.012 144.52 198.471 145.024C197.948 145.509 197.276 145.752 196.455 145.752ZM198.835 147.376V163H194.047V147.376H198.835ZM209.416 163.224C207.886 163.224 206.504 162.897 205.272 162.244C204.059 161.591 203.098 160.657 202.388 159.444C201.698 158.231 201.352 156.812 201.352 155.188C201.352 153.583 201.707 152.173 202.416 150.96C203.126 149.728 204.096 148.785 205.328 148.132C206.56 147.479 207.942 147.152 209.472 147.152C211.003 147.152 212.384 147.479 213.616 148.132C214.848 148.785 215.819 149.728 216.528 150.96C217.238 152.173 217.592 153.583 217.592 155.188C217.592 156.793 217.228 158.212 216.5 159.444C215.791 160.657 214.811 161.591 213.56 162.244C212.328 162.897 210.947 163.224 209.416 163.224ZM209.416 159.08C210.331 159.08 211.106 158.744 211.74 158.072C212.394 157.4 212.72 156.439 212.72 155.188C212.72 153.937 212.403 152.976 211.768 152.304C211.152 151.632 210.387 151.296 209.472 151.296C208.539 151.296 207.764 151.632 207.148 152.304C206.532 152.957 206.224 153.919 206.224 155.188C206.224 156.439 206.523 157.4 207.12 158.072C207.736 158.744 208.502 159.08 209.416 159.08ZM229.652 147.208C231.482 147.208 232.938 147.805 234.02 149C235.122 150.176 235.672 151.8 235.672 153.872V163H230.912V154.516C230.912 153.471 230.642 152.659 230.1 152.08C229.559 151.501 228.831 151.212 227.916 151.212C227.002 151.212 226.274 151.501 225.732 152.08C225.191 152.659 224.92 153.471 224.92 154.516V163H220.132V147.376H224.92V149.448C225.406 148.757 226.059 148.216 226.88 147.824C227.702 147.413 228.626 147.208 229.652 147.208ZM247.341 145.752C246.501 145.752 245.811 145.509 245.269 145.024C244.747 144.52 244.485 143.904 244.485 143.176C244.485 142.429 244.747 141.813 245.269 141.328C245.811 140.824 246.501 140.572 247.341 140.572C248.163 140.572 248.835 140.824 249.357 141.328C249.899 141.813 250.169 142.429 250.169 143.176C250.169 143.904 249.899 144.52 249.357 145.024C248.835 145.509 248.163 145.752 247.341 145.752ZM249.721 147.376V163H244.933V147.376H249.721ZM262.711 147.208C264.54 147.208 265.996 147.805 267.079 149C268.18 150.176 268.731 151.8 268.731 153.872V163H263.971V154.516C263.971 153.471 263.7 152.659 263.159 152.08C262.618 151.501 261.89 151.212 260.975 151.212C260.06 151.212 259.332 151.501 258.791 152.08C258.25 152.659 257.979 153.471 257.979 154.516V163H253.191V147.376H257.979V149.448C258.464 148.757 259.118 148.216 259.939 147.824C260.76 147.413 261.684 147.208 262.711 147.208ZM289.892 152.92C291.031 153.163 291.945 153.732 292.636 154.628C293.327 155.505 293.672 156.513 293.672 157.652C293.672 159.295 293.093 160.601 291.936 161.572C290.797 162.524 289.201 163 287.148 163H277.992V143.344H286.84C288.837 143.344 290.396 143.801 291.516 144.716C292.655 145.631 293.224 146.872 293.224 148.44C293.224 149.597 292.916 150.559 292.3 151.324C291.703 152.089 290.9 152.621 289.892 152.92ZM282.78 151.296H285.916C286.7 151.296 287.297 151.128 287.708 150.792C288.137 150.437 288.352 149.924 288.352 149.252C288.352 148.58 288.137 148.067 287.708 147.712C287.297 147.357 286.7 147.18 285.916 147.18H282.78V151.296ZM286.308 159.136C287.111 159.136 287.727 158.959 288.156 158.604C288.604 158.231 288.828 157.699 288.828 157.008C288.828 156.317 288.595 155.776 288.128 155.384C287.68 154.992 287.055 154.796 286.252 154.796H282.78V159.136H286.308ZM311.877 147.376V163H307.089V160.872C306.604 161.563 305.941 162.123 305.101 162.552C304.28 162.963 303.365 163.168 302.357 163.168C301.162 163.168 300.108 162.907 299.193 162.384C298.278 161.843 297.569 161.068 297.065 160.06C296.561 159.052 296.309 157.867 296.309 156.504V147.376H301.069V155.86C301.069 156.905 301.34 157.717 301.881 158.296C302.422 158.875 303.15 159.164 304.065 159.164C304.998 159.164 305.736 158.875 306.277 158.296C306.818 157.717 307.089 156.905 307.089 155.86V147.376H311.877ZM314.364 155.16C314.364 153.555 314.663 152.145 315.26 150.932C315.876 149.719 316.707 148.785 317.752 148.132C318.797 147.479 319.964 147.152 321.252 147.152C322.279 147.152 323.212 147.367 324.052 147.796C324.911 148.225 325.583 148.804 326.068 149.532V142.28H330.856V163H326.068V160.76C325.62 161.507 324.976 162.104 324.136 162.552C323.315 163 322.353 163.224 321.252 163.224C319.964 163.224 318.797 162.897 317.752 162.244C316.707 161.572 315.876 160.629 315.26 159.416C314.663 158.184 314.364 156.765 314.364 155.16ZM326.068 155.188C326.068 153.993 325.732 153.051 325.06 152.36C324.407 151.669 323.604 151.324 322.652 151.324C321.7 151.324 320.888 151.669 320.216 152.36C319.563 153.032 319.236 153.965 319.236 155.16C319.236 156.355 319.563 157.307 320.216 158.016C320.888 158.707 321.7 159.052 322.652 159.052C323.604 159.052 324.407 158.707 325.06 158.016C325.732 157.325 326.068 156.383 326.068 155.188ZM340.256 147.152C341.357 147.152 342.319 147.376 343.14 147.824C343.98 148.272 344.624 148.86 345.072 149.588V147.376H349.86V162.972C349.86 164.409 349.571 165.707 348.992 166.864C348.432 168.04 347.564 168.973 346.388 169.664C345.231 170.355 343.784 170.7 342.048 170.7C339.733 170.7 337.857 170.149 336.42 169.048C334.983 167.965 334.161 166.491 333.956 164.624H338.688C338.837 165.221 339.192 165.688 339.752 166.024C340.312 166.379 341.003 166.556 341.824 166.556C342.813 166.556 343.597 166.267 344.176 165.688C344.773 165.128 345.072 164.223 345.072 162.972V160.76C344.605 161.488 343.961 162.085 343.14 162.552C342.319 163 341.357 163.224 340.256 163.224C338.968 163.224 337.801 162.897 336.756 162.244C335.711 161.572 334.88 160.629 334.264 159.416C333.667 158.184 333.368 156.765 333.368 155.16C333.368 153.555 333.667 152.145 334.264 150.932C334.88 149.719 335.711 148.785 336.756 148.132C337.801 147.479 338.968 147.152 340.256 147.152ZM345.072 155.188C345.072 153.993 344.736 153.051 344.064 152.36C343.411 151.669 342.608 151.324 341.656 151.324C340.704 151.324 339.892 151.669 339.22 152.36C338.567 153.032 338.24 153.965 338.24 155.16C338.24 156.355 338.567 157.307 339.22 158.016C339.892 158.707 340.704 159.052 341.656 159.052C342.608 159.052 343.411 158.707 344.064 158.016C344.736 157.325 345.072 156.383 345.072 155.188ZM368.052 154.936C368.052 155.384 368.024 155.851 367.968 156.336H357.132C357.207 157.307 357.515 158.053 358.056 158.576C358.616 159.08 359.297 159.332 360.1 159.332C361.295 159.332 362.125 158.828 362.592 157.82H367.688C367.427 158.847 366.951 159.771 366.26 160.592C365.588 161.413 364.739 162.057 363.712 162.524C362.685 162.991 361.537 163.224 360.268 163.224C358.737 163.224 357.375 162.897 356.18 162.244C354.985 161.591 354.052 160.657 353.38 159.444C352.708 158.231 352.372 156.812 352.372 155.188C352.372 153.564 352.699 152.145 353.352 150.932C354.024 149.719 354.957 148.785 356.152 148.132C357.347 147.479 358.719 147.152 360.268 147.152C361.78 147.152 363.124 147.469 364.3 148.104C365.476 148.739 366.391 149.644 367.044 150.82C367.716 151.996 368.052 153.368 368.052 154.936ZM363.152 153.676C363.152 152.855 362.872 152.201 362.312 151.716C361.752 151.231 361.052 150.988 360.212 150.988C359.409 150.988 358.728 151.221 358.168 151.688C357.627 152.155 357.291 152.817 357.16 153.676H363.152ZM379.286 158.94V163H376.85C375.114 163 373.76 162.58 372.79 161.74C371.819 160.881 371.334 159.491 371.334 157.568V151.352H369.43V147.376H371.334V143.568H376.122V147.376H379.258V151.352H376.122V157.624C376.122 158.091 376.234 158.427 376.458 158.632C376.682 158.837 377.055 158.94 377.578 158.94H379.286ZM182.835 201.528H175.499L174.323 205H169.311L176.423 185.344H181.967L189.079 205H184.011L182.835 201.528ZM181.603 197.832L179.167 190.636L176.759 197.832H181.603ZM196.032 184.28V205H191.244V184.28H196.032ZM204.29 184.28V205H199.502V184.28H204.29ZM214.871 205.224C213.341 205.224 211.959 204.897 210.727 204.244C209.514 203.591 208.553 202.657 207.843 201.444C207.153 200.231 206.807 198.812 206.807 197.188C206.807 195.583 207.162 194.173 207.871 192.96C208.581 191.728 209.551 190.785 210.783 190.132C212.015 189.479 213.397 189.152 214.927 189.152C216.458 189.152 217.839 189.479 219.071 190.132C220.303 190.785 221.274 191.728 221.983 192.96C222.693 194.173 223.047 195.583 223.047 197.188C223.047 198.793 222.683 200.212 221.955 201.444C221.246 202.657 220.266 203.591 219.015 204.244C217.783 204.897 216.402 205.224 214.871 205.224ZM214.871 201.08C215.786 201.08 216.561 200.744 217.195 200.072C217.849 199.4 218.175 198.439 218.175 197.188C218.175 195.937 217.858 194.976 217.223 194.304C216.607 193.632 215.842 193.296 214.927 193.296C213.994 193.296 213.219 193.632 212.603 194.304C211.987 194.957 211.679 195.919 211.679 197.188C211.679 198.439 211.978 199.4 212.575 200.072C213.191 200.744 213.957 201.08 214.871 201.08ZM224.636 197.188C224.636 195.564 224.962 194.145 225.616 192.932C226.288 191.719 227.212 190.785 228.388 190.132C229.582 189.479 230.945 189.152 232.476 189.152C234.436 189.152 236.069 189.665 237.376 190.692C238.701 191.719 239.569 193.165 239.98 195.032H234.884C234.454 193.837 233.624 193.24 232.392 193.24C231.514 193.24 230.814 193.585 230.292 194.276C229.769 194.948 229.508 195.919 229.508 197.188C229.508 198.457 229.769 199.437 230.292 200.128C230.814 200.8 231.514 201.136 232.392 201.136C233.624 201.136 234.454 200.539 234.884 199.344H239.98C239.569 201.173 238.701 202.611 237.376 203.656C236.05 204.701 234.417 205.224 232.476 205.224C230.945 205.224 229.582 204.897 228.388 204.244C227.212 203.591 226.288 202.657 225.616 201.444C224.962 200.231 224.636 198.812 224.636 197.188ZM241.589 197.16C241.589 195.555 241.887 194.145 242.485 192.932C243.101 191.719 243.931 190.785 244.977 190.132C246.022 189.479 247.189 189.152 248.477 189.152C249.578 189.152 250.539 189.376 251.361 189.824C252.201 190.272 252.845 190.86 253.293 191.588V189.376H258.081V205H253.293V202.788C252.826 203.516 252.173 204.104 251.333 204.552C250.511 205 249.55 205.224 248.449 205.224C247.179 205.224 246.022 204.897 244.977 204.244C243.931 203.572 243.101 202.629 242.485 201.416C241.887 200.184 241.589 198.765 241.589 197.16ZM253.293 197.188C253.293 195.993 252.957 195.051 252.285 194.36C251.631 193.669 250.829 193.324 249.877 193.324C248.925 193.324 248.113 193.669 247.441 194.36C246.787 195.032 246.461 195.965 246.461 197.16C246.461 198.355 246.787 199.307 247.441 200.016C248.113 200.707 248.925 201.052 249.877 201.052C250.829 201.052 251.631 200.707 252.285 200.016C252.957 199.325 253.293 198.383 253.293 197.188ZM270.253 200.94V205H267.817C266.081 205 264.727 204.58 263.757 203.74C262.786 202.881 262.301 201.491 262.301 199.568V193.352H260.397V189.376H262.301V185.568H267.089V189.376H270.225V193.352H267.089V199.624C267.089 200.091 267.201 200.427 267.425 200.632C267.649 200.837 268.022 200.94 268.545 200.94H270.253ZM275.328 187.752C274.488 187.752 273.797 187.509 273.256 187.024C272.733 186.52 272.472 185.904 272.472 185.176C272.472 184.429 272.733 183.813 273.256 183.328C273.797 182.824 274.488 182.572 275.328 182.572C276.149 182.572 276.821 182.824 277.344 183.328C277.885 183.813 278.156 184.429 278.156 185.176C278.156 185.904 277.885 186.52 277.344 187.024C276.821 187.509 276.149 187.752 275.328 187.752ZM277.708 189.376V205H272.92V189.376H277.708ZM288.289 205.224C286.759 205.224 285.377 204.897 284.145 204.244C282.932 203.591 281.971 202.657 281.261 201.444C280.571 200.231 280.225 198.812 280.225 197.188C280.225 195.583 280.58 194.173 281.289 192.96C281.999 191.728 282.969 190.785 284.201 190.132C285.433 189.479 286.815 189.152 288.345 189.152C289.876 189.152 291.257 189.479 292.489 190.132C293.721 190.785 294.692 191.728 295.401 192.96C296.111 194.173 296.465 195.583 296.465 197.188C296.465 198.793 296.101 200.212 295.373 201.444C294.664 202.657 293.684 203.591 292.433 204.244C291.201 204.897 289.82 205.224 288.289 205.224ZM288.289 201.08C289.204 201.08 289.979 200.744 290.613 200.072C291.267 199.4 291.593 198.439 291.593 197.188C291.593 195.937 291.276 194.976 290.641 194.304C290.025 193.632 289.26 193.296 288.345 193.296C287.412 193.296 286.637 193.632 286.021 194.304C285.405 194.957 285.097 195.919 285.097 197.188C285.097 198.439 285.396 199.4 285.993 200.072C286.609 200.744 287.375 201.08 288.289 201.08ZM308.526 189.208C310.355 189.208 311.811 189.805 312.894 191C313.995 192.176 314.546 193.8 314.546 195.872V205H309.786V196.516C309.786 195.471 309.515 194.659 308.974 194.08C308.432 193.501 307.704 193.212 306.79 193.212C305.875 193.212 305.147 193.501 304.606 194.08C304.064 194.659 303.794 195.471 303.794 196.516V205H299.006V189.376H303.794V191.448C304.279 190.757 304.932 190.216 305.754 189.824C306.575 189.413 307.499 189.208 308.526 189.208Z" fill="black"/>
<path d="M78.9938 240.06V248.88C78.9938 250.12 79.2938 251.04 79.8938 251.64C80.5072 252.24 81.3538 252.54 82.4338 252.54C83.5005 252.54 84.3338 252.24 84.9338 251.64C85.5472 251.04 85.8538 250.12 85.8538 248.88V240.06H87.6738V248.86C87.6738 250.02 87.4405 251 86.9738 251.8C86.5072 252.587 85.8738 253.173 85.0738 253.56C84.2872 253.947 83.4005 254.14 82.4138 254.14C81.4272 254.14 80.5338 253.947 79.7338 253.56C78.9472 253.173 78.3205 252.587 77.8538 251.8C77.4005 251 77.1738 250.02 77.1738 248.86V240.06H78.9938ZM94.5899 254.18C93.7499 254.18 92.9966 254.04 92.3299 253.76C91.6633 253.467 91.1366 253.067 90.7499 252.56C90.3633 252.04 90.1499 251.447 90.1099 250.78H91.9899C92.0433 251.327 92.2966 251.773 92.7499 252.12C93.2166 252.467 93.8233 252.64 94.5699 252.64C95.2633 252.64 95.8099 252.487 96.2099 252.18C96.6099 251.873 96.8099 251.487 96.8099 251.02C96.8099 250.54 96.5966 250.187 96.1699 249.96C95.7433 249.72 95.0833 249.487 94.1899 249.26C93.3766 249.047 92.7099 248.833 92.1899 248.62C91.6833 248.393 91.2433 248.067 90.8699 247.64C90.5099 247.2 90.3299 246.627 90.3299 245.92C90.3299 245.36 90.4966 244.847 90.8299 244.38C91.1633 243.913 91.6366 243.547 92.2499 243.28C92.8633 243 93.5633 242.86 94.3499 242.86C95.5633 242.86 96.5433 243.167 97.2899 243.78C98.0366 244.393 98.4366 245.233 98.4899 246.3H96.6699C96.6299 245.727 96.3966 245.267 95.9699 244.92C95.5566 244.573 94.9966 244.4 94.2899 244.4C93.6366 244.4 93.1166 244.54 92.7299 244.82C92.3433 245.1 92.1499 245.467 92.1499 245.92C92.1499 246.28 92.2633 246.58 92.4899 246.82C92.7299 247.047 93.0233 247.233 93.3699 247.38C93.7299 247.513 94.2233 247.667 94.8499 247.84C95.6366 248.053 96.2766 248.267 96.7699 248.48C97.2633 248.68 97.6833 248.987 98.0299 249.4C98.3899 249.813 98.5766 250.353 98.5899 251.02C98.5899 251.62 98.4233 252.16 98.0899 252.64C97.7566 253.12 97.2833 253.5 96.6699 253.78C96.0699 254.047 95.3766 254.18 94.5899 254.18ZM111.159 248.1C111.159 248.447 111.139 248.813 111.099 249.2H102.339C102.406 250.28 102.772 251.127 103.439 251.74C104.119 252.34 104.939 252.64 105.899 252.64C106.686 252.64 107.339 252.46 107.859 252.1C108.392 251.727 108.766 251.233 108.979 250.62H110.939C110.646 251.673 110.059 252.533 109.179 253.2C108.299 253.853 107.206 254.18 105.899 254.18C104.859 254.18 103.926 253.947 103.099 253.48C102.286 253.013 101.646 252.353 101.179 251.5C100.712 250.633 100.479 249.633 100.479 248.5C100.479 247.367 100.706 246.373 101.159 245.52C101.612 244.667 102.246 244.013 103.059 243.56C103.886 243.093 104.832 242.86 105.899 242.86C106.939 242.86 107.859 243.087 108.659 243.54C109.459 243.993 110.072 244.62 110.499 245.42C110.939 246.207 111.159 247.1 111.159 248.1ZM109.279 247.72C109.279 247.027 109.126 246.433 108.819 245.94C108.512 245.433 108.092 245.053 107.559 244.8C107.039 244.533 106.459 244.4 105.819 244.4C104.899 244.4 104.112 244.693 103.459 245.28C102.819 245.867 102.452 246.68 102.359 247.72H109.279ZM120.714 244.82C121.034 244.193 121.487 243.707 122.074 243.36C122.674 243.013 123.4 242.84 124.254 242.84V244.72H123.774C121.734 244.72 120.714 245.827 120.714 248.04V254H118.894V243.04H120.714V244.82ZM136.354 248.1C136.354 248.447 136.334 248.813 136.294 249.2H127.534C127.601 250.28 127.968 251.127 128.634 251.74C129.314 252.34 130.134 252.64 131.094 252.64C131.881 252.64 132.534 252.46 133.054 252.1C133.588 251.727 133.961 251.233 134.174 250.62H136.134C135.841 251.673 135.254 252.533 134.374 253.2C133.494 253.853 132.401 254.18 131.094 254.18C130.054 254.18 129.121 253.947 128.294 253.48C127.481 253.013 126.841 252.353 126.374 251.5C125.908 250.633 125.674 249.633 125.674 248.5C125.674 247.367 125.901 246.373 126.354 245.52C126.808 244.667 127.441 244.013 128.254 243.56C129.081 243.093 130.028 242.86 131.094 242.86C132.134 242.86 133.054 243.087 133.854 243.54C134.654 243.993 135.268 244.62 135.694 245.42C136.134 246.207 136.354 247.1 136.354 248.1ZM134.474 247.72C134.474 247.027 134.321 246.433 134.014 245.94C133.708 245.433 133.288 245.053 132.754 244.8C132.234 244.533 131.654 244.4 131.014 244.4C130.094 244.4 129.308 244.693 128.654 245.28C128.014 245.867 127.648 246.68 127.554 247.72H134.474ZM138.077 248.48C138.077 247.36 138.303 246.38 138.757 245.54C139.21 244.687 139.83 244.027 140.617 243.56C141.417 243.093 142.303 242.86 143.277 242.86C144.237 242.86 145.07 243.067 145.777 243.48C146.483 243.893 147.01 244.413 147.357 245.04V243.04H149.197V254H147.357V251.96C146.997 252.6 146.457 253.133 145.737 253.56C145.03 253.973 144.203 254.18 143.257 254.18C142.283 254.18 141.403 253.94 140.617 253.46C139.83 252.98 139.21 252.307 138.757 251.44C138.303 250.573 138.077 249.587 138.077 248.48ZM147.357 248.5C147.357 247.673 147.19 246.953 146.857 246.34C146.523 245.727 146.07 245.26 145.497 244.94C144.937 244.607 144.317 244.44 143.637 244.44C142.957 244.44 142.337 244.6 141.777 244.92C141.217 245.24 140.77 245.707 140.437 246.32C140.103 246.933 139.937 247.653 139.937 248.48C139.937 249.32 140.103 250.053 140.437 250.68C140.77 251.293 141.217 251.767 141.777 252.1C142.337 252.42 142.957 252.58 143.637 252.58C144.317 252.58 144.937 252.42 145.497 252.1C146.07 251.767 146.523 251.293 146.857 250.68C147.19 250.053 147.357 249.327 147.357 248.5ZM154.092 239.2V254H152.272V239.2H154.092ZM163.466 241.26C163.12 241.26 162.826 241.14 162.586 240.9C162.346 240.66 162.226 240.367 162.226 240.02C162.226 239.673 162.346 239.38 162.586 239.14C162.826 238.9 163.12 238.78 163.466 238.78C163.8 238.78 164.08 238.9 164.306 239.14C164.546 239.38 164.666 239.673 164.666 240.02C164.666 240.367 164.546 240.66 164.306 240.9C164.08 241.14 163.8 241.26 163.466 241.26ZM164.346 243.04V254H162.526V243.04H164.346ZM172.788 242.84C174.122 242.84 175.202 243.247 176.028 244.06C176.855 244.86 177.268 246.02 177.268 247.54V254H175.468V247.8C175.468 246.707 175.195 245.873 174.648 245.3C174.102 244.713 173.355 244.42 172.408 244.42C171.448 244.42 170.682 244.72 170.108 245.32C169.548 245.92 169.268 246.793 169.268 247.94V254H167.448V243.04H169.268V244.6C169.628 244.04 170.115 243.607 170.728 243.3C171.355 242.993 172.042 242.84 172.788 242.84ZM184.701 244.54H182.401V254H180.581V244.54H179.161V243.04H180.581V242.26C180.581 241.033 180.895 240.14 181.521 239.58C182.161 239.007 183.181 238.72 184.581 238.72V240.24C183.781 240.24 183.215 240.4 182.881 240.72C182.561 241.027 182.401 241.54 182.401 242.26V243.04H184.701V244.54ZM188.643 239.2V254H186.823V239.2H188.643ZM201.465 243.04V254H199.645V252.38C199.298 252.94 198.812 253.38 198.185 253.7C197.572 254.007 196.892 254.16 196.145 254.16C195.292 254.16 194.525 253.987 193.845 253.64C193.165 253.28 192.625 252.747 192.225 252.04C191.838 251.333 191.645 250.473 191.645 249.46V243.04H193.445V249.22C193.445 250.3 193.718 251.133 194.265 251.72C194.812 252.293 195.558 252.58 196.505 252.58C197.478 252.58 198.245 252.28 198.805 251.68C199.365 251.08 199.645 250.207 199.645 249.06V243.04H201.465ZM214.538 248.1C214.538 248.447 214.518 248.813 214.478 249.2H205.718C205.785 250.28 206.151 251.127 206.818 251.74C207.498 252.34 208.318 252.64 209.278 252.64C210.065 252.64 210.718 252.46 211.238 252.1C211.771 251.727 212.145 251.233 212.358 250.62H214.318C214.025 251.673 213.438 252.533 212.558 253.2C211.678 253.853 210.585 254.18 209.278 254.18C208.238 254.18 207.305 253.947 206.478 253.48C205.665 253.013 205.025 252.353 204.558 251.5C204.091 250.633 203.858 249.633 203.858 248.5C203.858 247.367 204.085 246.373 204.538 245.52C204.991 244.667 205.625 244.013 206.438 243.56C207.265 243.093 208.211 242.86 209.278 242.86C210.318 242.86 211.238 243.087 212.038 243.54C212.838 243.993 213.451 244.62 213.878 245.42C214.318 246.207 214.538 247.1 214.538 248.1ZM212.658 247.72C212.658 247.027 212.505 246.433 212.198 245.94C211.891 245.433 211.471 245.053 210.938 244.8C210.418 244.533 209.838 244.4 209.198 244.4C208.278 244.4 207.491 244.693 206.838 245.28C206.198 245.867 205.831 246.68 205.738 247.72H212.658ZM222.28 242.84C223.614 242.84 224.694 243.247 225.52 244.06C226.347 244.86 226.76 246.02 226.76 247.54V254H224.96V247.8C224.96 246.707 224.687 245.873 224.14 245.3C223.594 244.713 222.847 244.42 221.9 244.42C220.94 244.42 220.174 244.72 219.6 245.32C219.04 245.92 218.76 246.793 218.76 247.94V254H216.94V243.04H218.76V244.6C219.12 244.04 219.607 243.607 220.22 243.3C220.847 242.993 221.534 242.84 222.28 242.84ZM229.053 248.5C229.053 247.367 229.28 246.38 229.733 245.54C230.187 244.687 230.813 244.027 231.613 243.56C232.427 243.093 233.353 242.86 234.393 242.86C235.74 242.86 236.847 243.187 237.713 243.84C238.593 244.493 239.173 245.4 239.453 246.56H237.493C237.307 245.893 236.94 245.367 236.393 244.98C235.86 244.593 235.193 244.4 234.393 244.4C233.353 244.4 232.513 244.76 231.873 245.48C231.233 246.187 230.913 247.193 230.913 248.5C230.913 249.82 231.233 250.84 231.873 251.56C232.513 252.28 233.353 252.64 234.393 252.64C235.193 252.64 235.86 252.453 236.393 252.08C236.927 251.707 237.293 251.173 237.493 250.48H239.453C239.16 251.6 238.573 252.5 237.693 253.18C236.813 253.847 235.713 254.18 234.393 254.18C233.353 254.18 232.427 253.947 231.613 253.48C230.813 253.013 230.187 252.353 229.733 251.5C229.28 250.647 229.053 249.647 229.053 248.5ZM251.882 248.1C251.882 248.447 251.862 248.813 251.822 249.2H243.062C243.128 250.28 243.495 251.127 244.162 251.74C244.842 252.34 245.662 252.64 246.622 252.64C247.408 252.64 248.062 252.46 248.582 252.1C249.115 251.727 249.488 251.233 249.702 250.62H251.662C251.368 251.673 250.782 252.533 249.902 253.2C249.022 253.853 247.928 254.18 246.622 254.18C245.582 254.18 244.648 253.947 243.822 253.48C243.008 253.013 242.368 252.353 241.902 251.5C241.435 250.633 241.202 249.633 241.202 248.5C241.202 247.367 241.428 246.373 241.882 245.52C242.335 244.667 242.968 244.013 243.782 243.56C244.608 243.093 245.555 242.86 246.622 242.86C247.662 242.86 248.582 243.087 249.382 243.54C250.182 243.993 250.795 244.62 251.222 245.42C251.662 246.207 251.882 247.1 251.882 248.1ZM250.002 247.72C250.002 247.027 249.848 246.433 249.542 245.94C249.235 245.433 248.815 245.053 248.282 244.8C247.762 244.533 247.182 244.4 246.542 244.4C245.622 244.4 244.835 244.693 244.182 245.28C243.542 245.867 243.175 246.68 243.082 247.72H250.002ZM256.104 244.82C256.424 244.193 256.877 243.707 257.464 243.36C258.064 243.013 258.791 242.84 259.644 242.84V244.72H259.164C257.124 244.72 256.104 245.827 256.104 248.04V254H254.284V243.04H256.104V244.82ZM266.397 248.48C266.397 247.36 266.624 246.38 267.077 245.54C267.53 244.687 268.15 244.027 268.937 243.56C269.737 243.093 270.63 242.86 271.617 242.86C272.47 242.86 273.264 243.06 273.997 243.46C274.73 243.847 275.29 244.36 275.677 245V239.2H277.517V254H275.677V251.94C275.317 252.593 274.784 253.133 274.077 253.56C273.37 253.973 272.544 254.18 271.597 254.18C270.624 254.18 269.737 253.94 268.937 253.46C268.15 252.98 267.53 252.307 267.077 251.44C266.624 250.573 266.397 249.587 266.397 248.48ZM275.677 248.5C275.677 247.673 275.51 246.953 275.177 246.34C274.844 245.727 274.39 245.26 273.817 244.94C273.257 244.607 272.637 244.44 271.957 244.44C271.277 244.44 270.657 244.6 270.097 244.92C269.537 245.24 269.09 245.707 268.757 246.32C268.424 246.933 268.257 247.653 268.257 248.48C268.257 249.32 268.424 250.053 268.757 250.68C269.09 251.293 269.537 251.767 270.097 252.1C270.657 252.42 271.277 252.58 271.957 252.58C272.637 252.58 273.257 252.42 273.817 252.1C274.39 251.767 274.844 251.293 275.177 250.68C275.51 250.053 275.677 249.327 275.677 248.5ZM279.913 248.48C279.913 247.36 280.139 246.38 280.593 245.54C281.046 244.687 281.666 244.027 282.453 243.56C283.253 243.093 284.139 242.86 285.113 242.86C286.073 242.86 286.906 243.067 287.613 243.48C288.319 243.893 288.846 244.413 289.193 245.04V243.04H291.033V254H289.193V251.96C288.833 252.6 288.293 253.133 287.573 253.56C286.866 253.973 286.039 254.18 285.093 254.18C284.119 254.18 283.239 253.94 282.453 253.46C281.666 252.98 281.046 252.307 280.593 251.44C280.139 250.573 279.913 249.587 279.913 248.48ZM289.193 248.5C289.193 247.673 289.026 246.953 288.693 246.34C288.359 245.727 287.906 245.26 287.333 244.94C286.773 244.607 286.153 244.44 285.473 244.44C284.793 244.44 284.173 244.6 283.613 244.92C283.053 245.24 282.606 245.707 282.273 246.32C281.939 246.933 281.773 247.653 281.773 248.48C281.773 249.32 281.939 250.053 282.273 250.68C282.606 251.293 283.053 251.767 283.613 252.1C284.173 252.42 284.793 252.58 285.473 252.58C286.153 252.58 286.773 252.42 287.333 252.1C287.906 251.767 288.359 251.293 288.693 250.68C289.026 250.053 289.193 249.327 289.193 248.5ZM296.328 244.54V251C296.328 251.533 296.442 251.913 296.668 252.14C296.895 252.353 297.288 252.46 297.848 252.46H299.188V254H297.548C296.535 254 295.775 253.767 295.268 253.3C294.762 252.833 294.508 252.067 294.508 251V244.54H293.088V243.04H294.508V240.28H296.328V243.04H299.188V244.54H296.328ZM300.714 248.48C300.714 247.36 300.94 246.38 301.394 245.54C301.847 244.687 302.467 244.027 303.254 243.56C304.054 243.093 304.94 242.86 305.914 242.86C306.874 242.86 307.707 243.067 308.414 243.48C309.12 243.893 309.647 244.413 309.994 245.04V243.04H311.834V254H309.994V251.96C309.634 252.6 309.094 253.133 308.374 253.56C307.667 253.973 306.84 254.18 305.894 254.18C304.92 254.18 304.04 253.94 303.254 253.46C302.467 252.98 301.847 252.307 301.394 251.44C300.94 250.573 300.714 249.587 300.714 248.48ZM309.994 248.5C309.994 247.673 309.827 246.953 309.494 246.34C309.16 245.727 308.707 245.26 308.134 244.94C307.574 244.607 306.954 244.44 306.274 244.44C305.594 244.44 304.974 244.6 304.414 244.92C303.854 245.24 303.407 245.707 303.074 246.32C302.74 246.933 302.574 247.653 302.574 248.48C302.574 249.32 302.74 250.053 303.074 250.68C303.407 251.293 303.854 251.767 304.414 252.1C304.974 252.42 305.594 252.58 306.274 252.58C306.954 252.58 307.574 252.42 308.134 252.1C308.707 251.767 309.16 251.293 309.494 250.68C309.827 250.053 309.994 249.327 309.994 248.5ZM322.461 244.54V251C322.461 251.533 322.575 251.913 322.801 252.14C323.028 252.353 323.421 252.46 323.981 252.46H325.321V254H323.681C322.668 254 321.908 253.767 321.401 253.3C320.895 252.833 320.641 252.067 320.641 251V244.54H319.221V243.04H320.641V240.28H322.461V243.04H325.321V244.54H322.461ZM332.306 254.18C331.28 254.18 330.346 253.947 329.506 253.48C328.68 253.013 328.026 252.353 327.546 251.5C327.08 250.633 326.846 249.633 326.846 248.5C326.846 247.38 327.086 246.393 327.566 245.54C328.06 244.673 328.726 244.013 329.566 243.56C330.406 243.093 331.346 242.86 332.386 242.86C333.426 242.86 334.366 243.093 335.206 243.56C336.046 244.013 336.706 244.667 337.186 245.52C337.68 246.373 337.926 247.367 337.926 248.5C337.926 249.633 337.673 250.633 337.166 251.5C336.673 252.353 336 253.013 335.146 253.48C334.293 253.947 333.346 254.18 332.306 254.18ZM332.306 252.58C332.96 252.58 333.573 252.427 334.146 252.12C334.72 251.813 335.18 251.353 335.526 250.74C335.886 250.127 336.066 249.38 336.066 248.5C336.066 247.62 335.893 246.873 335.546 246.26C335.2 245.647 334.746 245.193 334.186 244.9C333.626 244.593 333.02 244.44 332.366 244.44C331.7 244.44 331.086 244.593 330.526 244.9C329.98 245.193 329.54 245.647 329.206 246.26C328.873 246.873 328.706 247.62 328.706 248.5C328.706 249.393 328.866 250.147 329.186 250.76C329.52 251.373 329.96 251.833 330.506 252.14C331.053 252.433 331.653 252.58 332.306 252.58ZM344.971 248.5C344.971 247.367 345.198 246.38 345.651 245.54C346.105 244.687 346.731 244.027 347.531 243.56C348.345 243.093 349.271 242.86 350.311 242.86C351.658 242.86 352.765 243.187 353.631 243.84C354.511 244.493 355.091 245.4 355.371 246.56H353.411C353.225 245.893 352.858 245.367 352.311 244.98C351.778 244.593 351.111 244.4 350.311 244.4C349.271 244.4 348.431 244.76 347.791 245.48C347.151 246.187 346.831 247.193 346.831 248.5C346.831 249.82 347.151 250.84 347.791 251.56C348.431 252.28 349.271 252.64 350.311 252.64C351.111 252.64 351.778 252.453 352.311 252.08C352.845 251.707 353.211 251.173 353.411 250.48H355.371C355.078 251.6 354.491 252.5 353.611 253.18C352.731 253.847 351.631 254.18 350.311 254.18C349.271 254.18 348.345 253.947 347.531 253.48C346.731 253.013 346.105 252.353 345.651 251.5C345.198 250.647 344.971 249.647 344.971 248.5ZM359.62 244.82C359.94 244.193 360.393 243.707 360.98 243.36C361.58 243.013 362.306 242.84 363.16 242.84V244.72H362.68C360.64 244.72 359.62 245.827 359.62 248.04V254H357.8V243.04H359.62V244.82ZM375.261 248.1C375.261 248.447 375.241 248.813 375.201 249.2H366.441C366.507 250.28 366.874 251.127 367.541 251.74C368.221 252.34 369.041 252.64 370.001 252.64C370.787 252.64 371.441 252.46 371.961 252.1C372.494 251.727 372.867 251.233 373.081 250.62H375.041C374.747 251.673 374.161 252.533 373.281 253.2C372.401 253.853 371.307 254.18 370.001 254.18C368.961 254.18 368.027 253.947 367.201 253.48C366.387 253.013 365.747 252.353 365.281 251.5C364.814 250.633 364.581 249.633 364.581 248.5C364.581 247.367 364.807 246.373 365.261 245.52C365.714 244.667 366.347 244.013 367.161 243.56C367.987 243.093 368.934 242.86 370.001 242.86C371.041 242.86 371.961 243.087 372.761 243.54C373.561 243.993 374.174 244.62 374.601 245.42C375.041 246.207 375.261 247.1 375.261 248.1ZM373.381 247.72C373.381 247.027 373.227 246.433 372.921 245.94C372.614 245.433 372.194 245.053 371.661 244.8C371.141 244.533 370.561 244.4 369.921 244.4C369.001 244.4 368.214 244.693 367.561 245.28C366.921 245.867 366.554 246.68 366.461 247.72H373.381ZM376.983 248.48C376.983 247.36 377.21 246.38 377.663 245.54C378.116 244.687 378.736 244.027 379.523 243.56C380.323 243.093 381.21 242.86 382.183 242.86C383.143 242.86 383.976 243.067 384.683 243.48C385.39 243.893 385.916 244.413 386.263 245.04V243.04H388.103V254H386.263V251.96C385.903 252.6 385.363 253.133 384.643 253.56C383.936 253.973 383.11 254.18 382.163 254.18C381.19 254.18 380.31 253.94 379.523 253.46C378.736 252.98 378.116 252.307 377.663 251.44C377.21 250.573 376.983 249.587 376.983 248.48ZM386.263 248.5C386.263 247.673 386.096 246.953 385.763 246.34C385.43 245.727 384.976 245.26 384.403 244.94C383.843 244.607 383.223 244.44 382.543 244.44C381.863 244.44 381.243 244.6 380.683 244.92C380.123 245.24 379.676 245.707 379.343 246.32C379.01 246.933 378.843 247.653 378.843 248.48C378.843 249.32 379.01 250.053 379.343 250.68C379.676 251.293 380.123 251.767 380.683 252.1C381.243 252.42 381.863 252.58 382.543 252.58C383.223 252.58 383.843 252.42 384.403 252.1C384.976 251.767 385.43 251.293 385.763 250.68C386.096 250.053 386.263 249.327 386.263 248.5ZM393.399 244.54V251C393.399 251.533 393.512 251.913 393.739 252.14C393.965 252.353 394.359 252.46 394.919 252.46H396.259V254H394.619C393.605 254 392.845 253.767 392.339 253.3C391.832 252.833 391.579 252.067 391.579 251V244.54H390.159V243.04H391.579V240.28H393.399V243.04H396.259V244.54H393.399ZM408.464 248.1C408.464 248.447 408.444 248.813 408.404 249.2H399.644C399.71 250.28 400.077 251.127 400.744 251.74C401.424 252.34 402.244 252.64 403.204 252.64C403.99 252.64 404.644 252.46 405.164 252.1C405.697 251.727 406.07 251.233 406.284 250.62H408.244C407.95 251.673 407.364 252.533 406.484 253.2C405.604 253.853 404.51 254.18 403.204 254.18C402.164 254.18 401.23 253.947 400.404 253.48C399.59 253.013 398.95 252.353 398.484 251.5C398.017 250.633 397.784 249.633 397.784 248.5C397.784 247.367 398.01 246.373 398.464 245.52C398.917 244.667 399.55 244.013 400.364 243.56C401.19 243.093 402.137 242.86 403.204 242.86C404.244 242.86 405.164 243.087 405.964 243.54C406.764 243.993 407.377 244.62 407.804 245.42C408.244 246.207 408.464 247.1 408.464 248.1ZM406.584 247.72C406.584 247.027 406.43 246.433 406.124 245.94C405.817 245.433 405.397 245.053 404.864 244.8C404.344 244.533 403.764 244.4 403.124 244.4C402.204 244.4 401.417 244.693 400.764 245.28C400.124 245.867 399.757 246.68 399.664 247.72H406.584ZM80.4498 278.48C80.4498 277.36 80.6765 276.38 81.1298 275.54C81.5832 274.687 82.2032 274.027 82.9898 273.56C83.7898 273.093 84.6765 272.86 85.6498 272.86C86.6098 272.86 87.4432 273.067 88.1498 273.48C88.8565 273.893 89.3832 274.413 89.7298 275.04V273.04H91.5698V284H89.7298V281.96C89.3698 282.6 88.8298 283.133 88.1098 283.56C87.4032 283.973 86.5765 284.18 85.6298 284.18C84.6565 284.18 83.7765 283.94 82.9898 283.46C82.2032 282.98 81.5832 282.307 81.1298 281.44C80.6765 280.573 80.4498 279.587 80.4498 278.48ZM89.7298 278.5C89.7298 277.673 89.5632 276.953 89.2298 276.34C88.8965 275.727 88.4432 275.26 87.8698 274.94C87.3098 274.607 86.6898 274.44 86.0098 274.44C85.3298 274.44 84.7098 274.6 84.1498 274.92C83.5898 275.24 83.1432 275.707 82.8098 276.32C82.4765 276.933 82.3098 277.653 82.3098 278.48C82.3098 279.32 82.4765 280.053 82.8098 280.68C83.1432 281.293 83.5898 281.767 84.1498 282.1C84.7098 282.42 85.3298 282.58 86.0098 282.58C86.6898 282.58 87.3098 282.42 87.8698 282.1C88.4432 281.767 88.8965 281.293 89.2298 280.68C89.5632 280.053 89.7298 279.327 89.7298 278.5ZM93.9655 278.5C93.9655 277.367 94.1921 276.38 94.6455 275.54C95.0988 274.687 95.7255 274.027 96.5255 273.56C97.3388 273.093 98.2655 272.86 99.3055 272.86C100.652 272.86 101.759 273.187 102.625 273.84C103.505 274.493 104.085 275.4 104.365 276.56H102.405C102.219 275.893 101.852 275.367 101.305 274.98C100.772 274.593 100.105 274.4 99.3055 274.4C98.2655 274.4 97.4255 274.76 96.7855 275.48C96.1455 276.187 95.8255 277.193 95.8255 278.5C95.8255 279.82 96.1455 280.84 96.7855 281.56C97.4255 282.28 98.2655 282.64 99.3055 282.64C100.105 282.64 100.772 282.453 101.305 282.08C101.839 281.707 102.205 281.173 102.405 280.48H104.365C104.072 281.6 103.485 282.5 102.605 283.18C101.725 283.847 100.625 284.18 99.3055 284.18C98.2655 284.18 97.3388 283.947 96.5255 283.48C95.7255 283.013 95.0988 282.353 94.6455 281.5C94.1921 280.647 93.9655 279.647 93.9655 278.5ZM106.114 278.5C106.114 277.367 106.341 276.38 106.794 275.54C107.247 274.687 107.874 274.027 108.674 273.56C109.487 273.093 110.414 272.86 111.454 272.86C112.801 272.86 113.907 273.187 114.774 273.84C115.654 274.493 116.234 275.4 116.514 276.56H114.554C114.367 275.893 114.001 275.367 113.454 274.98C112.921 274.593 112.254 274.4 111.454 274.4C110.414 274.4 109.574 274.76 108.934 275.48C108.294 276.187 107.974 277.193 107.974 278.5C107.974 279.82 108.294 280.84 108.934 281.56C109.574 282.28 110.414 282.64 111.454 282.64C112.254 282.64 112.921 282.453 113.454 282.08C113.987 281.707 114.354 281.173 114.554 280.48H116.514C116.221 281.6 115.634 282.5 114.754 283.18C113.874 283.847 112.774 284.18 111.454 284.18C110.414 284.18 109.487 283.947 108.674 283.48C107.874 283.013 107.247 282.353 106.794 281.5C106.341 280.647 106.114 279.647 106.114 278.5ZM128.662 273.04V284H126.842V282.38C126.496 282.94 126.009 283.38 125.382 283.7C124.769 284.007 124.089 284.16 123.342 284.16C122.489 284.16 121.722 283.987 121.042 283.64C120.362 283.28 119.822 282.747 119.422 282.04C119.036 281.333 118.842 280.473 118.842 279.46V273.04H120.642V279.22C120.642 280.3 120.916 281.133 121.462 281.72C122.009 282.293 122.756 282.58 123.702 282.58C124.676 282.58 125.442 282.28 126.002 281.68C126.562 281.08 126.842 280.207 126.842 279.06V273.04H128.662ZM133.555 274.82C133.875 274.193 134.329 273.707 134.915 273.36C135.515 273.013 136.242 272.84 137.095 272.84V274.72H136.615C134.575 274.72 133.555 275.827 133.555 278.04V284H131.735V273.04H133.555V274.82ZM138.516 278.48C138.516 277.36 138.743 276.38 139.196 275.54C139.65 274.687 140.27 274.027 141.056 273.56C141.856 273.093 142.743 272.86 143.716 272.86C144.676 272.86 145.51 273.067 146.216 273.48C146.923 273.893 147.45 274.413 147.796 275.04V273.04H149.636V284H147.796V281.96C147.436 282.6 146.896 283.133 146.176 283.56C145.47 283.973 144.643 284.18 143.696 284.18C142.723 284.18 141.843 283.94 141.056 283.46C140.27 282.98 139.65 282.307 139.196 281.44C138.743 280.573 138.516 279.587 138.516 278.48ZM147.796 278.5C147.796 277.673 147.63 276.953 147.296 276.34C146.963 275.727 146.51 275.26 145.936 274.94C145.376 274.607 144.756 274.44 144.076 274.44C143.396 274.44 142.776 274.6 142.216 274.92C141.656 275.24 141.21 275.707 140.876 276.32C140.543 276.933 140.376 277.653 140.376 278.48C140.376 279.32 140.543 280.053 140.876 280.68C141.21 281.293 141.656 281.767 142.216 282.1C142.776 282.42 143.396 282.58 144.076 282.58C144.756 282.58 145.376 282.42 145.936 282.1C146.51 281.767 146.963 281.293 147.296 280.68C147.63 280.053 147.796 279.327 147.796 278.5ZM154.932 274.54V281C154.932 281.533 155.045 281.913 155.272 282.14C155.499 282.353 155.892 282.46 156.452 282.46H157.792V284H156.152C155.139 284 154.379 283.767 153.872 283.3C153.365 282.833 153.112 282.067 153.112 281V274.54H151.692V273.04H153.112V270.28H154.932V273.04H157.792V274.54H154.932ZM169.997 278.1C169.997 278.447 169.977 278.813 169.937 279.2H161.177C161.244 280.28 161.61 281.127 162.277 281.74C162.957 282.34 163.777 282.64 164.737 282.64C165.524 282.64 166.177 282.46 166.697 282.1C167.23 281.727 167.604 281.233 167.817 280.62H169.777C169.484 281.673 168.897 282.533 168.017 283.2C167.137 283.853 166.044 284.18 164.737 284.18C163.697 284.18 162.764 283.947 161.937 283.48C161.124 283.013 160.484 282.353 160.017 281.5C159.55 280.633 159.317 279.633 159.317 278.5C159.317 277.367 159.544 276.373 159.997 275.52C160.45 274.667 161.084 274.013 161.897 273.56C162.724 273.093 163.67 272.86 164.737 272.86C165.777 272.86 166.697 273.087 167.497 273.54C168.297 273.993 168.91 274.62 169.337 275.42C169.777 276.207 169.997 277.1 169.997 278.1ZM168.117 277.72C168.117 277.027 167.964 276.433 167.657 275.94C167.35 275.433 166.93 275.053 166.397 274.8C165.877 274.533 165.297 274.4 164.657 274.4C163.737 274.4 162.95 274.693 162.297 275.28C161.657 275.867 161.29 276.68 161.197 277.72H168.117ZM179.551 275.08C179.925 274.427 180.471 273.893 181.191 273.48C181.911 273.067 182.731 272.86 183.651 272.86C184.638 272.86 185.525 273.093 186.311 273.56C187.098 274.027 187.718 274.687 188.171 275.54C188.625 276.38 188.851 277.36 188.851 278.48C188.851 279.587 188.625 280.573 188.171 281.44C187.718 282.307 187.091 282.98 186.291 283.46C185.505 283.94 184.625 284.18 183.651 284.18C182.705 284.18 181.871 283.973 181.151 283.56C180.445 283.147 179.911 282.62 179.551 281.98V284H177.731V269.2H179.551V275.08ZM186.991 278.48C186.991 277.653 186.825 276.933 186.491 276.32C186.158 275.707 185.705 275.24 185.131 274.92C184.571 274.6 183.951 274.44 183.271 274.44C182.605 274.44 181.985 274.607 181.411 274.94C180.851 275.26 180.398 275.733 180.051 276.36C179.718 276.973 179.551 277.687 179.551 278.5C179.551 279.327 179.718 280.053 180.051 280.68C180.398 281.293 180.851 281.767 181.411 282.1C181.985 282.42 182.605 282.58 183.271 282.58C183.951 282.58 184.571 282.42 185.131 282.1C185.705 281.767 186.158 281.293 186.491 280.68C186.825 280.053 186.991 279.32 186.991 278.48ZM200.967 273.04V284H199.147V282.38C198.8 282.94 198.314 283.38 197.687 283.7C197.074 284.007 196.394 284.16 195.647 284.16C194.794 284.16 194.027 283.987 193.347 283.64C192.667 283.28 192.127 282.747 191.727 282.04C191.34 281.333 191.147 280.473 191.147 279.46V273.04H192.947V279.22C192.947 280.3 193.22 281.133 193.767 281.72C194.314 282.293 195.06 282.58 196.007 282.58C196.98 282.58 197.747 282.28 198.307 281.68C198.867 281.08 199.147 280.207 199.147 279.06V273.04H200.967ZM203.36 278.48C203.36 277.36 203.587 276.38 204.04 275.54C204.493 274.687 205.113 274.027 205.9 273.56C206.7 273.093 207.593 272.86 208.58 272.86C209.433 272.86 210.227 273.06 210.96 273.46C211.693 273.847 212.253 274.36 212.64 275V269.2H214.48V284H212.64V281.94C212.28 282.593 211.747 283.133 211.04 283.56C210.333 283.973 209.507 284.18 208.56 284.18C207.587 284.18 206.7 283.94 205.9 283.46C205.113 282.98 204.493 282.307 204.04 281.44C203.587 280.573 203.36 279.587 203.36 278.48ZM212.64 278.5C212.64 277.673 212.473 276.953 212.14 276.34C211.807 275.727 211.353 275.26 210.78 274.94C210.22 274.607 209.6 274.44 208.92 274.44C208.24 274.44 207.62 274.6 207.06 274.92C206.5 275.24 206.053 275.707 205.72 276.32C205.387 276.933 205.22 277.653 205.22 278.48C205.22 279.32 205.387 280.053 205.72 280.68C206.053 281.293 206.5 281.767 207.06 282.1C207.62 282.42 208.24 282.58 208.92 282.58C209.6 282.58 210.22 282.42 210.78 282.1C211.353 281.767 211.807 281.293 212.14 280.68C212.473 280.053 212.64 279.327 212.64 278.5ZM222.076 272.86C223.022 272.86 223.849 273.067 224.556 273.48C225.276 273.893 225.809 274.413 226.156 275.04V273.04H227.996V284.24C227.996 285.24 227.782 286.127 227.356 286.9C226.929 287.687 226.316 288.3 225.516 288.74C224.729 289.18 223.809 289.4 222.756 289.4C221.316 289.4 220.116 289.06 219.156 288.38C218.196 287.7 217.629 286.773 217.456 285.6H219.256C219.456 286.267 219.869 286.8 220.496 287.2C221.122 287.613 221.876 287.82 222.756 287.82C223.756 287.82 224.569 287.507 225.196 286.88C225.836 286.253 226.156 285.373 226.156 284.24V281.94C225.796 282.58 225.262 283.113 224.556 283.54C223.849 283.967 223.022 284.18 222.076 284.18C221.102 284.18 220.216 283.94 219.416 283.46C218.629 282.98 218.009 282.307 217.556 281.44C217.102 280.573 216.876 279.587 216.876 278.48C216.876 277.36 217.102 276.38 217.556 275.54C218.009 274.687 218.629 274.027 219.416 273.56C220.216 273.093 221.102 272.86 222.076 272.86ZM226.156 278.5C226.156 277.673 225.989 276.953 225.656 276.34C225.322 275.727 224.869 275.26 224.296 274.94C223.736 274.607 223.116 274.44 222.436 274.44C221.756 274.44 221.136 274.6 220.576 274.92C220.016 275.24 219.569 275.707 219.236 276.32C218.902 276.933 218.736 277.653 218.736 278.48C218.736 279.32 218.902 280.053 219.236 280.68C219.569 281.293 220.016 281.767 220.576 282.1C221.136 282.42 221.756 282.58 222.436 282.58C223.116 282.58 223.736 282.42 224.296 282.1C224.869 281.767 225.322 281.293 225.656 280.68C225.989 280.053 226.156 279.327 226.156 278.5ZM241.071 278.1C241.071 278.447 241.051 278.813 241.011 279.2H232.251C232.318 280.28 232.685 281.127 233.351 281.74C234.031 282.34 234.851 282.64 235.811 282.64C236.598 282.64 237.251 282.46 237.771 282.1C238.305 281.727 238.678 281.233 238.891 280.62H240.851C240.558 281.673 239.971 282.533 239.091 283.2C238.211 283.853 237.118 284.18 235.811 284.18C234.771 284.18 233.838 283.947 233.011 283.48C232.198 283.013 231.558 282.353 231.091 281.5C230.625 280.633 230.391 279.633 230.391 278.5C230.391 277.367 230.618 276.373 231.071 275.52C231.525 274.667 232.158 274.013 232.971 273.56C233.798 273.093 234.745 272.86 235.811 272.86C236.851 272.86 237.771 273.087 238.571 273.54C239.371 273.993 239.985 274.62 240.411 275.42C240.851 276.207 241.071 277.1 241.071 278.1ZM239.191 277.72C239.191 277.027 239.038 276.433 238.731 275.94C238.425 275.433 238.005 275.053 237.471 274.8C236.951 274.533 236.371 274.4 235.731 274.4C234.811 274.4 234.025 274.693 233.371 275.28C232.731 275.867 232.365 276.68 232.271 277.72H239.191ZM245.694 274.54V281C245.694 281.533 245.807 281.913 246.034 282.14C246.26 282.353 246.654 282.46 247.214 282.46H248.554V284H246.914C245.9 284 245.14 283.767 244.634 283.3C244.127 282.833 243.874 282.067 243.874 281V274.54H242.454V273.04H243.874V270.28H245.694V273.04H248.554V274.54H245.694ZM257.911 275.06C258.271 274.433 258.804 273.913 259.511 273.5C260.231 273.073 261.064 272.86 262.011 272.86C262.984 272.86 263.864 273.093 264.651 273.56C265.451 274.027 266.077 274.687 266.531 275.54C266.984 276.38 267.211 277.36 267.211 278.48C267.211 279.587 266.984 280.573 266.531 281.44C266.077 282.307 265.451 282.98 264.651 283.46C263.864 283.94 262.984 284.18 262.011 284.18C261.077 284.18 260.251 283.973 259.531 283.56C258.824 283.133 258.284 282.607 257.911 281.98V289.2H256.091V273.04H257.911V275.06ZM265.351 278.48C265.351 277.653 265.184 276.933 264.851 276.32C264.517 275.707 264.064 275.24 263.491 274.92C262.931 274.6 262.311 274.44 261.631 274.44C260.964 274.44 260.344 274.607 259.771 274.94C259.211 275.26 258.757 275.733 258.411 276.36C258.077 276.973 257.911 277.687 257.911 278.5C257.911 279.327 258.077 280.053 258.411 280.68C258.757 281.293 259.211 281.767 259.771 282.1C260.344 282.42 260.964 282.58 261.631 282.58C262.311 282.58 262.931 282.42 263.491 282.1C264.064 281.767 264.517 281.293 264.851 280.68C265.184 280.053 265.351 279.32 265.351 278.48ZM271.426 269.2V284H269.606V269.2H271.426ZM273.848 278.48C273.848 277.36 274.075 276.38 274.528 275.54C274.982 274.687 275.602 274.027 276.388 273.56C277.188 273.093 278.075 272.86 279.048 272.86C280.008 272.86 280.842 273.067 281.548 273.48C282.255 273.893 282.782 274.413 283.128 275.04V273.04H284.968V284H283.128V281.96C282.768 282.6 282.228 283.133 281.508 283.56C280.802 283.973 279.975 284.18 279.028 284.18C278.055 284.18 277.175 283.94 276.388 283.46C275.602 282.98 274.982 282.307 274.528 281.44C274.075 280.573 273.848 279.587 273.848 278.48ZM283.128 278.5C283.128 277.673 282.962 276.953 282.628 276.34C282.295 275.727 281.842 275.26 281.268 274.94C280.708 274.607 280.088 274.44 279.408 274.44C278.728 274.44 278.108 274.6 277.548 274.92C276.988 275.24 276.542 275.707 276.208 276.32C275.875 276.933 275.708 277.653 275.708 278.48C275.708 279.32 275.875 280.053 276.208 280.68C276.542 281.293 276.988 281.767 277.548 282.1C278.108 282.42 278.728 282.58 279.408 282.58C280.088 282.58 280.708 282.42 281.268 282.1C281.842 281.767 282.295 281.293 282.628 280.68C282.962 280.053 283.128 279.327 283.128 278.5ZM293.384 272.84C294.717 272.84 295.797 273.247 296.624 274.06C297.451 274.86 297.864 276.02 297.864 277.54V284H296.064V277.8C296.064 276.707 295.791 275.873 295.244 275.3C294.697 274.713 293.951 274.42 293.004 274.42C292.044 274.42 291.277 274.72 290.704 275.32C290.144 275.92 289.864 276.793 289.864 277.94V284H288.044V273.04H289.864V274.6C290.224 274.04 290.711 273.607 291.324 273.3C291.951 272.993 292.637 272.84 293.384 272.84ZM304.717 284.18C303.877 284.18 303.124 284.04 302.457 283.76C301.79 283.467 301.264 283.067 300.877 282.56C300.49 282.04 300.277 281.447 300.237 280.78H302.117C302.17 281.327 302.424 281.773 302.877 282.12C303.344 282.467 303.95 282.64 304.697 282.64C305.39 282.64 305.937 282.487 306.337 282.18C306.737 281.873 306.937 281.487 306.937 281.02C306.937 280.54 306.724 280.187 306.297 279.96C305.87 279.72 305.21 279.487 304.317 279.26C303.504 279.047 302.837 278.833 302.317 278.62C301.81 278.393 301.37 278.067 300.997 277.64C300.637 277.2 300.457 276.627 300.457 275.92C300.457 275.36 300.624 274.847 300.957 274.38C301.29 273.913 301.764 273.547 302.377 273.28C302.99 273 303.69 272.86 304.477 272.86C305.69 272.86 306.67 273.167 307.417 273.78C308.164 274.393 308.564 275.233 308.617 276.3H306.797C306.757 275.727 306.524 275.267 306.097 274.92C305.684 274.573 305.124 274.4 304.417 274.4C303.764 274.4 303.244 274.54 302.857 274.82C302.47 275.1 302.277 275.467 302.277 275.92C302.277 276.28 302.39 276.58 302.617 276.82C302.857 277.047 303.15 277.233 303.497 277.38C303.857 277.513 304.35 277.667 304.977 277.84C305.764 278.053 306.404 278.267 306.897 278.48C307.39 278.68 307.81 278.987 308.157 279.4C308.517 279.813 308.704 280.353 308.717 281.02C308.717 281.62 308.55 282.16 308.217 282.64C307.884 283.12 307.41 283.5 306.797 283.78C306.197 284.047 305.504 284.18 304.717 284.18ZM311.866 284.12C311.519 284.12 311.226 284 310.986 283.76C310.746 283.52 310.626 283.227 310.626 282.88C310.626 282.533 310.746 282.24 310.986 282C311.226 281.76 311.519 281.64 311.866 281.64C312.199 281.64 312.479 281.76 312.706 282C312.946 282.24 313.066 282.533 313.066 282.88C313.066 283.227 312.946 283.52 312.706 283.76C312.479 284 312.199 284.12 311.866 284.12ZM328.697 270.06V271.54H322.637V276.24H327.557V277.72H322.637V284H320.817V270.06H328.697ZM335.675 284.18C334.649 284.18 333.715 283.947 332.875 283.48C332.049 283.013 331.395 282.353 330.915 281.5C330.449 280.633 330.215 279.633 330.215 278.5C330.215 277.38 330.455 276.393 330.935 275.54C331.429 274.673 332.095 274.013 332.935 273.56C333.775 273.093 334.715 272.86 335.755 272.86C336.795 272.86 337.735 273.093 338.575 273.56C339.415 274.013 340.075 274.667 340.555 275.52C341.049 276.373 341.295 277.367 341.295 278.5C341.295 279.633 341.042 280.633 340.535 281.5C340.042 282.353 339.369 283.013 338.515 283.48C337.662 283.947 336.715 284.18 335.675 284.18ZM335.675 282.58C336.329 282.58 336.942 282.427 337.515 282.12C338.089 281.813 338.549 281.353 338.895 280.74C339.255 280.127 339.435 279.38 339.435 278.5C339.435 277.62 339.262 276.873 338.915 276.26C338.569 275.647 338.115 275.193 337.555 274.9C336.995 274.593 336.389 274.44 335.735 274.44C335.069 274.44 334.455 274.593 333.895 274.9C333.349 275.193 332.909 275.647 332.575 276.26C332.242 276.873 332.075 277.62 332.075 278.5C332.075 279.393 332.235 280.147 332.555 280.76C332.889 281.373 333.329 281.833 333.875 282.14C334.422 282.433 335.022 282.58 335.675 282.58ZM345.508 274.82C345.828 274.193 346.282 273.707 346.868 273.36C347.468 273.013 348.195 272.84 349.048 272.84V274.72H348.568C346.528 274.72 345.508 275.827 345.508 278.04V284H343.688V273.04H345.508V274.82ZM361.149 278.1C361.149 278.447 361.129 278.813 361.089 279.2H352.329C352.396 280.28 352.763 281.127 353.429 281.74C354.109 282.34 354.929 282.64 355.889 282.64C356.676 282.64 357.329 282.46 357.849 282.1C358.383 281.727 358.756 281.233 358.969 280.62H360.929C360.636 281.673 360.049 282.533 359.169 283.2C358.289 283.853 357.196 284.18 355.889 284.18C354.849 284.18 353.916 283.947 353.089 283.48C352.276 283.013 351.636 282.353 351.169 281.5C350.703 280.633 350.469 279.633 350.469 278.5C350.469 277.367 350.696 276.373 351.149 275.52C351.603 274.667 352.236 274.013 353.049 273.56C353.876 273.093 354.823 272.86 355.889 272.86C356.929 272.86 357.849 273.087 358.649 273.54C359.449 273.993 360.063 274.62 360.489 275.42C360.929 276.207 361.149 277.1 361.149 278.1ZM359.269 277.72C359.269 277.027 359.116 276.433 358.809 275.94C358.503 275.433 358.083 275.053 357.549 274.8C357.029 274.533 356.449 274.4 355.809 274.4C354.889 274.4 354.103 274.693 353.449 275.28C352.809 275.867 352.443 276.68 352.349 277.72H359.269ZM362.872 278.5C362.872 277.367 363.098 276.38 363.552 275.54C364.005 274.687 364.632 274.027 365.432 273.56C366.245 273.093 367.172 272.86 368.212 272.86C369.558 272.86 370.665 273.187 371.532 273.84C372.412 274.493 372.992 275.4 373.272 276.56H371.312C371.125 275.893 370.758 275.367 370.212 274.98C369.678 274.593 369.012 274.4 368.212 274.4C367.172 274.4 366.332 274.76 365.692 275.48C365.052 276.187 364.732 277.193 364.732 278.5C364.732 279.82 365.052 280.84 365.692 281.56C366.332 282.28 367.172 282.64 368.212 282.64C369.012 282.64 369.678 282.453 370.212 282.08C370.745 281.707 371.112 281.173 371.312 280.48H373.272C372.978 281.6 372.392 282.5 371.512 283.18C370.632 283.847 369.532 284.18 368.212 284.18C367.172 284.18 366.245 283.947 365.432 283.48C364.632 283.013 364.005 282.353 363.552 281.5C363.098 280.647 362.872 279.647 362.872 278.5ZM375.02 278.48C375.02 277.36 375.247 276.38 375.7 275.54C376.153 274.687 376.773 274.027 377.56 273.56C378.36 273.093 379.247 272.86 380.22 272.86C381.18 272.86 382.013 273.067 382.72 273.48C383.427 273.893 383.953 274.413 384.3 275.04V273.04H386.14V284H384.3V281.96C383.94 282.6 383.4 283.133 382.68 283.56C381.973 283.973 381.147 284.18 380.2 284.18C379.227 284.18 378.347 283.94 377.56 283.46C376.773 282.98 376.153 282.307 375.7 281.44C375.247 280.573 375.02 279.587 375.02 278.48ZM384.3 278.5C384.3 277.673 384.133 276.953 383.8 276.34C383.467 275.727 383.013 275.26 382.44 274.94C381.88 274.607 381.26 274.44 380.58 274.44C379.9 274.44 379.28 274.6 378.72 274.92C378.16 275.24 377.713 275.707 377.38 276.32C377.047 276.933 376.88 277.653 376.88 278.48C376.88 279.32 377.047 280.053 377.38 280.68C377.713 281.293 378.16 281.767 378.72 282.1C379.28 282.42 379.9 282.58 380.58 282.58C381.26 282.58 381.88 282.42 382.44 282.1C383.013 281.767 383.467 281.293 383.8 280.68C384.133 280.053 384.3 279.327 384.3 278.5ZM393.096 284.18C392.256 284.18 391.502 284.04 390.836 283.76C390.169 283.467 389.642 283.067 389.256 282.56C388.869 282.04 388.656 281.447 388.616 280.78H390.496C390.549 281.327 390.802 281.773 391.256 282.12C391.722 282.467 392.329 282.64 393.076 282.64C393.769 282.64 394.316 282.487 394.716 282.18C395.116 281.873 395.316 281.487 395.316 281.02C395.316 280.54 395.102 280.187 394.676 279.96C394.249 279.72 393.589 279.487 392.696 279.26C391.882 279.047 391.216 278.833 390.696 278.62C390.189 278.393 389.749 278.067 389.376 277.64C389.016 277.2 388.836 276.627 388.836 275.92C388.836 275.36 389.002 274.847 389.336 274.38C389.669 273.913 390.142 273.547 390.756 273.28C391.369 273 392.069 272.86 392.856 272.86C394.069 272.86 395.049 273.167 395.796 273.78C396.542 274.393 396.942 275.233 396.996 276.3H395.176C395.136 275.727 394.902 275.267 394.476 274.92C394.062 274.573 393.502 274.4 392.796 274.4C392.142 274.4 391.622 274.54 391.236 274.82C390.849 275.1 390.656 275.467 390.656 275.92C390.656 276.28 390.769 276.58 390.996 276.82C391.236 277.047 391.529 277.233 391.876 277.38C392.236 277.513 392.729 277.667 393.356 277.84C394.142 278.053 394.782 278.267 395.276 278.48C395.769 278.68 396.189 278.987 396.536 279.4C396.896 279.813 397.082 280.353 397.096 281.02C397.096 281.62 396.929 282.16 396.596 282.64C396.262 283.12 395.789 283.5 395.176 283.78C394.576 284.047 393.882 284.18 393.096 284.18ZM401.885 274.54V281C401.885 281.533 401.998 281.913 402.225 282.14C402.452 282.353 402.845 282.46 403.405 282.46H404.745V284H403.105C402.092 284 401.332 283.767 400.825 283.3C400.318 282.833 400.065 282.067 400.065 281V274.54H398.645V273.04H400.065V270.28H401.885V273.04H404.745V274.54H401.885ZM92.736 314.18C91.7093 314.18 90.776 313.947 89.936 313.48C89.1093 313.013 88.456 312.353 87.976 311.5C87.5093 310.633 87.276 309.633 87.276 308.5C87.276 307.38 87.516 306.393 87.996 305.54C88.4893 304.673 89.156 304.013 89.996 303.56C90.836 303.093 91.776 302.86 92.816 302.86C93.856 302.86 94.796 303.093 95.636 303.56C96.476 304.013 97.136 304.667 97.616 305.52C98.1093 306.373 98.356 307.367 98.356 308.5C98.356 309.633 98.1027 310.633 97.596 311.5C97.1027 312.353 96.4293 313.013 95.576 313.48C94.7227 313.947 93.776 314.18 92.736 314.18ZM92.736 312.58C93.3893 312.58 94.0027 312.427 94.576 312.12C95.1493 311.813 95.6093 311.353 95.956 310.74C96.316 310.127 96.496 309.38 96.496 308.5C96.496 307.62 96.3227 306.873 95.976 306.26C95.6293 305.647 95.176 305.193 94.616 304.9C94.056 304.593 93.4493 304.44 92.796 304.44C92.1293 304.44 91.516 304.593 90.956 304.9C90.4093 305.193 89.9693 305.647 89.636 306.26C89.3027 306.873 89.136 307.62 89.136 308.5C89.136 309.393 89.296 310.147 89.616 310.76C89.9493 311.373 90.3893 311.833 90.936 312.14C91.4827 312.433 92.0827 312.58 92.736 312.58ZM110.469 303.04V314H108.649V312.38C108.302 312.94 107.816 313.38 107.189 313.7C106.576 314.007 105.896 314.16 105.149 314.16C104.296 314.16 103.529 313.987 102.849 313.64C102.169 313.28 101.629 312.747 101.229 312.04C100.842 311.333 100.649 310.473 100.649 309.46V303.04H102.449V309.22C102.449 310.3 102.722 311.133 103.269 311.72C103.816 312.293 104.562 312.58 105.509 312.58C106.482 312.58 107.249 312.28 107.809 311.68C108.369 311.08 108.649 310.207 108.649 309.06V303.04H110.469ZM115.762 304.54V311C115.762 311.533 115.875 311.913 116.102 312.14C116.329 312.353 116.722 312.46 117.282 312.46H118.622V314H116.982C115.969 314 115.209 313.767 114.702 313.3C114.195 312.833 113.942 312.067 113.942 311V304.54H112.522V303.04H113.942V300.28H115.762V303.04H118.622V304.54H115.762ZM120.147 308.5C120.147 307.367 120.374 306.38 120.827 305.54C121.28 304.687 121.907 304.027 122.707 303.56C123.52 303.093 124.447 302.86 125.487 302.86C126.834 302.86 127.94 303.187 128.807 303.84C129.687 304.493 130.267 305.4 130.547 306.56H128.587C128.4 305.893 128.034 305.367 127.487 304.98C126.954 304.593 126.287 304.4 125.487 304.4C124.447 304.4 123.607 304.76 122.967 305.48C122.327 306.187 122.007 307.193 122.007 308.5C122.007 309.82 122.327 310.84 122.967 311.56C123.607 312.28 124.447 312.64 125.487 312.64C126.287 312.64 126.954 312.453 127.487 312.08C128.02 311.707 128.387 311.173 128.587 310.48H130.547C130.254 311.6 129.667 312.5 128.787 313.18C127.907 313.847 126.807 314.18 125.487 314.18C124.447 314.18 123.52 313.947 122.707 313.48C121.907 313.013 121.28 312.353 120.827 311.5C120.374 310.647 120.147 309.647 120.147 308.5ZM137.756 314.18C136.729 314.18 135.796 313.947 134.956 313.48C134.129 313.013 133.476 312.353 132.996 311.5C132.529 310.633 132.296 309.633 132.296 308.5C132.296 307.38 132.536 306.393 133.016 305.54C133.509 304.673 134.176 304.013 135.016 303.56C135.856 303.093 136.796 302.86 137.836 302.86C138.876 302.86 139.816 303.093 140.656 303.56C141.496 304.013 142.156 304.667 142.636 305.52C143.129 306.373 143.376 307.367 143.376 308.5C143.376 309.633 143.122 310.633 142.616 311.5C142.122 312.353 141.449 313.013 140.596 313.48C139.742 313.947 138.796 314.18 137.756 314.18ZM137.756 312.58C138.409 312.58 139.022 312.427 139.596 312.12C140.169 311.813 140.629 311.353 140.976 310.74C141.336 310.127 141.516 309.38 141.516 308.5C141.516 307.62 141.342 306.873 140.996 306.26C140.649 305.647 140.196 305.193 139.636 304.9C139.076 304.593 138.469 304.44 137.816 304.44C137.149 304.44 136.536 304.593 135.976 304.9C135.429 305.193 134.989 305.647 134.656 306.26C134.322 306.873 134.156 307.62 134.156 308.5C134.156 309.393 134.316 310.147 134.636 310.76C134.969 311.373 135.409 311.833 135.956 312.14C136.502 312.433 137.102 312.58 137.756 312.58ZM158.949 302.84C159.802 302.84 160.562 303.02 161.229 303.38C161.895 303.727 162.422 304.253 162.809 304.96C163.195 305.667 163.389 306.527 163.389 307.54V314H161.589V307.8C161.589 306.707 161.315 305.873 160.769 305.3C160.235 304.713 159.509 304.42 158.589 304.42C157.642 304.42 156.889 304.727 156.329 305.34C155.769 305.94 155.489 306.813 155.489 307.96V314H153.689V307.8C153.689 306.707 153.415 305.873 152.869 305.3C152.335 304.713 151.609 304.42 150.689 304.42C149.742 304.42 148.989 304.727 148.429 305.34C147.869 305.94 147.589 306.813 147.589 307.96V314H145.769V303.04H147.589V304.62C147.949 304.047 148.429 303.607 149.029 303.3C149.642 302.993 150.315 302.84 151.049 302.84C151.969 302.84 152.782 303.047 153.489 303.46C154.195 303.873 154.722 304.48 155.069 305.28C155.375 304.507 155.882 303.907 156.589 303.48C157.295 303.053 158.082 302.84 158.949 302.84ZM176.374 308.1C176.374 308.447 176.354 308.813 176.314 309.2H167.554C167.621 310.28 167.987 311.127 168.654 311.74C169.334 312.34 170.154 312.64 171.114 312.64C171.901 312.64 172.554 312.46 173.074 312.1C173.607 311.727 173.981 311.233 174.194 310.62H176.154C175.861 311.673 175.274 312.533 174.394 313.2C173.514 313.853 172.421 314.18 171.114 314.18C170.074 314.18 169.141 313.947 168.314 313.48C167.501 313.013 166.861 312.353 166.394 311.5C165.927 310.633 165.694 309.633 165.694 308.5C165.694 307.367 165.921 306.373 166.374 305.52C166.827 304.667 167.461 304.013 168.274 303.56C169.101 303.093 170.047 302.86 171.114 302.86C172.154 302.86 173.074 303.087 173.874 303.54C174.674 303.993 175.287 304.62 175.714 305.42C176.154 306.207 176.374 307.1 176.374 308.1ZM174.494 307.72C174.494 307.027 174.341 306.433 174.034 305.94C173.727 305.433 173.307 305.053 172.774 304.8C172.254 304.533 171.674 304.4 171.034 304.4C170.114 304.4 169.327 304.693 168.674 305.28C168.034 305.867 167.667 306.68 167.574 307.72H174.494ZM182.656 314.18C181.816 314.18 181.063 314.04 180.396 313.76C179.73 313.467 179.203 313.067 178.816 312.56C178.43 312.04 178.216 311.447 178.176 310.78H180.056C180.11 311.327 180.363 311.773 180.816 312.12C181.283 312.467 181.89 312.64 182.636 312.64C183.33 312.64 183.876 312.487 184.276 312.18C184.676 311.873 184.876 311.487 184.876 311.02C184.876 310.54 184.663 310.187 184.236 309.96C183.81 309.72 183.15 309.487 182.256 309.26C181.443 309.047 180.776 308.833 180.256 308.62C179.75 308.393 179.31 308.067 178.936 307.64C178.576 307.2 178.396 306.627 178.396 305.92C178.396 305.36 178.563 304.847 178.896 304.38C179.23 303.913 179.703 303.547 180.316 303.28C180.93 303 181.63 302.86 182.416 302.86C183.63 302.86 184.61 303.167 185.356 303.78C186.103 304.393 186.503 305.233 186.556 306.3H184.736C184.696 305.727 184.463 305.267 184.036 304.92C183.623 304.573 183.063 304.4 182.356 304.4C181.703 304.4 181.183 304.54 180.796 304.82C180.41 305.1 180.216 305.467 180.216 305.92C180.216 306.28 180.33 306.58 180.556 306.82C180.796 307.047 181.09 307.233 181.436 307.38C181.796 307.513 182.29 307.667 182.916 307.84C183.703 308.053 184.343 308.267 184.836 308.48C185.33 308.68 185.75 308.987 186.096 309.4C186.456 309.813 186.643 310.353 186.656 311.02C186.656 311.62 186.49 312.16 186.156 312.64C185.823 313.12 185.35 313.5 184.736 313.78C184.136 314.047 183.443 314.18 182.656 314.18ZM193.878 308.48C193.878 307.36 194.104 306.38 194.558 305.54C195.011 304.687 195.631 304.027 196.418 303.56C197.218 303.093 198.104 302.86 199.078 302.86C200.038 302.86 200.871 303.067 201.578 303.48C202.284 303.893 202.811 304.413 203.158 305.04V303.04H204.998V314H203.158V311.96C202.798 312.6 202.258 313.133 201.538 313.56C200.831 313.973 200.004 314.18 199.058 314.18C198.084 314.18 197.204 313.94 196.418 313.46C195.631 312.98 195.011 312.307 194.558 311.44C194.104 310.573 193.878 309.587 193.878 308.48ZM203.158 308.5C203.158 307.673 202.991 306.953 202.658 306.34C202.324 305.727 201.871 305.26 201.298 304.94C200.738 304.607 200.118 304.44 199.438 304.44C198.758 304.44 198.138 304.6 197.578 304.92C197.018 305.24 196.571 305.707 196.238 306.32C195.904 306.933 195.738 307.653 195.738 308.48C195.738 309.32 195.904 310.053 196.238 310.68C196.571 311.293 197.018 311.767 197.578 312.1C198.138 312.42 198.758 312.58 199.438 312.58C200.118 312.58 200.738 312.42 201.298 312.1C201.871 311.767 202.324 311.293 202.658 310.68C202.991 310.053 203.158 309.327 203.158 308.5ZM213.413 302.84C214.747 302.84 215.827 303.247 216.653 304.06C217.48 304.86 217.893 306.02 217.893 307.54V314H216.093V307.8C216.093 306.707 215.82 305.873 215.273 305.3C214.727 304.713 213.98 304.42 213.033 304.42C212.073 304.42 211.307 304.72 210.733 305.32C210.173 305.92 209.893 306.793 209.893 307.94V314H208.073V303.04H209.893V304.6C210.253 304.04 210.74 303.607 211.353 303.3C211.98 302.993 212.667 302.84 213.413 302.84ZM220.186 308.48C220.186 307.36 220.413 306.38 220.866 305.54C221.32 304.687 221.94 304.027 222.726 303.56C223.526 303.093 224.42 302.86 225.406 302.86C226.26 302.86 227.053 303.06 227.786 303.46C228.52 303.847 229.08 304.36 229.466 305V299.2H231.306V314H229.466V311.94C229.106 312.593 228.573 313.133 227.866 313.56C227.16 313.973 226.333 314.18 225.386 314.18C224.413 314.18 223.526 313.94 222.726 313.46C221.94 312.98 221.32 312.307 220.866 311.44C220.413 310.573 220.186 309.587 220.186 308.48ZM229.466 308.5C229.466 307.673 229.3 306.953 228.966 306.34C228.633 305.727 228.18 305.26 227.606 304.94C227.046 304.607 226.426 304.44 225.746 304.44C225.066 304.44 224.446 304.6 223.886 304.92C223.326 305.24 222.88 305.707 222.546 306.32C222.213 306.933 222.046 307.653 222.046 308.48C222.046 309.32 222.213 310.053 222.546 310.68C222.88 311.293 223.326 311.767 223.886 312.1C224.446 312.42 225.066 312.58 225.746 312.58C226.426 312.58 227.046 312.42 227.606 312.1C228.18 311.767 228.633 311.293 228.966 310.68C229.3 310.053 229.466 309.327 229.466 308.5ZM241.534 304.82C241.854 304.193 242.307 303.707 242.894 303.36C243.494 303.013 244.22 302.84 245.074 302.84V304.72H244.594C242.554 304.72 241.534 305.827 241.534 308.04V314H239.714V303.04H241.534V304.82ZM257.175 308.1C257.175 308.447 257.155 308.813 257.115 309.2H248.355C248.421 310.28 248.788 311.127 249.455 311.74C250.135 312.34 250.955 312.64 251.915 312.64C252.701 312.64 253.355 312.46 253.875 312.1C254.408 311.727 254.781 311.233 254.995 310.62H256.955C256.661 311.673 256.075 312.533 255.195 313.2C254.315 313.853 253.221 314.18 251.915 314.18C250.875 314.18 249.941 313.947 249.115 313.48C248.301 313.013 247.661 312.353 247.195 311.5C246.728 310.633 246.495 309.633 246.495 308.5C246.495 307.367 246.721 306.373 247.175 305.52C247.628 304.667 248.261 304.013 249.075 303.56C249.901 303.093 250.848 302.86 251.915 302.86C252.955 302.86 253.875 303.087 254.675 303.54C255.475 303.993 256.088 304.62 256.515 305.42C256.955 306.207 257.175 307.1 257.175 308.1ZM255.295 307.72C255.295 307.027 255.141 306.433 254.835 305.94C254.528 305.433 254.108 305.053 253.575 304.8C253.055 304.533 252.475 304.4 251.835 304.4C250.915 304.4 250.128 304.693 249.475 305.28C248.835 305.867 248.468 306.68 248.375 307.72H255.295ZM258.897 308.48C258.897 307.36 259.124 306.38 259.577 305.54C260.03 304.687 260.65 304.027 261.437 303.56C262.237 303.093 263.13 302.86 264.117 302.86C264.97 302.86 265.764 303.06 266.497 303.46C267.23 303.847 267.79 304.36 268.177 305V299.2H270.017V314H268.177V311.94C267.817 312.593 267.284 313.133 266.577 313.56C265.87 313.973 265.044 314.18 264.097 314.18C263.124 314.18 262.237 313.94 261.437 313.46C260.65 312.98 260.03 312.307 259.577 311.44C259.124 310.573 258.897 309.587 258.897 308.48ZM268.177 308.5C268.177 307.673 268.01 306.953 267.677 306.34C267.344 305.727 266.89 305.26 266.317 304.94C265.757 304.607 265.137 304.44 264.457 304.44C263.777 304.44 263.157 304.6 262.597 304.92C262.037 305.24 261.59 305.707 261.257 306.32C260.924 306.933 260.757 307.653 260.757 308.48C260.757 309.32 260.924 310.053 261.257 310.68C261.59 311.293 262.037 311.767 262.597 312.1C263.157 312.42 263.777 312.58 264.457 312.58C265.137 312.58 265.757 312.42 266.317 312.1C266.89 311.767 267.344 311.293 267.677 310.68C268.01 310.053 268.177 309.327 268.177 308.5ZM282.813 303.04V314H280.993V312.38C280.646 312.94 280.159 313.38 279.533 313.7C278.919 314.007 278.239 314.16 277.493 314.16C276.639 314.16 275.873 313.987 275.193 313.64C274.513 313.28 273.973 312.747 273.573 312.04C273.186 311.333 272.993 310.473 272.993 309.46V303.04H274.793V309.22C274.793 310.3 275.066 311.133 275.613 311.72C276.159 312.293 276.906 312.58 277.853 312.58C278.826 312.58 279.593 312.28 280.153 311.68C280.713 311.08 280.993 310.207 280.993 309.06V303.04H282.813ZM285.206 308.5C285.206 307.367 285.432 306.38 285.886 305.54C286.339 304.687 286.966 304.027 287.766 303.56C288.579 303.093 289.506 302.86 290.546 302.86C291.892 302.86 292.999 303.187 293.866 303.84C294.746 304.493 295.326 305.4 295.606 306.56H293.646C293.459 305.893 293.092 305.367 292.546 304.98C292.012 304.593 291.346 304.4 290.546 304.4C289.506 304.4 288.666 304.76 288.026 305.48C287.386 306.187 287.066 307.193 287.066 308.5C287.066 309.82 287.386 310.84 288.026 311.56C288.666 312.28 289.506 312.64 290.546 312.64C291.346 312.64 292.012 312.453 292.546 312.08C293.079 311.707 293.446 311.173 293.646 310.48H295.606C295.312 311.6 294.726 312.5 293.846 313.18C292.966 313.847 291.866 314.18 290.546 314.18C289.506 314.18 288.579 313.947 287.766 313.48C286.966 313.013 286.339 312.353 285.886 311.5C285.432 310.647 285.206 309.647 285.206 308.5ZM308.034 308.1C308.034 308.447 308.014 308.813 307.974 309.2H299.214C299.281 310.28 299.647 311.127 300.314 311.74C300.994 312.34 301.814 312.64 302.774 312.64C303.561 312.64 304.214 312.46 304.734 312.1C305.267 311.727 305.641 311.233 305.854 310.62H307.814C307.521 311.673 306.934 312.533 306.054 313.2C305.174 313.853 304.081 314.18 302.774 314.18C301.734 314.18 300.801 313.947 299.974 313.48C299.161 313.013 298.521 312.353 298.054 311.5C297.587 310.633 297.354 309.633 297.354 308.5C297.354 307.367 297.581 306.373 298.034 305.52C298.487 304.667 299.121 304.013 299.934 303.56C300.761 303.093 301.707 302.86 302.774 302.86C303.814 302.86 304.734 303.087 305.534 303.54C306.334 303.993 306.947 304.62 307.374 305.42C307.814 306.207 308.034 307.1 308.034 308.1ZM306.154 307.72C306.154 307.027 306.001 306.433 305.694 305.94C305.387 305.433 304.967 305.053 304.434 304.8C303.914 304.533 303.334 304.4 302.694 304.4C301.774 304.4 300.987 304.693 300.334 305.28C299.694 305.867 299.327 306.68 299.234 307.72H306.154ZM330.369 303.04L326.949 314H325.069L322.429 305.3L319.789 314H317.909L314.469 303.04H316.329L318.849 312.24L321.569 303.04H323.429L326.089 312.26L328.569 303.04H330.369ZM331.495 308.48C331.495 307.36 331.721 306.38 332.175 305.54C332.628 304.687 333.248 304.027 334.035 303.56C334.835 303.093 335.721 302.86 336.695 302.86C337.655 302.86 338.488 303.067 339.195 303.48C339.901 303.893 340.428 304.413 340.775 305.04V303.04H342.615V314H340.775V311.96C340.415 312.6 339.875 313.133 339.155 313.56C338.448 313.973 337.621 314.18 336.675 314.18C335.701 314.18 334.821 313.94 334.035 313.46C333.248 312.98 332.628 312.307 332.175 311.44C331.721 310.573 331.495 309.587 331.495 308.48ZM340.775 308.5C340.775 307.673 340.608 306.953 340.275 306.34C339.941 305.727 339.488 305.26 338.915 304.94C338.355 304.607 337.735 304.44 337.055 304.44C336.375 304.44 335.755 304.6 335.195 304.92C334.635 305.24 334.188 305.707 333.855 306.32C333.521 306.933 333.355 307.653 333.355 308.48C333.355 309.32 333.521 310.053 333.855 310.68C334.188 311.293 334.635 311.767 335.195 312.1C335.755 312.42 336.375 312.58 337.055 312.58C337.735 312.58 338.355 312.42 338.915 312.1C339.488 311.767 339.941 311.293 340.275 310.68C340.608 310.053 340.775 309.327 340.775 308.5ZM349.57 314.18C348.73 314.18 347.977 314.04 347.31 313.76C346.644 313.467 346.117 313.067 345.73 312.56C345.344 312.04 345.13 311.447 345.09 310.78H346.97C347.024 311.327 347.277 311.773 347.73 312.12C348.197 312.467 348.804 312.64 349.55 312.64C350.244 312.64 350.79 312.487 351.19 312.18C351.59 311.873 351.79 311.487 351.79 311.02C351.79 310.54 351.577 310.187 351.15 309.96C350.724 309.72 350.064 309.487 349.17 309.26C348.357 309.047 347.69 308.833 347.17 308.62C346.664 308.393 346.224 308.067 345.85 307.64C345.49 307.2 345.31 306.627 345.31 305.92C345.31 305.36 345.477 304.847 345.81 304.38C346.144 303.913 346.617 303.547 347.23 303.28C347.844 303 348.544 302.86 349.33 302.86C350.544 302.86 351.524 303.167 352.27 303.78C353.017 304.393 353.417 305.233 353.47 306.3H351.65C351.61 305.727 351.377 305.267 350.95 304.92C350.537 304.573 349.977 304.4 349.27 304.4C348.617 304.4 348.097 304.54 347.71 304.82C347.324 305.1 347.13 305.467 347.13 305.92C347.13 306.28 347.244 306.58 347.47 306.82C347.71 307.047 348.004 307.233 348.35 307.38C348.71 307.513 349.204 307.667 349.83 307.84C350.617 308.053 351.257 308.267 351.75 308.48C352.244 308.68 352.664 308.987 353.01 309.4C353.37 309.813 353.557 310.353 353.57 311.02C353.57 311.62 353.404 312.16 353.07 312.64C352.737 313.12 352.264 313.5 351.65 313.78C351.05 314.047 350.357 314.18 349.57 314.18ZM358.36 304.54V311C358.36 311.533 358.473 311.913 358.7 312.14C358.926 312.353 359.32 312.46 359.88 312.46H361.22V314H359.58C358.566 314 357.806 313.767 357.3 313.3C356.793 312.833 356.54 312.067 356.54 311V304.54H355.12V303.04H356.54V300.28H358.36V303.04H361.22V304.54H358.36ZM373.425 308.1C373.425 308.447 373.405 308.813 373.365 309.2H364.605C364.671 310.28 365.038 311.127 365.705 311.74C366.385 312.34 367.205 312.64 368.165 312.64C368.951 312.64 369.605 312.46 370.125 312.1C370.658 311.727 371.031 311.233 371.245 310.62H373.205C372.911 311.673 372.325 312.533 371.445 313.2C370.565 313.853 369.471 314.18 368.165 314.18C367.125 314.18 366.191 313.947 365.365 313.48C364.551 313.013 363.911 312.353 363.445 311.5C362.978 310.633 362.745 309.633 362.745 308.5C362.745 307.367 362.971 306.373 363.425 305.52C363.878 304.667 364.511 304.013 365.325 303.56C366.151 303.093 367.098 302.86 368.165 302.86C369.205 302.86 370.125 303.087 370.925 303.54C371.725 303.993 372.338 304.62 372.765 305.42C373.205 306.207 373.425 307.1 373.425 308.1ZM371.545 307.72C371.545 307.027 371.391 306.433 371.085 305.94C370.778 305.433 370.358 305.053 369.825 304.8C369.305 304.533 368.725 304.4 368.085 304.4C367.165 304.4 366.378 304.693 365.725 305.28C365.085 305.867 364.718 306.68 364.625 307.72H371.545ZM380.287 304.54H377.987V314H376.167V304.54H374.747V303.04H376.167V302.26C376.167 301.033 376.48 300.14 377.107 299.58C377.747 299.007 378.767 298.72 380.167 298.72V300.24C379.367 300.24 378.8 300.4 378.467 300.72C378.147 301.027 377.987 301.54 377.987 302.26V303.04H380.287V304.54ZM392.129 303.04V314H390.309V312.38C389.962 312.94 389.476 313.38 388.849 313.7C388.236 314.007 387.556 314.16 386.809 314.16C385.956 314.16 385.189 313.987 384.509 313.64C383.829 313.28 383.289 312.747 382.889 312.04C382.502 311.333 382.309 310.473 382.309 309.46V303.04H384.109V309.22C384.109 310.3 384.382 311.133 384.929 311.72C385.476 312.293 386.222 312.58 387.169 312.58C388.142 312.58 388.909 312.28 389.469 311.68C390.029 311.08 390.309 310.207 390.309 309.06V303.04H392.129ZM397.022 299.2V314H395.202V299.2H397.022ZM198.867 344.18C198.027 344.18 197.274 344.04 196.607 343.76C195.941 343.467 195.414 343.067 195.027 342.56C194.641 342.04 194.427 341.447 194.387 340.78H196.267C196.321 341.327 196.574 341.773 197.027 342.12C197.494 342.467 198.101 342.64 198.847 342.64C199.541 342.64 200.087 342.487 200.487 342.18C200.887 341.873 201.087 341.487 201.087 341.02C201.087 340.54 200.874 340.187 200.447 339.96C200.021 339.72 199.361 339.487 198.467 339.26C197.654 339.047 196.987 338.833 196.467 338.62C195.961 338.393 195.521 338.067 195.147 337.64C194.787 337.2 194.607 336.627 194.607 335.92C194.607 335.36 194.774 334.847 195.107 334.38C195.441 333.913 195.914 333.547 196.527 333.28C197.141 333 197.841 332.86 198.627 332.86C199.841 332.86 200.821 333.167 201.567 333.78C202.314 334.393 202.714 335.233 202.767 336.3H200.947C200.907 335.727 200.674 335.267 200.247 334.92C199.834 334.573 199.274 334.4 198.567 334.4C197.914 334.4 197.394 334.54 197.007 334.82C196.621 335.1 196.427 335.467 196.427 335.92C196.427 336.28 196.541 336.58 196.767 336.82C197.007 337.047 197.301 337.233 197.647 337.38C198.007 337.513 198.501 337.667 199.127 337.84C199.914 338.053 200.554 338.267 201.047 338.48C201.541 338.68 201.961 338.987 202.307 339.4C202.667 339.813 202.854 340.353 202.867 341.02C202.867 341.62 202.701 342.16 202.367 342.64C202.034 343.12 201.561 343.5 200.947 343.78C200.347 344.047 199.654 344.18 198.867 344.18ZM207.256 335.06C207.616 334.433 208.15 333.913 208.856 333.5C209.576 333.073 210.41 332.86 211.356 332.86C212.33 332.86 213.21 333.093 213.996 333.56C214.796 334.027 215.423 334.687 215.876 335.54C216.33 336.38 216.556 337.36 216.556 338.48C216.556 339.587 216.33 340.573 215.876 341.44C215.423 342.307 214.796 342.98 213.996 343.46C213.21 343.94 212.33 344.18 211.356 344.18C210.423 344.18 209.596 343.973 208.876 343.56C208.17 343.133 207.63 342.607 207.256 341.98V349.2H205.436V333.04H207.256V335.06ZM214.696 338.48C214.696 337.653 214.53 336.933 214.196 336.32C213.863 335.707 213.41 335.24 212.836 334.92C212.276 334.6 211.656 334.44 210.976 334.44C210.31 334.44 209.69 334.607 209.116 334.94C208.556 335.26 208.103 335.733 207.756 336.36C207.423 336.973 207.256 337.687 207.256 338.5C207.256 339.327 207.423 340.053 207.756 340.68C208.103 341.293 208.556 341.767 209.116 342.1C209.69 342.42 210.31 342.58 210.976 342.58C211.656 342.58 212.276 342.42 212.836 342.1C213.41 341.767 213.863 341.293 214.196 340.68C214.53 340.053 214.696 339.32 214.696 338.48ZM228.952 338.1C228.952 338.447 228.932 338.813 228.892 339.2H220.132C220.199 340.28 220.565 341.127 221.232 341.74C221.912 342.34 222.732 342.64 223.692 342.64C224.479 342.64 225.132 342.46 225.652 342.1C226.185 341.727 226.559 341.233 226.772 340.62H228.732C228.439 341.673 227.852 342.533 226.972 343.2C226.092 343.853 224.999 344.18 223.692 344.18C222.652 344.18 221.719 343.947 220.892 343.48C220.079 343.013 219.439 342.353 218.972 341.5C218.505 340.633 218.272 339.633 218.272 338.5C218.272 337.367 218.499 336.373 218.952 335.52C219.405 334.667 220.039 334.013 220.852 333.56C221.679 333.093 222.625 332.86 223.692 332.86C224.732 332.86 225.652 333.087 226.452 333.54C227.252 333.993 227.865 334.62 228.292 335.42C228.732 336.207 228.952 337.1 228.952 338.1ZM227.072 337.72C227.072 337.027 226.919 336.433 226.612 335.94C226.305 335.433 225.885 335.053 225.352 334.8C224.832 334.533 224.252 334.4 223.612 334.4C222.692 334.4 221.905 334.693 221.252 335.28C220.612 335.867 220.245 336.68 220.152 337.72H227.072ZM236.694 332.84C238.028 332.84 239.108 333.247 239.934 334.06C240.761 334.86 241.174 336.02 241.174 337.54V344H239.374V337.8C239.374 336.707 239.101 335.873 238.554 335.3C238.008 334.713 237.261 334.42 236.314 334.42C235.354 334.42 234.588 334.72 234.014 335.32C233.454 335.92 233.174 336.793 233.174 337.94V344H231.354V333.04H233.174V334.6C233.534 334.04 234.021 333.607 234.634 333.3C235.261 332.993 235.948 332.84 236.694 332.84ZM243.467 338.48C243.467 337.36 243.694 336.38 244.147 335.54C244.601 334.687 245.221 334.027 246.007 333.56C246.807 333.093 247.701 332.86 248.687 332.86C249.541 332.86 250.334 333.06 251.067 333.46C251.801 333.847 252.361 334.36 252.747 335V329.2H254.587V344H252.747V341.94C252.387 342.593 251.854 343.133 251.147 343.56C250.441 343.973 249.614 344.18 248.667 344.18C247.694 344.18 246.807 343.94 246.007 343.46C245.221 342.98 244.601 342.307 244.147 341.44C243.694 340.573 243.467 339.587 243.467 338.48ZM252.747 338.5C252.747 337.673 252.581 336.953 252.247 336.34C251.914 335.727 251.461 335.26 250.887 334.94C250.327 334.607 249.707 334.44 249.027 334.44C248.347 334.44 247.727 334.6 247.167 334.92C246.607 335.24 246.161 335.707 245.827 336.32C245.494 336.933 245.327 337.653 245.327 338.48C245.327 339.32 245.494 340.053 245.827 340.68C246.161 341.293 246.607 341.767 247.167 342.1C247.727 342.42 248.347 342.58 249.027 342.58C249.707 342.58 250.327 342.42 250.887 342.1C251.461 341.767 251.914 341.293 252.247 340.68C252.581 340.053 252.747 339.327 252.747 338.5ZM258.603 331.26C258.256 331.26 257.963 331.14 257.723 330.9C257.483 330.66 257.363 330.367 257.363 330.02C257.363 329.673 257.483 329.38 257.723 329.14C257.963 328.9 258.256 328.78 258.603 328.78C258.936 328.78 259.216 328.9 259.443 329.14C259.683 329.38 259.803 329.673 259.803 330.02C259.803 330.367 259.683 330.66 259.443 330.9C259.216 331.14 258.936 331.26 258.603 331.26ZM259.483 333.04V344H257.663V333.04H259.483ZM267.925 332.84C269.258 332.84 270.338 333.247 271.165 334.06C271.992 334.86 272.405 336.02 272.405 337.54V344H270.605V337.8C270.605 336.707 270.332 335.873 269.785 335.3C269.238 334.713 268.492 334.42 267.545 334.42C266.585 334.42 265.818 334.72 265.245 335.32C264.685 335.92 264.405 336.793 264.405 337.94V344H262.585V333.04H264.405V334.6C264.765 334.04 265.252 333.607 265.865 333.3C266.492 332.993 267.178 332.84 267.925 332.84ZM279.898 332.86C280.845 332.86 281.671 333.067 282.378 333.48C283.098 333.893 283.631 334.413 283.978 335.04V333.04H285.818V344.24C285.818 345.24 285.605 346.127 285.178 346.9C284.751 347.687 284.138 348.3 283.338 348.74C282.551 349.18 281.631 349.4 280.578 349.4C279.138 349.4 277.938 349.06 276.978 348.38C276.018 347.7 275.451 346.773 275.278 345.6H277.078C277.278 346.267 277.691 346.8 278.318 347.2C278.945 347.613 279.698 347.82 280.578 347.82C281.578 347.82 282.391 347.507 283.018 346.88C283.658 346.253 283.978 345.373 283.978 344.24V341.94C283.618 342.58 283.085 343.113 282.378 343.54C281.671 343.967 280.845 344.18 279.898 344.18C278.925 344.18 278.038 343.94 277.238 343.46C276.451 342.98 275.831 342.307 275.378 341.44C274.925 340.573 274.698 339.587 274.698 338.48C274.698 337.36 274.925 336.38 275.378 335.54C275.831 334.687 276.451 334.027 277.238 333.56C278.038 333.093 278.925 332.86 279.898 332.86ZM283.978 338.5C283.978 337.673 283.811 336.953 283.478 336.34C283.145 335.727 282.691 335.26 282.118 334.94C281.558 334.607 280.938 334.44 280.258 334.44C279.578 334.44 278.958 334.6 278.398 334.92C277.838 335.24 277.391 335.707 277.058 336.32C276.725 336.933 276.558 337.653 276.558 338.48C276.558 339.32 276.725 340.053 277.058 340.68C277.391 341.293 277.838 341.767 278.398 342.1C278.958 342.42 279.578 342.58 280.258 342.58C280.938 342.58 281.558 342.42 282.118 342.1C282.691 341.767 283.145 341.293 283.478 340.68C283.811 340.053 283.978 339.327 283.978 338.5ZM289.474 344.12C289.127 344.12 288.834 344 288.594 343.76C288.354 343.52 288.234 343.227 288.234 342.88C288.234 342.533 288.354 342.24 288.594 342C288.834 341.76 289.127 341.64 289.474 341.64C289.807 341.64 290.087 341.76 290.314 342C290.554 342.24 290.674 342.533 290.674 342.88C290.674 343.227 290.554 343.52 290.314 343.76C290.087 344 289.807 344.12 289.474 344.12Z" fill="black"/>
<circle cx="242.053" cy="70.0006" r="48.3605" fill="white"/>
<path d="M239.045 80.4266H245.762C247.543 80.4266 249.252 79.719 250.511 78.4593C251.771 77.1997 252.479 75.4913 252.479 73.7099C252.479 71.9285 251.771 70.2201 250.511 68.9605C249.252 67.7008 247.543 66.9932 245.762 66.9932H235.687C233.672 66.9932 231.993 67.6648 230.985 69.0082L212.178 87.1434" stroke="#2E3192" stroke-width="3" stroke-linecap="round" stroke-linejoin="round"/>
<path d="M225.612 100.577L230.985 95.8753C231.993 94.532 233.672 93.8603 235.687 93.8603H249.12C252.815 93.8603 256.173 92.5169 258.524 89.8302L273.972 75.0534C275.268 73.8287 276.025 72.1394 276.075 70.357C276.125 68.5746 275.466 66.8452 274.241 65.5492C273.016 64.2533 271.327 63.4969 269.545 63.4465C267.762 63.3962 266.033 64.0559 264.737 65.2806L250.632 78.3782" stroke="#2E3192" stroke-width="3" stroke-linecap="round" stroke-linejoin="round"/>
<path d="M208.82 83.7852L228.97 103.935" stroke="#2E3192" stroke-width="3" stroke-linecap="round" stroke-linejoin="round"/>
<path d="M255.837 70.0156C261.216 70.0156 265.576 65.6552 265.576 60.2764C265.576 54.8975 261.216 50.5371 255.837 50.5371C250.458 50.5371 246.098 54.8975 246.098 60.2764C246.098 65.6552 250.458 70.0156 255.837 70.0156Z" stroke="#2E3192" stroke-width="3" stroke-linecap="round" stroke-linejoin="round"/>
<path d="M222.253 56.9183C227.818 56.9183 232.328 52.4075 232.328 46.8432C232.328 41.2788 227.818 36.7681 222.253 36.7681C216.689 36.7681 212.178 41.2788 212.178 46.8432C212.178 52.4075 216.689 56.9183 222.253 56.9183Z" stroke="#2E3192" stroke-width="3" stroke-linecap="round" stroke-linejoin="round"/>
</svg>
