<svg width="483" height="376" viewBox="0 0 483 376" fill="none" xmlns="http://www.w3.org/2000/svg">
<rect width="483" height="376" rx="60" fill="#EAEAF4"/>
<path d="M166.474 143.344V147.18H161.266V163H156.478V147.18H151.27V143.344H166.474ZM173.665 149.98C174.225 149.121 174.925 148.449 175.765 147.964C176.605 147.46 177.538 147.208 178.565 147.208V152.276H177.249C176.054 152.276 175.158 152.537 174.561 153.06C173.963 153.564 173.665 154.46 173.665 155.748V163H168.877V147.376H173.665V149.98ZM195.581 154.936C195.581 155.384 195.553 155.851 195.497 156.336H184.661C184.736 157.307 185.044 158.053 185.585 158.576C186.145 159.08 186.827 159.332 187.629 159.332C188.824 159.332 189.655 158.828 190.121 157.82H195.217C194.956 158.847 194.48 159.771 193.789 160.592C193.117 161.413 192.268 162.057 191.241 162.524C190.215 162.991 189.067 163.224 187.797 163.224C186.267 163.224 184.904 162.897 183.709 162.244C182.515 161.591 181.581 160.657 180.909 159.444C180.237 158.231 179.901 156.812 179.901 155.188C179.901 153.564 180.228 152.145 180.881 150.932C181.553 149.719 182.487 148.785 183.681 148.132C184.876 147.479 186.248 147.152 187.797 147.152C189.309 147.152 190.653 147.469 191.829 148.104C193.005 148.739 193.92 149.644 194.573 150.82C195.245 151.996 195.581 153.368 195.581 154.936ZM190.681 153.676C190.681 152.855 190.401 152.201 189.841 151.716C189.281 151.231 188.581 150.988 187.741 150.988C186.939 150.988 186.257 151.221 185.697 151.688C185.156 152.155 184.82 152.817 184.689 153.676H190.681ZM207.627 147.208C209.456 147.208 210.912 147.805 211.995 149C213.096 150.176 213.647 151.8 213.647 153.872V163H208.887V154.516C208.887 153.471 208.616 152.659 208.075 152.08C207.534 151.501 206.806 151.212 205.891 151.212C204.976 151.212 204.248 151.501 203.707 152.08C203.166 152.659 202.895 153.471 202.895 154.516V163H198.107V147.376H202.895V149.448C203.38 148.757 204.034 148.216 204.855 147.824C205.676 147.413 206.6 147.208 207.627 147.208ZM216.022 155.16C216.022 153.555 216.321 152.145 216.918 150.932C217.534 149.719 218.365 148.785 219.41 148.132C220.456 147.479 221.622 147.152 222.91 147.152C223.937 147.152 224.87 147.367 225.71 147.796C226.569 148.225 227.241 148.804 227.726 149.532V142.28H232.514V163H227.726V160.76C227.278 161.507 226.634 162.104 225.794 162.552C224.973 163 224.012 163.224 222.91 163.224C221.622 163.224 220.456 162.897 219.41 162.244C218.365 161.572 217.534 160.629 216.918 159.416C216.321 158.184 216.022 156.765 216.022 155.16ZM227.726 155.188C227.726 153.993 227.39 153.051 226.718 152.36C226.065 151.669 225.262 151.324 224.31 151.324C223.358 151.324 222.546 151.669 221.874 152.36C221.221 153.032 220.894 153.965 220.894 155.16C220.894 156.355 221.221 157.307 221.874 158.016C222.546 158.707 223.358 159.052 224.31 159.052C225.262 159.052 226.065 158.707 226.718 158.016C227.39 157.325 227.726 156.383 227.726 155.188ZM249.276 143.344C251.348 143.344 253.158 143.755 254.708 144.576C256.257 145.397 257.452 146.555 258.292 148.048C259.15 149.523 259.58 151.231 259.58 153.172C259.58 155.095 259.15 156.803 258.292 158.296C257.452 159.789 256.248 160.947 254.68 161.768C253.13 162.589 251.329 163 249.276 163H241.912V143.344H249.276ZM248.968 158.856C250.778 158.856 252.188 158.361 253.196 157.372C254.204 156.383 254.708 154.983 254.708 153.172C254.708 151.361 254.204 149.952 253.196 148.944C252.188 147.936 250.778 147.432 248.968 147.432H246.7V158.856H248.968ZM267.044 149.98C267.604 149.121 268.304 148.449 269.144 147.964C269.984 147.46 270.917 147.208 271.944 147.208V152.276H270.628C269.433 152.276 268.537 152.537 267.94 153.06C267.342 153.564 267.044 154.46 267.044 155.748V163H262.256V147.376H267.044V149.98ZM276.64 145.752C275.8 145.752 275.109 145.509 274.568 145.024C274.045 144.52 273.784 143.904 273.784 143.176C273.784 142.429 274.045 141.813 274.568 141.328C275.109 140.824 275.8 140.572 276.64 140.572C277.461 140.572 278.133 140.824 278.656 141.328C279.197 141.813 279.468 142.429 279.468 143.176C279.468 143.904 279.197 144.52 278.656 145.024C278.133 145.509 277.461 145.752 276.64 145.752ZM279.02 147.376V163H274.232V147.376H279.02ZM289.518 158.52L292.906 147.376H298.002L292.458 163H286.55L281.006 147.376H286.13L289.518 158.52ZM314.745 154.936C314.745 155.384 314.717 155.851 314.661 156.336H303.825C303.9 157.307 304.208 158.053 304.749 158.576C305.309 159.08 305.991 159.332 306.793 159.332C307.988 159.332 308.819 158.828 309.285 157.82H314.381C314.12 158.847 313.644 159.771 312.953 160.592C312.281 161.413 311.432 162.057 310.405 162.524C309.379 162.991 308.231 163.224 306.961 163.224C305.431 163.224 304.068 162.897 302.873 162.244C301.679 161.591 300.745 160.657 300.073 159.444C299.401 158.231 299.065 156.812 299.065 155.188C299.065 153.564 299.392 152.145 300.045 150.932C300.717 149.719 301.651 148.785 302.845 148.132C304.04 147.479 305.412 147.152 306.961 147.152C308.473 147.152 309.817 147.469 310.993 148.104C312.169 148.739 313.084 149.644 313.737 150.82C314.409 151.996 314.745 153.368 314.745 154.936ZM309.845 153.676C309.845 152.855 309.565 152.201 309.005 151.716C308.445 151.231 307.745 150.988 306.905 150.988C306.103 150.988 305.421 151.221 304.861 151.688C304.32 152.155 303.984 152.817 303.853 153.676H309.845ZM326.791 147.208C328.62 147.208 330.076 147.805 331.159 149C332.26 150.176 332.811 151.8 332.811 153.872V163H328.051V154.516C328.051 153.471 327.78 152.659 327.239 152.08C326.698 151.501 325.97 151.212 325.055 151.212C324.14 151.212 323.412 151.501 322.871 152.08C322.33 152.659 322.059 153.471 322.059 154.516V163H317.271V147.376H322.059V149.448C322.544 148.757 323.198 148.216 324.019 147.824C324.84 147.413 325.764 147.208 326.791 147.208ZM158.786 205.196C156.938 205.196 155.239 204.767 153.69 203.908C152.159 203.049 150.937 201.855 150.022 200.324C149.126 198.775 148.678 197.039 148.678 195.116C148.678 193.193 149.126 191.467 150.022 189.936C150.937 188.405 152.159 187.211 153.69 186.352C155.239 185.493 156.938 185.064 158.786 185.064C160.634 185.064 162.323 185.493 163.854 186.352C165.403 187.211 166.617 188.405 167.494 189.936C168.39 191.467 168.838 193.193 168.838 195.116C168.838 197.039 168.39 198.775 167.494 200.324C166.598 201.855 165.385 203.049 163.854 203.908C162.323 204.767 160.634 205.196 158.786 205.196ZM158.786 200.828C160.354 200.828 161.605 200.305 162.538 199.26C163.49 198.215 163.966 196.833 163.966 195.116C163.966 193.38 163.49 191.999 162.538 190.972C161.605 189.927 160.354 189.404 158.786 189.404C157.199 189.404 155.93 189.917 154.978 190.944C154.045 191.971 153.578 193.361 153.578 195.116C153.578 196.852 154.045 198.243 154.978 199.288C155.93 200.315 157.199 200.828 158.786 200.828ZM176.29 191.588C176.756 190.86 177.4 190.272 178.222 189.824C179.043 189.376 180.004 189.152 181.106 189.152C182.394 189.152 183.56 189.479 184.606 190.132C185.651 190.785 186.472 191.719 187.07 192.932C187.686 194.145 187.994 195.555 187.994 197.16C187.994 198.765 187.686 200.184 187.07 201.416C186.472 202.629 185.651 203.572 184.606 204.244C183.56 204.897 182.394 205.224 181.106 205.224C180.023 205.224 179.062 205 178.222 204.552C177.4 204.104 176.756 203.525 176.29 202.816V212.448H171.502V189.376H176.29V191.588ZM183.122 197.16C183.122 195.965 182.786 195.032 182.114 194.36C181.46 193.669 180.648 193.324 179.678 193.324C178.726 193.324 177.914 193.669 177.242 194.36C176.588 195.051 176.262 195.993 176.262 197.188C176.262 198.383 176.588 199.325 177.242 200.016C177.914 200.707 178.726 201.052 179.678 201.052C180.63 201.052 181.442 200.707 182.114 200.016C182.786 199.307 183.122 198.355 183.122 197.16ZM199.214 200.94V205H196.778C195.042 205 193.688 204.58 192.718 203.74C191.747 202.881 191.262 201.491 191.262 199.568V193.352H189.358V189.376H191.262V185.568H196.05V189.376H199.186V193.352H196.05V199.624C196.05 200.091 196.162 200.427 196.386 200.632C196.61 200.837 196.983 200.94 197.506 200.94H199.214ZM204.289 187.752C203.449 187.752 202.758 187.509 202.217 187.024C201.694 186.52 201.433 185.904 201.433 185.176C201.433 184.429 201.694 183.813 202.217 183.328C202.758 182.824 203.449 182.572 204.289 182.572C205.11 182.572 205.782 182.824 206.305 183.328C206.846 183.813 207.117 184.429 207.117 185.176C207.117 185.904 206.846 186.52 206.305 187.024C205.782 187.509 205.11 187.752 204.289 187.752ZM206.669 189.376V205H201.881V189.376H206.669ZM230.074 189.208C232.016 189.208 233.556 189.796 234.694 190.972C235.852 192.148 236.43 193.781 236.43 195.872V205H231.67V196.516C231.67 195.508 231.4 194.733 230.858 194.192C230.336 193.632 229.608 193.352 228.674 193.352C227.741 193.352 227.004 193.632 226.462 194.192C225.94 194.733 225.678 195.508 225.678 196.516V205H220.918V196.516C220.918 195.508 220.648 194.733 220.106 194.192C219.584 193.632 218.856 193.352 217.922 193.352C216.989 193.352 216.252 193.632 215.71 194.192C215.188 194.733 214.926 195.508 214.926 196.516V205H210.138V189.376H214.926V191.336C215.412 190.683 216.046 190.169 216.83 189.796C217.614 189.404 218.501 189.208 219.49 189.208C220.666 189.208 221.712 189.46 222.626 189.964C223.56 190.468 224.288 191.187 224.81 192.12C225.352 191.261 226.089 190.561 227.022 190.02C227.956 189.479 228.973 189.208 230.074 189.208ZM242.187 187.752C241.347 187.752 240.656 187.509 240.115 187.024C239.592 186.52 239.331 185.904 239.331 185.176C239.331 184.429 239.592 183.813 240.115 183.328C240.656 182.824 241.347 182.572 242.187 182.572C243.008 182.572 243.68 182.824 244.203 183.328C244.744 183.813 245.015 184.429 245.015 185.176C245.015 185.904 244.744 186.52 244.203 187.024C243.68 187.509 243.008 187.752 242.187 187.752ZM244.567 189.376V205H239.779V189.376H244.567ZM254.393 205.224C253.03 205.224 251.817 204.991 250.753 204.524C249.689 204.057 248.849 203.423 248.233 202.62C247.617 201.799 247.271 200.884 247.197 199.876H251.929C251.985 200.417 252.237 200.856 252.685 201.192C253.133 201.528 253.683 201.696 254.337 201.696C254.934 201.696 255.391 201.584 255.709 201.36C256.045 201.117 256.213 200.809 256.213 200.436C256.213 199.988 255.979 199.661 255.513 199.456C255.046 199.232 254.29 198.989 253.245 198.728C252.125 198.467 251.191 198.196 250.445 197.916C249.698 197.617 249.054 197.16 248.513 196.544C247.971 195.909 247.701 195.06 247.701 193.996C247.701 193.1 247.943 192.288 248.429 191.56C248.933 190.813 249.661 190.225 250.613 189.796C251.583 189.367 252.731 189.152 254.057 189.152C256.017 189.152 257.557 189.637 258.677 190.608C259.815 191.579 260.469 192.867 260.637 194.472H256.213C256.138 193.931 255.895 193.501 255.485 193.184C255.093 192.867 254.57 192.708 253.917 192.708C253.357 192.708 252.927 192.82 252.629 193.044C252.33 193.249 252.181 193.539 252.181 193.912C252.181 194.36 252.414 194.696 252.881 194.92C253.366 195.144 254.113 195.368 255.121 195.592C256.278 195.891 257.221 196.189 257.949 196.488C258.677 196.768 259.311 197.235 259.853 197.888C260.413 198.523 260.702 199.381 260.721 200.464C260.721 201.379 260.459 202.2 259.937 202.928C259.433 203.637 258.695 204.197 257.725 204.608C256.773 205.019 255.662 205.224 254.393 205.224ZM262.698 197.16C262.698 195.555 262.997 194.145 263.594 192.932C264.21 191.719 265.041 190.785 266.086 190.132C267.131 189.479 268.298 189.152 269.586 189.152C270.687 189.152 271.649 189.376 272.47 189.824C273.31 190.272 273.954 190.86 274.402 191.588V189.376H279.19V205H274.402V202.788C273.935 203.516 273.282 204.104 272.442 204.552C271.621 205 270.659 205.224 269.558 205.224C268.289 205.224 267.131 204.897 266.086 204.244C265.041 203.572 264.21 202.629 263.594 201.416C262.997 200.184 262.698 198.765 262.698 197.16ZM274.402 197.188C274.402 195.993 274.066 195.051 273.394 194.36C272.741 193.669 271.938 193.324 270.986 193.324C270.034 193.324 269.222 193.669 268.55 194.36C267.897 195.032 267.57 195.965 267.57 197.16C267.57 198.355 267.897 199.307 268.55 200.016C269.222 200.707 270.034 201.052 270.986 201.052C271.938 201.052 272.741 200.707 273.394 200.016C274.066 199.325 274.402 198.383 274.402 197.188ZM291.362 200.94V205H288.926C287.19 205 285.837 204.58 284.866 203.74C283.895 202.881 283.41 201.491 283.41 199.568V193.352H281.506V189.376H283.41V185.568H288.198V189.376H291.334V193.352H288.198V199.624C288.198 200.091 288.31 200.427 288.534 200.632C288.758 200.837 289.131 200.94 289.654 200.94H291.362ZM296.437 187.752C295.597 187.752 294.906 187.509 294.365 187.024C293.842 186.52 293.581 185.904 293.581 185.176C293.581 184.429 293.842 183.813 294.365 183.328C294.906 182.824 295.597 182.572 296.437 182.572C297.258 182.572 297.93 182.824 298.453 183.328C298.994 183.813 299.265 184.429 299.265 185.176C299.265 185.904 298.994 186.52 298.453 187.024C297.93 187.509 297.258 187.752 296.437 187.752ZM298.817 189.376V205H294.029V189.376H298.817ZM309.399 205.224C307.868 205.224 306.487 204.897 305.255 204.244C304.041 203.591 303.08 202.657 302.371 201.444C301.68 200.231 301.335 198.812 301.335 197.188C301.335 195.583 301.689 194.173 302.399 192.96C303.108 191.728 304.079 190.785 305.311 190.132C306.543 189.479 307.924 189.152 309.455 189.152C310.985 189.152 312.367 189.479 313.599 190.132C314.831 190.785 315.801 191.728 316.511 192.96C317.22 194.173 317.575 195.583 317.575 197.188C317.575 198.793 317.211 200.212 316.483 201.444C315.773 202.657 314.793 203.591 313.543 204.244C312.311 204.897 310.929 205.224 309.399 205.224ZM309.399 201.08C310.313 201.08 311.088 200.744 311.723 200.072C312.376 199.4 312.703 198.439 312.703 197.188C312.703 195.937 312.385 194.976 311.751 194.304C311.135 193.632 310.369 193.296 309.455 193.296C308.521 193.296 307.747 193.632 307.131 194.304C306.515 194.957 306.207 195.919 306.207 197.188C306.207 198.439 306.505 199.4 307.103 200.072C307.719 200.744 308.484 201.08 309.399 201.08ZM329.635 189.208C331.464 189.208 332.92 189.805 334.003 191C335.104 192.176 335.655 193.8 335.655 195.872V205H330.895V196.516C330.895 195.471 330.624 194.659 330.083 194.08C329.542 193.501 328.814 193.212 327.899 193.212C326.984 193.212 326.256 193.501 325.715 194.08C325.174 194.659 324.903 195.471 324.903 196.516V205H320.115V189.376H324.903V191.448C325.388 190.757 326.042 190.216 326.863 189.824C327.684 189.413 328.608 189.208 329.635 189.208Z" fill="black"/>
<path d="M80.8427 240.06V241.54H77.0427V254H75.2227V241.54H71.4027V240.06H80.8427ZM84.903 244.82C85.223 244.193 85.6763 243.707 86.263 243.36C86.863 243.013 87.5896 242.84 88.443 242.84V244.72H87.963C85.923 244.72 84.903 245.827 84.903 248.04V254H83.083V243.04H84.903V244.82ZM89.8639 248.48C89.8639 247.36 90.0906 246.38 90.5439 245.54C90.9972 244.687 91.6172 244.027 92.4039 243.56C93.2039 243.093 94.0906 242.86 95.0639 242.86C96.0239 242.86 96.8572 243.067 97.5639 243.48C98.2706 243.893 98.7972 244.413 99.1439 245.04V243.04H100.984V254H99.1439V251.96C98.7839 252.6 98.2439 253.133 97.5239 253.56C96.8172 253.973 95.9906 254.18 95.0439 254.18C94.0706 254.18 93.1906 253.94 92.4039 253.46C91.6172 252.98 90.9972 252.307 90.5439 251.44C90.0906 250.573 89.8639 249.587 89.8639 248.48ZM99.1439 248.5C99.1439 247.673 98.9772 246.953 98.6439 246.34C98.3106 245.727 97.8572 245.26 97.2839 244.94C96.7239 244.607 96.1039 244.44 95.4239 244.44C94.7439 244.44 94.1239 244.6 93.5639 244.92C93.0039 245.24 92.5572 245.707 92.2239 246.32C91.8906 246.933 91.7239 247.653 91.7239 248.48C91.7239 249.32 91.8906 250.053 92.2239 250.68C92.5572 251.293 93.0039 251.767 93.5639 252.1C94.1239 252.42 94.7439 252.58 95.4239 252.58C96.1039 252.58 96.7239 252.42 97.2839 252.1C97.8572 251.767 98.3106 251.293 98.6439 250.68C98.9772 250.053 99.1439 249.327 99.1439 248.5ZM103.38 248.5C103.38 247.367 103.606 246.38 104.06 245.54C104.513 244.687 105.14 244.027 105.94 243.56C106.753 243.093 107.68 242.86 108.72 242.86C110.066 242.86 111.173 243.187 112.04 243.84C112.92 244.493 113.5 245.4 113.78 246.56H111.82C111.633 245.893 111.266 245.367 110.72 244.98C110.186 244.593 109.52 244.4 108.72 244.4C107.68 244.4 106.84 244.76 106.2 245.48C105.56 246.187 105.24 247.193 105.24 248.5C105.24 249.82 105.56 250.84 106.2 251.56C106.84 252.28 107.68 252.64 108.72 252.64C109.52 252.64 110.186 252.453 110.72 252.08C111.253 251.707 111.62 251.173 111.82 250.48H113.78C113.486 251.6 112.9 252.5 112.02 253.18C111.14 253.847 110.04 254.18 108.72 254.18C107.68 254.18 106.753 253.947 105.94 253.48C105.14 253.013 104.513 252.353 104.06 251.5C103.606 250.647 103.38 249.647 103.38 248.5ZM122.328 254L118.028 249.16V254H116.208V239.2H118.028V247.9L122.248 243.04H124.788L119.628 248.5L124.808 254H122.328ZM141.833 248.1C141.833 248.447 141.813 248.813 141.773 249.2H133.013C133.08 250.28 133.446 251.127 134.113 251.74C134.793 252.34 135.613 252.64 136.573 252.64C137.36 252.64 138.013 252.46 138.533 252.1C139.066 251.727 139.44 251.233 139.653 250.62H141.613C141.32 251.673 140.733 252.533 139.853 253.2C138.973 253.853 137.88 254.18 136.573 254.18C135.533 254.18 134.6 253.947 133.773 253.48C132.96 253.013 132.32 252.353 131.853 251.5C131.386 250.633 131.153 249.633 131.153 248.5C131.153 247.367 131.38 246.373 131.833 245.52C132.286 244.667 132.92 244.013 133.733 243.56C134.56 243.093 135.506 242.86 136.573 242.86C137.613 242.86 138.533 243.087 139.333 243.54C140.133 243.993 140.746 244.62 141.173 245.42C141.613 246.207 141.833 247.1 141.833 248.1ZM139.953 247.72C139.953 247.027 139.8 246.433 139.493 245.94C139.186 245.433 138.766 245.053 138.233 244.8C137.713 244.533 137.133 244.4 136.493 244.4C135.573 244.4 134.786 244.693 134.133 245.28C133.493 245.867 133.126 246.68 133.033 247.72H139.953ZM148.315 252.32L151.715 243.04H153.655L149.355 254H147.235L142.935 243.04H144.895L148.315 252.32ZM160.226 254.18C159.2 254.18 158.266 253.947 157.426 253.48C156.6 253.013 155.946 252.353 155.466 251.5C155 250.633 154.766 249.633 154.766 248.5C154.766 247.38 155.006 246.393 155.486 245.54C155.98 244.673 156.646 244.013 157.486 243.56C158.326 243.093 159.266 242.86 160.306 242.86C161.346 242.86 162.286 243.093 163.126 243.56C163.966 244.013 164.626 244.667 165.106 245.52C165.6 246.373 165.846 247.367 165.846 248.5C165.846 249.633 165.593 250.633 165.086 251.5C164.593 252.353 163.92 253.013 163.066 253.48C162.213 253.947 161.266 254.18 160.226 254.18ZM160.226 252.58C160.88 252.58 161.493 252.427 162.066 252.12C162.64 251.813 163.1 251.353 163.446 250.74C163.806 250.127 163.986 249.38 163.986 248.5C163.986 247.62 163.813 246.873 163.466 246.26C163.12 245.647 162.666 245.193 162.106 244.9C161.546 244.593 160.94 244.44 160.286 244.44C159.62 244.44 159.006 244.593 158.446 244.9C157.9 245.193 157.46 245.647 157.126 246.26C156.793 246.873 156.626 247.62 156.626 248.5C156.626 249.393 156.786 250.147 157.106 250.76C157.44 251.373 157.88 251.833 158.426 252.14C158.973 252.433 159.573 252.58 160.226 252.58ZM170.059 239.2V254H168.239V239.2H170.059ZM177.241 252.32L180.641 243.04H182.581L178.281 254H176.161L171.861 243.04H173.821L177.241 252.32ZM185.312 241.26C184.965 241.26 184.672 241.14 184.432 240.9C184.192 240.66 184.072 240.367 184.072 240.02C184.072 239.673 184.192 239.38 184.432 239.14C184.672 238.9 184.965 238.78 185.312 238.78C185.645 238.78 185.925 238.9 186.152 239.14C186.392 239.38 186.512 239.673 186.512 240.02C186.512 240.367 186.392 240.66 186.152 240.9C185.925 241.14 185.645 241.26 185.312 241.26ZM186.192 243.04V254H184.372V243.04H186.192ZM194.634 242.84C195.967 242.84 197.047 243.247 197.874 244.06C198.701 244.86 199.114 246.02 199.114 247.54V254H197.314V247.8C197.314 246.707 197.041 245.873 196.494 245.3C195.947 244.713 195.201 244.42 194.254 244.42C193.294 244.42 192.527 244.72 191.954 245.32C191.394 245.92 191.114 246.793 191.114 247.94V254H189.294V243.04H191.114V244.6C191.474 244.04 191.961 243.607 192.574 243.3C193.201 242.993 193.887 242.84 194.634 242.84ZM206.607 242.86C207.554 242.86 208.38 243.067 209.087 243.48C209.807 243.893 210.34 244.413 210.687 245.04V243.04H212.527V254.24C212.527 255.24 212.314 256.127 211.887 256.9C211.46 257.687 210.847 258.3 210.047 258.74C209.26 259.18 208.34 259.4 207.287 259.4C205.847 259.4 204.647 259.06 203.687 258.38C202.727 257.7 202.16 256.773 201.987 255.6H203.787C203.987 256.267 204.4 256.8 205.027 257.2C205.654 257.613 206.407 257.82 207.287 257.82C208.287 257.82 209.1 257.507 209.727 256.88C210.367 256.253 210.687 255.373 210.687 254.24V251.94C210.327 252.58 209.794 253.113 209.087 253.54C208.38 253.967 207.554 254.18 206.607 254.18C205.634 254.18 204.747 253.94 203.947 253.46C203.16 252.98 202.54 252.307 202.087 251.44C201.634 250.573 201.407 249.587 201.407 248.48C201.407 247.36 201.634 246.38 202.087 245.54C202.54 244.687 203.16 244.027 203.947 243.56C204.747 243.093 205.634 242.86 206.607 242.86ZM210.687 248.5C210.687 247.673 210.52 246.953 210.187 246.34C209.854 245.727 209.4 245.26 208.827 244.94C208.267 244.607 207.647 244.44 206.967 244.44C206.287 244.44 205.667 244.6 205.107 244.92C204.547 245.24 204.1 245.707 203.767 246.32C203.434 246.933 203.267 247.653 203.267 248.48C203.267 249.32 203.434 250.053 203.767 250.68C204.1 251.293 204.547 251.767 205.107 252.1C205.667 252.42 206.287 252.58 206.967 252.58C207.647 252.58 208.267 252.42 208.827 252.1C209.4 251.767 209.854 251.293 210.187 250.68C210.52 250.053 210.687 249.327 210.687 248.5ZM223.155 244.54V251C223.155 251.533 223.268 251.913 223.495 252.14C223.721 252.353 224.115 252.46 224.675 252.46H226.015V254H224.375C223.361 254 222.601 253.767 222.095 253.3C221.588 252.833 221.335 252.067 221.335 251V244.54H219.915V243.04H221.335V240.28H223.155V243.04H226.015V244.54H223.155ZM230.04 244.82C230.36 244.193 230.813 243.707 231.4 243.36C232 243.013 232.726 242.84 233.58 242.84V244.72H233.1C231.06 244.72 230.04 245.827 230.04 248.04V254H228.22V243.04H230.04V244.82ZM245.681 248.1C245.681 248.447 245.661 248.813 245.621 249.2H236.861C236.927 250.28 237.294 251.127 237.961 251.74C238.641 252.34 239.461 252.64 240.421 252.64C241.207 252.64 241.861 252.46 242.381 252.1C242.914 251.727 243.287 251.233 243.501 250.62H245.461C245.167 251.673 244.581 252.533 243.701 253.2C242.821 253.853 241.727 254.18 240.421 254.18C239.381 254.18 238.447 253.947 237.621 253.48C236.807 253.013 236.167 252.353 235.701 251.5C235.234 250.633 235.001 249.633 235.001 248.5C235.001 247.367 235.227 246.373 235.681 245.52C236.134 244.667 236.767 244.013 237.581 243.56C238.407 243.093 239.354 242.86 240.421 242.86C241.461 242.86 242.381 243.087 243.181 243.54C243.981 243.993 244.594 244.62 245.021 245.42C245.461 246.207 245.681 247.1 245.681 248.1ZM243.801 247.72C243.801 247.027 243.647 246.433 243.341 245.94C243.034 245.433 242.614 245.053 242.081 244.8C241.561 244.533 240.981 244.4 240.341 244.4C239.421 244.4 238.634 244.693 237.981 245.28C237.341 245.867 236.974 246.68 236.881 247.72H243.801ZM253.423 242.84C254.756 242.84 255.836 243.247 256.663 244.06C257.49 244.86 257.903 246.02 257.903 247.54V254H256.103V247.8C256.103 246.707 255.83 245.873 255.283 245.3C254.736 244.713 253.99 244.42 253.043 244.42C252.083 244.42 251.316 244.72 250.743 245.32C250.183 245.92 249.903 246.793 249.903 247.94V254H248.083V243.04H249.903V244.6C250.263 244.04 250.75 243.607 251.363 243.3C251.99 242.993 252.676 242.84 253.423 242.84ZM260.196 248.48C260.196 247.36 260.423 246.38 260.876 245.54C261.329 244.687 261.949 244.027 262.736 243.56C263.536 243.093 264.429 242.86 265.416 242.86C266.269 242.86 267.063 243.06 267.796 243.46C268.529 243.847 269.089 244.36 269.476 245V239.2H271.316V254H269.476V251.94C269.116 252.593 268.583 253.133 267.876 253.56C267.169 253.973 266.343 254.18 265.396 254.18C264.423 254.18 263.536 253.94 262.736 253.46C261.949 252.98 261.329 252.307 260.876 251.44C260.423 250.573 260.196 249.587 260.196 248.48ZM269.476 248.5C269.476 247.673 269.309 246.953 268.976 246.34C268.643 245.727 268.189 245.26 267.616 244.94C267.056 244.607 266.436 244.44 265.756 244.44C265.076 244.44 264.456 244.6 263.896 244.92C263.336 245.24 262.889 245.707 262.556 246.32C262.223 246.933 262.056 247.653 262.056 248.48C262.056 249.32 262.223 250.053 262.556 250.68C262.889 251.293 263.336 251.767 263.896 252.1C264.456 252.42 265.076 252.58 265.756 252.58C266.436 252.58 267.056 252.42 267.616 252.1C268.189 251.767 268.643 251.293 268.976 250.68C269.309 250.053 269.476 249.327 269.476 248.5ZM278.272 254.18C277.432 254.18 276.678 254.04 276.012 253.76C275.345 253.467 274.818 253.067 274.432 252.56C274.045 252.04 273.832 251.447 273.792 250.78H275.672C275.725 251.327 275.978 251.773 276.432 252.12C276.898 252.467 277.505 252.64 278.252 252.64C278.945 252.64 279.492 252.487 279.892 252.18C280.292 251.873 280.492 251.487 280.492 251.02C280.492 250.54 280.278 250.187 279.852 249.96C279.425 249.72 278.765 249.487 277.872 249.26C277.058 249.047 276.392 248.833 275.872 248.62C275.365 248.393 274.925 248.067 274.552 247.64C274.192 247.2 274.012 246.627 274.012 245.92C274.012 245.36 274.178 244.847 274.512 244.38C274.845 243.913 275.318 243.547 275.932 243.28C276.545 243 277.245 242.86 278.032 242.86C279.245 242.86 280.225 243.167 280.972 243.78C281.718 244.393 282.118 245.233 282.172 246.3H280.352C280.312 245.727 280.078 245.267 279.652 244.92C279.238 244.573 278.678 244.4 277.972 244.4C277.318 244.4 276.798 244.54 276.412 244.82C276.025 245.1 275.832 245.467 275.832 245.92C275.832 246.28 275.945 246.58 276.172 246.82C276.412 247.047 276.705 247.233 277.052 247.38C277.412 247.513 277.905 247.667 278.532 247.84C279.318 248.053 279.958 248.267 280.452 248.48C280.945 248.68 281.365 248.987 281.712 249.4C282.072 249.813 282.258 250.353 282.272 251.02C282.272 251.62 282.105 252.16 281.772 252.64C281.438 253.12 280.965 253.5 280.352 253.78C279.752 254.047 279.058 254.18 278.272 254.18ZM289.493 248.48C289.493 247.36 289.719 246.38 290.173 245.54C290.626 244.687 291.246 244.027 292.033 243.56C292.833 243.093 293.719 242.86 294.693 242.86C295.653 242.86 296.486 243.067 297.193 243.48C297.899 243.893 298.426 244.413 298.773 245.04V243.04H300.613V254H298.773V251.96C298.413 252.6 297.873 253.133 297.153 253.56C296.446 253.973 295.619 254.18 294.673 254.18C293.699 254.18 292.819 253.94 292.033 253.46C291.246 252.98 290.626 252.307 290.173 251.44C289.719 250.573 289.493 249.587 289.493 248.48ZM298.773 248.5C298.773 247.673 298.606 246.953 298.273 246.34C297.939 245.727 297.486 245.26 296.913 244.94C296.353 244.607 295.733 244.44 295.053 244.44C294.373 244.44 293.753 244.6 293.193 244.92C292.633 245.24 292.186 245.707 291.853 246.32C291.519 246.933 291.353 247.653 291.353 248.48C291.353 249.32 291.519 250.053 291.853 250.68C292.186 251.293 292.633 251.767 293.193 252.1C293.753 252.42 294.373 252.58 295.053 252.58C295.733 252.58 296.353 252.42 296.913 252.1C297.486 251.767 297.939 251.293 298.273 250.68C298.606 250.053 298.773 249.327 298.773 248.5ZM309.028 242.84C310.362 242.84 311.442 243.247 312.268 244.06C313.095 244.86 313.508 246.02 313.508 247.54V254H311.708V247.8C311.708 246.707 311.435 245.873 310.888 245.3C310.342 244.713 309.595 244.42 308.648 244.42C307.688 244.42 306.922 244.72 306.348 245.32C305.788 245.92 305.508 246.793 305.508 247.94V254H303.688V243.04H305.508V244.6C305.868 244.04 306.355 243.607 306.968 243.3C307.595 242.993 308.282 242.84 309.028 242.84ZM315.801 248.48C315.801 247.36 316.028 246.38 316.481 245.54C316.935 244.687 317.555 244.027 318.341 243.56C319.141 243.093 320.035 242.86 321.021 242.86C321.875 242.86 322.668 243.06 323.401 243.46C324.135 243.847 324.695 244.36 325.081 245V239.2H326.921V254H325.081V251.94C324.721 252.593 324.188 253.133 323.481 253.56C322.775 253.973 321.948 254.18 321.001 254.18C320.028 254.18 319.141 253.94 318.341 253.46C317.555 252.98 316.935 252.307 316.481 251.44C316.028 250.573 315.801 249.587 315.801 248.48ZM325.081 248.5C325.081 247.673 324.915 246.953 324.581 246.34C324.248 245.727 323.795 245.26 323.221 244.94C322.661 244.607 322.041 244.44 321.361 244.44C320.681 244.44 320.061 244.6 319.501 244.92C318.941 245.24 318.495 245.707 318.161 246.32C317.828 246.933 317.661 247.653 317.661 248.48C317.661 249.32 317.828 250.053 318.161 250.68C318.495 251.293 318.941 251.767 319.501 252.1C320.061 252.42 320.681 252.58 321.361 252.58C322.041 252.58 322.661 252.42 323.221 252.1C323.795 251.767 324.248 251.293 324.581 250.68C324.915 250.053 325.081 249.327 325.081 248.5ZM336.269 241.26C335.922 241.26 335.629 241.14 335.389 240.9C335.149 240.66 335.029 240.367 335.029 240.02C335.029 239.673 335.149 239.38 335.389 239.14C335.629 238.9 335.922 238.78 336.269 238.78C336.602 238.78 336.882 238.9 337.109 239.14C337.349 239.38 337.469 239.673 337.469 240.02C337.469 240.367 337.349 240.66 337.109 240.9C336.882 241.14 336.602 241.26 336.269 241.26ZM337.149 243.04V254H335.329V243.04H337.149ZM345.591 242.84C346.924 242.84 348.004 243.247 348.831 244.06C349.658 244.86 350.071 246.02 350.071 247.54V254H348.271V247.8C348.271 246.707 347.998 245.873 347.451 245.3C346.904 244.713 346.158 244.42 345.211 244.42C344.251 244.42 343.484 244.72 342.911 245.32C342.351 245.92 342.071 246.793 342.071 247.94V254H340.251V243.04H342.071V244.6C342.431 244.04 342.918 243.607 343.531 243.3C344.158 242.993 344.844 242.84 345.591 242.84ZM352.364 248.48C352.364 247.36 352.591 246.38 353.044 245.54C353.497 244.687 354.117 244.027 354.904 243.56C355.704 243.093 356.597 242.86 357.584 242.86C358.437 242.86 359.231 243.06 359.964 243.46C360.697 243.847 361.257 244.36 361.644 245V239.2H363.484V254H361.644V251.94C361.284 252.593 360.751 253.133 360.044 253.56C359.337 253.973 358.511 254.18 357.564 254.18C356.591 254.18 355.704 253.94 354.904 253.46C354.117 252.98 353.497 252.307 353.044 251.44C352.591 250.573 352.364 249.587 352.364 248.48ZM361.644 248.5C361.644 247.673 361.477 246.953 361.144 246.34C360.811 245.727 360.357 245.26 359.784 244.94C359.224 244.607 358.604 244.44 357.924 244.44C357.244 244.44 356.624 244.6 356.064 244.92C355.504 245.24 355.057 245.707 354.724 246.32C354.391 246.933 354.224 247.653 354.224 248.48C354.224 249.32 354.391 250.053 354.724 250.68C355.057 251.293 355.504 251.767 356.064 252.1C356.624 252.42 357.244 252.58 357.924 252.58C358.604 252.58 359.224 252.42 359.784 252.1C360.357 251.767 360.811 251.293 361.144 250.68C361.477 250.053 361.644 249.327 361.644 248.5ZM376.28 243.04V254H374.46V252.38C374.113 252.94 373.626 253.38 373 253.7C372.386 254.007 371.706 254.16 370.96 254.16C370.106 254.16 369.34 253.987 368.66 253.64C367.98 253.28 367.44 252.747 367.04 252.04C366.653 251.333 366.46 250.473 366.46 249.46V243.04H368.26V249.22C368.26 250.3 368.533 251.133 369.08 251.72C369.626 252.293 370.373 252.58 371.32 252.58C372.293 252.58 373.06 252.28 373.62 251.68C374.18 251.08 374.46 250.207 374.46 249.06V243.04H376.28ZM383.233 254.18C382.393 254.18 381.639 254.04 380.973 253.76C380.306 253.467 379.779 253.067 379.393 252.56C379.006 252.04 378.793 251.447 378.753 250.78H380.633C380.686 251.327 380.939 251.773 381.393 252.12C381.859 252.467 382.466 252.64 383.213 252.64C383.906 252.64 384.453 252.487 384.853 252.18C385.253 251.873 385.453 251.487 385.453 251.02C385.453 250.54 385.239 250.187 384.813 249.96C384.386 249.72 383.726 249.487 382.833 249.26C382.019 249.047 381.353 248.833 380.833 248.62C380.326 248.393 379.886 248.067 379.513 247.64C379.153 247.2 378.973 246.627 378.973 245.92C378.973 245.36 379.139 244.847 379.473 244.38C379.806 243.913 380.279 243.547 380.893 243.28C381.506 243 382.206 242.86 382.993 242.86C384.206 242.86 385.186 243.167 385.933 243.78C386.679 244.393 387.079 245.233 387.133 246.3H385.313C385.273 245.727 385.039 245.267 384.613 244.92C384.199 244.573 383.639 244.4 382.933 244.4C382.279 244.4 381.759 244.54 381.373 244.82C380.986 245.1 380.793 245.467 380.793 245.92C380.793 246.28 380.906 246.58 381.133 246.82C381.373 247.047 381.666 247.233 382.013 247.38C382.373 247.513 382.866 247.667 383.493 247.84C384.279 248.053 384.919 248.267 385.413 248.48C385.906 248.68 386.326 248.987 386.673 249.4C387.033 249.813 387.219 250.353 387.233 251.02C387.233 251.62 387.066 252.16 386.733 252.64C386.399 253.12 385.926 253.5 385.313 253.78C384.713 254.047 384.019 254.18 383.233 254.18ZM392.022 244.54V251C392.022 251.533 392.135 251.913 392.362 252.14C392.588 252.353 392.982 252.46 393.542 252.46H394.882V254H393.242C392.228 254 391.468 253.767 390.962 253.3C390.455 252.833 390.202 252.067 390.202 251V244.54H388.782V243.04H390.202V240.28H392.022V243.04H394.882V244.54H392.022ZM398.907 244.82C399.227 244.193 399.68 243.707 400.267 243.36C400.867 243.013 401.594 242.84 402.447 242.84V244.72H401.967C399.927 244.72 398.907 245.827 398.907 248.04V254H397.087V243.04H398.907V244.82ZM413.988 243.04L407.388 259.16H405.508L407.668 253.88L403.248 243.04H405.268L408.708 251.92L412.108 243.04H413.988ZM86.7096 275.08C87.0829 274.427 87.6296 273.893 88.3496 273.48C89.0696 273.067 89.8896 272.86 90.8096 272.86C91.7963 272.86 92.6829 273.093 93.4696 273.56C94.2563 274.027 94.8763 274.687 95.3296 275.54C95.7829 276.38 96.0096 277.36 96.0096 278.48C96.0096 279.587 95.7829 280.573 95.3296 281.44C94.8763 282.307 94.2496 282.98 93.4496 283.46C92.6629 283.94 91.7829 284.18 90.8096 284.18C89.8629 284.18 89.0296 283.973 88.3096 283.56C87.6029 283.147 87.0696 282.62 86.7096 281.98V284H84.8896V269.2H86.7096V275.08ZM94.1496 278.48C94.1496 277.653 93.9829 276.933 93.6496 276.32C93.3163 275.707 92.8629 275.24 92.2896 274.92C91.7296 274.6 91.1096 274.44 90.4296 274.44C89.7629 274.44 89.1429 274.607 88.5696 274.94C88.0096 275.26 87.5563 275.733 87.2096 276.36C86.8763 276.973 86.7096 277.687 86.7096 278.5C86.7096 279.327 86.8763 280.053 87.2096 280.68C87.5563 281.293 88.0096 281.767 88.5696 282.1C89.1429 282.42 89.7629 282.58 90.4296 282.58C91.1096 282.58 91.7296 282.42 92.2896 282.1C92.8629 281.767 93.3163 281.293 93.6496 280.68C93.9829 280.053 94.1496 279.32 94.1496 278.48ZM108.405 278.1C108.405 278.447 108.385 278.813 108.345 279.2H99.5852C99.6519 280.28 100.019 281.127 100.685 281.74C101.365 282.34 102.185 282.64 103.145 282.64C103.932 282.64 104.585 282.46 105.105 282.1C105.639 281.727 106.012 281.233 106.225 280.62H108.185C107.892 281.673 107.305 282.533 106.425 283.2C105.545 283.853 104.452 284.18 103.145 284.18C102.105 284.18 101.172 283.947 100.345 283.48C99.5319 283.013 98.8919 282.353 98.4252 281.5C97.9586 280.633 97.7252 279.633 97.7252 278.5C97.7252 277.367 97.9519 276.373 98.4052 275.52C98.8586 274.667 99.4919 274.013 100.305 273.56C101.132 273.093 102.079 272.86 103.145 272.86C104.185 272.86 105.105 273.087 105.905 273.54C106.705 273.993 107.319 274.62 107.745 275.42C108.185 276.207 108.405 277.1 108.405 278.1ZM106.525 277.72C106.525 277.027 106.372 276.433 106.065 275.94C105.759 275.433 105.339 275.053 104.805 274.8C104.285 274.533 103.705 274.4 103.065 274.4C102.145 274.4 101.359 274.693 100.705 275.28C100.065 275.867 99.6986 276.68 99.6052 277.72H106.525ZM116.148 272.84C117.481 272.84 118.561 273.247 119.388 274.06C120.214 274.86 120.628 276.02 120.628 277.54V284H118.828V277.8C118.828 276.707 118.554 275.873 118.008 275.3C117.461 274.713 116.714 274.42 115.768 274.42C114.808 274.42 114.041 274.72 113.468 275.32C112.908 275.92 112.628 276.793 112.628 277.94V284H110.808V273.04H112.628V274.6C112.988 274.04 113.474 273.607 114.088 273.3C114.714 272.993 115.401 272.84 116.148 272.84ZM122.921 278.5C122.921 277.367 123.147 276.38 123.601 275.54C124.054 274.687 124.681 274.027 125.481 273.56C126.294 273.093 127.221 272.86 128.261 272.86C129.607 272.86 130.714 273.187 131.581 273.84C132.461 274.493 133.041 275.4 133.321 276.56H131.361C131.174 275.893 130.807 275.367 130.261 274.98C129.727 274.593 129.061 274.4 128.261 274.4C127.221 274.4 126.381 274.76 125.741 275.48C125.101 276.187 124.781 277.193 124.781 278.5C124.781 279.82 125.101 280.84 125.741 281.56C126.381 282.28 127.221 282.64 128.261 282.64C129.061 282.64 129.727 282.453 130.261 282.08C130.794 281.707 131.161 281.173 131.361 280.48H133.321C133.027 281.6 132.441 282.5 131.561 283.18C130.681 283.847 129.581 284.18 128.261 284.18C127.221 284.18 126.294 283.947 125.481 283.48C124.681 283.013 124.054 282.353 123.601 281.5C123.147 280.647 122.921 279.647 122.921 278.5ZM141.189 272.84C142.016 272.84 142.762 273.02 143.429 273.38C144.096 273.727 144.616 274.253 144.989 274.96C145.376 275.667 145.569 276.527 145.569 277.54V284H143.769V277.8C143.769 276.707 143.496 275.873 142.949 275.3C142.402 274.713 141.656 274.42 140.709 274.42C139.749 274.42 138.982 274.72 138.409 275.32C137.849 275.92 137.569 276.793 137.569 277.94V284H135.749V269.2H137.569V274.6C137.929 274.04 138.422 273.607 139.049 273.3C139.689 272.993 140.402 272.84 141.189 272.84ZM161.722 272.84C162.575 272.84 163.335 273.02 164.002 273.38C164.669 273.727 165.195 274.253 165.582 274.96C165.969 275.667 166.162 276.527 166.162 277.54V284H164.362V277.8C164.362 276.707 164.089 275.873 163.542 275.3C163.009 274.713 162.282 274.42 161.362 274.42C160.415 274.42 159.662 274.727 159.102 275.34C158.542 275.94 158.262 276.813 158.262 277.96V284H156.462V277.8C156.462 276.707 156.189 275.873 155.642 275.3C155.109 274.713 154.382 274.42 153.462 274.42C152.515 274.42 151.762 274.727 151.202 275.34C150.642 275.94 150.362 276.813 150.362 277.96V284H148.542V273.04H150.362V274.62C150.722 274.047 151.202 273.607 151.802 273.3C152.415 272.993 153.089 272.84 153.822 272.84C154.742 272.84 155.555 273.047 156.262 273.46C156.969 273.873 157.495 274.48 157.842 275.28C158.149 274.507 158.655 273.907 159.362 273.48C160.069 273.053 160.855 272.84 161.722 272.84ZM168.467 278.48C168.467 277.36 168.694 276.38 169.147 275.54C169.601 274.687 170.221 274.027 171.007 273.56C171.807 273.093 172.694 272.86 173.667 272.86C174.627 272.86 175.461 273.067 176.167 273.48C176.874 273.893 177.401 274.413 177.747 275.04V273.04H179.587V284H177.747V281.96C177.387 282.6 176.847 283.133 176.127 283.56C175.421 283.973 174.594 284.18 173.647 284.18C172.674 284.18 171.794 283.94 171.007 283.46C170.221 282.98 169.601 282.307 169.147 281.44C168.694 280.573 168.467 279.587 168.467 278.48ZM177.747 278.5C177.747 277.673 177.581 276.953 177.247 276.34C176.914 275.727 176.461 275.26 175.887 274.94C175.327 274.607 174.707 274.44 174.027 274.44C173.347 274.44 172.727 274.6 172.167 274.92C171.607 275.24 171.161 275.707 170.827 276.32C170.494 276.933 170.327 277.653 170.327 278.48C170.327 279.32 170.494 280.053 170.827 280.68C171.161 281.293 171.607 281.767 172.167 282.1C172.727 282.42 173.347 282.58 174.027 282.58C174.707 282.58 175.327 282.42 175.887 282.1C176.461 281.767 176.914 281.293 177.247 280.68C177.581 280.053 177.747 279.327 177.747 278.5ZM184.483 274.82C184.803 274.193 185.256 273.707 185.843 273.36C186.443 273.013 187.17 272.84 188.023 272.84V274.72H187.543C185.503 274.72 184.483 275.827 184.483 278.04V284H182.663V273.04H184.483V274.82ZM196.244 284L191.944 279.16V284H190.124V269.2H191.944V277.9L196.164 273.04H198.704L193.544 278.5L198.724 284H196.244ZM204.297 284.18C203.457 284.18 202.704 284.04 202.037 283.76C201.37 283.467 200.844 283.067 200.457 282.56C200.07 282.04 199.857 281.447 199.817 280.78H201.697C201.75 281.327 202.004 281.773 202.457 282.12C202.924 282.467 203.53 282.64 204.277 282.64C204.97 282.64 205.517 282.487 205.917 282.18C206.317 281.873 206.517 281.487 206.517 281.02C206.517 280.54 206.304 280.187 205.877 279.96C205.45 279.72 204.79 279.487 203.897 279.26C203.084 279.047 202.417 278.833 201.897 278.62C201.39 278.393 200.95 278.067 200.577 277.64C200.217 277.2 200.037 276.627 200.037 275.92C200.037 275.36 200.204 274.847 200.537 274.38C200.87 273.913 201.344 273.547 201.957 273.28C202.57 273 203.27 272.86 204.057 272.86C205.27 272.86 206.25 273.167 206.997 273.78C207.744 274.393 208.144 275.233 208.197 276.3H206.377C206.337 275.727 206.104 275.267 205.677 274.92C205.264 274.573 204.704 274.4 203.997 274.4C203.344 274.4 202.824 274.54 202.437 274.82C202.05 275.1 201.857 275.467 201.857 275.92C201.857 276.28 201.97 276.58 202.197 276.82C202.437 277.047 202.73 277.233 203.077 277.38C203.437 277.513 203.93 277.667 204.557 277.84C205.344 278.053 205.984 278.267 206.477 278.48C206.97 278.68 207.39 278.987 207.737 279.4C208.097 279.813 208.284 280.353 208.297 281.02C208.297 281.62 208.13 282.16 207.797 282.64C207.464 283.12 206.99 283.5 206.377 283.78C205.777 284.047 205.084 284.18 204.297 284.18ZM211.446 284.12C211.1 284.12 210.806 284 210.566 283.76C210.326 283.52 210.206 283.227 210.206 282.88C210.206 282.533 210.326 282.24 210.566 282C210.806 281.76 211.1 281.64 211.446 281.64C211.78 281.64 212.06 281.76 212.286 282C212.526 282.24 212.646 282.533 212.646 282.88C212.646 283.227 212.526 283.52 212.286 283.76C212.06 284 211.78 284.12 211.446 284.12ZM228.637 280.9H222.557L221.437 284H219.517L224.557 270.14H226.657L231.677 284H229.757L228.637 280.9ZM228.117 279.42L225.597 272.38L223.077 279.42H228.117ZM233.194 278.48C233.194 277.36 233.421 276.38 233.874 275.54C234.327 274.687 234.947 274.027 235.734 273.56C236.534 273.093 237.427 272.86 238.414 272.86C239.267 272.86 240.061 273.06 240.794 273.46C241.527 273.847 242.087 274.36 242.474 275V269.2H244.314V284H242.474V281.94C242.114 282.593 241.581 283.133 240.874 283.56C240.167 283.973 239.341 284.18 238.394 284.18C237.421 284.18 236.534 283.94 235.734 283.46C234.947 282.98 234.327 282.307 233.874 281.44C233.421 280.573 233.194 279.587 233.194 278.48ZM242.474 278.5C242.474 277.673 242.307 276.953 241.974 276.34C241.641 275.727 241.187 275.26 240.614 274.94C240.054 274.607 239.434 274.44 238.754 274.44C238.074 274.44 237.454 274.6 236.894 274.92C236.334 275.24 235.887 275.707 235.554 276.32C235.221 276.933 235.054 277.653 235.054 278.48C235.054 279.32 235.221 280.053 235.554 280.68C235.887 281.293 236.334 281.767 236.894 282.1C237.454 282.42 238.074 282.58 238.754 282.58C239.434 282.58 240.054 282.42 240.614 282.1C241.187 281.767 241.641 281.293 241.974 280.68C242.307 280.053 242.474 279.327 242.474 278.5ZM248.37 271.26C248.023 271.26 247.73 271.14 247.49 270.9C247.263 270.66 247.15 270.367 247.15 270.02C247.15 269.673 247.263 269.38 247.49 269.14C247.73 268.9 248.023 268.78 248.37 268.78C248.716 268.78 249.003 268.9 249.23 269.14C249.47 269.38 249.59 269.673 249.59 270.02C249.59 270.367 249.47 270.66 249.23 270.9C249.003 271.14 248.716 271.26 248.37 271.26ZM249.27 286.38C249.27 287.353 249.023 288.067 248.53 288.52C248.036 288.973 247.316 289.2 246.37 289.2H245.31V287.66H246.07C246.576 287.66 246.93 287.56 247.13 287.36C247.343 287.16 247.45 286.82 247.45 286.34V273.04H249.27V286.38ZM262.071 273.04V284H260.251V282.38C259.904 282.94 259.417 283.38 258.791 283.7C258.177 284.007 257.497 284.16 256.751 284.16C255.897 284.16 255.131 283.987 254.451 283.64C253.771 283.28 253.231 282.747 252.831 282.04C252.444 281.333 252.251 280.473 252.251 279.46V273.04H254.051V279.22C254.051 280.3 254.324 281.133 254.871 281.72C255.417 282.293 256.164 282.58 257.111 282.58C258.084 282.58 258.851 282.28 259.411 281.68C259.971 281.08 260.251 280.207 260.251 279.06V273.04H262.071ZM269.024 284.18C268.184 284.18 267.43 284.04 266.764 283.76C266.097 283.467 265.57 283.067 265.184 282.56C264.797 282.04 264.584 281.447 264.544 280.78H266.424C266.477 281.327 266.73 281.773 267.184 282.12C267.65 282.467 268.257 282.64 269.004 282.64C269.697 282.64 270.244 282.487 270.644 282.18C271.044 281.873 271.244 281.487 271.244 281.02C271.244 280.54 271.03 280.187 270.604 279.96C270.177 279.72 269.517 279.487 268.624 279.26C267.81 279.047 267.144 278.833 266.624 278.62C266.117 278.393 265.677 278.067 265.304 277.64C264.944 277.2 264.764 276.627 264.764 275.92C264.764 275.36 264.93 274.847 265.264 274.38C265.597 273.913 266.07 273.547 266.684 273.28C267.297 273 267.997 272.86 268.784 272.86C269.997 272.86 270.977 273.167 271.724 273.78C272.47 274.393 272.87 275.233 272.924 276.3H271.104C271.064 275.727 270.83 275.267 270.404 274.92C269.99 274.573 269.43 274.4 268.724 274.4C268.07 274.4 267.55 274.54 267.164 274.82C266.777 275.1 266.584 275.467 266.584 275.92C266.584 276.28 266.697 276.58 266.924 276.82C267.164 277.047 267.457 277.233 267.804 277.38C268.164 277.513 268.657 277.667 269.284 277.84C270.07 278.053 270.71 278.267 271.204 278.48C271.697 278.68 272.117 278.987 272.464 279.4C272.824 279.813 273.01 280.353 273.024 281.02C273.024 281.62 272.857 282.16 272.524 282.64C272.19 283.12 271.717 283.5 271.104 283.78C270.504 284.047 269.81 284.18 269.024 284.18ZM277.813 274.54V281C277.813 281.533 277.926 281.913 278.153 282.14C278.379 282.353 278.773 282.46 279.333 282.46H280.673V284H279.033C278.019 284 277.259 283.767 276.753 283.3C276.246 282.833 275.993 282.067 275.993 281V274.54H274.573V273.04H275.993V270.28H277.813V273.04H280.673V274.54H277.813ZM287.53 278.5C287.53 277.367 287.757 276.38 288.21 275.54C288.663 274.687 289.29 274.027 290.09 273.56C290.903 273.093 291.83 272.86 292.87 272.86C294.217 272.86 295.323 273.187 296.19 273.84C297.07 274.493 297.65 275.4 297.93 276.56H295.97C295.783 275.893 295.417 275.367 294.87 274.98C294.337 274.593 293.67 274.4 292.87 274.4C291.83 274.4 290.99 274.76 290.35 275.48C289.71 276.187 289.39 277.193 289.39 278.5C289.39 279.82 289.71 280.84 290.35 281.56C290.99 282.28 291.83 282.64 292.87 282.64C293.67 282.64 294.337 282.453 294.87 282.08C295.403 281.707 295.77 281.173 295.97 280.48H297.93C297.637 281.6 297.05 282.5 296.17 283.18C295.29 283.847 294.19 284.18 292.87 284.18C291.83 284.18 290.903 283.947 290.09 283.48C289.29 283.013 288.663 282.353 288.21 281.5C287.757 280.647 287.53 279.647 287.53 278.5ZM299.678 278.48C299.678 277.36 299.905 276.38 300.358 275.54C300.812 274.687 301.432 274.027 302.218 273.56C303.018 273.093 303.905 272.86 304.878 272.86C305.838 272.86 306.672 273.067 307.378 273.48C308.085 273.893 308.612 274.413 308.958 275.04V273.04H310.798V284H308.958V281.96C308.598 282.6 308.058 283.133 307.338 283.56C306.632 283.973 305.805 284.18 304.858 284.18C303.885 284.18 303.005 283.94 302.218 283.46C301.432 282.98 300.812 282.307 300.358 281.44C299.905 280.573 299.678 279.587 299.678 278.48ZM308.958 278.5C308.958 277.673 308.792 276.953 308.458 276.34C308.125 275.727 307.672 275.26 307.098 274.94C306.538 274.607 305.918 274.44 305.238 274.44C304.558 274.44 303.938 274.6 303.378 274.92C302.818 275.24 302.372 275.707 302.038 276.32C301.705 276.933 301.538 277.653 301.538 278.48C301.538 279.32 301.705 280.053 302.038 280.68C302.372 281.293 302.818 281.767 303.378 282.1C303.938 282.42 304.558 282.58 305.238 282.58C305.918 282.58 306.538 282.42 307.098 282.1C307.672 281.767 308.125 281.293 308.458 280.68C308.792 280.053 308.958 279.327 308.958 278.5ZM327.054 272.84C327.907 272.84 328.667 273.02 329.334 273.38C330.001 273.727 330.527 274.253 330.914 274.96C331.301 275.667 331.494 276.527 331.494 277.54V284H329.694V277.8C329.694 276.707 329.421 275.873 328.874 275.3C328.341 274.713 327.614 274.42 326.694 274.42C325.747 274.42 324.994 274.727 324.434 275.34C323.874 275.94 323.594 276.813 323.594 277.96V284H321.794V277.8C321.794 276.707 321.521 275.873 320.974 275.3C320.441 274.713 319.714 274.42 318.794 274.42C317.847 274.42 317.094 274.727 316.534 275.34C315.974 275.94 315.694 276.813 315.694 277.96V284H313.874V273.04H315.694V274.62C316.054 274.047 316.534 273.607 317.134 273.3C317.747 272.993 318.421 272.84 319.154 272.84C320.074 272.84 320.887 273.047 321.594 273.46C322.301 273.873 322.827 274.48 323.174 275.28C323.481 274.507 323.987 273.907 324.694 273.48C325.401 273.053 326.187 272.84 327.054 272.84ZM336.299 275.06C336.659 274.433 337.193 273.913 337.899 273.5C338.619 273.073 339.453 272.86 340.399 272.86C341.373 272.86 342.253 273.093 343.039 273.56C343.839 274.027 344.466 274.687 344.919 275.54C345.373 276.38 345.599 277.36 345.599 278.48C345.599 279.587 345.373 280.573 344.919 281.44C344.466 282.307 343.839 282.98 343.039 283.46C342.253 283.94 341.373 284.18 340.399 284.18C339.466 284.18 338.639 283.973 337.919 283.56C337.213 283.133 336.673 282.607 336.299 281.98V289.2H334.479V273.04H336.299V275.06ZM343.739 278.48C343.739 277.653 343.573 276.933 343.239 276.32C342.906 275.707 342.453 275.24 341.879 274.92C341.319 274.6 340.699 274.44 340.019 274.44C339.353 274.44 338.733 274.607 338.159 274.94C337.599 275.26 337.146 275.733 336.799 276.36C336.466 276.973 336.299 277.687 336.299 278.5C336.299 279.327 336.466 280.053 336.799 280.68C337.146 281.293 337.599 281.767 338.159 282.1C338.733 282.42 339.353 282.58 340.019 282.58C340.699 282.58 341.319 282.42 341.879 282.1C342.453 281.767 342.906 281.293 343.239 280.68C343.573 280.053 343.739 279.32 343.739 278.48ZM347.315 278.48C347.315 277.36 347.542 276.38 347.995 275.54C348.448 274.687 349.068 274.027 349.855 273.56C350.655 273.093 351.542 272.86 352.515 272.86C353.475 272.86 354.308 273.067 355.015 273.48C355.722 273.893 356.248 274.413 356.595 275.04V273.04H358.435V284H356.595V281.96C356.235 282.6 355.695 283.133 354.975 283.56C354.268 283.973 353.442 284.18 352.495 284.18C351.522 284.18 350.642 283.94 349.855 283.46C349.068 282.98 348.448 282.307 347.995 281.44C347.542 280.573 347.315 279.587 347.315 278.48ZM356.595 278.5C356.595 277.673 356.428 276.953 356.095 276.34C355.762 275.727 355.308 275.26 354.735 274.94C354.175 274.607 353.555 274.44 352.875 274.44C352.195 274.44 351.575 274.6 351.015 274.92C350.455 275.24 350.008 275.707 349.675 276.32C349.342 276.933 349.175 277.653 349.175 278.48C349.175 279.32 349.342 280.053 349.675 280.68C350.008 281.293 350.455 281.767 351.015 282.1C351.575 282.42 352.195 282.58 352.875 282.58C353.555 282.58 354.175 282.42 354.735 282.1C355.308 281.767 355.762 281.293 356.095 280.68C356.428 280.053 356.595 279.327 356.595 278.5ZM362.451 271.26C362.104 271.26 361.811 271.14 361.571 270.9C361.331 270.66 361.211 270.367 361.211 270.02C361.211 269.673 361.331 269.38 361.571 269.14C361.811 268.9 362.104 268.78 362.451 268.78C362.784 268.78 363.064 268.9 363.291 269.14C363.531 269.38 363.651 269.673 363.651 270.02C363.651 270.367 363.531 270.66 363.291 270.9C363.064 271.14 362.784 271.26 362.451 271.26ZM363.331 273.04V284H361.511V273.04H363.331ZM370.953 272.86C371.899 272.86 372.726 273.067 373.433 273.48C374.153 273.893 374.686 274.413 375.033 275.04V273.04H376.873V284.24C376.873 285.24 376.659 286.127 376.233 286.9C375.806 287.687 375.193 288.3 374.393 288.74C373.606 289.18 372.686 289.4 371.633 289.4C370.193 289.4 368.993 289.06 368.033 288.38C367.073 287.7 366.506 286.773 366.333 285.6H368.133C368.333 286.267 368.746 286.8 369.373 287.2C369.999 287.613 370.753 287.82 371.633 287.82C372.633 287.82 373.446 287.507 374.073 286.88C374.713 286.253 375.033 285.373 375.033 284.24V281.94C374.673 282.58 374.139 283.113 373.433 283.54C372.726 283.967 371.899 284.18 370.953 284.18C369.979 284.18 369.093 283.94 368.293 283.46C367.506 282.98 366.886 282.307 366.433 281.44C365.979 280.573 365.753 279.587 365.753 278.48C365.753 277.36 365.979 276.38 366.433 275.54C366.886 274.687 367.506 274.027 368.293 273.56C369.093 273.093 369.979 272.86 370.953 272.86ZM375.033 278.5C375.033 277.673 374.866 276.953 374.533 276.34C374.199 275.727 373.746 275.26 373.173 274.94C372.613 274.607 371.993 274.44 371.313 274.44C370.633 274.44 370.013 274.6 369.453 274.92C368.893 275.24 368.446 275.707 368.113 276.32C367.779 276.933 367.613 277.653 367.613 278.48C367.613 279.32 367.779 280.053 368.113 280.68C368.446 281.293 368.893 281.767 369.453 282.1C370.013 282.42 370.633 282.58 371.313 282.58C371.993 282.58 372.613 282.42 373.173 282.1C373.746 281.767 374.199 281.293 374.533 280.68C374.866 280.053 375.033 279.327 375.033 278.5ZM385.288 272.84C386.622 272.84 387.702 273.247 388.528 274.06C389.355 274.86 389.768 276.02 389.768 277.54V284H387.968V277.8C387.968 276.707 387.695 275.873 387.148 275.3C386.602 274.713 385.855 274.42 384.908 274.42C383.948 274.42 383.182 274.72 382.608 275.32C382.048 275.92 381.768 276.793 381.768 277.94V284H379.948V273.04H381.768V274.6C382.128 274.04 382.615 273.607 383.228 273.3C383.855 272.993 384.542 272.84 385.288 272.84ZM396.621 284.18C395.781 284.18 395.028 284.04 394.361 283.76C393.695 283.467 393.168 283.067 392.781 282.56C392.395 282.04 392.181 281.447 392.141 280.78H394.021C394.075 281.327 394.328 281.773 394.781 282.12C395.248 282.467 395.855 282.64 396.601 282.64C397.295 282.64 397.841 282.487 398.241 282.18C398.641 281.873 398.841 281.487 398.841 281.02C398.841 280.54 398.628 280.187 398.201 279.96C397.775 279.72 397.115 279.487 396.221 279.26C395.408 279.047 394.741 278.833 394.221 278.62C393.715 278.393 393.275 278.067 392.901 277.64C392.541 277.2 392.361 276.627 392.361 275.92C392.361 275.36 392.528 274.847 392.861 274.38C393.195 273.913 393.668 273.547 394.281 273.28C394.895 273 395.595 272.86 396.381 272.86C397.595 272.86 398.575 273.167 399.321 273.78C400.068 274.393 400.468 275.233 400.521 276.3H398.701C398.661 275.727 398.428 275.267 398.001 274.92C397.588 274.573 397.028 274.4 396.321 274.4C395.668 274.4 395.148 274.54 394.761 274.82C394.375 275.1 394.181 275.467 394.181 275.92C394.181 276.28 394.295 276.58 394.521 276.82C394.761 277.047 395.055 277.233 395.401 277.38C395.761 277.513 396.255 277.667 396.881 277.84C397.668 278.053 398.308 278.267 398.801 278.48C399.295 278.68 399.715 278.987 400.061 279.4C400.421 279.813 400.608 280.353 400.621 281.02C400.621 281.62 400.455 282.16 400.121 282.64C399.788 283.12 399.315 283.5 398.701 283.78C398.101 284.047 397.408 284.18 396.621 284.18ZM64.4538 308.48C64.4538 307.36 64.6804 306.38 65.1338 305.54C65.5871 304.687 66.2071 304.027 66.9938 303.56C67.7938 303.093 68.6871 302.86 69.6738 302.86C70.5271 302.86 71.3204 303.06 72.0538 303.46C72.7871 303.847 73.3471 304.36 73.7338 305V299.2H75.5738V314H73.7338V311.94C73.3738 312.593 72.8404 313.133 72.1338 313.56C71.4271 313.973 70.6004 314.18 69.6538 314.18C68.6804 314.18 67.7938 313.94 66.9938 313.46C66.2071 312.98 65.5871 312.307 65.1338 311.44C64.6804 310.573 64.4538 309.587 64.4538 308.48ZM73.7338 308.5C73.7338 307.673 73.5671 306.953 73.2338 306.34C72.9004 305.727 72.4471 305.26 71.8738 304.94C71.3138 304.607 70.6938 304.44 70.0138 304.44C69.3338 304.44 68.7138 304.6 68.1538 304.92C67.5938 305.24 67.1471 305.707 66.8138 306.32C66.4804 306.933 66.3138 307.653 66.3138 308.48C66.3138 309.32 66.4804 310.053 66.8138 310.68C67.1471 311.293 67.5938 311.767 68.1538 312.1C68.7138 312.42 69.3338 312.58 70.0138 312.58C70.6938 312.58 71.3138 312.42 71.8738 312.1C72.4471 311.767 72.9004 311.293 73.2338 310.68C73.5671 310.053 73.7338 309.327 73.7338 308.5ZM88.0894 303.04L81.4894 319.16H79.6094L81.7694 313.88L77.3494 303.04H79.3694L82.8094 311.92L86.2094 303.04H88.0894ZM95.2589 302.84C96.5922 302.84 97.6722 303.247 98.4989 304.06C99.3256 304.86 99.7389 306.02 99.7389 307.54V314H97.9389V307.8C97.9389 306.707 97.6656 305.873 97.1189 305.3C96.5722 304.713 95.8256 304.42 94.8789 304.42C93.9189 304.42 93.1522 304.72 92.5789 305.32C92.0189 305.92 91.7389 306.793 91.7389 307.94V314H89.9189V303.04H91.7389V304.6C92.0989 304.04 92.5856 303.607 93.1989 303.3C93.8256 302.993 94.5122 302.84 95.2589 302.84ZM102.032 308.48C102.032 307.36 102.259 306.38 102.712 305.54C103.165 304.687 103.785 304.027 104.572 303.56C105.372 303.093 106.259 302.86 107.232 302.86C108.192 302.86 109.025 303.067 109.732 303.48C110.439 303.893 110.965 304.413 111.312 305.04V303.04H113.152V314H111.312V311.96C110.952 312.6 110.412 313.133 109.692 313.56C108.985 313.973 108.159 314.18 107.212 314.18C106.239 314.18 105.359 313.94 104.572 313.46C103.785 312.98 103.165 312.307 102.712 311.44C102.259 310.573 102.032 309.587 102.032 308.48ZM111.312 308.5C111.312 307.673 111.145 306.953 110.812 306.34C110.479 305.727 110.025 305.26 109.452 304.94C108.892 304.607 108.272 304.44 107.592 304.44C106.912 304.44 106.292 304.6 105.732 304.92C105.172 305.24 104.725 305.707 104.392 306.32C104.059 306.933 103.892 307.653 103.892 308.48C103.892 309.32 104.059 310.053 104.392 310.68C104.725 311.293 105.172 311.767 105.732 312.1C106.292 312.42 106.912 312.58 107.592 312.58C108.272 312.58 108.892 312.42 109.452 312.1C110.025 311.767 110.479 311.293 110.812 310.68C111.145 310.053 111.312 309.327 111.312 308.5ZM129.408 302.84C130.261 302.84 131.021 303.02 131.688 303.38C132.354 303.727 132.881 304.253 133.268 304.96C133.654 305.667 133.848 306.527 133.848 307.54V314H132.048V307.8C132.048 306.707 131.774 305.873 131.228 305.3C130.694 304.713 129.968 304.42 129.048 304.42C128.101 304.42 127.348 304.727 126.788 305.34C126.228 305.94 125.948 306.813 125.948 307.96V314H124.148V307.8C124.148 306.707 123.874 305.873 123.328 305.3C122.794 304.713 122.068 304.42 121.148 304.42C120.201 304.42 119.448 304.727 118.888 305.34C118.328 305.94 118.048 306.813 118.048 307.96V314H116.228V303.04H118.048V304.62C118.408 304.047 118.888 303.607 119.488 303.3C120.101 302.993 120.774 302.84 121.508 302.84C122.428 302.84 123.241 303.047 123.948 303.46C124.654 303.873 125.181 304.48 125.528 305.28C125.834 304.507 126.341 303.907 127.048 303.48C127.754 303.053 128.541 302.84 129.408 302.84ZM137.773 301.26C137.426 301.26 137.133 301.14 136.893 300.9C136.653 300.66 136.533 300.367 136.533 300.02C136.533 299.673 136.653 299.38 136.893 299.14C137.133 298.9 137.426 298.78 137.773 298.78C138.106 298.78 138.386 298.9 138.613 299.14C138.853 299.38 138.973 299.673 138.973 300.02C138.973 300.367 138.853 300.66 138.613 300.9C138.386 301.14 138.106 301.26 137.773 301.26ZM138.653 303.04V314H136.833V303.04H138.653ZM141.075 308.5C141.075 307.367 141.302 306.38 141.755 305.54C142.208 304.687 142.835 304.027 143.635 303.56C144.448 303.093 145.375 302.86 146.415 302.86C147.762 302.86 148.868 303.187 149.735 303.84C150.615 304.493 151.195 305.4 151.475 306.56H149.515C149.328 305.893 148.962 305.367 148.415 304.98C147.882 304.593 147.215 304.4 146.415 304.4C145.375 304.4 144.535 304.76 143.895 305.48C143.255 306.187 142.935 307.193 142.935 308.5C142.935 309.82 143.255 310.84 143.895 311.56C144.535 312.28 145.375 312.64 146.415 312.64C147.215 312.64 147.882 312.453 148.415 312.08C148.948 311.707 149.315 311.173 149.515 310.48H151.475C151.182 311.6 150.595 312.5 149.715 313.18C148.835 313.847 147.735 314.18 146.415 314.18C145.375 314.18 144.448 313.947 143.635 313.48C142.835 313.013 142.208 312.353 141.755 311.5C141.302 310.647 141.075 309.647 141.075 308.5ZM153.223 308.48C153.223 307.36 153.45 306.38 153.903 305.54C154.357 304.687 154.977 304.027 155.763 303.56C156.563 303.093 157.45 302.86 158.423 302.86C159.383 302.86 160.217 303.067 160.923 303.48C161.63 303.893 162.157 304.413 162.503 305.04V303.04H164.343V314H162.503V311.96C162.143 312.6 161.603 313.133 160.883 313.56C160.177 313.973 159.35 314.18 158.403 314.18C157.43 314.18 156.55 313.94 155.763 313.46C154.977 312.98 154.357 312.307 153.903 311.44C153.45 310.573 153.223 309.587 153.223 308.48ZM162.503 308.5C162.503 307.673 162.337 306.953 162.003 306.34C161.67 305.727 161.217 305.26 160.643 304.94C160.083 304.607 159.463 304.44 158.783 304.44C158.103 304.44 157.483 304.6 156.923 304.92C156.363 305.24 155.917 305.707 155.583 306.32C155.25 306.933 155.083 307.653 155.083 308.48C155.083 309.32 155.25 310.053 155.583 310.68C155.917 311.293 156.363 311.767 156.923 312.1C157.483 312.42 158.103 312.58 158.783 312.58C159.463 312.58 160.083 312.42 160.643 312.1C161.217 311.767 161.67 311.293 162.003 310.68C162.337 310.053 162.503 309.327 162.503 308.5ZM169.239 299.2V314H167.419V299.2H169.239ZM174.161 299.2V314H172.341V299.2H174.161ZM186.703 303.04L180.103 319.16H178.223L180.383 313.88L175.963 303.04H177.983L181.423 311.92L184.823 303.04H186.703ZM198.324 304.54H196.024V314H194.204V304.54H192.784V303.04H194.204V302.26C194.204 301.033 194.518 300.14 195.144 299.58C195.784 299.007 196.804 298.72 198.204 298.72V300.24C197.404 300.24 196.838 300.4 196.504 300.72C196.184 301.027 196.024 301.54 196.024 302.26V303.04H198.324V304.54ZM205.226 314.18C204.2 314.18 203.266 313.947 202.426 313.48C201.6 313.013 200.946 312.353 200.466 311.5C200 310.633 199.766 309.633 199.766 308.5C199.766 307.38 200.006 306.393 200.486 305.54C200.98 304.673 201.646 304.013 202.486 303.56C203.326 303.093 204.266 302.86 205.306 302.86C206.346 302.86 207.286 303.093 208.126 303.56C208.966 304.013 209.626 304.667 210.106 305.52C210.6 306.373 210.846 307.367 210.846 308.5C210.846 309.633 210.593 310.633 210.086 311.5C209.593 312.353 208.92 313.013 208.066 313.48C207.213 313.947 206.266 314.18 205.226 314.18ZM205.226 312.58C205.88 312.58 206.493 312.427 207.066 312.12C207.64 311.813 208.1 311.353 208.446 310.74C208.806 310.127 208.986 309.38 208.986 308.5C208.986 307.62 208.813 306.873 208.466 306.26C208.12 305.647 207.666 305.193 207.106 304.9C206.546 304.593 205.94 304.44 205.286 304.44C204.62 304.44 204.006 304.593 203.446 304.9C202.9 305.193 202.46 305.647 202.126 306.26C201.793 306.873 201.626 307.62 201.626 308.5C201.626 309.393 201.786 310.147 202.106 310.76C202.44 311.373 202.88 311.833 203.426 312.14C203.973 312.433 204.573 312.58 205.226 312.58ZM215.059 304.82C215.379 304.193 215.833 303.707 216.419 303.36C217.019 303.013 217.746 302.84 218.599 302.84V304.72H218.119C216.079 304.72 215.059 305.827 215.059 308.04V314H213.239V303.04H215.059V304.82ZM227.852 305.08C228.226 304.427 228.772 303.893 229.492 303.48C230.212 303.067 231.032 302.86 231.952 302.86C232.939 302.86 233.826 303.093 234.612 303.56C235.399 304.027 236.019 304.687 236.472 305.54C236.926 306.38 237.152 307.36 237.152 308.48C237.152 309.587 236.926 310.573 236.472 311.44C236.019 312.307 235.392 312.98 234.592 313.46C233.806 313.94 232.926 314.18 231.952 314.18C231.006 314.18 230.172 313.973 229.452 313.56C228.746 313.147 228.212 312.62 227.852 311.98V314H226.032V299.2H227.852V305.08ZM235.292 308.48C235.292 307.653 235.126 306.933 234.792 306.32C234.459 305.707 234.006 305.24 233.432 304.92C232.872 304.6 232.252 304.44 231.572 304.44C230.906 304.44 230.286 304.607 229.712 304.94C229.152 305.26 228.699 305.733 228.352 306.36C228.019 306.973 227.852 307.687 227.852 308.5C227.852 309.327 228.019 310.053 228.352 310.68C228.699 311.293 229.152 311.767 229.712 312.1C230.286 312.42 230.906 312.58 231.572 312.58C232.252 312.58 232.872 312.42 233.432 312.1C234.006 311.767 234.459 311.293 234.792 310.68C235.126 310.053 235.292 309.32 235.292 308.48ZM249.548 308.1C249.548 308.447 249.528 308.813 249.488 309.2H240.728C240.794 310.28 241.161 311.127 241.828 311.74C242.508 312.34 243.328 312.64 244.288 312.64C245.074 312.64 245.728 312.46 246.248 312.1C246.781 311.727 247.154 311.233 247.368 310.62H249.328C249.034 311.673 248.448 312.533 247.568 313.2C246.688 313.853 245.594 314.18 244.288 314.18C243.248 314.18 242.314 313.947 241.488 313.48C240.674 313.013 240.034 312.353 239.568 311.5C239.101 310.633 238.868 309.633 238.868 308.5C238.868 307.367 239.094 306.373 239.548 305.52C240.001 304.667 240.634 304.013 241.448 303.56C242.274 303.093 243.221 302.86 244.288 302.86C245.328 302.86 246.248 303.087 247.048 303.54C247.848 303.993 248.461 304.62 248.888 305.42C249.328 306.207 249.548 307.1 249.548 308.1ZM247.668 307.72C247.668 307.027 247.514 306.433 247.208 305.94C246.901 305.433 246.481 305.053 245.948 304.8C245.428 304.533 244.848 304.4 244.208 304.4C243.288 304.4 242.501 304.693 241.848 305.28C241.208 305.867 240.841 306.68 240.748 307.72H247.668ZM254.17 304.54V311C254.17 311.533 254.283 311.913 254.51 312.14C254.737 312.353 255.13 312.46 255.69 312.46H257.03V314H255.39C254.377 314 253.617 313.767 253.11 313.3C252.603 312.833 252.35 312.067 252.35 311V304.54H250.93V303.04H252.35V300.28H254.17V303.04H257.03V304.54H254.17ZM261.455 304.54V311C261.455 311.533 261.569 311.913 261.795 312.14C262.022 312.353 262.415 312.46 262.975 312.46H264.315V314H262.675C261.662 314 260.902 313.767 260.395 313.3C259.889 312.833 259.635 312.067 259.635 311V304.54H258.215V303.04H259.635V300.28H261.455V303.04H264.315V304.54H261.455ZM276.52 308.1C276.52 308.447 276.5 308.813 276.46 309.2H267.7C267.767 310.28 268.134 311.127 268.8 311.74C269.48 312.34 270.3 312.64 271.26 312.64C272.047 312.64 272.7 312.46 273.22 312.1C273.754 311.727 274.127 311.233 274.34 310.62H276.3C276.007 311.673 275.42 312.533 274.54 313.2C273.66 313.853 272.567 314.18 271.26 314.18C270.22 314.18 269.287 313.947 268.46 313.48C267.647 313.013 267.007 312.353 266.54 311.5C266.074 310.633 265.84 309.633 265.84 308.5C265.84 307.367 266.067 306.373 266.52 305.52C266.974 304.667 267.607 304.013 268.42 303.56C269.247 303.093 270.194 302.86 271.26 302.86C272.3 302.86 273.22 303.087 274.02 303.54C274.82 303.993 275.434 304.62 275.86 305.42C276.3 306.207 276.52 307.1 276.52 308.1ZM274.64 307.72C274.64 307.027 274.487 306.433 274.18 305.94C273.874 305.433 273.454 305.053 272.92 304.8C272.4 304.533 271.82 304.4 271.18 304.4C270.26 304.4 269.474 304.693 268.82 305.28C268.18 305.867 267.814 306.68 267.72 307.72H274.64ZM280.743 304.82C281.063 304.193 281.516 303.707 282.103 303.36C282.703 303.013 283.429 302.84 284.283 302.84V304.72H283.803C281.763 304.72 280.743 305.827 280.743 308.04V314H278.923V303.04H280.743V304.82ZM301.716 308.1C301.716 308.447 301.696 308.813 301.656 309.2H292.896C292.962 310.28 293.329 311.127 293.996 311.74C294.676 312.34 295.496 312.64 296.456 312.64C297.242 312.64 297.896 312.46 298.416 312.1C298.949 311.727 299.322 311.233 299.536 310.62H301.496C301.202 311.673 300.616 312.533 299.736 313.2C298.856 313.853 297.762 314.18 296.456 314.18C295.416 314.18 294.482 313.947 293.656 313.48C292.842 313.013 292.202 312.353 291.736 311.5C291.269 310.633 291.036 309.633 291.036 308.5C291.036 307.367 291.262 306.373 291.716 305.52C292.169 304.667 292.802 304.013 293.616 303.56C294.442 303.093 295.389 302.86 296.456 302.86C297.496 302.86 298.416 303.087 299.216 303.54C300.016 303.993 300.629 304.62 301.056 305.42C301.496 306.207 301.716 307.1 301.716 308.1ZM299.836 307.72C299.836 307.027 299.682 306.433 299.376 305.94C299.069 305.433 298.649 305.053 298.116 304.8C297.596 304.533 297.016 304.4 296.376 304.4C295.456 304.4 294.669 304.693 294.016 305.28C293.376 305.867 293.009 306.68 292.916 307.72H299.836ZM309.458 302.84C310.791 302.84 311.871 303.247 312.698 304.06C313.525 304.86 313.938 306.02 313.938 307.54V314H312.138V307.8C312.138 306.707 311.865 305.873 311.318 305.3C310.771 304.713 310.025 304.42 309.078 304.42C308.118 304.42 307.351 304.72 306.778 305.32C306.218 305.92 305.938 306.793 305.938 307.94V314H304.118V303.04H305.938V304.6C306.298 304.04 306.785 303.607 307.398 303.3C308.025 302.993 308.711 302.84 309.458 302.84ZM321.431 302.86C322.378 302.86 323.204 303.067 323.911 303.48C324.631 303.893 325.164 304.413 325.511 305.04V303.04H327.351V314.24C327.351 315.24 327.138 316.127 326.711 316.9C326.284 317.687 325.671 318.3 324.871 318.74C324.084 319.18 323.164 319.4 322.111 319.4C320.671 319.4 319.471 319.06 318.511 318.38C317.551 317.7 316.984 316.773 316.811 315.6H318.611C318.811 316.267 319.224 316.8 319.851 317.2C320.478 317.613 321.231 317.82 322.111 317.82C323.111 317.82 323.924 317.507 324.551 316.88C325.191 316.253 325.511 315.373 325.511 314.24V311.94C325.151 312.58 324.618 313.113 323.911 313.54C323.204 313.967 322.378 314.18 321.431 314.18C320.458 314.18 319.571 313.94 318.771 313.46C317.984 312.98 317.364 312.307 316.911 311.44C316.458 310.573 316.231 309.587 316.231 308.48C316.231 307.36 316.458 306.38 316.911 305.54C317.364 304.687 317.984 304.027 318.771 303.56C319.571 303.093 320.458 302.86 321.431 302.86ZM325.511 308.5C325.511 307.673 325.344 306.953 325.011 306.34C324.678 305.727 324.224 305.26 323.651 304.94C323.091 304.607 322.471 304.44 321.791 304.44C321.111 304.44 320.491 304.6 319.931 304.92C319.371 305.24 318.924 305.707 318.591 306.32C318.258 306.933 318.091 307.653 318.091 308.48C318.091 309.32 318.258 310.053 318.591 310.68C318.924 311.293 319.371 311.767 319.931 312.1C320.491 312.42 321.111 312.58 321.791 312.58C322.471 312.58 323.091 312.42 323.651 312.1C324.224 311.767 324.678 311.293 325.011 310.68C325.344 310.053 325.511 309.327 325.511 308.5ZM329.747 308.48C329.747 307.36 329.973 306.38 330.427 305.54C330.88 304.687 331.5 304.027 332.287 303.56C333.087 303.093 333.973 302.86 334.947 302.86C335.907 302.86 336.74 303.067 337.447 303.48C338.153 303.893 338.68 304.413 339.027 305.04V303.04H340.867V314H339.027V311.96C338.667 312.6 338.127 313.133 337.407 313.56C336.7 313.973 335.873 314.18 334.927 314.18C333.953 314.18 333.073 313.94 332.287 313.46C331.5 312.98 330.88 312.307 330.427 311.44C329.973 310.573 329.747 309.587 329.747 308.48ZM339.027 308.5C339.027 307.673 338.86 306.953 338.527 306.34C338.193 305.727 337.74 305.26 337.167 304.94C336.607 304.607 335.987 304.44 335.307 304.44C334.627 304.44 334.007 304.6 333.447 304.92C332.887 305.24 332.44 305.707 332.107 306.32C331.773 306.933 331.607 307.653 331.607 308.48C331.607 309.32 331.773 310.053 332.107 310.68C332.44 311.293 332.887 311.767 333.447 312.1C334.007 312.42 334.627 312.58 335.307 312.58C335.987 312.58 336.607 312.42 337.167 312.1C337.74 311.767 338.193 311.293 338.527 310.68C338.86 310.053 339.027 309.327 339.027 308.5ZM348.462 302.86C349.409 302.86 350.236 303.067 350.942 303.48C351.662 303.893 352.196 304.413 352.542 305.04V303.04H354.382V314.24C354.382 315.24 354.169 316.127 353.742 316.9C353.316 317.687 352.702 318.3 351.902 318.74C351.116 319.18 350.196 319.4 349.142 319.4C347.702 319.4 346.502 319.06 345.542 318.38C344.582 317.7 344.016 316.773 343.842 315.6H345.642C345.842 316.267 346.256 316.8 346.882 317.2C347.509 317.613 348.262 317.82 349.142 317.82C350.142 317.82 350.956 317.507 351.582 316.88C352.222 316.253 352.542 315.373 352.542 314.24V311.94C352.182 312.58 351.649 313.113 350.942 313.54C350.236 313.967 349.409 314.18 348.462 314.18C347.489 314.18 346.602 313.94 345.802 313.46C345.016 312.98 344.396 312.307 343.942 311.44C343.489 310.573 343.262 309.587 343.262 308.48C343.262 307.36 343.489 306.38 343.942 305.54C344.396 304.687 345.016 304.027 345.802 303.56C346.602 303.093 347.489 302.86 348.462 302.86ZM352.542 308.5C352.542 307.673 352.376 306.953 352.042 306.34C351.709 305.727 351.256 305.26 350.682 304.94C350.122 304.607 349.502 304.44 348.822 304.44C348.142 304.44 347.522 304.6 346.962 304.92C346.402 305.24 345.956 305.707 345.622 306.32C345.289 306.933 345.122 307.653 345.122 308.48C345.122 309.32 345.289 310.053 345.622 310.68C345.956 311.293 346.402 311.767 346.962 312.1C347.522 312.42 348.142 312.58 348.822 312.58C349.502 312.58 350.122 312.42 350.682 312.1C351.256 311.767 351.709 311.293 352.042 310.68C352.376 310.053 352.542 309.327 352.542 308.5ZM367.458 308.1C367.458 308.447 367.438 308.813 367.398 309.2H358.638C358.705 310.28 359.071 311.127 359.738 311.74C360.418 312.34 361.238 312.64 362.198 312.64C362.985 312.64 363.638 312.46 364.158 312.1C364.691 311.727 365.065 311.233 365.278 310.62H367.238C366.945 311.673 366.358 312.533 365.478 313.2C364.598 313.853 363.505 314.18 362.198 314.18C361.158 314.18 360.225 313.947 359.398 313.48C358.585 313.013 357.945 312.353 357.478 311.5C357.011 310.633 356.778 309.633 356.778 308.5C356.778 307.367 357.005 306.373 357.458 305.52C357.911 304.667 358.545 304.013 359.358 303.56C360.185 303.093 361.131 302.86 362.198 302.86C363.238 302.86 364.158 303.087 364.958 303.54C365.758 303.993 366.371 304.62 366.798 305.42C367.238 306.207 367.458 307.1 367.458 308.1ZM365.578 307.72C365.578 307.027 365.425 306.433 365.118 305.94C364.811 305.433 364.391 305.053 363.858 304.8C363.338 304.533 362.758 304.4 362.118 304.4C361.198 304.4 360.411 304.693 359.758 305.28C359.118 305.867 358.751 306.68 358.658 307.72H365.578ZM383.04 302.84C383.894 302.84 384.654 303.02 385.32 303.38C385.987 303.727 386.514 304.253 386.9 304.96C387.287 305.667 387.48 306.527 387.48 307.54V314H385.68V307.8C385.68 306.707 385.407 305.873 384.86 305.3C384.327 304.713 383.6 304.42 382.68 304.42C381.734 304.42 380.98 304.727 380.42 305.34C379.86 305.94 379.58 306.813 379.58 307.96V314H377.78V307.8C377.78 306.707 377.507 305.873 376.96 305.3C376.427 304.713 375.7 304.42 374.78 304.42C373.834 304.42 373.08 304.727 372.52 305.34C371.96 305.94 371.68 306.813 371.68 307.96V314H369.86V303.04H371.68V304.62C372.04 304.047 372.52 303.607 373.12 303.3C373.734 302.993 374.407 302.84 375.14 302.84C376.06 302.84 376.874 303.047 377.58 303.46C378.287 303.873 378.814 304.48 379.16 305.28C379.467 304.507 379.974 303.907 380.68 303.48C381.387 303.053 382.174 302.84 383.04 302.84ZM400.466 308.1C400.466 308.447 400.446 308.813 400.406 309.2H391.646C391.712 310.28 392.079 311.127 392.746 311.74C393.426 312.34 394.246 312.64 395.206 312.64C395.992 312.64 396.646 312.46 397.166 312.1C397.699 311.727 398.072 311.233 398.286 310.62H400.246C399.952 311.673 399.366 312.533 398.486 313.2C397.606 313.853 396.512 314.18 395.206 314.18C394.166 314.18 393.232 313.947 392.406 313.48C391.592 313.013 390.952 312.353 390.486 311.5C390.019 310.633 389.786 309.633 389.786 308.5C389.786 307.367 390.012 306.373 390.466 305.52C390.919 304.667 391.552 304.013 392.366 303.56C393.192 303.093 394.139 302.86 395.206 302.86C396.246 302.86 397.166 303.087 397.966 303.54C398.766 303.993 399.379 304.62 399.806 305.42C400.246 306.207 400.466 307.1 400.466 308.1ZM398.586 307.72C398.586 307.027 398.432 306.433 398.126 305.94C397.819 305.433 397.399 305.053 396.866 304.8C396.346 304.533 395.766 304.4 395.126 304.4C394.206 304.4 393.419 304.693 392.766 305.28C392.126 305.867 391.759 306.68 391.666 307.72H398.586ZM408.208 302.84C409.541 302.84 410.621 303.247 411.448 304.06C412.275 304.86 412.688 306.02 412.688 307.54V314H410.888V307.8C410.888 306.707 410.615 305.873 410.068 305.3C409.521 304.713 408.775 304.42 407.828 304.42C406.868 304.42 406.101 304.72 405.528 305.32C404.968 305.92 404.688 306.793 404.688 307.94V314H402.868V303.04H404.688V304.6C405.048 304.04 405.535 303.607 406.148 303.3C406.775 302.993 407.461 302.84 408.208 302.84ZM417.881 304.54V311C417.881 311.533 417.994 311.913 418.221 312.14C418.448 312.353 418.841 312.46 419.401 312.46H420.741V314H419.101C418.088 314 417.328 313.767 416.821 313.3C416.314 312.833 416.061 312.067 416.061 311V304.54H414.641V303.04H416.061V300.28H417.881V303.04H420.741V304.54H417.881ZM202.276 338.48C202.276 337.36 202.503 336.38 202.956 335.54C203.409 334.687 204.029 334.027 204.816 333.56C205.616 333.093 206.503 332.86 207.476 332.86C208.436 332.86 209.269 333.067 209.976 333.48C210.683 333.893 211.209 334.413 211.556 335.04V333.04H213.396V344H211.556V341.96C211.196 342.6 210.656 343.133 209.936 343.56C209.229 343.973 208.403 344.18 207.456 344.18C206.483 344.18 205.603 343.94 204.816 343.46C204.029 342.98 203.409 342.307 202.956 341.44C202.503 340.573 202.276 339.587 202.276 338.48ZM211.556 338.5C211.556 337.673 211.389 336.953 211.056 336.34C210.723 335.727 210.269 335.26 209.696 334.94C209.136 334.607 208.516 334.44 207.836 334.44C207.156 334.44 206.536 334.6 205.976 334.92C205.416 335.24 204.969 335.707 204.636 336.32C204.303 336.933 204.136 337.653 204.136 338.48C204.136 339.32 204.303 340.053 204.636 340.68C204.969 341.293 205.416 341.767 205.976 342.1C206.536 342.42 207.156 342.58 207.836 342.58C208.516 342.58 209.136 342.42 209.696 342.1C210.269 341.767 210.723 341.293 211.056 340.68C211.389 340.053 211.556 339.327 211.556 338.5ZM221.812 332.84C223.145 332.84 224.225 333.247 225.052 334.06C225.878 334.86 226.292 336.02 226.292 337.54V344H224.492V337.8C224.492 336.707 224.218 335.873 223.672 335.3C223.125 334.713 222.378 334.42 221.432 334.42C220.472 334.42 219.705 334.72 219.132 335.32C218.572 335.92 218.292 336.793 218.292 337.94V344H216.472V333.04H218.292V334.6C218.652 334.04 219.138 333.607 219.752 333.3C220.378 332.993 221.065 332.84 221.812 332.84ZM228.585 338.48C228.585 337.36 228.811 336.38 229.265 335.54C229.718 334.687 230.338 334.027 231.125 333.56C231.925 333.093 232.818 332.86 233.805 332.86C234.658 332.86 235.451 333.06 236.185 333.46C236.918 333.847 237.478 334.36 237.865 335V329.2H239.705V344H237.865V341.94C237.505 342.593 236.971 343.133 236.265 343.56C235.558 343.973 234.731 344.18 233.785 344.18C232.811 344.18 231.925 343.94 231.125 343.46C230.338 342.98 229.718 342.307 229.265 341.44C228.811 340.573 228.585 339.587 228.585 338.48ZM237.865 338.5C237.865 337.673 237.698 336.953 237.365 336.34C237.031 335.727 236.578 335.26 236.005 334.94C235.445 334.607 234.825 334.44 234.145 334.44C233.465 334.44 232.845 334.6 232.285 334.92C231.725 335.24 231.278 335.707 230.945 336.32C230.611 336.933 230.445 337.653 230.445 338.48C230.445 339.32 230.611 340.053 230.945 340.68C231.278 341.293 231.725 341.767 232.285 342.1C232.845 342.42 233.465 342.58 234.145 342.58C234.825 342.58 235.445 342.42 236.005 342.1C236.578 341.767 237.031 341.293 237.365 340.68C237.698 340.053 237.865 339.327 237.865 338.5ZM255.452 344L252.132 338.3H249.932V344H248.112V330.06H252.612C253.666 330.06 254.552 330.24 255.272 330.6C256.006 330.96 256.552 331.447 256.912 332.06C257.272 332.673 257.452 333.373 257.452 334.16C257.452 335.12 257.172 335.967 256.612 336.7C256.066 337.433 255.239 337.92 254.132 338.16L257.632 344H255.452ZM249.932 336.84H252.612C253.599 336.84 254.339 336.6 254.832 336.12C255.326 335.627 255.572 334.973 255.572 334.16C255.572 333.333 255.326 332.693 254.832 332.24C254.352 331.787 253.612 331.56 252.612 331.56H249.932V336.84ZM266.6 344.14C265.307 344.14 264.127 343.84 263.06 343.24C261.994 342.627 261.147 341.78 260.52 340.7C259.907 339.607 259.6 338.38 259.6 337.02C259.6 335.66 259.907 334.44 260.52 333.36C261.147 332.267 261.994 331.42 263.06 330.82C264.127 330.207 265.307 329.9 266.6 329.9C267.907 329.9 269.094 330.207 270.16 330.82C271.227 331.42 272.067 332.26 272.68 333.34C273.294 334.42 273.6 335.647 273.6 337.02C273.6 338.393 273.294 339.62 272.68 340.7C272.067 341.78 271.227 342.627 270.16 343.24C269.094 343.84 267.907 344.14 266.6 344.14ZM266.6 342.56C267.574 342.56 268.447 342.333 269.22 341.88C270.007 341.427 270.62 340.78 271.06 339.94C271.514 339.1 271.74 338.127 271.74 337.02C271.74 335.9 271.514 334.927 271.06 334.1C270.62 333.26 270.014 332.613 269.24 332.16C268.467 331.707 267.587 331.48 266.6 331.48C265.614 331.48 264.734 331.707 263.96 332.16C263.187 332.613 262.574 333.26 262.12 334.1C261.68 334.927 261.46 335.9 261.46 337.02C261.46 338.127 261.68 339.1 262.12 339.94C262.574 340.78 263.187 341.427 263.96 341.88C264.747 342.333 265.627 342.56 266.6 342.56ZM277.823 330.06V344H276.003V330.06H277.823ZM281.505 344.12C281.158 344.12 280.865 344 280.625 343.76C280.385 343.52 280.265 343.227 280.265 342.88C280.265 342.533 280.385 342.24 280.625 342C280.865 341.76 281.158 341.64 281.505 341.64C281.838 341.64 282.118 341.76 282.345 342C282.585 342.24 282.705 342.533 282.705 342.88C282.705 343.227 282.585 343.52 282.345 343.76C282.118 344 281.838 344.12 281.505 344.12Z" fill="black"/>
<circle cx="242.053" cy="70.0006" r="48.3605" fill="white"/>
<path d="M253.113 52.3633H272.281V71.5308" stroke="#2E3192" stroke-width="3" stroke-linecap="round" stroke-linejoin="round"/>
<path d="M272.281 52.3633L245.127 79.5172L229.154 63.5443L208.389 84.3091" stroke="#2E3192" stroke-width="3" stroke-linecap="round" stroke-linejoin="round"/>
</svg>
